<?xml version="1.0" encoding="utf-8"?>
<!-- Generator: Adobe Illustrator 16.0.0, SVG Export Plug-In . SVG Version: 6.00 Build 0)  -->
<!DOCTYPE svg PUBLIC "-//W3C//DTD SVG 1.1//EN" "http://www.w3.org/Graphics/SVG/1.1/DTD/svg11.dtd">
<svg version="1.1" id="Layer_1" xmlns="http://www.w3.org/2000/svg" xmlns:xlink="http://www.w3.org/1999/xlink" x="0px" y="0px"
	 width="417px" height="204px" viewBox="0 0 417 204" enable-background="new 0 0 417 204" xml:space="preserve">
<g>
	<path fill="#232325" d="M159.612,66.479c0,4.45-0.742,8.375-2.225,11.778c-1.485,3.402-3.513,6.281-6.085,8.637
		c-2.574,2.355-5.627,4.122-9.16,5.3s-7.394,1.767-11.582,1.767H89.993V0.785h38.604c4.885,0,9.16,0.654,12.825,1.963
		c3.664,1.309,6.76,3.141,9.291,5.497c2.529,2.355,4.427,5.191,5.693,8.506c1.264,3.317,1.897,6.981,1.897,10.993
		c0,2.617-0.393,4.973-1.178,7.066c-0.785,2.094-1.724,3.906-2.814,5.431c-1.092,1.527-2.225,2.771-3.402,3.729
		c-1.178,0.961-2.116,1.701-2.813,2.225c0.959,0.611,2.094,1.396,3.402,2.355c1.309,0.961,2.572,2.225,3.795,3.795
		c1.221,1.571,2.245,3.491,3.075,5.758C159.197,60.373,159.612,63.164,159.612,66.479z M135.402,28.921
		c0-1.832-0.589-3.554-1.767-5.169c-1.178-1.613-3.337-2.421-6.478-2.421h-14.264v15.18h14.264c3.141,0,5.3-0.805,6.478-2.421
		C134.813,32.477,135.402,30.753,135.402,28.921z M136.711,65.17c0-2.006-0.611-3.86-1.832-5.562
		c-1.223-1.701-3.402-2.552-6.543-2.552h-15.442v16.358h15.442c3.141,0,5.32-0.871,6.543-2.617
		C136.1,69.053,136.711,67.178,136.711,65.17z"/>
	<path fill="#232325" d="M245.982,47.373c0,3.49-0.022,6.916-0.065,10.273c-0.045,3.359-0.35,6.608-0.916,9.749
		c-0.569,3.141-1.505,6.13-2.813,8.964c-1.309,2.836-3.186,5.476-5.627,7.917c-3.402,3.403-7.154,6-11.255,7.787
		c-4.102,1.789-9.029,2.683-14.787,2.683c-5.758,0-10.688-0.894-14.788-2.683c-4.102-1.787-7.852-4.384-11.254-7.787
		c-2.443-2.441-4.318-5.081-5.627-7.917c-1.309-2.834-2.248-5.823-2.814-8.964c-0.568-3.141-0.873-6.39-0.916-9.749
		c-0.045-3.357-0.065-6.783-0.065-10.273c0-3.488,0.021-6.913,0.065-10.272c0.043-3.358,0.348-6.609,0.916-9.75
		c0.566-3.141,1.505-6.128,2.814-8.964c1.309-2.834,3.184-5.474,5.627-7.917c3.402-3.402,7.152-5.997,11.254-7.787
		C199.831,0.896,204.76,0,210.519,0c5.758,0,10.686,0.896,14.787,2.683c4.101,1.79,7.853,4.384,11.255,7.787
		c2.441,2.443,4.318,5.083,5.627,7.917c1.309,2.836,2.244,5.824,2.813,8.964c0.566,3.141,0.871,6.392,0.916,9.75
		C245.96,40.459,245.982,43.884,245.982,47.373z M223.081,47.373c0-4.273-0.088-7.741-0.262-10.403
		c-0.176-2.661-0.393-4.797-0.654-6.413c-0.262-1.613-0.611-2.856-1.047-3.729c-0.438-0.871-0.916-1.656-1.439-2.355
		c-0.873-1.133-2.094-2.094-3.664-2.879s-3.402-1.178-5.496-1.178c-2.095,0-3.927,0.393-5.497,1.178
		c-1.57,0.785-2.793,1.746-3.664,2.879c-0.523,0.699-1.004,1.484-1.439,2.355c-0.438,0.873-0.785,2.116-1.047,3.729
		c-0.262,1.615-0.48,3.752-0.654,6.413c-0.176,2.662-0.262,6.13-0.262,10.403c0,4.275,0.086,7.721,0.262,10.338
		c0.174,2.617,0.393,4.733,0.654,6.347c0.262,1.615,0.609,2.858,1.047,3.729c0.436,0.874,0.916,1.659,1.439,2.356
		c0.871,1.135,2.094,2.116,3.664,2.944c1.57,0.83,3.402,1.243,5.497,1.243c2.094,0,3.926-0.413,5.496-1.243
		c1.57-0.828,2.791-1.81,3.664-2.944c0.523-0.697,1.002-1.482,1.439-2.356c0.436-0.871,0.785-2.114,1.047-3.729
		c0.262-1.613,0.479-3.729,0.654-6.347C222.993,55.094,223.081,51.648,223.081,47.373z"/>
	<path fill="#232325" d="M330.717,75.05c-1.878,4.145-4.43,7.678-7.656,10.6c-3.229,2.924-6.98,5.169-11.254,6.74
		c-4.275,1.57-8.855,2.355-13.74,2.355c-4.8,0-9.337-0.785-13.61-2.355c-4.276-1.57-8.028-3.815-11.255-6.74
		c-3.229-2.922-5.758-6.455-7.59-10.6c-1.832-4.143-2.748-8.746-2.748-13.806V0.785h22.901v59.936c0,4.363,1.09,7.721,3.271,10.077
		c2.18,2.355,5.189,3.533,9.03,3.533c3.838,0,6.891-1.178,9.16-3.533c2.268-2.356,3.402-5.713,3.402-10.077V0.785h22.9v60.459
		C333.529,66.305,332.592,70.908,330.717,75.05z"/>
	<path fill="#232325" d="M393.725,21.2v72.76h-22.9V21.2h-22.901V0.785h68.703V21.2H393.725z"/>
	<path fill="#232325" d="M68.205,183.972c-1.877,4.145-4.429,7.678-7.656,10.6c-3.229,2.925-6.98,5.169-11.254,6.739
		c-4.275,1.57-8.855,2.355-13.74,2.355c-4.799,0-9.336-0.785-13.61-2.355c-4.276-1.57-8.028-3.814-11.254-6.739
		c-3.229-2.922-5.758-6.455-7.59-10.6c-1.832-4.143-2.749-8.745-2.749-13.806v-60.459h22.901v59.936
		c0,4.363,1.09,7.721,3.271,10.076c2.18,2.355,5.189,3.533,9.03,3.533c3.838,0,6.891-1.178,9.16-3.533
		c2.268-2.355,3.402-5.713,3.402-10.076v-59.936h22.901v60.459C71.018,175.227,70.08,179.829,68.205,183.972z"/>
	<path fill="#232325" d="M153.46,174.303c0,4.719-0.961,8.914-2.879,12.584c-1.92,3.671-4.515,6.752-7.786,9.242
		c-3.271,2.491-7.089,4.37-11.451,5.639c-4.363,1.266-8.987,1.898-13.872,1.898c-7.154,0-13.655-0.85-19.499-2.551
		c-5.846-1.701-11.124-4.951-15.834-9.75l14.657-14.656c2.441,2.443,5.582,4.145,9.422,5.104c3.838,0.961,7.633,1.439,11.385,1.439
		c8.899,0,13.348-2.791,13.348-8.375c0-2.355-0.611-4.188-1.832-5.496c-1.309-1.309-3.359-2.137-6.15-2.486l-11.254-1.57
		c-8.29-1.221-14.526-3.969-18.713-8.245c-4.276-4.361-6.413-10.6-6.413-18.714c0-4.273,0.785-8.199,2.355-11.777
		c1.571-3.576,3.816-6.674,6.74-9.291c2.922-2.617,6.478-4.666,10.666-6.15c4.188-1.482,8.941-2.225,14.264-2.225
		c6.717,0,12.628,0.846,17.732,2.535c5.104,1.691,9.662,4.529,13.675,8.514l-14.395,14.338c-1.484-1.482-3.055-2.594-4.711-3.336
		c-1.658-0.74-3.271-1.287-4.842-1.637c-1.57-0.348-3.055-0.523-4.449-0.523c-1.397,0-2.618,0-3.665,0
		c-2.008,0-3.709,0.264-5.104,0.787c-1.396,0.523-2.552,1.201-3.468,2.031s-1.593,1.748-2.028,2.754
		c-0.438,1.006-0.654,2.032-0.654,3.079c0,0.614,0.131,1.313,0.393,2.099c0.262,0.787,0.74,1.529,1.439,2.229
		c0.609,0.613,1.417,1.182,2.421,1.705c1.002,0.523,2.333,0.873,3.991,1.047l11.254,1.574c8.199,1.137,14.307,3.713,18.321,7.733
		c2.529,2.45,4.318,5.378,5.365,8.784C152.937,166.043,153.46,169.933,153.46,174.303z"/>
	<path fill="#232325" d="M44.06,0.785H26.394L0,73.342V93.96h16.448l4.581-13.872h28.659l4.319,13.872h23.948L44.06,0.785z
		 M27.44,60.982l8.375-24.864l7.852,24.864H27.44z"/>
</g>
</svg>
