<?xml version="1.0" encoding="UTF-8"?>
<!DOCTYPE svg PUBLIC "-//W3C//DTD SVG 1.1//EN" "http://www.w3.org/Graphics/SVG/1.1/DTD/svg11.dtd">
<!-- Creator: CorelDRAW -->
<svg xmlns="http://www.w3.org/2000/svg" xml:space="preserve" width="5.5in" height="4.5in" style="shape-rendering:geometricPrecision; text-rendering:geometricPrecision; image-rendering:optimizeQuality; fill-rule:evenodd; clip-rule:evenodd"
viewBox="0 0 5.5 4.5"
 xmlns:xlink="http://www.w3.org/1999/xlink">
 <defs>
  <style type="text/css">
   <![CDATA[
    .str0 {stroke:black;stroke-width:0.00694488}
    .fil1 {fill:black}
    .fil0 {fill:#089146}
   ]]>
  </style>
 </defs>
 <g id="Layer_x0020_1">
  <metadata id="CorelCorpID_0Corel-Layer"/>
  <g id="_336178600">
   <circle id="_333289256" class="fil0" cx="4.60096" cy="3.07461" r="0.0165227"/>
   <circle id="_333289280" class="fil1 str0" cx="5.05533" cy="3.86143" r="0.0112943"/>
   <circle id="_333289472" class="fil1 str0" cx="5.06499" cy="2.68277" r="0.0112943"/>
   <circle id="_336270376" class="fil1 str0" cx="3.89239" cy="2.39547" r="0.0112943"/>
   <circle id="_336271336" class="fil1 str0" cx="3.37902" cy="2.20001" r="0.0112943"/>
   <circle id="_336269992" class="fil1 str0" cx="3.99716" cy="2.80767" r="0.0112943"/>
   <circle id="_336270448" class="fil1 str0" cx="3.47331" cy="3.26424" r="0.0112943"/>
   <circle id="_336270976" class="fil1 str0" cx="2.19431" cy="2.49156" r="0.0112943"/>
   <circle id="_336270208" class="fil1 str0" cx="1.80143" cy="2.08559" r="0.0112943"/>
   <circle id="_336269848" class="fil1 str0" cx="2.64564" cy="1.93285" r="0.0112943"/>
   <circle id="_336270520" class="fil1 str0" cx="2.31561" cy="0.593442" r="0.0112943"/>
   <circle id="_314282800" class="fil1 str0" cx="3.74489" cy="1.10599" r="0.0112943"/>
   <circle id="_314286232" class="fil1 str0" cx="5.25357" cy="1.08504" r="0.0112943"/>
   <circle id="_314282464" class="fil1 str0" cx="4.1273" cy="3.31139" r="0.0112943"/>
   <circle id="_314282416" class="fil1 str0" cx="4.89474" cy="3.33234" r="0.0112943"/>
   <circle id="_314286304" class="fil1 str0" cx="5.39059" cy="2.45228" r="0.0112943"/>
   <circle id="_336177736" class="fil1 str0" cx="4.26351" cy="1.1479" r="0.0112943"/>
   <circle id="_336177448" class="fil1 str0" cx="3.01757" cy="1.20995" r="0.0112943"/>
   <circle id="_336177328" class="fil1 str0" cx="3.81823" cy="0.178788" r="0.0112943"/>
   <circle id="_336176272" class="fil1 str0" cx="1.96021" cy="0.975033" r="0.0112943"/>
   <circle id="_336176824" class="fil1 str0" cx="1.67128" cy="3.51487" r="0.0112943"/>
   <circle id="_336176608" class="fil1 str0" cx="4.8196" cy="0.577725" r="0.0112943"/>
   <circle id="_336176248" class="fil1 str0" cx="4.44767" cy="1.67175" r="0.0112943"/>
   <circle id="_336176392" class="fil1 str0" cx="4.3167" cy="0.225934" r="0.0112943"/>
   <circle id="_336176512" class="fil1 str0" cx="2.97566" cy="0.555137" r="0.0112943"/>
   <circle id="_336179080" class="fil1 str0" cx="2.61863" cy="2.72468" r="0.0112943"/>
   <circle id="_336178648" class="fil1 str0" cx="2.66659" cy="3.71917" r="0.0112943"/>
   <circle id="_336178912" class="fil1 str0" cx="1.29068" cy="2.08296" r="0.0112943"/>
   <circle id="_336177952" class="fil1 str0" cx="0.622773" cy="3.6676" r="0.0112943"/>
   <circle id="_336177520" class="fil1 str0" cx="0.183559" cy="3.25458" r="0.0112943"/>
   <circle id="_336179200" class="fil1 str0" cx="0.825277" cy="2.6898" r="0.0112943"/>
   <circle id="_336179968" class="fil1 str0" cx="0.419289" cy="2.1694" r="0.0112943"/>
   <circle id="_336176176" class="fil1 str0" cx="1.00518" cy="1.20029" r="0.0112943"/>
   <circle id="_336179632" class="fil1 str0" cx="0.114641" cy="1.16886" r="0.0112943"/>
   <circle id="_336177784" class="fil1 str0" cx="0.911705" cy="0.378666" r="0.0112943"/>
   <circle id="_336178432" class="fil1 str0" cx="0.655839" cy="0.126403" r="0.0112943"/>
   <circle id="_336178552" class="fil1 str0" cx="0.655839" cy="0.126403" r="0.0112943"/>
   <circle id="_336178096" class="fil1 str0" cx="0.538961" cy="1.73985" r="0.0112943"/>
  </g>
 </g>
</svg>
