<?xml version="1.0" encoding="utf-8"?>
<!-- Generator: Adobe Illustrator 16.0.0, SVG Export Plug-In . SVG Version: 6.00 Build 0)  -->
<!DOCTYPE svg PUBLIC "-//W3C//DTD SVG 1.1//EN" "http://www.w3.org/Graphics/SVG/1.1/DTD/svg11.dtd">
<svg version="1.1" id="Layer_1" xmlns="http://www.w3.org/2000/svg" xmlns:xlink="http://www.w3.org/1999/xlink" x="0px" y="0px"
	 width="1280.534px" height="1203.74px" viewBox="0 0 1280.534 1203.74" enable-background="new 0 0 1280.534 1203.74"
	 xml:space="preserve">
<g>
	<path fill="#CDCCCD" d="M194.784,119.325c-2.984,6.59-7.042,12.208-12.172,16.854c-5.134,4.648-11.1,8.219-17.894,10.715
		c-6.798,2.497-14.081,3.745-21.848,3.745c-7.63,0-14.844-1.248-21.639-3.745c-6.798-2.496-12.764-6.066-17.894-10.715
		c-5.133-4.646-9.154-10.264-12.067-16.854c-2.913-6.587-4.369-13.904-4.369-21.951V1.248h36.411v95.294
		c0,6.938,1.732,12.275,5.201,16.021c3.466,3.745,8.251,5.617,14.356,5.617c6.103,0,10.956-1.872,14.565-5.617
		c3.604-3.746,5.409-9.084,5.409-16.021V1.248h36.411v96.126C199.257,105.421,197.765,112.738,194.784,119.325z"/>
	<path fill="#CDCCCD" d="M291.219,149.391l-26.216-55.138h-12.275v55.138h-36.412V1.248h58.675c8.183,0,15.43,1.353,21.743,4.058
		c6.31,2.704,11.615,6.277,15.917,10.715c4.298,4.441,7.522,9.503,9.675,15.188c2.148,5.689,3.225,11.584,3.225,17.687
		c0,4.993-0.695,9.57-2.08,13.731c-1.389,4.162-3.226,7.839-5.514,11.028c-2.289,3.192-4.89,5.93-7.803,8.218
		c-2.913,2.289-5.826,4.197-8.739,5.722l32.042,61.796H291.219z M289.139,48.896c0-3.882-1.389-7.351-4.161-10.403
		c-2.776-3.05-6.658-4.578-11.652-4.578h-20.598v29.962h20.598c4.994,0,8.876-1.525,11.652-4.578
		C287.75,56.249,289.139,52.78,289.139,48.896z"/>
	<path fill="#CDCCCD" d="M441.438,33.706v115.685h-36.411V33.706h-36.411V1.248H477.85v32.458H441.438z"/>
	<path fill="#CDCCCD" d="M563.779,149.391V90.716h-38.7v58.675h-36.412V1.248h36.412v57.01h38.7V1.248h36.411v148.143H563.779z"/>
	<path fill="#CDCCCD" d="M727.732,75.319c0,5.55-0.036,10.995-0.104,16.333c-0.071,5.342-0.556,10.508-1.456,15.501
		c-0.904,4.993-2.393,9.747-4.474,14.253c-2.08,4.509-5.064,8.706-8.946,12.588c-5.41,5.409-11.376,9.538-17.894,12.38
		c-6.522,2.845-14.357,4.265-23.512,4.265c-9.155,0-16.993-1.42-23.512-4.265c-6.521-2.842-12.483-6.971-17.894-12.38
		c-3.885-3.882-6.866-8.079-8.946-12.588c-2.081-4.506-3.573-9.26-4.474-14.253c-0.904-4.993-1.389-10.159-1.457-15.501
		c-0.071-5.338-0.104-10.783-0.104-16.333c0-5.546,0.032-10.992,0.104-16.333c0.068-5.338,0.553-10.508,1.457-15.501
		c0.9-4.993,2.393-9.743,4.474-14.253c2.08-4.506,5.062-8.702,8.946-12.588c5.41-5.409,11.372-9.535,17.894-12.38
		C654.354,1.424,662.191,0,671.347,0c9.154,0,16.989,1.424,23.512,4.265c6.518,2.845,12.483,6.971,17.894,12.38
		c3.882,3.886,6.866,8.082,8.946,12.588c2.081,4.51,3.569,9.26,4.474,14.253c0.9,4.993,1.385,10.163,1.456,15.501
		C727.696,64.327,727.732,69.773,727.732,75.319z M691.321,75.319c0-6.795-0.141-12.309-0.417-16.541
		c-0.279-4.229-0.624-7.627-1.04-10.195c-0.416-2.565-0.972-4.542-1.664-5.93c-0.696-1.385-1.457-2.634-2.289-3.745
		c-1.389-1.802-3.329-3.329-5.826-4.578c-2.496-1.248-5.409-1.872-8.738-1.872s-6.242,0.624-8.739,1.872
		c-2.496,1.249-4.44,2.776-5.825,4.578c-0.832,1.111-1.597,2.36-2.289,3.745c-0.695,1.388-1.248,3.364-1.664,5.93
		c-0.416,2.568-0.765,5.966-1.041,10.195c-0.279,4.232-0.416,9.746-0.416,16.541c0,6.798,0.137,12.275,0.416,16.438
		c0.276,4.161,0.625,7.525,1.041,10.091c0.416,2.568,0.969,4.545,1.664,5.93c0.692,1.389,1.457,2.637,2.289,3.745
		c1.385,1.805,3.329,3.365,5.825,4.682c2.497,1.32,5.41,1.977,8.739,1.977s6.242-0.656,8.738-1.977
		c2.497-1.316,4.438-2.877,5.826-4.682c0.832-1.108,1.593-2.356,2.289-3.745c0.692-1.385,1.248-3.361,1.664-5.93
		c0.416-2.565,0.761-5.93,1.04-10.091C691.181,87.595,691.321,82.117,691.321,75.319z"/>
	<path fill="#CDCCCD" d="M847.891,119.325c-2.984,6.59-7.042,12.208-12.172,16.854c-5.134,4.648-11.1,8.219-17.894,10.715
		c-6.798,2.497-14.08,3.745-21.848,3.745c-7.63,0-14.844-1.248-21.639-3.745c-6.798-2.496-12.764-6.066-17.894-10.715
		c-5.133-4.646-9.154-10.264-12.067-16.854c-2.913-6.587-4.369-13.904-4.369-21.951V1.248h36.411v95.294
		c0,6.938,1.732,12.275,5.201,16.021c3.466,3.745,8.251,5.617,14.356,5.617c6.103,0,10.956-1.872,14.565-5.617
		c3.604-3.746,5.409-9.084,5.409-16.021V1.248h36.411v96.126C852.363,105.421,850.871,112.738,847.891,119.325z"/>
	<path fill="#CDCCCD" d="M976.681,100.287c-0.487,4.857-1.284,9.259-2.393,13.212c-1.112,3.953-2.601,7.563-4.474,10.819
		c-1.872,3.261-4.197,6.347-6.97,9.26c-5.55,5.688-11.724,9.954-18.519,12.796c-6.798,2.845-14.636,4.265-23.511,4.265
		c-8.739,0-16.438-1.42-23.096-4.265c-6.658-2.842-12.691-6.971-18.102-12.38c-3.885-3.882-6.866-8.079-8.946-12.588
		c-2.081-4.506-3.573-9.26-4.474-14.253c-0.904-4.993-1.389-10.159-1.457-15.501c-0.071-5.338-0.104-10.783-0.104-16.333
		c0-5.546,0.032-10.992,0.104-16.333c0.068-5.338,0.553-10.508,1.457-15.501c0.9-4.993,2.393-9.743,4.474-14.253
		c2.08-4.506,5.062-8.702,8.946-12.588c5.41-5.409,11.372-9.535,17.894-12.38C904.03,1.424,911.797,0,920.815,0
		c5.27,0,10.02,0.312,14.252,0.936c4.229,0.625,8.115,1.665,11.652,3.121c3.537,1.457,6.898,3.365,10.091,5.722
		c3.189,2.36,6.45,5.202,9.779,8.531l-24.76,24.76c-3.469-3.605-6.658-6.274-9.571-8.011c-2.913-1.732-6.729-2.601-11.443-2.601
		c-3.329,0-6.21,0.624-8.635,1.872c-2.429,1.249-4.337,2.776-5.722,4.578c-0.832,1.111-1.597,2.36-2.289,3.745
		c-0.695,1.388-1.248,3.364-1.664,5.93c-0.416,2.568-0.765,5.966-1.041,10.195c-0.279,4.232-0.416,9.746-0.416,16.541
		c0,6.798,0.137,12.312,0.416,16.541c0.276,4.233,0.625,7.666,1.041,10.3c0.416,2.636,0.969,4.648,1.664,6.033
		c0.692,1.389,1.457,2.637,2.289,3.745c1.385,1.805,3.293,3.297,5.722,4.474c2.425,1.181,5.306,1.769,8.635,1.769
		c3.882,0,6.935-0.52,9.154-1.561c2.218-1.04,4.162-2.461,5.826-4.265c1.941-1.941,3.329-4.507,4.161-7.699
		c0.832-3.188,1.249-6.033,1.249-8.53v-1.665h-20.391V64.084h56.594v19.974C977.409,90.023,977.165,95.434,976.681,100.287z"/>
	<path fill="#CDCCCD" d="M1065.836,149.391V90.716h-38.7v58.675h-36.412V1.248h36.412v57.01h38.7V1.248h36.411v148.143H1065.836z"/>
	<path fill="#CDCCCD" d="M1185.888,33.706v115.685h-36.411V33.706h-36.411V1.248H1222.3v32.458H1185.888z"/>
	<path fill="#CDCCCD" d="M158.058,359.824l-24.344-45.566l-24.344,45.566H67.757l46.19-75.944L70.67,211.682h41.405l21.639,41.821
		l21.639-41.821h41.405l-43.278,72.198l46.19,75.944H158.058z"/>
	<path fill="#CDCCCD" d="M313.479,259.329c0,6.104-1.076,11.999-3.225,17.686c-2.152,5.688-5.377,10.751-9.675,15.188
		c-4.302,4.44-9.607,8.011-15.917,10.715c-6.313,2.705-13.561,4.058-21.743,4.058h-22.263v52.849h-36.412V211.682h58.675
		c8.183,0,15.43,1.353,21.743,4.058c6.31,2.704,11.615,6.277,15.917,10.715c4.298,4.441,7.522,9.503,9.675,15.188
		C312.403,247.332,313.479,253.227,313.479,259.329z M277.068,259.329c0-3.882-1.389-7.351-4.161-10.403
		c-2.776-3.05-6.658-4.578-11.652-4.578h-20.598v29.962h20.598c4.994,0,8.876-1.525,11.652-4.578
		C275.68,266.683,277.068,263.214,277.068,259.329z"/>
	<path fill="#CDCCCD" d="M324.299,359.824V211.682h100.704v32.458h-64.292v24.76h54.929v32.458h-54.929v26.009h64.292v32.458
		H324.299z"/>
	<path fill="#CDCCCD" d="M515.3,359.824l-26.216-55.138h-12.275v55.138h-36.412V211.682h58.675c8.183,0,15.43,1.353,21.743,4.058
		c6.31,2.704,11.615,6.277,15.917,10.715c4.298,4.441,7.522,9.503,9.675,15.188c2.148,5.689,3.225,11.584,3.225,17.687
		c0,4.993-0.695,9.57-2.08,13.731c-1.389,4.162-3.226,7.839-5.514,11.028c-2.289,3.192-4.89,5.93-7.803,8.218
		c-2.913,2.289-5.826,4.197-8.739,5.722l32.042,61.796H515.3z M513.22,259.329c0-3.882-1.389-7.351-4.161-10.403
		c-2.776-3.05-6.658-4.578-11.652-4.578h-20.598v29.962h20.598c4.994,0,8.876-1.525,11.652-4.578
		C511.831,266.683,513.22,263.214,513.22,259.329z"/>
	<path fill="#CDCCCD" d="M565.65,359.824V211.682h36.412v148.143H565.65z"/>
	<path fill="#CDCCCD" d="M621.616,359.824V211.682H722.32v32.458h-64.292v24.76h54.929v32.458h-54.929v26.009h64.292v32.458H621.616
		z"/>
	<path fill="#CDCCCD" d="M821.564,359.824l-47.438-74.487v74.487h-36.412V211.682h31.834l47.439,74.487v-74.487h36.411v148.143
		H821.564z"/>
	<path fill="#CDCCCD" d="M957.431,351.397c-2.776,2.013-5.793,3.745-9.051,5.202c-3.261,1.456-6.866,2.568-10.819,3.329
		s-8.358,1.144-13.212,1.144c-8.739,0-16.438-1.42-23.096-4.265c-6.658-2.842-12.691-6.971-18.102-12.38
		c-3.885-3.882-6.866-8.079-8.946-12.588c-2.081-4.506-3.573-9.26-4.474-14.253c-0.904-4.993-1.389-10.159-1.457-15.501
		c-0.071-5.338-0.104-10.783-0.104-16.333c0-5.546,0.032-10.992,0.104-16.333c0.068-5.338,0.553-10.508,1.457-15.501
		c0.9-4.993,2.393-9.743,4.474-14.253c2.08-4.506,5.062-8.702,8.946-12.588c5.41-5.409,11.443-9.535,18.102-12.38
		c6.658-2.841,14.356-4.265,23.096-4.265c4.854,0,9.259,0.383,13.212,1.144c3.953,0.765,7.559,1.873,10.819,3.329
		c3.258,1.457,6.274,3.193,9.051,5.202c2.773,2.013,5.41,4.266,7.906,6.762l-24.135,24.136c-2.36-2.356-4.718-4.298-7.074-5.826
		c-2.36-1.524-5.618-2.288-9.779-2.288c-3.329,0-6.174,0.592-8.531,1.769c-2.359,1.18-4.232,2.672-5.617,4.474
		c-0.832,1.111-1.597,2.36-2.289,3.745c-0.695,1.388-1.284,3.4-1.769,6.033c-0.487,2.637-0.868,6.07-1.145,10.3
		c-0.279,4.232-0.416,9.746-0.416,16.541c0,6.798,0.137,12.312,0.416,16.541c0.276,4.233,0.657,7.666,1.145,10.3
		c0.484,2.636,1.073,4.648,1.769,6.033c0.692,1.389,1.457,2.637,2.289,3.745c1.385,1.805,3.258,3.297,5.617,4.474
		c2.357,1.181,5.202,1.769,8.531,1.769c4.161,0,7.419-0.761,9.779-2.288c2.356-1.525,4.714-3.466,7.074-5.826l24.135,24.136
		C962.841,347.132,960.204,349.389,957.431,351.397z"/>
	<path fill="#CDCCCD" d="M976.364,359.824V211.682h100.704v32.458h-64.292v24.76h54.929v32.458h-54.929v26.009h64.292v32.458
		H976.364z"/>
	<path fill="#CDCCCD" d="M1191.917,314.385c0,7.503-1.527,14.175-4.577,20.01c-3.053,5.836-7.178,10.735-12.38,14.694
		c-5.201,3.96-11.271,6.948-18.206,8.964c-6.938,2.012-14.288,3.02-22.055,3.02c-11.375,0-21.71-1.353-31.002-4.057
		c-9.294-2.705-17.686-7.871-25.176-15.501l23.304-23.304c3.882,3.885,8.875,6.59,14.98,8.115
		c6.103,1.527,12.136,2.288,18.102,2.288c14.148,0,21.223-4.438,21.223-13.316c0-3.745-0.972-6.658-2.913-8.738
		c-2.08-2.081-5.341-3.397-9.778-3.953l-17.894-2.497c-13.18-1.94-23.096-6.311-29.754-13.108
		c-6.798-6.935-10.195-16.853-10.195-29.753c0-6.795,1.249-13.037,3.745-18.726c2.497-5.687,6.066-10.611,10.716-14.773
		c4.646-4.161,10.299-7.418,16.957-9.778c6.658-2.357,14.217-3.537,22.68-3.537c10.68,0,20.078,1.346,28.192,4.031
		c8.114,2.688,15.361,7.201,21.743,13.537l-22.888,22.796c-2.36-2.356-4.856-4.125-7.49-5.306c-2.637-1.177-5.201-2.045-7.698-2.601
		c-2.497-0.553-4.857-0.832-7.074-0.832c-2.221,0-4.161,0-5.826,0c-3.192,0-5.897,0.419-8.114,1.251
		c-2.221,0.833-4.058,1.908-5.514,3.229s-2.532,2.779-3.225,4.379c-0.696,1.6-1.041,3.231-1.041,4.896
		c0,0.976,0.208,2.087,0.624,3.335c0.417,1.252,1.178,2.433,2.289,3.544c0.969,0.976,2.253,1.879,3.85,2.711
		c1.593,0.833,3.709,1.389,6.346,1.665l17.894,2.503c13.037,1.808,22.747,5.904,29.129,12.296c4.021,3.895,6.866,8.55,8.531,13.966
		C1191.085,301.254,1191.917,307.438,1191.917,314.385z"/>
	<path fill="#CDCCCD" d="M175.954,570.258l-47.438-74.487v74.487H92.104V422.115h31.834l47.439,74.487v-74.487h36.411v148.143
		H175.954z"/>
	<path fill="#CDCCCD" d="M337.62,496.187c0,5.826,0,11.411,0,16.749c0,5.342-0.417,10.439-1.249,15.293
		c-0.832,4.857-2.324,9.571-4.474,14.148c-2.151,4.577-5.377,9.019-9.675,13.316c-5.133,5.133-11.132,8.843-17.997,11.132
		c-6.866,2.288-14.185,3.433-21.951,3.433h-54.93V422.115h54.93c7.767,0,15.085,1.145,21.951,3.433
		c6.865,2.289,12.864,6.002,17.997,11.132c4.298,4.301,7.523,8.739,9.675,13.316c2.149,4.577,3.642,9.295,4.474,14.148
		c0.832,4.857,1.249,9.954,1.249,15.293C337.62,484.778,337.62,490.36,337.62,496.187z M301.208,496.187
		c0-6.242-0.071-11.304-0.208-15.188c-0.14-3.882-0.348-6.971-0.624-9.259c-0.279-2.289-0.695-4.09-1.248-5.41
		c-0.557-1.316-1.181-2.461-1.873-3.433c-1.664-2.497-3.85-4.506-6.554-6.034c-2.705-1.524-6.347-2.289-10.924-2.289h-16.021V537.8
		h16.021c4.577,0,8.219-0.761,10.924-2.289c2.704-1.524,4.89-3.537,6.554-6.034c0.692-1.108,1.316-2.253,1.873-3.433
		c0.553-1.177,0.969-2.945,1.248-5.306c0.276-2.357,0.484-5.478,0.624-9.363C301.137,507.493,301.208,502.429,301.208,496.187z"/>
	<path fill="#CDCCCD" d="M388.173,570.258V422.115h36.412v148.143H388.173z"/>
	<path fill="#CDCCCD" d="M554.415,496.187c0,5.826,0,11.411,0,16.749c0,5.342-0.417,10.439-1.249,15.293
		c-0.832,4.857-2.324,9.571-4.474,14.148c-2.151,4.577-5.377,9.019-9.675,13.316c-5.133,5.133-11.132,8.843-17.997,11.132
		c-6.866,2.288-14.185,3.433-21.951,3.433h-54.93V422.115h54.93c7.767,0,15.085,1.145,21.951,3.433
		c6.865,2.289,12.864,6.002,17.997,11.132c4.298,4.301,7.523,8.739,9.675,13.316c2.149,4.577,3.642,9.295,4.474,14.148
		c0.832,4.857,1.249,9.954,1.249,15.293C554.415,484.778,554.415,490.36,554.415,496.187z M518.003,496.187
		c0-6.242-0.071-11.304-0.208-15.188c-0.14-3.882-0.348-6.971-0.624-9.259c-0.279-2.289-0.695-4.09-1.248-5.41
		c-0.557-1.316-1.181-2.461-1.873-3.433c-1.664-2.497-3.85-4.506-6.554-6.034c-2.705-1.524-6.347-2.289-10.924-2.289h-16.021V537.8
		h16.021c4.577,0,8.219-0.761,10.924-2.289c2.704-1.524,4.89-3.537,6.554-6.034c0.692-1.108,1.316-2.253,1.873-3.433
		c0.553-1.177,0.969-2.945,1.248-5.306c0.276-2.357,0.484-5.478,0.624-9.363C517.932,507.493,518.003,502.429,518.003,496.187z"/>
	<path fill="#CDCCCD" d="M569.185,570.258V422.115h100.704v32.458h-64.292v24.76h54.929v32.458h-54.929V537.8h64.292v32.458H569.185
		z"/>
	<path fill="#CDCCCD" d="M768.093,570.258l-6.866-22.055H715.66l-7.282,22.055h-38.076l53.889-148.143h28.089l53.89,148.143H768.093
		z M739.172,478.293l-13.316,39.532h25.8L739.172,478.293z"/>
	<path fill="#CDCCCD" d="M910.2,524.818c0,7.503-1.527,14.175-4.577,20.01c-3.053,5.836-7.178,10.735-12.38,14.694
		c-5.201,3.96-11.271,6.948-18.206,8.964c-6.938,2.012-14.288,3.02-22.055,3.02c-11.375,0-21.71-1.353-31.002-4.057
		c-9.294-2.705-17.686-7.871-25.176-15.501l23.304-23.304c3.882,3.885,8.875,6.59,14.98,8.115
		c6.103,1.527,12.136,2.288,18.102,2.288c14.148,0,21.223-4.438,21.223-13.316c0-3.745-0.972-6.658-2.913-8.738
		c-2.08-2.081-5.341-3.397-9.778-3.953l-17.894-2.497c-13.18-1.94-23.096-6.311-29.754-13.108
		c-6.798-6.935-10.195-16.853-10.195-29.753c0-6.795,1.249-13.037,3.745-18.726c2.497-5.687,6.066-10.611,10.716-14.773
		c4.646-4.161,10.299-7.418,16.957-9.778c6.658-2.357,14.217-3.537,22.68-3.537c10.68,0,20.078,1.346,28.192,4.031
		c8.114,2.688,15.361,7.201,21.743,13.537l-22.888,22.796c-2.36-2.356-4.856-4.125-7.49-5.306c-2.637-1.177-5.201-2.045-7.698-2.601
		c-2.497-0.553-4.857-0.832-7.074-0.832c-2.221,0-4.161,0-5.826,0c-3.192,0-5.897,0.419-8.114,1.251
		c-2.221,0.833-4.058,1.908-5.514,3.229s-2.532,2.779-3.225,4.379c-0.696,1.6-1.041,3.231-1.041,4.896
		c0,0.976,0.208,2.087,0.624,3.335c0.417,1.252,1.178,2.433,2.289,3.544c0.969,0.976,2.253,1.879,3.85,2.711
		c1.593,0.833,3.709,1.389,6.346,1.665l17.894,2.503c13.037,1.808,22.747,5.904,29.129,12.296c4.021,3.895,6.866,8.55,8.531,13.966
		C909.368,511.688,910.2,517.871,910.2,524.818z"/>
	<path fill="#CDCCCD" d="M959.506,570.258V422.115h36.412v148.143H959.506z"/>
	<path fill="#CDCCCD" d="M1099.323,570.258l-47.438-74.487v74.487h-36.412V422.115h31.834l47.439,74.487v-74.487h36.411v148.143
		H1099.323z"/>
	<path fill="#CDCCCD" d="M260.841,780.692h-29.753l-23.928-73.031l-23.928,73.031h-29.545L112.906,632.55h38.076l19.35,78.232
		l23.928-78.232h25.8l23.928,78.232l19.351-78.232h38.075L260.841,780.692z"/>
	<path fill="#CDCCCD" d="M411.896,706.621c0,5.55-0.036,10.995-0.104,16.333c-0.071,5.342-0.556,10.508-1.456,15.501
		c-0.904,4.993-2.393,9.747-4.474,14.253c-2.08,4.509-5.065,8.706-8.946,12.588c-5.41,5.409-11.376,9.538-17.894,12.38
		c-6.522,2.845-14.357,4.265-23.512,4.265c-9.155,0-16.993-1.42-23.512-4.265c-6.521-2.842-12.483-6.971-17.894-12.38
		c-3.885-3.882-6.866-8.079-8.946-12.588c-2.081-4.506-3.573-9.26-4.474-14.253c-0.904-4.993-1.389-10.159-1.457-15.501
		c-0.071-5.338-0.104-10.783-0.104-16.333c0-5.546,0.032-10.992,0.104-16.333c0.068-5.338,0.553-10.508,1.457-15.501
		c0.9-4.993,2.393-9.743,4.474-14.253c2.08-4.506,5.062-8.702,8.946-12.588c5.41-5.409,11.372-9.535,17.894-12.38
		c6.519-2.841,14.356-4.265,23.512-4.265c9.154,0,16.989,1.424,23.512,4.265c6.518,2.845,12.483,6.971,17.894,12.38
		c3.881,3.886,6.866,8.082,8.946,12.588c2.081,4.51,3.569,9.26,4.474,14.253c0.9,4.993,1.385,10.163,1.456,15.501
		C411.859,695.629,411.896,701.075,411.896,706.621z M375.484,706.621c0-6.795-0.141-12.309-0.417-16.541
		c-0.279-4.229-0.624-7.627-1.04-10.195c-0.416-2.565-0.972-4.542-1.664-5.93c-0.696-1.385-1.457-2.634-2.289-3.745
		c-1.388-1.802-3.329-3.329-5.826-4.578c-2.496-1.248-5.409-1.872-8.738-1.872s-6.242,0.624-8.739,1.872
		c-2.496,1.249-4.44,2.776-5.825,4.578c-0.832,1.111-1.597,2.36-2.289,3.745c-0.695,1.388-1.248,3.364-1.664,5.93
		c-0.416,2.568-0.765,5.966-1.041,10.195c-0.279,4.232-0.416,9.746-0.416,16.541c0,6.798,0.137,12.275,0.416,16.438
		c0.276,4.161,0.625,7.525,1.041,10.091c0.416,2.568,0.969,4.545,1.664,5.93c0.692,1.389,1.457,2.637,2.289,3.745
		c1.385,1.805,3.329,3.365,5.825,4.682c2.497,1.32,5.41,1.977,8.739,1.977s6.242-0.656,8.738-1.977
		c2.497-1.316,4.438-2.877,5.826-4.682c0.832-1.108,1.593-2.356,2.289-3.745c0.692-1.385,1.248-3.361,1.664-5.93
		c0.416-2.565,0.761-5.93,1.04-10.091C375.344,718.896,375.484,713.419,375.484,706.621z"/>
	<path fill="#CDCCCD" d="M501.571,780.692l-26.216-55.138H463.08v55.138h-36.412V632.55h58.675c8.183,0,15.43,1.353,21.743,4.058
		c6.31,2.704,11.615,6.277,15.917,10.715c4.298,4.441,7.522,9.503,9.675,15.188c2.148,5.689,3.225,11.584,3.225,17.687
		c0,4.993-0.695,9.57-2.08,13.731c-1.389,4.162-3.226,7.839-5.514,11.028c-2.289,3.192-4.89,5.93-7.803,8.218
		c-2.913,2.289-5.826,4.197-8.739,5.722l32.042,61.796H501.571z M499.491,680.197c0-3.882-1.389-7.351-4.161-10.403
		c-2.776-3.05-6.658-4.578-11.652-4.578H463.08v29.962h20.598c4.994,0,8.876-1.525,11.652-4.578
		C498.103,687.551,499.491,684.082,499.491,680.197z"/>
	<path fill="#CDCCCD" d="M551.922,780.692V632.55h36.412v115.685h62.211v32.458H551.922z"/>
	<path fill="#CDCCCD" d="M771.638,706.621c0,5.826,0,11.411,0,16.749c0,5.342-0.417,10.439-1.249,15.293
		c-0.832,4.857-2.324,9.571-4.474,14.148c-2.151,4.577-5.377,9.019-9.675,13.316c-5.133,5.133-11.132,8.843-17.997,11.132
		c-6.866,2.288-14.185,3.433-21.951,3.433h-54.93V632.55h54.93c7.767,0,15.085,1.145,21.951,3.433
		c6.865,2.289,12.864,6.002,17.997,11.132c4.298,4.301,7.523,8.739,9.675,13.316c2.149,4.577,3.642,9.295,4.474,14.148
		c0.832,4.857,1.249,9.954,1.249,15.293C771.638,695.213,771.638,700.795,771.638,706.621z M735.226,706.621
		c0-6.242-0.071-11.304-0.208-15.188c-0.14-3.882-0.348-6.971-0.624-9.259c-0.279-2.289-0.695-4.09-1.248-5.41
		c-0.557-1.316-1.181-2.461-1.873-3.433c-1.664-2.497-3.85-4.507-6.554-6.034c-2.705-1.524-6.347-2.289-10.924-2.289h-16.021v83.227
		h16.021c4.577,0,8.219-0.761,10.924-2.289c2.704-1.524,4.89-3.537,6.554-6.034c0.692-1.108,1.316-2.253,1.873-3.433
		c0.553-1.177,0.969-2.945,1.248-5.306c0.276-2.357,0.484-5.478,0.624-9.363C735.154,717.928,735.226,712.863,735.226,706.621z"/>
	<path fill="#CDCCCD" d="M125.811,875.441v26.009h54.929v32.458h-54.929v57.218H89.398V842.983h100.704v32.458H125.811z"/>
	<path fill="#CDCCCD" d="M323.259,982.699c-2.776,2.013-5.793,3.745-9.051,5.202c-3.261,1.456-6.866,2.568-10.819,3.329
		s-8.358,1.144-13.212,1.144c-8.739,0-16.438-1.42-23.096-4.265c-6.658-2.842-12.691-6.971-18.102-12.38
		c-3.885-3.882-6.866-8.079-8.946-12.588c-2.081-4.506-3.573-9.26-4.474-14.253c-0.904-4.993-1.389-10.159-1.457-15.501
		c-0.071-5.338-0.104-10.783-0.104-16.333c0-5.546,0.032-10.992,0.104-16.333c0.068-5.338,0.553-10.508,1.457-15.501
		c0.9-4.993,2.393-9.743,4.474-14.253c2.08-4.506,5.062-8.702,8.946-12.588c5.41-5.409,11.443-9.535,18.102-12.38
		c6.658-2.841,14.356-4.265,23.096-4.265c4.854,0,9.259,0.383,13.212,1.144c3.953,0.765,7.559,1.873,10.819,3.329
		c3.258,1.457,6.274,3.193,9.051,5.202c2.773,2.013,5.41,4.266,7.906,6.762l-24.135,24.136c-2.36-2.356-4.718-4.298-7.074-5.825
		c-2.36-1.525-5.618-2.289-9.779-2.289c-3.329,0-6.174,0.592-8.531,1.769c-2.359,1.18-4.232,2.672-5.617,4.474
		c-0.832,1.111-1.597,2.36-2.289,3.745c-0.695,1.388-1.284,3.4-1.769,6.033c-0.487,2.637-0.868,6.07-1.145,10.3
		c-0.279,4.232-0.416,9.746-0.416,16.541c0,6.798,0.137,12.312,0.416,16.541c0.276,4.233,0.657,7.666,1.145,10.3
		c0.484,2.636,1.073,4.648,1.769,6.033c0.692,1.389,1.457,2.637,2.289,3.745c1.385,1.805,3.258,3.297,5.617,4.474
		c2.357,1.181,5.202,1.769,8.531,1.769c4.161,0,7.419-0.761,9.779-2.288c2.356-1.525,4.714-3.466,7.074-5.826l24.135,24.136
		C328.669,978.434,326.032,980.69,323.259,982.699z"/>
	<path fill="#CDCCCD" d="M441.857,917.055c0,5.55-0.036,10.995-0.104,16.333c-0.071,5.342-0.556,10.508-1.456,15.501
		c-0.904,4.993-2.393,9.747-4.474,14.253c-2.08,4.509-5.064,8.706-8.946,12.588c-5.41,5.409-11.376,9.538-17.894,12.38
		c-6.522,2.845-14.357,4.265-23.512,4.265c-9.155,0-16.993-1.42-23.512-4.265c-6.521-2.842-12.483-6.971-17.894-12.38
		c-3.885-3.882-6.866-8.079-8.946-12.588c-2.081-4.506-3.573-9.26-4.474-14.253c-0.904-4.993-1.389-10.159-1.457-15.501
		c-0.071-5.338-0.104-10.783-0.104-16.333c0-5.546,0.032-10.992,0.104-16.333c0.068-5.338,0.553-10.508,1.457-15.501
		c0.9-4.993,2.393-9.743,4.474-14.253c2.08-4.506,5.062-8.702,8.946-12.588c5.41-5.409,11.372-9.535,17.894-12.38
		c6.519-2.841,14.356-4.265,23.512-4.265c9.154,0,16.989,1.424,23.512,4.265c6.518,2.845,12.483,6.971,17.894,12.38
		c3.882,3.886,6.866,8.082,8.946,12.588c2.081,4.51,3.569,9.26,4.474,14.253c0.9,4.993,1.385,10.163,1.456,15.501
		C441.821,906.063,441.857,911.509,441.857,917.055z M405.446,917.055c0-6.795-0.141-12.309-0.417-16.541
		c-0.279-4.229-0.624-7.627-1.04-10.195c-0.416-2.565-0.972-4.542-1.664-5.93c-0.696-1.385-1.457-2.634-2.289-3.745
		c-1.389-1.802-3.329-3.329-5.826-4.578c-2.496-1.248-5.409-1.872-8.738-1.872s-6.242,0.624-8.739,1.872
		c-2.496,1.249-4.44,2.776-5.825,4.578c-0.832,1.111-1.597,2.36-2.289,3.745c-0.695,1.388-1.248,3.364-1.664,5.93
		c-0.416,2.568-0.765,5.966-1.041,10.195c-0.279,4.232-0.416,9.746-0.416,16.541c0,6.798,0.137,12.275,0.416,16.438
		c0.276,4.161,0.625,7.525,1.041,10.091c0.416,2.568,0.969,4.545,1.664,5.93c0.692,1.389,1.457,2.637,2.289,3.745
		c1.385,1.805,3.329,3.365,5.825,4.682c2.497,1.32,5.41,1.977,8.739,1.977s6.242-0.656,8.738-1.977
		c2.497-1.316,4.438-2.877,5.826-4.682c0.832-1.108,1.593-2.356,2.289-3.745c0.692-1.385,1.248-3.361,1.664-5.93
		c0.416-2.565,0.761-5.93,1.04-10.091C405.306,929.33,405.446,923.853,405.446,917.055z"/>
	<path fill="#CDCCCD" d="M540.48,991.126l-47.438-74.487v74.487H456.63V842.983h31.834l47.439,74.487v-74.487h36.411v148.143H540.48
		z"/>
	<path fill="#CDCCCD" d="M691.326,945.687c0,7.503-1.527,14.175-4.577,20.01c-3.053,5.836-7.178,10.735-12.38,14.694
		c-5.201,3.96-11.271,6.948-18.206,8.964c-6.938,2.012-14.288,3.02-22.055,3.02c-11.375,0-21.71-1.353-31.002-4.057
		c-9.294-2.705-17.686-7.871-25.176-15.501l23.304-23.304c3.882,3.885,8.875,6.59,14.98,8.115
		c6.103,1.527,12.136,2.288,18.102,2.288c14.148,0,21.223-4.438,21.223-13.316c0-3.745-0.972-6.658-2.913-8.738
		c-2.08-2.081-5.341-3.397-9.778-3.953l-17.894-2.497c-13.18-1.94-23.096-6.311-29.754-13.108
		c-6.798-6.934-10.195-16.853-10.195-29.753c0-6.795,1.249-13.037,3.745-18.726c2.497-5.687,6.066-10.611,10.716-14.773
		c4.646-4.161,10.299-7.418,16.957-9.778c6.658-2.357,14.217-3.537,22.68-3.537c10.68,0,20.078,1.346,28.192,4.031
		c8.114,2.688,15.361,7.2,21.743,13.537L666.15,882.1c-2.36-2.356-4.856-4.125-7.49-5.306c-2.637-1.177-5.201-2.045-7.698-2.601
		c-2.497-0.553-4.857-0.832-7.074-0.832c-2.221,0-4.161,0-5.826,0c-3.192,0-5.897,0.419-8.114,1.251
		c-2.221,0.833-4.058,1.908-5.514,3.229s-2.532,2.779-3.225,4.379c-0.696,1.6-1.041,3.231-1.041,4.896
		c0,0.976,0.208,2.087,0.624,3.335c0.417,1.252,1.178,2.433,2.289,3.544c0.969,0.976,2.253,1.879,3.85,2.711
		c1.593,0.833,3.709,1.389,6.346,1.665l17.894,2.503c13.037,1.808,22.747,5.904,29.129,12.296c4.021,3.895,6.866,8.55,8.531,13.966
		C690.494,932.556,691.326,938.739,691.326,945.687z"/>
	<path fill="#CDCCCD" d="M768.933,875.441v115.685h-36.411V875.441H696.11v-32.458h109.234v32.458H768.933z"/>
	<path fill="#CDCCCD" d="M886.488,991.126l-6.866-22.055h-45.566l-7.282,22.055h-38.076l53.889-148.143h28.089l53.89,148.143
		H886.488z M857.567,899.161l-13.316,39.532h25.8L857.567,899.161z"/>
	<path fill="#CDCCCD" d="M1012.992,991.126l-47.438-74.487v74.487h-36.412V842.983h31.834l47.439,74.487v-74.487h36.411v148.143
		H1012.992z"/>
	<path fill="#CDCCCD" d="M1128.468,875.441v115.685h-36.411V875.441h-36.411v-32.458h109.234v32.458H1128.468z"/>
	<path fill="#CDCCCD" d="M145.16,1201.56v-58.675h-38.7v58.675H70.048v-148.143h36.412v57.01h38.7v-57.01h36.411v148.143H145.16z"/>
	<path fill="#CDCCCD" d="M283.938,1201.56l-6.866-22.055h-45.566l-7.282,22.055h-38.076l53.889-148.143h28.089l53.89,148.143
		H283.938z M255.017,1109.595l-13.316,39.532h25.8L255.017,1109.595z"/>
	<path fill="#CDCCCD" d="M410.441,1201.56l-47.438-74.487v74.487h-36.412v-148.143h31.834l47.439,74.487v-74.487h36.411v148.143
		H410.441z"/>
	<path fill="#CDCCCD" d="M569.09,1152.456c-0.487,4.857-1.284,9.259-2.393,13.212c-1.112,3.953-2.601,7.563-4.474,10.819
		c-1.872,3.261-4.197,6.347-6.97,9.26c-5.55,5.688-11.724,9.954-18.519,12.796c-6.798,2.845-14.636,4.265-23.511,4.265
		c-8.739,0-16.438-1.42-23.096-4.265c-6.658-2.842-12.691-6.971-18.102-12.38c-3.885-3.882-6.866-8.079-8.946-12.588
		c-2.081-4.506-3.573-9.26-4.474-14.253c-0.904-4.993-1.389-10.159-1.457-15.501c-0.071-5.338-0.104-10.783-0.104-16.333
		c0-5.546,0.032-10.992,0.104-16.333c0.068-5.338,0.553-10.508,1.457-15.501c0.9-4.993,2.393-9.743,4.474-14.253
		c2.08-4.506,5.062-8.702,8.946-12.588c5.41-5.409,11.372-9.535,17.894-12.38c6.519-2.841,14.285-4.265,23.304-4.265
		c5.27,0,10.02,0.312,14.252,0.936c4.229,0.625,8.115,1.665,11.652,3.121c3.537,1.457,6.898,3.365,10.091,5.722
		c3.189,2.36,6.45,5.202,9.779,8.531l-24.76,24.76c-3.469-3.605-6.658-6.274-9.571-8.011c-2.913-1.732-6.729-2.601-11.443-2.601
		c-3.329,0-6.21,0.624-8.635,1.872c-2.429,1.249-4.337,2.776-5.722,4.578c-0.832,1.111-1.597,2.36-2.289,3.745
		c-0.695,1.388-1.248,3.364-1.664,5.93c-0.416,2.568-0.765,5.966-1.041,10.195c-0.279,4.232-0.416,9.746-0.416,16.541
		c0,6.798,0.137,12.312,0.416,16.541c0.276,4.233,0.625,7.666,1.041,10.3c0.416,2.636,0.969,4.648,1.664,6.033
		c0.692,1.389,1.457,2.637,2.289,3.745c1.385,1.805,3.293,3.297,5.722,4.474c2.425,1.181,5.306,1.769,8.635,1.769
		c3.882,0,6.935-0.52,9.154-1.561c2.218-1.04,4.162-2.461,5.826-4.266c1.941-1.94,3.329-4.506,4.161-7.698
		c0.832-3.188,1.249-6.033,1.249-8.53v-1.665h-20.391v-30.377h56.594v19.974C569.818,1142.192,569.574,1147.603,569.09,1152.456z"/>
	<path fill="#CDCCCD" d="M583.134,1201.56v-148.143h100.704v32.458h-64.292v24.76h54.929v32.458h-54.929v26.009h64.292v32.458
		H583.134z"/>
	<path fill="#CDCCCD" d="M738.14,1180.337c0,3.053-0.556,5.897-1.664,8.53c-1.112,2.637-2.673,4.926-4.682,6.866
		c-2.013,1.944-4.337,3.505-6.97,4.682c-2.637,1.177-5.481,1.769-8.531,1.769c-3.053,0-5.897-0.592-8.53-1.769
		c-2.637-1.177-4.926-2.737-6.866-4.682c-1.944-1.94-3.505-4.229-4.682-6.866c-1.181-2.633-1.769-5.478-1.769-8.53
		c0-3.05,0.588-5.895,1.769-8.53c1.177-2.634,2.737-4.958,4.682-6.971c1.94-2.009,4.229-3.569,6.866-4.682
		c2.633-1.108,5.478-1.664,8.53-1.664c3.05,0,5.895,0.556,8.531,1.664c2.633,1.112,4.957,2.673,6.97,4.682
		c2.009,2.013,3.569,4.337,4.682,6.971C737.584,1174.442,738.14,1177.287,738.14,1180.337z"/>
	<g>
		<path fill="#CDCCCD" d="M0,47.094c0.376-1.847,0.834-3.338,1.387-4.44c0.692-1.385,1.457-2.634,2.289-3.745
			c1.385-1.802,3.329-3.329,5.825-4.578c2.497-1.248,5.41-1.872,8.739-1.872s6.242,0.624,8.738,1.872
			c2.497,1.249,4.438,2.776,5.826,4.578c0.832,1.111,1.593,2.36,2.289,3.745c0.692,1.388,1.248,3.364,1.664,5.93
			c0.416,2.568,0.761,5.966,1.04,10.195c0.276,4.232,0.417,9.746,0.417,16.541c0,6.798-0.141,12.275-0.417,16.438
			c-0.279,4.161-0.624,7.525-1.04,10.091c-0.416,2.568-0.972,4.545-1.664,5.93c-0.696,1.389-1.457,2.637-2.289,3.745
			c-1.388,1.805-3.329,3.365-5.826,4.682c-2.496,1.32-5.409,1.977-8.738,1.977s-6.242-0.656-8.739-1.977
			c-2.496-1.316-4.44-2.877-5.825-4.682c-0.832-1.108-1.597-2.356-2.289-3.745c-0.553-1.101-1.011-2.591-1.387-4.439v44.938
			c5.352,1.573,11.43,2.362,18.24,2.362c9.154,0,16.989-1.42,23.512-4.265c6.518-2.842,12.483-6.971,17.894-12.38
			c3.881-3.882,6.866-8.079,8.946-12.588c2.081-4.506,3.569-9.26,4.474-14.253c0.9-4.993,1.385-10.159,1.456-15.501
			c0.068-5.338,0.104-10.783,0.104-16.333c0-5.546-0.036-10.992-0.104-16.333c-0.071-5.338-0.556-10.508-1.456-15.501
			c-0.904-4.993-2.393-9.743-4.474-14.253c-2.08-4.506-5.065-8.702-8.946-12.588c-5.41-5.409-11.376-9.535-17.894-12.38
			C35.229,1.424,27.395,0,18.24,0C11.43,0,5.352,0.791,0,2.363V47.094z"/>
		<path fill="#CDCCCD" d="M49.45,570.258h38.076l-53.89-148.143H5.548L0,437.366v110.837h42.584L49.45,570.258z M7.213,517.825
			l13.316-39.532l12.483,39.532H7.213z"/>
		<polygon fill="#CDCCCD" points="67.344,244.14 67.344,211.682 0,211.682 0,359.824 67.344,359.824 67.344,327.366 3.052,327.366 
			3.052,301.357 57.98,301.357 57.98,268.899 3.052,268.899 3.052,244.14 		"/>
		<path fill="#CDCCCD" d="M5.548,632.55L0,647.801v110.837h42.584l6.866,22.055h38.076L33.637,632.55H5.548z M7.213,728.26
			l13.316-39.532l12.483,39.532H7.213z"/>
		<path fill="#CDCCCD" d="M27.812,1168.062c-2.36,1.527-5.618,2.288-9.779,2.288c-3.329,0-6.174-0.588-8.531-1.769
			c-2.359-1.177-4.232-2.669-5.617-4.474c-0.832-1.108-1.597-2.356-2.289-3.745c-0.614-1.224-1.146-2.938-1.595-5.14v45.146
			c5.417,1.625,11.426,2.439,18.032,2.439c4.854,0,9.259-0.383,13.212-1.144s7.559-1.873,10.819-3.329
			c3.258-1.457,6.274-3.189,9.051-5.202c2.773-2.009,5.41-4.266,7.906-6.762l-24.135-24.136
			C32.525,1164.596,30.168,1166.536,27.812,1168.062z"/>
		<path fill="#CDCCCD" d="M73.065,885.221c-0.904-4.993-2.393-9.743-4.474-14.253c-2.08-4.506-5.065-8.702-8.946-12.588
			c-5.41-5.409-11.376-9.535-17.894-12.38c-6.522-2.841-14.357-4.265-23.512-4.265c-6.811,0-12.889,0.791-18.24,2.364v44.729
			c0.376-1.847,0.834-3.338,1.387-4.44c0.692-1.385,1.457-2.634,2.289-3.745c1.385-1.802,3.329-3.329,5.825-4.578
			c2.497-1.248,5.41-1.872,8.739-1.872s6.242,0.624,8.738,1.872c2.497,1.249,4.438,2.776,5.826,4.578
			c0.832,1.111,1.593,2.36,2.289,3.745c0.692,1.388,1.248,3.364,1.664,5.93c0.416,2.568,0.761,5.966,1.04,10.195
			c0.276,4.232,0.417,9.746,0.417,16.541c0,6.798-0.141,12.275-0.417,16.438c-0.279,4.161-0.624,7.525-1.04,10.091
			c-0.416,2.568-0.972,4.545-1.664,5.93c-0.696,1.389-1.457,2.637-2.289,3.745c-1.388,1.805-3.329,3.365-5.826,4.682
			c-2.496,1.32-5.409,1.977-8.738,1.977s-6.242-0.656-8.739-1.977c-2.496-1.316-4.44-2.877-5.825-4.682
			c-0.832-1.108-1.597-2.356-2.289-3.745c-0.553-1.101-1.011-2.591-1.387-4.439v44.938c5.352,1.573,11.43,2.362,18.24,2.362
			c9.154,0,16.989-1.42,23.512-4.265c6.518-2.842,12.483-6.971,17.894-12.38c3.881-3.882,6.866-8.079,8.946-12.588
			c2.081-4.506,3.569-9.26,4.474-14.253c0.9-4.993,1.385-10.159,1.456-15.501c0.068-5.338,0.104-10.783,0.104-16.333
			c0-5.546-0.036-10.992-0.104-16.333C74.45,895.384,73.966,890.214,73.065,885.221z"/>
		<path fill="#CDCCCD" d="M42.063,1056.642c-3.261-1.456-6.866-2.564-10.819-3.329c-3.953-0.761-8.358-1.144-13.212-1.144
			c-6.606,0-12.615,0.816-18.032,2.44v45.145c0.449-2.197,0.98-3.914,1.595-5.14c0.692-1.385,1.457-2.634,2.289-3.745
			c1.385-1.802,3.258-3.294,5.617-4.474c2.357-1.177,5.202-1.769,8.531-1.769c4.161,0,7.419,0.764,9.779,2.289
			c2.356,1.527,4.714,3.469,7.074,5.825l24.135-24.136c-2.496-2.496-5.133-4.749-7.906-6.762
			C48.338,1059.835,45.321,1058.099,42.063,1056.642z"/>
	</g>
	<g>
		<path fill="#CDCCCD" d="M1266.199,89.676l12.928,1.804V57.28l-4.605-0.645c-2.637-0.276-4.753-0.832-6.346-1.665
			c-1.597-0.832-2.881-1.735-3.85-2.711c-1.111-1.111-1.872-2.292-2.289-3.544c-0.416-1.248-0.624-2.359-0.624-3.335
			c0-1.665,0.345-3.297,1.041-4.896c0.692-1.6,1.769-3.059,3.225-4.379s3.293-2.396,5.514-3.229
			c2.174-0.815,4.823-1.229,7.935-1.245V0.021c-7.967,0.109-15.125,1.273-21.459,3.516c-6.658,2.36-12.312,5.617-16.957,9.778
			c-4.649,4.162-8.219,9.087-10.716,14.773c-2.496,5.688-3.745,11.931-3.745,18.726c0,12.9,3.397,22.818,10.195,29.753
			C1243.104,83.365,1253.02,87.735,1266.199,89.676z"/>
		<path fill="#CDCCCD" d="M1279.127,118.064c-1.14,0.069-2.315,0.116-3.565,0.116c-5.966,0-11.999-0.761-18.102-2.288
			c-6.105-1.525-11.099-4.23-14.98-8.115l-23.304,23.304c7.49,7.63,15.882,12.796,25.176,15.501
			c9.292,2.704,19.627,4.057,31.002,4.057c1.271,0,2.525-0.037,3.773-0.091V118.064z"/>
	</g>
</g>
</svg>
