<?xml version="1.0" encoding="utf-8"?>
<!-- Generator: Adobe Illustrator 16.0.0, SVG Export Plug-In . SVG Version: 6.00 Build 0)  -->
<!DOCTYPE svg PUBLIC "-//W3C//DTD SVG 1.1//EN" "http://www.w3.org/Graphics/SVG/1.1/DTD/svg11.dtd">
<svg version="1.1" id="Layer_1" xmlns="http://www.w3.org/2000/svg" xmlns:xlink="http://www.w3.org/1999/xlink" x="0px" y="0px"
	 width="703.75px" height="123px" viewBox="0 0 703.75 123" enable-background="new 0 0 703.75 123" xml:space="preserve">
<g>
	<g>
		<path fill="#232325" d="M73.65,114.592c-2.222,1.61-4.635,2.996-7.241,4.161c-2.608,1.165-5.492,2.055-8.655,2.663
			c-3.162,0.609-6.687,0.916-10.569,0.916c-6.991,0-13.15-1.136-18.477-3.412c-5.326-2.273-10.153-5.576-14.481-9.904
			c-3.107-3.105-5.493-6.463-7.157-10.07C5.404,95.34,4.211,91.538,3.49,87.543c-0.723-3.995-1.11-8.127-1.165-12.4
			c-0.057-4.271-0.083-8.627-0.083-13.066c0-4.437,0.026-8.793,0.083-13.067c0.055-4.271,0.442-8.406,1.165-12.4
			c0.721-3.995,1.914-7.795,3.579-11.402c1.664-3.604,4.05-6.962,7.157-10.07c4.328-4.328,9.155-7.628,14.481-9.904
			C34.034,2.959,40.193,1.82,47.185,1.82c3.883,0,7.407,0.307,10.569,0.916c3.163,0.611,6.047,1.498,8.655,2.663
			c2.606,1.165,5.02,2.554,7.241,4.161c2.219,1.61,4.327,3.413,6.325,5.41L60.667,34.278c-1.889-1.885-3.773-3.438-5.659-4.661
			c-1.889-1.22-4.494-1.831-7.823-1.831c-2.663,0-4.939,0.474-6.825,1.415c-1.888,0.944-3.386,2.138-4.494,3.579
			c-0.666,0.89-1.276,1.888-1.831,2.996c-0.557,1.111-1.027,2.721-1.414,4.827c-0.391,2.109-0.695,4.856-0.916,8.239
			c-0.224,3.387-0.333,7.797-0.333,13.233c0,5.438,0.109,9.849,0.333,13.233c0.221,3.386,0.525,6.133,0.916,8.239
			c0.387,2.109,0.857,3.719,1.414,4.827c0.555,1.11,1.165,2.109,1.831,2.996c1.108,1.443,2.606,2.637,4.494,3.579
			c1.886,0.944,4.162,1.415,6.825,1.415c3.329,0,5.935-0.609,7.823-1.831c1.886-1.22,3.771-2.772,5.659-4.661l19.309,19.309
			C77.978,111.179,75.869,112.984,73.65,114.592z"/>
		<path fill="#232325" d="M161.704,121.333l-5.493-17.644h-36.453l-5.825,17.644H83.472L126.583,2.819h22.471l43.111,118.514
			H161.704z M138.567,47.761l-10.653,31.626h20.641L138.567,47.761z"/>
		<path fill="#232325" d="M264.072,121.333L243.1,77.223h-9.821v44.11h-29.129V2.819h46.939c6.547,0,12.344,1.082,17.395,3.246
			c5.048,2.164,9.293,5.022,12.733,8.572c3.438,3.553,6.019,7.602,7.74,12.151c1.719,4.551,2.58,9.267,2.58,14.148
			c0,3.995-0.557,7.657-1.664,10.986c-1.111,3.329-2.58,6.271-4.411,8.822c-1.831,2.554-3.912,4.744-6.242,6.575
			s-4.661,3.357-6.991,4.577l25.634,49.437H264.072z M262.408,40.937c0-3.105-1.11-5.88-3.329-8.323
			c-2.222-2.439-5.327-3.662-9.321-3.662h-16.479v23.969h16.479c3.994,0,7.1-1.22,9.321-3.662
			C261.298,46.819,262.408,44.044,262.408,40.937z"/>
		<path fill="#232325" d="M312.675,121.333V2.819h80.563v25.967h-51.435v19.808h43.944V74.56h-43.944v20.806h51.435v25.967H312.675z
			"/>
		<path fill="#232325" d="M413.875,121.333V2.819h80.564v25.967h-51.436v19.808h43.945V74.56h-43.945v20.806h51.436v25.967H413.875z
			"/>
		<path fill="#232325" d="M575,121.333l-20.973-44.11h-9.822v44.11h-29.129V2.819h46.939c6.547,0,12.344,1.082,17.395,3.246
			c5.049,2.164,9.293,5.022,12.734,8.572c3.438,3.553,6.018,7.602,7.74,12.151c1.719,4.551,2.58,9.267,2.58,14.148
			c0,3.995-0.557,7.657-1.664,10.986c-1.111,3.329-2.58,6.271-4.412,8.822c-1.83,2.554-3.912,4.744-6.242,6.575
			s-4.66,3.357-6.99,4.577l25.633,49.437H575z M573.335,40.937c0-3.105-1.111-5.88-3.33-8.323c-2.221-2.439-5.326-3.662-9.32-3.662
			h-16.48v23.969h16.48c3.994,0,7.1-1.22,9.32-3.662C572.224,46.819,573.335,44.044,573.335,40.937z"/>
		<path fill="#232325" d="M703.166,84.981c0,6.002-1.223,11.339-3.662,16.008c-2.441,4.668-5.742,8.588-9.902,11.756
			c-4.162,3.168-9.018,5.558-14.566,7.17c-5.549,1.61-11.43,2.416-17.643,2.416c-9.102,0-17.369-1.082-24.803-3.246
			c-7.436-2.164-14.148-6.296-20.141-12.401l18.643-18.643c3.105,3.108,7.102,5.272,11.986,6.492
			c4.881,1.222,9.707,1.831,14.48,1.831c11.318,0,16.979-3.55,16.979-10.653c0-2.997-0.777-5.327-2.33-6.991
			c-1.666-1.665-4.273-2.718-7.824-3.163l-14.314-1.998c-10.543-1.553-18.477-5.048-23.803-10.486
			c-5.438-5.547-8.156-13.482-8.156-23.803c0-5.436,0.998-10.429,2.996-14.98c1.998-4.549,4.854-8.489,8.572-11.818
			c3.717-3.329,8.24-5.935,13.566-7.823c5.326-1.886,11.373-2.83,18.143-2.83c8.543,0,16.063,1.077,22.555,3.225
			c6.492,2.151,12.289,5.761,17.395,10.83l-18.311,18.237c-1.889-1.885-3.885-3.3-5.992-4.244c-2.109-0.942-4.16-1.636-6.158-2.081
			c-1.998-0.442-3.887-0.666-5.66-0.666c-1.775,0-3.328,0-4.66,0c-2.555,0-4.719,0.335-6.492,1.001
			c-1.775,0.666-3.246,1.527-4.41,2.583c-1.166,1.056-2.025,2.224-2.58,3.503c-0.557,1.28-0.832,2.585-0.832,3.917
			c0,0.78,0.166,1.67,0.498,2.668c0.334,1.001,0.941,1.945,1.832,2.835c0.775,0.78,1.803,1.503,3.08,2.169
			c1.273,0.666,2.967,1.111,5.076,1.332l14.314,2.003c10.43,1.446,18.197,4.723,23.303,9.836c3.219,3.116,5.494,6.84,6.826,11.173
			C702.5,74.477,703.166,79.423,703.166,84.981z"/>
	</g>
</g>
</svg>
