<?xml version="1.0" encoding="utf-8"?>
<!-- Generator: Adobe Illustrator 16.0.0, SVG Export Plug-In . SVG Version: 6.00 Build 0)  -->
<!DOCTYPE svg PUBLIC "-//W3C//DTD SVG 1.1//EN" "http://www.w3.org/Graphics/SVG/1.1/DTD/svg11.dtd">
<svg version="1.1" id="Layer_1" xmlns="http://www.w3.org/2000/svg" xmlns:xlink="http://www.w3.org/1999/xlink" x="0px" y="0px"
	 width="1093.35px" height="189.104px" viewBox="0 0 1093.35 189.104" enable-background="new 0 0 1093.35 189.104"
	 xml:space="preserve">
<g>
	<g>
		<path fill="#232325" d="M112.18,176.798c-3.472,2.517-7.244,4.683-11.318,6.504c-4.077,1.821-8.585,3.212-13.528,4.163
			s-10.452,1.431-16.521,1.431c-10.928,0-20.554-1.776-28.88-5.333c-8.325-3.554-15.87-8.716-22.635-15.48
			c-4.857-4.854-8.585-10.102-11.188-15.74c-2.602-5.635-4.467-11.578-5.594-17.822c-1.13-6.244-1.735-12.703-1.82-19.383
			c-0.09-6.675-0.131-13.483-0.131-20.423c0-6.936,0.041-13.744,0.131-20.424c0.085-6.675,0.69-13.139,1.82-19.383
			c1.127-6.244,2.992-12.183,5.594-17.821c2.603-5.635,6.33-10.883,11.188-15.74c6.765-6.765,14.31-11.924,22.635-15.48
			c8.326-3.553,17.952-5.333,28.88-5.333c6.068,0,11.577,0.479,16.521,1.431c4.943,0.955,9.451,2.342,13.528,4.162
			c4.074,1.821,7.847,3.992,11.318,6.505c3.467,2.517,6.764,5.333,9.886,8.455l-30.18,30.181c-2.951-2.947-5.898-5.375-8.846-7.285
			c-2.951-1.906-7.024-2.862-12.228-2.862c-4.163,0-7.721,0.74-10.668,2.212c-2.951,1.476-5.292,3.342-7.024,5.594
			c-1.04,1.39-1.996,2.951-2.861,4.683c-0.87,1.736-1.606,4.252-2.212,7.545c-0.609,3.297-1.085,7.59-1.431,12.879
			c-0.35,5.293-0.521,12.188-0.521,20.684c0,8.5,0.171,15.395,0.521,20.684c0.346,5.293,0.821,9.586,1.431,12.878
			c0.605,3.297,1.342,5.813,2.212,7.546c0.865,1.735,1.821,3.296,2.861,4.683c1.732,2.256,4.073,4.122,7.024,5.594
			c2.947,1.476,6.505,2.211,10.668,2.211c5.203,0,9.276-0.951,12.228-2.861c2.947-1.906,5.895-4.334,8.846-7.285l30.18,30.18
			C118.943,171.464,115.646,174.285,112.18,176.798z"/>
		<path fill="#232325" d="M164.473,187.335V2.093h45.53v144.655h77.791v40.587H164.473z"/>
		<path fill="#232325" d="M329.939,187.335V2.093h45.53v185.242H329.939z"/>
		<path fill="#232325" d="M428.54,187.335V2.093h125.923V42.68H474.07v30.96h68.685v40.587H474.07v32.521h80.393v40.587H428.54z"/>
		<path fill="#232325" d="M707.18,187.335l-59.318-93.142v93.142h-45.53V2.093h39.806l59.319,93.142V2.093h45.53v185.242H707.18z"/>
		<path fill="#232325" d="M880.193,42.68v144.655h-45.53V42.68h-45.53V2.093h136.591V42.68H880.193z"/>
		<path fill="#232325" d="M1092.229,130.516c0,9.383-1.91,17.725-5.724,25.021c-3.816,7.297-8.976,13.423-15.479,18.374
			c-6.505,4.952-14.095,8.688-22.766,11.208c-8.675,2.517-17.866,3.776-27.578,3.776c-14.224,0-27.147-1.69-38.766-5.073
			c-11.622-3.382-22.114-9.842-31.48-19.383l29.14-29.139c4.854,4.857,11.098,8.24,18.732,10.146
			c7.63,1.91,15.175,2.861,22.635,2.861c17.691,0,26.537-5.549,26.537-16.65c0-4.684-1.216-8.325-3.643-10.928
			c-2.602-2.602-6.679-4.248-12.228-4.942l-22.375-3.122c-16.48-2.428-28.879-7.891-37.204-16.392
			c-8.501-8.671-12.749-21.073-12.749-37.204c0-8.496,1.562-16.302,4.684-23.415c3.122-7.11,7.585-13.27,13.398-18.473
			c5.81-5.203,12.879-9.276,21.204-12.228c8.325-2.947,17.777-4.423,28.358-4.423c13.354,0,25.106,1.683,35.253,5.04
			c10.147,3.362,19.208,9.005,27.188,16.928l-28.619,28.505c-2.951-2.947-6.073-5.158-9.366-6.635
			c-3.297-1.471-6.504-2.557-9.626-3.252c-3.122-0.69-6.073-1.04-8.846-1.04c-2.776,0-5.204,0-7.285,0
			c-3.992,0-7.374,0.524-10.146,1.564c-2.776,1.041-5.073,2.387-6.895,4.037s-3.167,3.476-4.033,5.476
			c-0.869,2-1.301,4.041-1.301,6.122c0,1.22,0.261,2.61,0.781,4.171c0.52,1.565,1.472,3.041,2.861,4.432
			c1.212,1.219,2.817,2.35,4.813,3.39c1.992,1.041,4.639,1.736,7.936,2.082l22.374,3.13c16.302,2.26,28.444,7.382,36.424,15.374
			c5.029,4.87,8.586,10.691,10.667,17.465C1091.189,114.097,1092.229,121.828,1092.229,130.516z"/>
	</g>
</g>
</svg>
