<?xml version="1.0" encoding="utf-8"?>
<!-- Generator: Adobe Illustrator 16.0.0, SVG Export Plug-In . SVG Version: 6.00 Build 0)  -->
<!DOCTYPE svg PUBLIC "-//W3C//DTD SVG 1.1//EN" "http://www.w3.org/Graphics/SVG/1.1/DTD/svg11.dtd">
<svg version="1.1" id="Layer_1" xmlns="http://www.w3.org/2000/svg" xmlns:xlink="http://www.w3.org/1999/xlink" x="0px" y="0px"
	 width="769.856px" height="361.89px" viewBox="0 0 769.856 361.89" enable-background="new 0 0 769.856 361.89"
	 xml:space="preserve">
<path fill="#222222" d="M216.176,166.32l-7.551-24.256H158.51l-8.009,24.256h-41.877L167.892,3.39h30.894l59.268,162.93H216.176z
	 M184.368,65.176l-14.646,43.479h28.376L184.368,65.176z"/>
<path fill="#222222" d="M339.292,99.958v66.361h-40.046V99.958L250.047,3.39h43.707l25.63,58.582l25.4-58.582h43.707L339.292,99.958
	z"/>
<path fill="#222222" d="M145.01,359.58V196.65h110.756v35.698h-70.709v27.231h60.412v35.698h-60.412v28.604h70.709v35.697H145.01z"
	/>
<path fill="#222222" d="M284.138,359.58V196.65h40.047v127.232h68.421v35.697H284.138z"/>
<path fill="#222222" d="M415.943,359.58V196.65h40.047v127.232h68.421v35.697H415.943z"/>
<path fill="#222222" d="M661.941,278.115c0,6.104-0.04,12.093-0.114,17.964c-0.079,5.874-0.611,11.556-1.603,17.048
	c-0.994,5.492-2.631,10.72-4.92,15.676c-2.288,4.959-5.57,9.574-9.84,13.844c-5.949,5.95-12.511,10.491-19.68,13.616
	c-7.172,3.128-15.789,4.69-25.858,4.69c-10.068,0-18.688-1.563-25.857-4.69c-7.173-3.125-13.73-7.666-19.681-13.616
	c-4.272-4.27-7.551-8.885-9.84-13.844c-2.288-4.956-3.929-10.184-4.92-15.676c-0.993-5.492-1.526-11.174-1.602-17.048
	c-0.078-5.871-0.114-11.86-0.114-17.964c0-6.1,0.036-12.088,0.114-17.963c0.075-5.871,0.608-11.557,1.602-17.049
	c0.991-5.492,2.632-10.715,4.92-15.675c2.289-4.956,5.567-9.571,9.84-13.845c5.95-5.949,12.508-10.486,19.681-13.615
	c7.169-3.125,15.789-4.691,25.857-4.691c10.069,0,18.687,1.566,25.858,4.691c7.169,3.129,13.73,7.666,19.68,13.615
	c4.27,4.273,7.552,8.889,9.84,13.845c2.289,4.96,3.926,10.183,4.92,15.675c0.991,5.492,1.523,11.178,1.603,17.049
	C661.901,266.027,661.941,272.015,661.941,278.115z M621.896,278.115c0-7.473-0.154-13.537-0.458-18.191
	c-0.308-4.652-0.687-8.389-1.145-11.213c-0.457-2.822-1.068-4.996-1.83-6.522c-0.766-1.522-1.602-2.896-2.518-4.118
	c-1.526-1.981-3.661-3.662-6.407-5.035s-5.949-2.06-9.611-2.06c-3.661,0-6.864,0.687-9.61,2.06s-4.885,3.054-6.407,5.035
	c-0.916,1.223-1.756,2.596-2.518,4.118c-0.766,1.526-1.373,3.7-1.831,6.522c-0.457,2.824-0.84,6.561-1.144,11.213
	c-0.308,4.654-0.458,10.719-0.458,18.191c0,7.477,0.15,13.502,0.458,18.078c0.304,4.576,0.687,8.277,1.144,11.099
	c0.458,2.825,1.065,4.999,1.831,6.522c0.762,1.525,1.602,2.898,2.518,4.118c1.522,1.984,3.661,3.7,6.407,5.149
	c2.746,1.451,5.949,2.174,9.61,2.174c3.662,0,6.865-0.723,9.611-2.174c2.746-1.449,4.881-3.165,6.407-5.149
	c0.916-1.22,1.752-2.593,2.518-4.118c0.762-1.523,1.373-3.697,1.83-6.522c0.458-2.821,0.837-6.522,1.145-11.099
	C621.741,291.617,621.896,285.591,621.896,278.115z"/>
<path fill="#222222" d="M752.323,305.346h-27.002L715.253,196.65h47.14L752.323,305.346z M760.562,338.527
	c0,2.9-0.572,5.686-1.716,8.354c-1.145,2.67-2.711,4.998-4.691,6.979c-1.984,1.984-4.272,3.547-6.865,4.691
	c-2.596,1.145-5.417,1.717-8.467,1.717c-2.899,0-5.685-0.572-8.353-1.717c-2.671-1.145-4.998-2.707-6.979-4.691
	c-1.984-1.98-3.547-4.309-4.69-6.979c-1.145-2.668-1.717-5.453-1.717-8.354c0-3.049,0.572-5.871,1.717-8.467
	c1.144-2.592,2.706-4.881,4.69-6.865c1.981-1.98,4.309-3.547,6.979-4.69c2.668-1.144,5.453-1.716,8.353-1.716
	c3.05,0,5.871,0.572,8.467,1.716c2.593,1.144,4.881,2.71,6.865,4.69c1.98,1.984,3.547,4.273,4.691,6.865
	C759.989,332.656,760.562,335.478,760.562,338.527z"/>
<g>
	<path fill="#222222" d="M96.041,95.943c-1.83-5.957-4.959-11.077-9.382-15.36C79.641,73.553,68.96,69.048,54.622,67.06
		l-19.68-2.753c-2.899-0.304-5.227-0.915-6.979-1.831c-1.755-0.916-3.168-1.909-4.233-2.982c-1.223-1.223-2.06-2.521-2.517-3.897
		c-0.458-1.373-0.687-2.596-0.687-3.668c0-1.831,0.379-3.625,1.144-5.385c0.762-1.759,1.945-3.365,3.548-4.816
		c1.602-1.452,3.621-2.635,6.063-3.55c2.438-0.916,5.413-1.376,8.925-1.376c1.831,0,3.965,0,6.407,0c2.438,0,5.034,0.308,7.78,0.915
		c2.746,0.612,5.567,1.566,8.467,2.861c2.896,1.298,5.643,3.243,8.238,5.835l25.172-25.072C89.252,14.371,81.281,9.408,72.357,6.451
		c-8.925-2.954-19.262-4.434-31.007-4.434c-9.308,0-17.621,1.298-24.943,3.89C10.024,8.17,4.481,11.184-0.22,14.951v76.736
		c6.76,4.408,15.422,7.399,26.009,8.958l19.68,2.746c4.881,0.611,8.467,2.059,10.756,4.348c2.135,2.289,3.203,5.492,3.203,9.611
		c0,9.765-7.78,14.646-23.341,14.646c-6.562,0-13.197-0.837-19.908-2.518c-6.676-1.667-12.14-4.619-16.398-8.852v41.988
		c0.656,0.217,1.316,0.423,1.981,0.616c10.219,2.976,21.586,4.462,34.097,4.462c8.542,0,16.626-1.107,24.256-3.321
		c7.627-2.217,14.303-5.503,20.023-9.858c5.721-4.354,10.258-9.742,13.615-16.16c3.354-6.418,5.034-13.756,5.034-22.008
		C98.787,108.704,97.872,101.903,96.041,95.943z"/>
</g>
<polygon fill="#222222" points="72.014,196.65 72.014,259.351 29.451,259.351 29.451,196.65 -0.22,196.65 -0.22,359.58 
	29.451,359.58 29.451,295.048 72.014,295.048 72.014,359.58 112.06,359.58 112.06,196.65 "/>
</svg>
