<?xml version="1.0" encoding="utf-8"?>
<!-- Generator: Adobe Illustrator 16.0.0, SVG Export Plug-In . SVG Version: 6.00 Build 0)  -->
<!DOCTYPE svg PUBLIC "-//W3C//DTD SVG 1.1//EN" "http://www.w3.org/Graphics/SVG/1.1/DTD/svg11.dtd">
<svg version="1.1" id="Layer_1" xmlns="http://www.w3.org/2000/svg" xmlns:xlink="http://www.w3.org/1999/xlink" x="0px" y="0px"
	 width="950.915px" height="171px" viewBox="0 0 950.915 171" enable-background="new 0 0 950.915 171" xml:space="preserve">
<g>
	<g>
		<path fill="#252525" d="M101.785,159.242c-3.129,2.268-6.529,4.22-10.2,5.862c-3.675,1.641-7.737,2.894-12.192,3.751
			s-9.42,1.29-14.89,1.29c-9.848,0-18.523-1.601-26.026-4.807c-7.504-3.202-14.304-7.855-20.399-13.951
			c-4.379-4.375-7.738-9.104-10.083-14.186c-2.345-5.078-4.026-10.434-5.041-16.062c-1.019-5.627-1.564-11.449-1.642-17.469
			c-0.08-6.016-0.117-12.152-0.117-18.406c0-6.25,0.037-12.387,0.117-18.407c0.077-6.016,0.623-11.841,1.642-17.468
			c1.015-5.627,2.696-10.98,5.041-16.062c2.345-5.078,5.704-9.808,10.083-14.186C24.173,13.045,30.973,8.396,38.477,5.19
			c7.503-3.202,16.179-4.807,26.026-4.807c5.47,0,10.435,0.433,14.89,1.29c4.455,0.861,8.518,2.11,12.192,3.752
			c3.671,1.641,7.071,3.598,10.2,5.862c3.125,2.268,6.097,4.807,8.91,7.621L83.496,46.106c-2.66-2.656-5.316-4.843-7.973-6.565
			c-2.659-1.718-6.331-2.579-11.021-2.579c-3.751,0-6.957,0.667-9.613,1.993c-2.66,1.33-4.771,3.012-6.331,5.042
			c-0.938,1.253-1.799,2.66-2.579,4.221c-0.784,1.564-1.447,3.832-1.993,6.8c-0.55,2.971-0.979,6.84-1.289,11.606
			c-0.315,4.77-0.47,10.984-0.47,18.641c0,7.661,0.154,13.875,0.47,18.641c0.311,4.771,0.739,8.639,1.289,11.607
			c0.546,2.971,1.209,5.239,1.993,6.8c0.78,1.564,1.642,2.971,2.579,4.22c1.561,2.034,3.671,3.715,6.331,5.042
			c2.656,1.33,5.862,1.993,9.613,1.993c4.689,0,8.361-0.857,11.021-2.58c2.656-1.718,5.313-3.905,7.973-6.565l27.199,27.199
			C107.882,154.435,104.91,156.978,101.785,159.242z"/>
		<path fill="#252525" d="M247.162,85.264c0,6.254-0.041,12.391-0.117,18.406c-0.081,6.02-0.627,11.841-1.642,17.469
			c-1.019,5.627-2.696,10.983-5.041,16.062c-2.345,5.082-5.708,9.812-10.083,14.186c-6.097,6.096-12.819,10.749-20.165,13.951
			c-7.35,3.206-16.179,4.807-26.496,4.807c-10.316,0-19.149-1.601-26.495-4.807c-7.35-3.202-14.069-7.855-20.165-13.951
			c-4.379-4.375-7.738-9.104-10.083-14.186c-2.345-5.078-4.026-10.434-5.041-16.062c-1.019-5.627-1.564-11.449-1.642-17.469
			c-0.08-6.016-0.117-12.152-0.117-18.406c0-6.25,0.037-12.387,0.117-18.407c0.077-6.016,0.623-11.841,1.642-17.468
			c1.015-5.627,2.696-10.98,5.041-16.062c2.345-5.078,5.704-9.808,10.083-14.186c6.096-6.097,12.815-10.746,20.165-13.952
			c7.346-3.202,16.179-4.807,26.495-4.807c10.317,0,19.146,1.605,26.496,4.807c7.346,3.206,14.068,7.855,20.165,13.952
			c4.375,4.378,7.738,9.108,10.083,14.186c2.345,5.082,4.022,10.435,5.041,16.062c1.015,5.627,1.561,11.453,1.642,17.468
			C247.121,72.877,247.162,79.014,247.162,85.264z M206.128,85.264c0-7.657-0.157-13.871-0.469-18.641
			c-0.314-4.767-0.703-8.595-1.172-11.489c-0.47-2.891-1.096-5.118-1.876-6.683c-0.784-1.561-1.642-2.968-2.579-4.221
			c-1.564-2.03-3.752-3.751-6.565-5.158c-2.813-1.407-6.097-2.11-9.849-2.11c-3.751,0-7.034,0.703-9.848,2.11
			c-2.813,1.407-5.005,3.128-6.565,5.158c-0.938,1.253-1.799,2.66-2.579,4.221c-0.784,1.564-1.407,3.792-1.876,6.683
			c-0.469,2.894-0.861,6.723-1.172,11.489c-0.315,4.77-0.47,10.984-0.47,18.641c0,7.661,0.154,13.834,0.47,18.523
			c0.311,4.689,0.703,8.481,1.172,11.372c0.469,2.895,1.092,5.122,1.876,6.683c0.78,1.564,1.642,2.971,2.579,4.221
			c1.561,2.033,3.752,3.792,6.565,5.276c2.813,1.487,6.097,2.228,9.848,2.228c3.752,0,7.035-0.74,9.849-2.228
			c2.813-1.484,5.001-3.243,6.565-5.276c0.938-1.25,1.795-2.656,2.579-4.221c0.78-1.561,1.406-3.788,1.876-6.683
			c0.469-2.891,0.857-6.683,1.172-11.372C205.971,99.098,206.128,92.925,206.128,85.264z"/>
		<path fill="#252525" d="M370.027,168.738l-53.461-83.943v83.943h-41.033V1.79h35.874l53.461,83.943V1.79h41.034v166.948H370.027z"
			/>
		<path fill="#252525" d="M511.886,38.369v130.369h-41.034V38.369h-41.033V1.79h123.101v36.579H511.886z"/>
		<path fill="#252525" d="M656.087,168.738l-7.737-24.854h-51.351l-8.207,24.854h-42.909L606.612,1.79h31.654l60.729,166.948
			H656.087z M623.495,65.099l-15.007,44.55h29.075L623.495,65.099z"/>
		<path fill="#252525" d="M808.732,159.242c-3.129,2.268-6.529,4.22-10.2,5.862c-3.675,1.641-7.737,2.894-12.192,3.751
			s-9.42,1.29-14.89,1.29c-9.848,0-18.523-1.601-26.026-4.807c-7.504-3.202-14.304-7.855-20.399-13.951
			c-4.379-4.375-7.738-9.104-10.083-14.186c-2.345-5.078-4.026-10.434-5.041-16.062c-1.019-5.627-1.564-11.449-1.642-17.469
			c-0.08-6.016-0.117-12.152-0.117-18.406c0-6.25,0.037-12.387,0.117-18.407c0.077-6.016,0.623-11.841,1.642-17.468
			c1.015-5.627,2.696-10.98,5.041-16.062c2.345-5.078,5.704-9.808,10.083-14.186c6.096-6.097,12.896-10.746,20.399-13.952
			c7.503-3.202,16.179-4.807,26.026-4.807c5.47,0,10.435,0.433,14.89,1.29c4.455,0.861,8.518,2.11,12.192,3.752
			c3.671,1.641,7.071,3.598,10.2,5.862c3.125,2.268,6.097,4.807,8.91,7.621l-27.199,27.199c-2.66-2.656-5.316-4.843-7.973-6.565
			c-2.659-1.718-6.331-2.579-11.021-2.579c-3.751,0-6.957,0.667-9.613,1.993c-2.66,1.33-4.771,3.012-6.331,5.042
			c-0.938,1.253-1.799,2.66-2.579,4.221c-0.784,1.564-1.447,3.832-1.993,6.8c-0.55,2.971-0.979,6.84-1.289,11.606
			c-0.315,4.77-0.47,10.984-0.47,18.641c0,7.661,0.154,13.875,0.47,18.641c0.311,4.771,0.739,8.639,1.289,11.607
			c0.546,2.971,1.209,5.239,1.993,6.8c0.78,1.564,1.642,2.971,2.579,4.22c1.561,2.034,3.671,3.715,6.331,5.042
			c2.656,1.33,5.862,1.993,9.613,1.993c4.689,0,8.361-0.857,11.021-2.58c2.656-1.718,5.313-3.905,7.973-6.565l27.199,27.199
			C814.829,154.435,811.857,156.978,808.732,159.242z"/>
		<path fill="#252525" d="M909.325,38.369v130.369h-41.034V38.369h-41.033V1.79h123.101v36.579H909.325z"/>
	</g>
</g>
</svg>
