<?xml version="1.0" encoding="UTF-8"?>
<!DOCTYPE svg PUBLIC "-//W3C//DTD SVG 1.1//EN" "http://www.w3.org/Graphics/SVG/1.1/DTD/svg11.dtd">
<!-- Creator: CorelDRAW -->
<svg xmlns="http://www.w3.org/2000/svg" xml:space="preserve" width="5.5in" height="4.5in" style="shape-rendering:geometricPrecision; text-rendering:geometricPrecision; image-rendering:optimizeQuality; fill-rule:evenodd; clip-rule:evenodd"
viewBox="0 0 5.5 4.5"
 xmlns:xlink="http://www.w3.org/1999/xlink">
 <defs>
  <style type="text/css">
   <![CDATA[
    .str0 {stroke:#252526;stroke-width:0.00694488}
    .fil0 {fill:#252526}
   ]]>
  </style>
 </defs>
 <g id="Layer_x0020_1">
  <metadata id="CorelCorpID_0Corel-Layer"/>
  <g id="_314282728">
   <circle id="_336271552" class="fil0 str0" cx="0.912527" cy="0.78012" r="0.0112943"/>
   <circle id="_336271720" class="fil0 str0" cx="1.02172" cy="1.88462" r="0.0112943"/>
   <circle id="_336271744" class="fil0 str0" cx="0.857437" cy="2.37916" r="0.0112943"/>
   <circle id="_336271960" class="fil0 str0" cx="1.5778" cy="2.43466" r="0.0112943"/>
   <circle id="_336271624" class="fil0 str0" cx="1.91749" cy="1.81128" r="0.0112943"/>
   <circle id="_336272128" class="fil0 str0" cx="2.36276" cy="1.26648" r="0.0112943"/>
   <circle id="_336272248" class="fil0 str0" cx="3.48543" cy="1.3922" r="0.0112943"/>
   <circle id="_336272176" class="fil0 str0" cx="3.45842" cy="2.82836" r="0.0112943"/>
   <circle id="_336272488" class="fil0 str0" cx="2.21386" cy="2.73572" r="0.0112943"/>
   <circle id="_336272608" class="fil0 str0" cx="3.36331" cy="4.2786" r="0.0112943"/>
   <circle id="_336272704" class="fil0 str0" cx="1.74878" cy="3.65654" r="0.0112943"/>
   <circle id="_336272872" class="fil0 str0" cx="0.611211" cy="3.39543" r="0.0112943"/>
   <circle id="_336273040" class="fil0 str0" cx="2.03356" cy="0.647523" r="0.0112943"/>
   <circle id="_336273280" class="fil0 str0" cx="0.168667" cy="1.14681" r="0.0112943"/>
   <circle id="_336273448" class="fil0 str0" cx="0.173903" cy="2.43989" r="0.0112943"/>
   <circle id="_336273592" class="fil0 str0" cx="1.34018" cy="2.95622" r="0.0112943"/>
   <circle id="_336273664" class="fil0 str0" cx="2.72585" cy="3.04232" r="0.0112943"/>
   <circle id="_334111528" class="fil0 str0" cx="2.38454" cy="4.34588" r="0.0112943"/>
   <circle id="_320092720" class="fil0 str0" cx="3.99275" cy="3.7189" r="0.0112943"/>
   <circle id="_320092768" class="fil0 str0" cx="4.15514" cy="0.654395" r="0.0112943"/>
   <circle id="_320093872" class="fil0 str0" cx="0.268198" cy="3.86476" r="0.0112943"/>
   <circle id="_320090632" class="fil0 str0" cx="0.377126" cy="2.89254" r="0.0112943"/>
   <circle id="_320091040" class="fil0 str0" cx="1.08792" cy="3.86689" r="0.0112943"/>
   <circle id="_314284960" class="fil0 str0" cx="2.7049" cy="3.67617" r="0.0112943"/>
   <circle id="_314286376" class="fil0 str0" cx="2.59111" cy="2.16041" r="0.0112943"/>
   <circle id="_314285032" class="fil0 str0" cx="3.15459" cy="1.02993" r="0.0112943"/>
   <circle id="_314284816" class="fil0 str0" cx="3.80058" cy="1.85614" r="0.0112943"/>
   <circle id="_314283712" class="fil0 str0" cx="4.982" cy="1.05694" r="0.0112943"/>
   <circle id="_314283568" class="fil0 str0" cx="5.41047" cy="1.55277" r="0.0112943"/>
   <circle id="_314283400" class="fil0 str0" cx="4.36026" cy="1.48649" r="0.0112943"/>
   <circle id="_314283184" class="fil0 str0" cx="4.67709" cy="2.11852" r="0.0112943"/>
   <circle id="_314284864" class="fil0 str0" cx="4.43278" cy="2.80135" r="0.0112943"/>
   <circle id="_314285536" class="fil0 str0" cx="5.36522" cy="3.53392" r="0.0112943"/>
   <circle id="_314285656" class="fil0 str0" cx="4.1629" cy="4.23405" r="0.0112943"/>
   <circle id="_314282992" class="fil0 str0" cx="4.8309" cy="3.88129" r="0.0112943"/>
   <circle id="_314286040" class="fil0 str0" cx="4.8309" cy="3.88129" r="0.0112943"/>
   <circle id="_314282872" class="fil0 str0" cx="5.15821" cy="2.93491" r="0.0112943"/>
  </g>
 </g>
</svg>
