<?xml version="1.0" encoding="UTF-8"?>
<!DOCTYPE svg PUBLIC "-//W3C//DTD SVG 1.1//EN" "http://www.w3.org/Graphics/SVG/1.1/DTD/svg11.dtd">
<!-- Creator: CorelDRAW -->
<svg xmlns="http://www.w3.org/2000/svg" xml:space="preserve" width="5.5in" height="4.5in" style="shape-rendering:geometricPrecision; text-rendering:geometricPrecision; image-rendering:optimizeQuality; fill-rule:evenodd; clip-rule:evenodd"
viewBox="0 0 5.5 4.5"
 xmlns:xlink="http://www.w3.org/1999/xlink">
 <defs>
  <style type="text/css">
   <![CDATA[
    .fil0 {fill:#089146}
   ]]>
  </style>
 </defs>
 <g id="Layer_x0020_1">
  <metadata id="CorelCorpID_0Corel-Layer"/>
  <g id="_320090464">
   <circle id="_342609168" class="fil0" cx="4.44782" cy="3.4943" r="0.0112943"/>
   <circle id="_342609840" class="fil0" cx="4.89454" cy="3.03627" r="0.0112943"/>
   <circle id="_334109320" class="fil0" cx="4.68136" cy="2.27665" r="0.01649"/>
   <circle id="_334111144" class="fil0" cx="3.87944" cy="2.37589" r="0.0112943"/>
   <circle id="_334110184" class="fil0" cx="3.91873" cy="3.0726" r="0.0112943"/>
   <circle id="_334111720" class="fil0" cx="3.09032" cy="3.07658" r="0.0112943"/>
   <circle id="_334110496" class="fil0" cx="2.21577" cy="3.21273" r="0.0112943"/>
   <circle id="_334111192" class="fil0" cx="2.19231" cy="2.13444" r="0.0112943"/>
   <circle id="_334112368" class="fil0" cx="3.31974" cy="1.9149" r="0.0112943"/>
   <circle id="_334111696" class="fil0" cx="2.63316" cy="0.647533" r="0.0112943"/>
   <circle id="_334112704" class="fil0" cx="3.78481" cy="0.994083" r="0.0112943"/>
   <circle id="_334110784" class="fil0" cx="4.92239" cy="1.25519" r="0.0112943"/>
   <circle id="_334112128" class="fil0" cx="3.51237" cy="3.66565" r="0.022544"/>
   <circle id="_334109656" class="fil0" cx="5.23144" cy="3.79061" r="0.0112943"/>
   <circle id="_321101272" class="fil0" cx="5.40792" cy="2.54385" r="0.0112943"/>
   <circle id="_325089944" class="fil0" cx="4.19341" cy="1.6944" r="0.0112943"/>
   <circle id="_325091456" class="fil0" cx="2.50129" cy="1.51097" r="0.0156198"/>
   <circle id="_370401680" class="fil0" cx="3.50577" cy="0.378141" r="0.0143072"/>
   <circle id="_370401536" class="fil0" cx="1.73739" cy="1.04355" r="0.0112943"/>
   <circle id="_370400600" class="fil0" cx="1.90945" cy="3.85428" r="0.0112943"/>
   <circle id="_370402376" class="fil0" cx="5.27499" cy="0.469421" r="0.0112943"/>
   <circle id="_188128720" class="fil0" cx="5.15647" cy="1.75808" r="0.0112943"/>
   <circle id="_314502560" class="fil0" cx="4.44804" cy="0.786088" r="0.0136553"/>
   <circle id="_314502872" class="fil0" cx="3.103" cy="1.32853" r="0.0112943"/>
   <circle id="_317675752" class="fil0" cx="2.94483" cy="2.49255" r="0.013636"/>
   <circle id="_317675608" class="fil0" cx="2.78951" cy="3.94857" r="0.0112943"/>
   <circle id="_320090488" class="fil0" cx="1.72679" cy="2.78825" r="0.0175217"/>
   <circle id="_320092144" class="fil0" cx="0.526183" cy="4.02476" r="0.0162301"/>
   <circle id="_320090104" class="fil0" cx="0.123124" cy="3.09785" r="0.0112943"/>
   <circle id="_320093728" class="fil0" cx="1.14021" cy="3.35011" r="0.0112943"/>
   <circle id="_320093344" class="fil0" cx="0.859525" cy="2.53511" r="0.0143101"/>
   <circle id="_320090752" class="fil0" cx="1.42308" cy="1.82932" r="0.0112943"/>
   <circle id="_320092984" class="fil0" cx="0.343957" cy="0.425411" r="0.0112943"/>
   <circle id="_320092240" class="fil0" cx="1.3707" cy="0.41657" r="0.0112943"/>
   <circle id="_320090656" class="fil0" cx="0.882693" cy="1.0915" r="0.0165227"/>
   <circle id="_320092192" class="fil0" cx="0.375387" cy="1.71571" r="0.0112943"/>
   <circle id="_320092816" class="fil0" cx="4.07178" cy="4.10651" r="0.0112943"/>
  </g>
 </g>
</svg>
