<?xml version="1.0" encoding="utf-8"?>
<!-- Generator: Adobe Illustrator 16.0.0, SVG Export Plug-In . SVG Version: 6.00 Build 0)  -->
<!DOCTYPE svg PUBLIC "-//W3C//DTD SVG 1.1//EN" "http://www.w3.org/Graphics/SVG/1.1/DTD/svg11.dtd">
<svg version="1.1" id="Layer_1" xmlns="http://www.w3.org/2000/svg" xmlns:xlink="http://www.w3.org/1999/xlink" x="0px" y="0px"
	 width="426.438px" height="80.633px" viewBox="0 0 426.438 80.633" enable-background="new 0 0 426.438 80.633"
	 xml:space="preserve">
<g>
	<g>
		<path fill="#171717" d="M54.972,79.992V42.08L43.742,61.648H31.29L20.062,42.08v37.912H0.605V0.833h19.122l17.789,34.911
			L55.305,0.833h19.123v79.159H54.972z"/>
		<path fill="#171717" d="M90.437,79.992V0.833h19.456v79.159H90.437z"/>
		<path fill="#171717" d="M179.044,55.712c0,4.009-0.816,7.574-2.445,10.692c-1.632,3.118-3.836,5.736-6.615,7.852
			c-2.779,2.116-6.022,3.713-9.729,4.789c-3.707,1.076-7.635,1.614-11.784,1.614c-6.079,0-11.601-0.723-16.565-2.168
			c-4.967-1.445-9.45-4.206-13.453-8.282l12.452-12.452c2.074,2.075,4.742,3.521,8.005,4.336c3.261,0.816,6.484,1.223,9.672,1.223
			c7.561,0,11.341-2.371,11.341-7.115c0-2.001-0.52-3.558-1.557-4.669c-1.112-1.112-2.854-1.816-5.226-2.113l-9.562-1.334
			c-7.042-1.037-12.34-3.371-15.898-7.004c-3.632-3.705-5.447-9.006-5.447-15.898c0-3.631,0.667-6.966,2.001-10.006
			c1.334-3.039,3.242-5.67,5.726-7.895c2.482-2.223,5.504-3.964,9.062-5.225c3.558-1.259,7.597-1.89,12.118-1.89
			c5.706,0,10.729,0.719,15.064,2.154s8.208,3.848,11.618,7.233l-12.229,12.18c-1.262-1.259-2.596-2.203-4.003-2.834
			c-1.408-0.629-2.779-1.094-4.113-1.391c-1.334-0.295-2.595-0.444-3.78-0.444c-1.187,0-2.224,0-3.112,0
			c-1.706,0-3.151,0.224-4.336,0.669c-1.187,0.445-2.168,1.02-2.946,1.725s-1.354,1.486-1.724,2.34
			c-0.371,0.855-0.556,1.727-0.556,2.617c0,0.521,0.111,1.115,0.334,1.781c0.222,0.67,0.628,1.3,1.223,1.895
			c0.518,0.521,1.204,1.004,2.057,1.448c0.852,0.444,1.982,0.741,3.391,0.89l9.562,1.338c6.966,0.965,12.155,3.154,15.564,6.569
			c2.149,2.081,3.669,4.569,4.559,7.463C178.6,48.695,179.044,52,179.044,55.712z"/>
		<path fill="#171717" d="M244.971,55.712c0,4.009-0.816,7.574-2.445,10.692c-1.632,3.118-3.836,5.736-6.615,7.852
			c-2.779,2.116-6.022,3.713-9.729,4.789c-3.707,1.076-7.635,1.614-11.784,1.614c-6.079,0-11.601-0.723-16.565-2.168
			c-4.967-1.445-9.45-4.206-13.453-8.282l12.452-12.452c2.074,2.075,4.742,3.521,8.005,4.336c3.261,0.816,6.484,1.223,9.672,1.223
			c7.561,0,11.341-2.371,11.341-7.115c0-2.001-0.52-3.558-1.557-4.669c-1.112-1.112-2.854-1.816-5.226-2.113l-9.562-1.334
			c-7.042-1.037-12.34-3.371-15.898-7.004c-3.632-3.705-5.447-9.006-5.447-15.898c0-3.631,0.667-6.966,2.001-10.006
			c1.334-3.039,3.242-5.67,5.726-7.895c2.482-2.223,5.504-3.964,9.062-5.225c3.558-1.259,7.597-1.89,12.118-1.89
			c5.706,0,10.729,0.719,15.064,2.154s8.208,3.848,11.618,7.233l-12.229,12.18c-1.262-1.259-2.596-2.203-4.003-2.834
			c-1.408-0.629-2.779-1.094-4.113-1.391c-1.334-0.295-2.595-0.444-3.78-0.444c-1.187,0-2.224,0-3.112,0
			c-1.706,0-3.151,0.224-4.336,0.669c-1.187,0.445-2.168,1.02-2.946,1.725s-1.354,1.486-1.724,2.34
			c-0.371,0.855-0.556,1.727-0.556,2.617c0,0.521,0.111,1.115,0.334,1.781c0.222,0.67,0.628,1.3,1.223,1.895
			c0.518,0.521,1.204,1.004,2.057,1.448c0.852,0.444,1.982,0.741,3.391,0.89l9.562,1.338c6.966,0.965,12.155,3.154,15.564,6.569
			c2.149,2.081,3.669,4.569,4.559,7.463C244.526,48.695,244.971,52,244.971,55.712z"/>
		<path fill="#171717" d="M257.755,79.992V0.833h19.456v79.159H257.755z"/>
		<path fill="#171717" d="M350.92,40.413c0,2.966-0.02,5.875-0.056,8.728c-0.038,2.854-0.297,5.614-0.778,8.283
			c-0.482,2.668-1.278,5.207-2.391,7.615c-1.111,2.409-2.706,4.652-4.78,6.727c-2.891,2.891-6.078,5.096-9.562,6.614
			c-3.484,1.521-7.671,2.279-12.563,2.279c-4.893,0-9.08-0.759-12.563-2.279c-3.484-1.519-6.671-3.724-9.562-6.614
			c-2.075-2.074-3.669-4.317-4.78-6.727c-1.111-2.408-1.909-4.947-2.391-7.615c-0.482-2.669-0.741-5.43-0.778-8.283
			c-0.038-2.853-0.056-5.762-0.056-8.728c0-2.964,0.018-5.874,0.056-8.728c0.037-2.853,0.296-5.615,0.778-8.283
			c0.481-2.668,1.279-5.206,2.391-7.615c1.111-2.408,2.705-4.65,4.78-6.727c2.891-2.89,6.077-5.095,9.562-6.614
			c3.483-1.52,7.671-2.279,12.563-2.279c4.892,0,9.078,0.76,12.563,2.279c3.483,1.52,6.671,3.725,9.562,6.614
			c2.074,2.076,3.669,4.318,4.78,6.727c1.112,2.409,1.908,4.947,2.391,7.615c0.481,2.668,0.74,5.431,0.778,8.283
			C350.9,34.539,350.92,37.449,350.92,40.413z M331.464,40.413c0-3.631-0.075-6.577-0.223-8.839
			c-0.149-2.26-0.333-4.075-0.556-5.447c-0.223-1.371-0.52-2.428-0.89-3.169c-0.371-0.74-0.778-1.407-1.223-2.001
			c-0.742-0.963-1.779-1.779-3.113-2.446s-2.891-1.001-4.669-1.001c-1.779,0-3.336,0.334-4.67,1.001s-2.373,1.483-3.113,2.446
			c-0.444,0.594-0.853,1.261-1.223,2.001c-0.371,0.741-0.667,1.798-0.89,3.169c-0.222,1.372-0.408,3.188-0.556,5.447
			c-0.149,2.262-0.222,5.208-0.222,8.839c0,3.632,0.072,6.56,0.222,8.782c0.147,2.225,0.334,4.021,0.556,5.393
			c0.223,1.373,0.519,2.429,0.89,3.169c0.37,0.741,0.778,1.409,1.223,2.001c0.74,0.965,1.779,1.798,3.113,2.502
			c1.334,0.705,2.891,1.056,4.67,1.056c1.778,0,3.335-0.351,4.669-1.056c1.334-0.704,2.371-1.537,3.113-2.502
			c0.444-0.592,0.852-1.26,1.223-2.001c0.37-0.74,0.667-1.796,0.89-3.169c0.223-1.371,0.406-3.168,0.556-5.393
			C331.389,46.973,331.464,44.045,331.464,40.413z"/>
		<path fill="#171717" d="M409.177,79.992L383.828,40.19v39.802h-19.456V0.833h17.01l25.349,39.802V0.833h19.456v79.159H409.177z"/>
	</g>
</g>
</svg>
