<?xml version="1.0" encoding="utf-8"?>
<!-- Generator: Adobe Illustrator 16.0.0, SVG Export Plug-In . SVG Version: 6.00 Build 0)  -->
<!DOCTYPE svg PUBLIC "-//W3C//DTD SVG 1.1//EN" "http://www.w3.org/Graphics/SVG/1.1/DTD/svg11.dtd">
<svg version="1.1" id="Layer_1" xmlns="http://www.w3.org/2000/svg" xmlns:xlink="http://www.w3.org/1999/xlink" x="0px" y="0px"
	 width="980.079px" height="578.832px" viewBox="0 0 980.079 578.832" enable-background="new 0 0 980.079 578.832"
	 xml:space="preserve">
<g>
	<g>
		<path fill="#232325" d="M207.109,137.231c0,9.805-0.063,19.426-0.184,28.857c-0.127,9.437-0.982,18.564-2.573,27.388
			c-1.598,8.822-4.228,17.22-7.904,25.181c-3.676,7.967-8.949,15.382-15.807,22.241c-9.559,9.557-20.099,16.852-31.615,21.872
			c-11.522,5.026-25.365,7.536-41.54,7.536s-30.023-2.51-41.54-7.536c-11.522-5.021-22.057-12.315-31.614-21.872
			c-6.864-6.859-12.132-14.274-15.808-22.241c-3.676-7.961-6.313-16.358-7.903-25.181c-1.598-8.823-2.453-17.951-2.573-27.388
			c-0.127-9.432-0.185-19.053-0.185-28.857c0-9.8,0.058-19.421,0.185-28.858c0.12-9.431,0.976-18.564,2.573-27.387
			c1.591-8.822,4.228-17.215,7.903-25.182c3.676-7.961,8.943-15.376,15.808-22.24c9.558-9.558,20.092-16.847,31.614-21.873
			c11.517-5.02,25.365-7.535,41.54-7.535s30.018,2.516,41.54,7.535c11.517,5.026,22.057,12.315,31.615,21.873
			c6.857,6.864,12.131,14.279,15.807,22.24c3.677,7.967,6.307,16.359,7.904,25.182c1.591,8.822,2.446,17.956,2.573,27.387
			C207.046,117.811,207.109,127.432,207.109,137.231z M142.777,137.231c0-12.005-0.247-21.747-0.735-29.226
			c-0.494-7.473-1.103-13.475-1.838-18.013c-0.735-4.532-1.718-8.024-2.941-10.478c-1.229-2.446-2.573-4.652-4.044-6.616
			c-2.452-3.183-5.881-5.882-10.293-8.088c-4.411-2.206-9.558-3.308-15.439-3.308s-11.028,1.102-15.439,3.308
			s-7.847,4.905-10.293,8.088c-1.471,1.964-2.82,4.17-4.044,6.616c-1.229,2.453-2.206,5.945-2.941,10.478
			c-0.734,4.538-1.35,10.54-1.838,18.013c-0.494,7.479-0.735,17.221-0.735,29.226c0,12.011,0.241,21.688,0.735,29.041
			c0.488,7.353,1.104,13.298,1.838,17.829c0.735,4.538,1.712,8.03,2.941,10.477c1.224,2.453,2.573,4.658,4.044,6.617
			c2.446,3.188,5.882,5.945,10.293,8.271c4.411,2.332,9.558,3.492,15.439,3.492s11.028-1.16,15.439-3.492
			c4.412-2.326,7.841-5.083,10.293-8.271c1.471-1.959,2.815-4.164,4.044-6.617c1.224-2.446,2.206-5.938,2.941-10.477
			c0.735-4.531,1.344-10.477,1.838-17.829C142.53,158.92,142.777,149.242,142.777,137.231z"/>
		<path fill="#232325" d="M448.813,214.98c-5.272,11.644-12.441,21.569-21.505,29.777c-9.069,8.214-19.609,14.521-31.614,18.932
			c-12.011,4.412-24.877,6.617-38.6,6.617c-13.481,0-26.227-2.205-38.231-6.617c-12.011-4.411-22.551-10.718-31.615-18.932
			c-9.069-8.208-16.175-18.134-21.321-29.777c-5.146-11.637-7.72-24.566-7.72-38.782V6.361h64.332v168.366
			c0,12.258,3.062,21.689,9.19,28.306c6.123,6.617,14.578,9.926,25.365,9.926c10.781,0,19.357-3.309,25.732-9.926
			c6.37-6.616,9.559-16.048,9.559-28.306V6.361h64.332v169.837C456.718,190.414,454.081,203.344,448.813,214.98z"/>
		<path fill="#232325" d="M648.606,268.102l-46.319-97.418h-21.689v97.418h-64.332V6.361h103.667c14.457,0,27.261,2.39,38.415,7.168
			c11.149,4.779,20.523,11.092,28.123,18.933c7.593,7.847,13.291,16.79,17.094,26.835c3.797,10.053,5.697,20.467,5.697,31.248
			c0,8.822-1.229,16.91-3.676,24.262c-2.452,7.353-5.698,13.85-9.741,19.484c-4.044,5.64-8.64,10.477-13.786,14.52
			c-5.146,4.045-10.293,7.416-15.439,10.109l56.612,109.182H648.606z M644.93,90.545c0-6.858-2.452-12.987-7.352-18.381
			c-4.905-5.388-11.764-8.088-20.587-8.088h-36.394v52.937h36.394c8.823,0,15.682-2.694,20.587-8.087
			C642.478,103.537,644.93,97.408,644.93,90.545z"/>
		<path fill="#232325" d="M129.543,368.844v204.392H65.211V368.844H0.879v-57.348h192.996v57.348H129.543z"/>
		<path fill="#232325" d="M242.396,573.235V311.496h177.925v57.348H306.729v43.745h97.05v57.348h-97.05v45.951h113.593v57.348
			H242.396z"/>
		<path fill="#232325" d="M623.237,573.235l-12.131-38.967H530.6l-12.866,38.967H450.46l95.212-261.739h49.627l95.212,261.739
			H623.237z M572.14,410.751l-23.527,69.847h45.584L572.14,410.751z"/>
		<path fill="#232325" d="M907.77,573.235V447.88l-37.129,64.7h-41.173l-37.129-64.7v125.355h-64.332V311.496h63.229l58.818,115.43
			l58.817-115.43h63.229v261.739H907.77z"/>
	</g>
</g>
</svg>
