<?xml version="1.0" encoding="utf-8"?>
<!-- Generator: Adobe Illustrator 16.0.0, SVG Export Plug-In . SVG Version: 6.00 Build 0)  -->
<!DOCTYPE svg PUBLIC "-//W3C//DTD SVG 1.1//EN" "http://www.w3.org/Graphics/SVG/1.1/DTD/svg11.dtd">
<svg version="1.1" id="Layer_1" xmlns="http://www.w3.org/2000/svg" xmlns:xlink="http://www.w3.org/1999/xlink" x="0px" y="0px"
	 width="1279.574px" height="182.385px" viewBox="0 0 1279.574 182.385" enable-background="new 0 0 1279.574 182.385"
	 xml:space="preserve">
<g>
	<g>
		<path fill="#222222" d="M280.264,91.384c0,6.521-0.042,12.92-0.122,19.192c-0.084,6.276-0.653,12.346-1.711,18.214
			c-1.062,5.867-2.812,11.452-5.256,16.746c-2.445,5.299-5.952,10.23-10.513,14.791c-6.356,6.356-13.366,11.208-21.025,14.547
			c-7.663,3.343-16.869,5.012-27.626,5.012c-10.757,0-19.967-1.669-27.626-5.012c-7.663-3.339-14.669-8.19-21.025-14.547
			c-4.565-4.561-8.068-9.492-10.513-14.791c-2.445-5.294-4.198-10.879-5.256-16.746c-1.062-5.868-1.631-11.938-1.711-18.214
			c-0.084-6.272-0.122-12.671-0.122-19.192c0-6.517,0.038-12.915,0.122-19.191c0.081-6.272,0.649-12.346,1.711-18.214
			c1.058-5.867,2.812-11.448,5.256-16.746c2.445-5.295,5.948-10.227,10.513-14.791c6.356-6.356,13.362-11.204,21.025-14.547
			c7.659-3.339,16.869-5.012,27.626-5.012c10.757,0,19.963,1.673,27.626,5.012c7.659,3.343,14.668,8.19,21.025,14.547
			c4.561,4.564,8.068,9.496,10.513,14.791c2.445,5.298,4.194,10.879,5.256,16.746c1.058,5.868,1.627,11.941,1.711,18.214
			C280.222,78.469,280.264,84.867,280.264,91.384z M237.48,91.384c0-7.983-0.165-14.462-0.489-19.436
			c-0.328-4.97-0.733-8.962-1.222-11.979c-0.489-3.014-1.142-5.337-1.956-6.968c-0.817-1.627-1.711-3.095-2.689-4.4
			c-1.631-2.116-3.912-3.912-6.846-5.379c-2.934-1.467-6.356-2.2-10.268-2.2s-7.334,0.733-10.268,2.2s-5.218,3.263-6.845,5.379
			c-0.978,1.306-1.876,2.773-2.689,4.4c-0.817,1.631-1.467,3.954-1.956,6.968c-0.489,3.018-0.897,7.01-1.222,11.979
			c-0.329,4.974-0.489,11.452-0.489,19.436c0,7.988,0.161,14.425,0.489,19.314c0.325,4.89,0.733,8.843,1.222,11.857
			c0.489,3.018,1.139,5.34,1.956,6.968c0.813,1.631,1.711,3.098,2.689,4.4c1.627,2.12,3.912,3.953,6.845,5.501
			c2.934,1.551,6.356,2.322,10.268,2.322s7.334-0.771,10.268-2.322c2.934-1.548,5.214-3.381,6.846-5.501
			c0.978-1.303,1.872-2.77,2.689-4.4c0.814-1.628,1.467-3.95,1.956-6.968c0.489-3.015,0.894-6.968,1.222-11.857
			C237.316,105.809,237.48,99.372,237.48,91.384z"/>
		<path fill="#222222" d="M403.237,178.419l-30.805-64.787h-14.424v64.787h-42.784V4.35h68.943c9.615,0,18.129,1.589,25.548,4.768
			c7.415,3.178,13.649,7.376,18.703,12.591c5.05,5.218,8.839,11.165,11.368,17.847c2.524,6.685,3.789,13.61,3.789,20.78
			c0,5.868-0.817,11.246-2.444,16.136c-1.632,4.89-3.79,9.21-6.479,12.958c-2.689,3.751-5.746,6.968-9.168,9.656
			c-3.423,2.689-6.846,4.932-10.269,6.724l37.649,72.61H403.237z M400.792,60.335c0-4.561-1.631-8.637-4.89-12.224
			c-3.262-3.583-7.823-5.379-13.691-5.379h-24.204v35.205h24.204c5.868,0,10.429-1.791,13.691-5.378
			C399.161,68.977,400.792,64.9,400.792,60.335z"/>
		<path fill="#222222" d="M555.302,42.488v135.931h-42.784V42.488h-42.784V4.35h128.353v38.139H555.302z"/>
		<path fill="#222222" d="M671.184,42.488v30.56h64.542v38.14h-64.542v67.231h-42.784V4.35h118.328v38.139H671.184z"/>
		<path fill="#222222" d="M901.483,91.384c0,6.521-0.042,12.92-0.122,19.192c-0.084,6.276-0.653,12.346-1.711,18.214
			c-1.063,5.867-2.812,11.452-5.257,16.746c-2.444,5.299-5.951,10.23-10.513,14.791c-6.356,6.356-13.366,11.208-21.025,14.547
			c-7.663,3.343-16.869,5.012-27.626,5.012s-19.967-1.669-27.626-5.012c-7.663-3.339-14.669-8.19-21.025-14.547
			c-4.564-4.561-8.067-9.492-10.513-14.791c-2.444-5.294-4.198-10.879-5.256-16.746c-1.063-5.868-1.632-11.938-1.712-18.214
			c-0.084-6.272-0.122-12.671-0.122-19.192c0-6.517,0.038-12.915,0.122-19.191c0.08-6.272,0.649-12.346,1.712-18.214
			c1.058-5.867,2.812-11.448,5.256-16.746c2.445-5.295,5.948-10.227,10.513-14.791c6.356-6.356,13.362-11.204,21.025-14.547
			c7.659-3.339,16.869-5.012,27.626-5.012s19.963,1.673,27.626,5.012c7.659,3.343,14.669,8.19,21.025,14.547
			c4.562,4.564,8.068,9.496,10.513,14.791c2.445,5.298,4.194,10.879,5.257,16.746c1.058,5.868,1.627,11.941,1.711,18.214
			C901.441,78.469,901.483,84.867,901.483,91.384z M858.699,91.384c0-7.983-0.164-14.462-0.488-19.436
			c-0.329-4.97-0.733-8.962-1.223-11.979c-0.489-3.014-1.143-5.337-1.956-6.968c-0.817-1.627-1.711-3.095-2.689-4.4
			c-1.631-2.116-3.911-3.912-6.845-5.379c-2.935-1.467-6.356-2.2-10.269-2.2c-3.911,0-7.334,0.733-10.269,2.2
			c-2.934,1.467-5.218,3.263-6.845,5.379c-0.979,1.306-1.876,2.773-2.689,4.4c-0.817,1.631-1.467,3.954-1.956,6.968
			c-0.489,3.018-0.897,7.01-1.223,11.979c-0.328,4.974-0.488,11.452-0.488,19.436c0,7.988,0.16,14.425,0.488,19.314
			c0.325,4.89,0.733,8.843,1.223,11.857c0.489,3.018,1.139,5.34,1.956,6.968c0.813,1.631,1.711,3.098,2.689,4.4
			c1.627,2.12,3.911,3.953,6.845,5.501c2.935,1.551,6.357,2.322,10.269,2.322c3.912,0,7.334-0.771,10.269-2.322
			c2.934-1.548,5.214-3.381,6.845-5.501c0.979-1.303,1.872-2.77,2.689-4.4c0.813-1.628,1.467-3.95,1.956-6.968
			c0.489-3.015,0.894-6.968,1.223-11.857C858.535,105.809,858.699,99.372,858.699,91.384z"/>
		<path fill="#222222" d="M936.444,178.419V4.35h42.784V140.28h73.1v38.139H936.444z"/>
		<path fill="#222222" d="M1082.641,178.419V4.35h42.784v174.069H1082.641z"/>
		<path fill="#222222" d="M1279.574,27.242c-1.31-1.642-2.732-3.244-4.288-4.801c-6.356-6.356-13.366-11.204-21.025-14.547
			c-7.663-3.339-16.869-5.012-27.626-5.012s-19.967,1.673-27.626,5.012c-7.663,3.343-14.669,8.19-21.025,14.547
			c-4.564,4.564-8.067,9.496-10.513,14.791c-2.444,5.298-4.198,10.879-5.256,16.746c-1.063,5.868-1.632,11.941-1.712,18.214
			c-0.084,6.276-0.122,12.675-0.122,19.191c0,6.521,0.038,12.92,0.122,19.192c0.08,6.276,0.649,12.346,1.712,18.214
			c1.058,5.867,2.812,11.452,5.256,16.746c2.445,5.299,5.948,10.23,10.513,14.791c6.356,6.356,13.362,11.208,21.025,14.547
			c7.659,3.343,16.869,5.012,27.626,5.012s19.963-1.669,27.626-5.012c7.659-3.339,14.669-8.19,21.025-14.547
			c1.556-1.555,2.979-3.157,4.288-4.798V27.242z M1249.616,110.698c-0.329,4.89-0.733,8.843-1.223,11.857
			c-0.489,3.018-1.143,5.34-1.956,6.968c-0.817,1.631-1.711,3.098-2.689,4.4c-1.631,2.12-3.911,3.953-6.845,5.501
			c-2.935,1.551-6.356,2.322-10.269,2.322c-3.911,0-7.334-0.771-10.269-2.322c-2.934-1.548-5.218-3.381-6.845-5.501
			c-0.979-1.303-1.876-2.77-2.689-4.4c-0.817-1.628-1.467-3.95-1.956-6.968c-0.489-3.015-0.897-6.968-1.223-11.857
			c-0.328-4.89-0.488-11.326-0.488-19.314c0-7.983,0.16-14.462,0.488-19.436c0.325-4.97,0.733-8.962,1.223-11.979
			c0.489-3.014,1.139-5.337,1.956-6.968c0.813-1.627,1.711-3.095,2.689-4.4c1.627-2.116,3.911-3.912,6.845-5.379
			c2.935-1.467,6.357-2.2,10.269-2.2c3.912,0,7.334,0.733,10.269,2.2c2.934,1.467,5.214,3.263,6.845,5.379
			c0.979,1.306,1.872,2.773,2.689,4.4c0.813,1.631,1.467,3.954,1.956,6.968c0.489,3.018,0.894,7.01,1.223,11.979
			c0.324,4.974,0.488,11.452,0.488,19.436C1250.104,99.372,1249.94,105.809,1249.616,110.698z"/>
		<path fill="#222222" d="M119.275,39.555c-2.529-6.682-6.318-12.629-11.369-17.847c-5.054-5.215-11.288-9.413-18.703-12.591
			C81.785,5.938,73.271,4.35,63.656,4.35H0.217v174.069h37.279v-62.098h26.16c9.615,0,18.129-1.589,25.548-4.768
			c7.415-3.178,13.649-7.372,18.703-12.591c5.05-5.214,8.84-11.162,11.369-17.847c2.525-6.682,3.789-13.607,3.789-20.781
			C123.064,53.165,121.8,46.239,119.275,39.555z M75.391,72.56c-3.262,3.587-7.823,5.378-13.691,5.378H37.496V42.732H61.7
			c5.868,0,10.429,1.796,13.691,5.379c3.258,3.587,4.89,7.663,4.89,12.224C80.28,64.9,78.649,68.977,75.391,72.56z"/>
	</g>
</g>
</svg>
