<?xml version="1.0" encoding="utf-8"?>
<!-- Generator: Adobe Illustrator 16.0.0, SVG Export Plug-In . SVG Version: 6.00 Build 0)  -->
<!DOCTYPE svg PUBLIC "-//W3C//DTD SVG 1.1//EN" "http://www.w3.org/Graphics/SVG/1.1/DTD/svg11.dtd">
<svg version="1.1" id="Layer_1" xmlns="http://www.w3.org/2000/svg" xmlns:xlink="http://www.w3.org/1999/xlink" x="0px" y="0px"
	 width="404px" height="401.45px" viewBox="0 0 404 401.45" enable-background="new 0 0 404 401.45" xml:space="preserve">
<g>
	<g>
		<path fill="#232325" d="M31.795,45.797c-0.888,0.644-1.852,1.197-2.894,1.663s-2.195,0.821-3.459,1.064s-2.672,0.366-4.224,0.366
			c-2.794,0-5.255-0.454-7.383-1.364c-2.129-0.908-4.058-2.228-5.787-3.957c-1.242-1.241-2.195-2.583-2.86-4.024
			c-0.665-1.44-1.143-2.96-1.431-4.557s-0.443-3.248-0.465-4.955C3.27,28.326,3.26,26.585,3.26,24.812s0.01-3.515,0.033-5.222
			c0.021-1.707,0.177-3.359,0.465-4.956c0.288-1.596,0.766-3.114,1.431-4.556c0.665-1.44,1.618-2.782,2.86-4.024
			c1.729-1.729,3.658-3.049,5.787-3.958c2.128-0.908,4.589-1.363,7.383-1.363c1.552,0,2.96,0.122,4.224,0.365
			c1.264,0.244,2.417,0.599,3.459,1.064s2.006,1.021,2.894,1.663c0.887,0.644,1.729,1.363,2.527,2.162l-7.716,7.716
			c-0.754-0.754-1.508-1.374-2.262-1.862s-1.796-0.732-3.126-0.732c-1.064,0-1.974,0.189-2.728,0.565
			c-0.754,0.378-1.353,0.854-1.796,1.431c-0.266,0.355-0.51,0.754-0.731,1.197c-0.223,0.443-0.41,1.087-0.565,1.929
			c-0.155,0.843-0.277,1.94-0.365,3.293c-0.09,1.353-0.134,3.115-0.134,5.288s0.044,3.936,0.134,5.288
			c0.088,1.353,0.21,2.45,0.365,3.292c0.155,0.843,0.343,1.486,0.565,1.93c0.222,0.443,0.466,0.843,0.731,1.197
			c0.443,0.576,1.042,1.054,1.796,1.43c0.754,0.377,1.663,0.565,2.728,0.565c1.33,0,2.372-0.243,3.126-0.731
			c0.754-0.487,1.508-1.108,2.262-1.862l7.716,7.716C33.524,44.434,32.682,45.155,31.795,45.797z"/>
		<path fill="#232325" d="M65.12,48.491l-8.381-17.627h-3.925v17.627H41.174V1.131h18.758c2.616,0,4.933,0.433,6.951,1.298
			c2.018,0.864,3.714,2.007,5.089,3.425c1.374,1.42,2.404,3.038,3.093,4.856c0.687,1.818,1.031,3.703,1.031,5.653
			c0,1.597-0.223,3.061-0.666,4.391s-1.03,2.506-1.763,3.525c-0.731,1.021-1.563,1.896-2.494,2.627
			c-0.931,0.732-1.862,1.342-2.794,1.829l10.244,19.756H65.12z M64.455,16.363c0-1.24-0.444-2.35-1.33-3.325
			c-0.888-0.976-2.129-1.464-3.726-1.464h-6.585v9.578h6.585c1.597,0,2.838-0.487,3.726-1.463
			C64.011,18.715,64.455,17.605,64.455,16.363z"/>
		<path fill="#232325" d="M84.542,48.491V1.131h32.194v10.377H96.183v7.916h17.561V29.8H96.183v8.314h20.554v10.377H84.542z"/>
		<path fill="#232325" d="M151.457,48.491l-2.195-7.051h-14.566l-2.328,7.051h-12.173l17.228-47.36h8.98l17.228,47.36H151.457z
			 M142.211,19.091l-4.257,12.638h8.248L142.211,19.091z"/>
		<path fill="#232325" d="M184.915,11.508v36.983h-11.641V11.508h-11.641V1.131h34.922v10.377H184.915z"/>
		<path fill="#232325" d="M203.34,48.491V1.131h11.641v47.36H203.34z"/>
		<path fill="#232325" d="M244.047,48.491H235.4l-15.632-47.36h12.039l7.982,26.474l7.849-26.474h12.106L244.047,48.491z"/>
		<path fill="#232325" d="M264.534,48.491V1.131h32.194v10.377h-20.554v7.916h17.561V29.8h-17.561v8.314h20.554v10.377H264.534z"/>
		<path fill="#232325" d="M36.584,103.965c0,2.398-0.488,4.531-1.463,6.396c-0.977,1.866-2.295,3.433-3.958,4.698
			s-3.604,2.221-5.82,2.865c-2.218,0.644-4.567,0.966-7.051,0.966c-3.637,0-6.94-0.433-9.911-1.298
			c-2.971-0.864-5.653-2.516-8.048-4.955l7.449-7.45c1.241,1.242,2.838,2.107,4.789,2.595c1.951,0.488,3.88,0.731,5.787,0.731
			c4.523,0,6.785-1.419,6.785-4.257c0-1.197-0.311-2.129-0.932-2.794c-0.665-0.665-1.707-1.086-3.126-1.264l-5.721-0.798
			c-4.213-0.621-7.383-2.018-9.512-4.191c-2.173-2.217-3.26-5.388-3.26-9.512c0-2.172,0.399-4.168,1.197-5.986
			c0.799-1.817,1.939-3.393,3.426-4.723c1.485-1.33,3.293-2.372,5.422-3.126c2.128-0.754,4.545-1.131,7.25-1.131
			c3.414,0,6.419,0.43,9.013,1.288c2.595,0.86,4.911,2.303,6.951,4.328l-7.316,7.288c-0.755-0.754-1.553-1.319-2.396-1.696
			c-0.843-0.376-1.662-0.654-2.461-0.832c-0.798-0.177-1.553-0.266-2.262-0.266s-1.33,0-1.862,0c-1.021,0-1.885,0.134-2.594,0.4
			c-0.71,0.266-1.297,0.609-1.763,1.031c-0.466,0.423-0.81,0.889-1.031,1.4c-0.223,0.512-0.332,1.033-0.332,1.565
			c0,0.312,0.066,0.667,0.199,1.066c0.133,0.4,0.376,0.777,0.731,1.133c0.31,0.312,0.721,0.601,1.23,0.866
			c0.51,0.267,1.187,0.444,2.029,0.532l5.72,0.801c4.168,0.578,7.272,1.888,9.313,3.931c1.286,1.245,2.195,2.733,2.728,4.465
			C36.318,99.767,36.584,101.743,36.584,103.965z"/>
		<path fill="#232325" d="M44.232,118.491v-47.36h11.641v47.36H44.232z"/>
		<path fill="#232325" d="M97.978,118.491V95.809l-6.719,11.707h-7.45l-6.718-11.707v22.683H65.45v-47.36h11.441l10.643,20.887
			l10.643-20.887h11.44v47.36H97.978z"/>
		<path fill="#232325" d="M154.118,86.363c0,1.952-0.345,3.837-1.031,5.654c-0.688,1.818-1.719,3.437-3.093,4.855
			c-1.375,1.42-3.071,2.562-5.089,3.426c-2.019,0.865-4.335,1.297-6.951,1.297h-7.117v16.896h-11.641v-47.36h18.758
			c2.616,0,4.933,0.433,6.951,1.298c2.018,0.864,3.714,2.007,5.089,3.425c1.374,1.42,2.404,3.038,3.093,4.856
			C153.773,82.528,154.118,84.413,154.118,86.363z M142.478,86.363c0-1.24-0.444-2.35-1.33-3.325
			c-0.888-0.976-2.129-1.464-3.726-1.464h-6.585v9.578h6.585c1.597,0,2.838-0.487,3.726-1.463
			C142.033,88.715,142.478,87.605,142.478,86.363z"/>
		<path fill="#232325" d="M160.902,118.491v-47.36h11.641v36.983h19.889v10.377H160.902z"/>
		<path fill="#232325" d="M199.215,118.491v-47.36h32.194v10.377h-20.554v7.916h17.561V99.8h-17.561v8.314h20.554v10.377H199.215z"
			/>
		<path fill="#232325" d="M31.795,185.797c-0.888,0.644-1.852,1.197-2.894,1.663s-2.195,0.821-3.459,1.064s-2.672,0.366-4.224,0.366
			c-2.794,0-5.255-0.454-7.383-1.364c-2.129-0.908-4.058-2.228-5.787-3.957c-1.242-1.241-2.195-2.583-2.86-4.024
			c-0.665-1.44-1.143-2.96-1.431-4.557s-0.443-3.248-0.465-4.955c-0.023-1.707-0.033-3.448-0.033-5.222s0.01-3.515,0.033-5.222
			c0.021-1.707,0.177-3.359,0.465-4.956c0.288-1.596,0.766-3.114,1.431-4.556c0.665-1.44,1.618-2.782,2.86-4.024
			c1.729-1.729,3.658-3.049,5.787-3.958c2.128-0.908,4.589-1.363,7.383-1.363c1.552,0,2.96,0.122,4.224,0.365
			c1.264,0.244,2.417,0.599,3.459,1.064s2.006,1.021,2.894,1.663c0.887,0.644,1.729,1.363,2.527,2.162l-7.716,7.716
			c-0.754-0.754-1.508-1.374-2.262-1.862s-1.796-0.732-3.126-0.732c-1.064,0-1.974,0.189-2.728,0.565
			c-0.754,0.378-1.353,0.854-1.796,1.431c-0.266,0.355-0.51,0.754-0.731,1.197c-0.223,0.443-0.41,1.087-0.565,1.929
			c-0.155,0.843-0.277,1.94-0.365,3.293c-0.09,1.353-0.134,3.115-0.134,5.288s0.044,3.936,0.134,5.288
			c0.088,1.353,0.21,2.45,0.365,3.292c0.155,0.843,0.343,1.486,0.565,1.93c0.222,0.443,0.466,0.843,0.731,1.197
			c0.443,0.576,1.042,1.054,1.796,1.43c0.754,0.377,1.663,0.565,2.728,0.565c1.33,0,2.372-0.243,3.126-0.731
			c0.754-0.487,1.508-1.108,2.262-1.862l7.716,7.716C33.524,184.434,32.682,185.155,31.795,185.797z"/>
		<path fill="#232325" d="M73.036,164.812c0,1.773-0.012,3.515-0.033,5.222c-0.023,1.707-0.178,3.358-0.466,4.955
			c-0.289,1.597-0.765,3.116-1.43,4.557c-0.666,1.441-1.619,2.783-2.86,4.024c-1.729,1.729-3.637,3.049-5.721,3.957
			c-2.085,0.91-4.59,1.364-7.517,1.364s-5.433-0.454-7.517-1.364c-2.084-0.908-3.99-2.228-5.72-3.957
			c-1.242-1.241-2.195-2.583-2.86-4.024c-0.665-1.44-1.143-2.96-1.431-4.557s-0.443-3.248-0.465-4.955
			c-0.023-1.707-0.033-3.448-0.033-5.222s0.01-3.515,0.033-5.222c0.021-1.707,0.177-3.359,0.465-4.956
			c0.288-1.596,0.766-3.114,1.431-4.556c0.665-1.44,1.618-2.782,2.86-4.024c1.729-1.729,3.636-3.049,5.72-3.958
			c2.084-0.908,4.59-1.363,7.517-1.363s5.432,0.455,7.517,1.363c2.084,0.909,3.991,2.229,5.721,3.958
			c1.241,1.242,2.194,2.584,2.86,4.024c0.665,1.441,1.141,2.96,1.43,4.556c0.288,1.597,0.442,3.249,0.466,4.956
			C73.024,161.297,73.036,163.038,73.036,164.812z M61.396,164.812c0-2.173-0.045-3.936-0.133-5.288
			c-0.09-1.353-0.199-2.438-0.333-3.26c-0.133-0.82-0.311-1.452-0.532-1.896c-0.222-0.442-0.465-0.842-0.731-1.197
			c-0.443-0.576-1.064-1.064-1.862-1.464c-0.798-0.398-1.729-0.599-2.794-0.599s-1.995,0.2-2.794,0.599
			c-0.798,0.399-1.419,0.888-1.862,1.464c-0.266,0.355-0.51,0.755-0.731,1.197c-0.223,0.443-0.399,1.075-0.532,1.896
			c-0.133,0.821-0.244,1.907-0.332,3.26c-0.09,1.353-0.134,3.115-0.134,5.288s0.044,3.924,0.134,5.255
			c0.088,1.33,0.199,2.405,0.332,3.226c0.133,0.821,0.31,1.453,0.532,1.896c0.222,0.444,0.466,0.843,0.731,1.197
			c0.443,0.577,1.064,1.076,1.862,1.497c0.799,0.422,1.729,0.632,2.794,0.632s1.996-0.21,2.794-0.632
			c0.798-0.421,1.419-0.92,1.862-1.497c0.267-0.354,0.51-0.753,0.731-1.197c0.222-0.442,0.399-1.074,0.532-1.896
			c0.134-0.82,0.243-1.896,0.333-3.226C61.351,168.735,61.396,166.984,61.396,164.812z"/>
		<path fill="#232325" d="M113.611,188.491v-22.683l-6.719,11.707h-7.45l-6.718-11.707v22.683H81.084v-47.36h11.441l10.643,20.887
			l10.643-20.887h11.44v47.36H113.611z"/>
		<path fill="#232325" d="M169.751,156.363c0,1.952-0.345,3.837-1.031,5.654c-0.688,1.818-1.719,3.437-3.093,4.855
			c-1.375,1.42-3.071,2.562-5.089,3.426c-2.019,0.865-4.335,1.297-6.951,1.297h-7.117v16.896h-11.641v-47.36h18.758
			c2.616,0,4.933,0.433,6.951,1.298c2.018,0.864,3.714,2.007,5.089,3.425c1.374,1.42,2.404,3.038,3.093,4.856
			C169.406,152.528,169.751,154.413,169.751,156.363z M158.11,156.363c0-1.24-0.444-2.35-1.33-3.325
			c-0.888-0.976-2.129-1.464-3.726-1.464h-6.585v9.578h6.585c1.597,0,2.838-0.487,3.726-1.463
			C157.666,158.715,158.11,157.605,158.11,156.363z"/>
		<path fill="#232325" d="M176.535,188.491v-47.36h32.194v10.377h-20.554v7.916h17.561V169.8h-17.561v8.314h20.554v10.377H176.535z"
			/>
		<path fill="#232325" d="M216.977,188.491v-47.36h11.641v36.983h19.889v10.377H216.977z"/>
		<path fill="#232325" d="M255.29,188.491v-47.36h11.641v36.983h19.889v10.377H255.29z"/>
		<path fill="#232325" d="M293.603,188.491v-47.36h11.641v47.36H293.603z"/>
		<path fill="#232325" d="M341.627,188.491l-15.166-23.813v23.813H314.82v-47.36h10.177l15.166,23.813v-23.813h11.641v47.36H341.627
			z"/>
		<path fill="#232325" d="M395.672,172.793c-0.156,1.553-0.411,2.96-0.766,4.224c-0.355,1.265-0.831,2.418-1.43,3.459
			c-0.599,1.043-1.342,2.029-2.229,2.96c-1.774,1.819-3.748,3.183-5.92,4.091c-2.173,0.91-4.679,1.364-7.517,1.364
			c-2.794,0-5.255-0.454-7.383-1.364c-2.129-0.908-4.058-2.228-5.787-3.957c-1.242-1.241-2.195-2.583-2.86-4.024
			c-0.665-1.44-1.143-2.96-1.431-4.557s-0.443-3.248-0.465-4.955c-0.023-1.707-0.033-3.448-0.033-5.222s0.01-3.515,0.033-5.222
			c0.021-1.707,0.177-3.359,0.465-4.956c0.288-1.596,0.766-3.114,1.431-4.556c0.665-1.44,1.618-2.782,2.86-4.024
			c1.729-1.729,3.636-3.049,5.72-3.958c2.084-0.908,4.567-1.363,7.45-1.363c1.685,0,3.203,0.1,4.557,0.299
			c1.352,0.2,2.594,0.532,3.725,0.998s2.206,1.075,3.227,1.829c1.02,0.755,2.062,1.663,3.126,2.728l-7.915,7.915
			c-1.109-1.152-2.129-2.006-3.061-2.561c-0.931-0.554-2.151-0.832-3.658-0.832c-1.064,0-1.985,0.2-2.761,0.599
			c-0.776,0.399-1.386,0.888-1.829,1.464c-0.266,0.355-0.51,0.755-0.731,1.197c-0.223,0.443-0.399,1.075-0.532,1.896
			c-0.133,0.821-0.244,1.907-0.332,3.26c-0.09,1.353-0.134,3.115-0.134,5.288s0.044,3.936,0.134,5.288
			c0.088,1.353,0.199,2.45,0.332,3.292c0.133,0.843,0.31,1.486,0.532,1.93c0.222,0.443,0.466,0.843,0.731,1.197
			c0.443,0.576,1.053,1.054,1.829,1.43c0.775,0.377,1.696,0.565,2.761,0.565c1.241,0,2.217-0.166,2.927-0.499
			c0.709-0.332,1.33-0.786,1.862-1.363c0.621-0.621,1.064-1.44,1.331-2.461c0.266-1.02,0.398-1.93,0.398-2.728v-0.532h-6.519v-9.711
			h18.093v6.385C395.904,169.512,395.826,171.241,395.672,172.793z"/>
		<path fill="#232325" d="M4.789,258.49v-47.359h32.194v10.377H16.43v7.916H33.99v10.375H16.43v8.314h20.554v10.377H4.789z"/>
		<path fill="#232325" d="M56.871,221.508v8.314h17.561v10.377H56.871v18.291H45.23v-47.359h32.194v10.377H56.871z"/>
		<path fill="#232325" d="M96.515,221.508v8.314h17.561v10.377H96.515v18.291H84.874v-47.359h32.194v10.377H96.515z"/>
		<path fill="#232325" d="M124.518,258.49v-47.359h32.194v10.377h-20.554v7.916h17.561v10.375h-17.561v8.314h20.554v10.377H124.518z
			"/>
		<path fill="#232325" d="M191.965,255.797c-0.888,0.643-1.852,1.197-2.894,1.662c-1.042,0.467-2.195,0.822-3.459,1.064
			c-1.264,0.244-2.672,0.367-4.224,0.367c-2.794,0-5.255-0.455-7.383-1.365c-2.129-0.908-4.058-2.227-5.787-3.957
			c-1.242-1.24-2.195-2.582-2.86-4.023s-1.143-2.961-1.431-4.557c-0.288-1.598-0.443-3.248-0.465-4.955
			c-0.023-1.707-0.033-3.449-0.033-5.223s0.01-3.514,0.033-5.221c0.021-1.707,0.177-3.359,0.465-4.957
			c0.288-1.596,0.766-3.113,1.431-4.555s1.618-2.783,2.86-4.025c1.729-1.729,3.658-3.049,5.787-3.957
			c2.128-0.908,4.589-1.363,7.383-1.363c1.552,0,2.96,0.121,4.224,0.365s2.417,0.598,3.459,1.064
			c1.042,0.465,2.006,1.02,2.894,1.662c0.887,0.645,1.729,1.363,2.527,2.162l-7.716,7.717c-0.754-0.754-1.508-1.375-2.262-1.863
			s-1.796-0.732-3.126-0.732c-1.064,0-1.974,0.189-2.728,0.566s-1.353,0.854-1.796,1.43c-0.266,0.355-0.51,0.754-0.731,1.197
			c-0.223,0.443-0.41,1.088-0.565,1.93s-0.277,1.939-0.365,3.293c-0.09,1.352-0.134,3.115-0.134,5.287
			c0,2.174,0.044,3.936,0.134,5.289c0.088,1.352,0.21,2.449,0.365,3.291c0.155,0.844,0.343,1.486,0.565,1.93
			c0.222,0.443,0.466,0.844,0.731,1.197c0.443,0.576,1.042,1.055,1.796,1.43c0.754,0.377,1.663,0.566,2.728,0.566
			c1.33,0,2.372-0.244,3.126-0.732c0.754-0.486,1.508-1.107,2.262-1.861l7.716,7.715
			C193.694,254.434,192.852,255.154,191.965,255.797z"/>
		<path fill="#232325" d="M220.501,221.508v36.982H208.86v-36.982H197.22v-10.377h34.922v10.377H220.501z"/>
		<path fill="#232325" d="M238.926,258.49v-47.359h11.641v47.359H238.926z"/>
		<path fill="#232325" d="M279.633,258.49h-8.646l-15.632-47.359h12.039l7.982,26.473l7.849-26.473h12.106L279.633,258.49z"/>
		<path fill="#232325" d="M300.12,258.49v-47.359h32.194v10.377h-20.554v7.916h17.561v10.375h-17.561v8.314h20.554v10.377H300.12z"
			/>
		<path fill="#232325" d="M28.735,328.49l-8.381-17.627H16.43v17.627H4.789v-47.359h18.758c2.616,0,4.933,0.432,6.951,1.297
			c2.018,0.865,3.714,2.008,5.089,3.426c1.374,1.42,2.404,3.037,3.093,4.855c0.687,1.818,1.031,3.703,1.031,5.654
			c0,1.596-0.223,3.061-0.666,4.391s-1.03,2.506-1.763,3.525c-0.731,1.02-1.563,1.895-2.494,2.627
			c-0.931,0.732-1.862,1.342-2.794,1.828l10.244,19.756H28.735z M28.07,296.363c0-1.24-0.444-2.35-1.33-3.326
			c-0.888-0.975-2.129-1.463-3.726-1.463H16.43v9.578h6.585c1.597,0,2.838-0.488,3.726-1.463
			C27.626,298.715,28.07,297.605,28.07,296.363z"/>
		<path fill="#232325" d="M48.157,328.49v-47.359h32.194v10.377H59.798v7.916h17.561v10.375H59.798v8.314h20.554v10.377H48.157z"/>
		<path fill="#232325" d="M120.394,313.965c0,2.398-0.488,4.531-1.463,6.396c-0.977,1.865-2.295,3.432-3.958,4.697
			s-3.604,2.221-5.82,2.865c-2.218,0.645-4.567,0.967-7.051,0.967c-3.637,0-6.94-0.434-9.911-1.299
			c-2.971-0.863-5.653-2.516-8.048-4.955l7.449-7.449c1.241,1.242,2.838,2.107,4.789,2.594c1.951,0.488,3.88,0.732,5.787,0.732
			c4.523,0,6.785-1.42,6.785-4.258c0-1.197-0.311-2.129-0.932-2.793c-0.665-0.666-1.707-1.086-3.126-1.264l-5.721-0.799
			c-4.213-0.621-7.383-2.018-9.512-4.191c-2.173-2.217-3.26-5.387-3.26-9.512c0-2.172,0.399-4.168,1.197-5.986
			c0.799-1.816,1.939-3.393,3.426-4.723c1.485-1.33,3.293-2.371,5.422-3.125c2.128-0.754,4.545-1.131,7.25-1.131
			c3.414,0,6.419,0.43,9.013,1.287c2.595,0.861,4.911,2.303,6.951,4.328l-7.316,7.289c-0.755-0.754-1.553-1.32-2.396-1.697
			c-0.843-0.375-1.662-0.654-2.461-0.832c-0.798-0.176-1.553-0.266-2.262-0.266s-1.33,0-1.862,0c-1.021,0-1.885,0.135-2.594,0.4
			c-0.71,0.266-1.297,0.609-1.763,1.031c-0.466,0.424-0.81,0.889-1.031,1.4c-0.223,0.512-0.332,1.033-0.332,1.566
			c0,0.311,0.066,0.666,0.199,1.066s0.376,0.777,0.731,1.133c0.31,0.311,0.721,0.6,1.23,0.865c0.51,0.268,1.187,0.445,2.029,0.533
			l5.72,0.801c4.168,0.578,7.272,1.887,9.313,3.93c1.286,1.246,2.195,2.734,2.728,4.465
			C120.128,309.766,120.394,311.742,120.394,313.965z"/>
		<path fill="#232325" d="M162.965,296.363c0,1.951-0.345,3.836-1.031,5.654c-0.688,1.818-1.719,3.436-3.093,4.855
			c-1.375,1.42-3.071,2.561-5.089,3.426c-2.019,0.865-4.335,1.297-6.951,1.297h-7.117v16.895h-11.641v-47.359h18.758
			c2.616,0,4.933,0.432,6.951,1.297c2.018,0.865,3.714,2.008,5.089,3.426c1.374,1.42,2.404,3.037,3.093,4.855
			C162.62,292.527,162.965,294.412,162.965,296.363z M151.324,296.363c0-1.24-0.444-2.35-1.33-3.326
			c-0.888-0.975-2.129-1.463-3.726-1.463h-6.585v9.578h6.585c1.597,0,2.838-0.488,3.726-1.463
			C150.88,298.715,151.324,297.605,151.324,296.363z"/>
		<path fill="#232325" d="M204.271,304.811c0,1.773-0.012,3.516-0.033,5.223c-0.023,1.707-0.178,3.357-0.466,4.955
			c-0.289,1.596-0.765,3.115-1.43,4.557c-0.666,1.441-1.619,2.783-2.86,4.023c-1.729,1.73-3.637,3.049-5.721,3.957
			c-2.085,0.91-4.59,1.365-7.517,1.365s-5.433-0.455-7.517-1.365c-2.084-0.908-3.99-2.227-5.72-3.957
			c-1.242-1.24-2.195-2.582-2.86-4.023s-1.143-2.961-1.431-4.557c-0.288-1.598-0.443-3.248-0.465-4.955
			c-0.023-1.707-0.033-3.449-0.033-5.223s0.01-3.514,0.033-5.221c0.021-1.707,0.177-3.359,0.465-4.957
			c0.288-1.596,0.766-3.113,1.431-4.555s1.618-2.783,2.86-4.025c1.729-1.729,3.636-3.049,5.72-3.957s4.59-1.363,7.517-1.363
			s5.432,0.455,7.517,1.363c2.084,0.908,3.991,2.229,5.721,3.957c1.241,1.242,2.194,2.584,2.86,4.025
			c0.665,1.441,1.141,2.959,1.43,4.555c0.288,1.598,0.442,3.25,0.466,4.957C204.259,301.297,204.271,303.037,204.271,304.811z
			 M192.63,304.811c0-2.172-0.045-3.936-0.133-5.287c-0.09-1.354-0.199-2.439-0.333-3.26c-0.133-0.82-0.311-1.453-0.532-1.896
			c-0.222-0.441-0.465-0.842-0.731-1.197c-0.443-0.576-1.064-1.064-1.862-1.463s-1.729-0.6-2.794-0.6s-1.995,0.201-2.794,0.6
			c-0.798,0.398-1.419,0.887-1.862,1.463c-0.266,0.355-0.51,0.756-0.731,1.197c-0.223,0.443-0.399,1.076-0.532,1.896
			s-0.244,1.906-0.332,3.26c-0.09,1.352-0.134,3.115-0.134,5.287c0,2.174,0.044,3.924,0.134,5.256
			c0.088,1.33,0.199,2.404,0.332,3.225c0.133,0.822,0.31,1.453,0.532,1.896c0.222,0.443,0.466,0.842,0.731,1.197
			c0.443,0.576,1.064,1.076,1.862,1.496c0.799,0.422,1.729,0.633,2.794,0.633s1.996-0.211,2.794-0.633
			c0.798-0.42,1.419-0.92,1.862-1.496c0.267-0.355,0.51-0.754,0.731-1.197s0.399-1.074,0.532-1.896
			c0.134-0.82,0.243-1.895,0.333-3.225C192.585,308.734,192.63,306.984,192.63,304.811z"/>
		<path fill="#232325" d="M239.126,328.49l-15.166-23.813v23.813h-11.641v-47.359h10.177l15.166,23.813v-23.813h11.641v47.359
			H239.126z"/>
		<path fill="#232325" d="M290.676,313.965c0,2.398-0.488,4.531-1.463,6.396c-0.977,1.865-2.295,3.432-3.958,4.697
			s-3.604,2.221-5.82,2.865c-2.218,0.645-4.567,0.967-7.051,0.967c-3.637,0-6.94-0.434-9.911-1.299
			c-2.971-0.863-5.653-2.516-8.048-4.955l7.449-7.449c1.241,1.242,2.838,2.107,4.789,2.594c1.951,0.488,3.88,0.732,5.787,0.732
			c4.523,0,6.785-1.42,6.785-4.258c0-1.197-0.311-2.129-0.932-2.793c-0.665-0.666-1.707-1.086-3.126-1.264l-5.721-0.799
			c-4.213-0.621-7.383-2.018-9.512-4.191c-2.173-2.217-3.26-5.387-3.26-9.512c0-2.172,0.399-4.168,1.197-5.986
			c0.799-1.816,1.939-3.393,3.426-4.723c1.485-1.33,3.293-2.371,5.422-3.125c2.128-0.754,4.545-1.131,7.25-1.131
			c3.414,0,6.419,0.43,9.013,1.287c2.595,0.861,4.911,2.303,6.951,4.328l-7.316,7.289c-0.755-0.754-1.553-1.32-2.396-1.697
			c-0.843-0.375-1.662-0.654-2.461-0.832c-0.798-0.176-1.553-0.266-2.262-0.266s-1.33,0-1.862,0c-1.021,0-1.885,0.135-2.594,0.4
			c-0.71,0.266-1.297,0.609-1.763,1.031c-0.466,0.424-0.81,0.889-1.031,1.4c-0.223,0.512-0.332,1.033-0.332,1.566
			c0,0.311,0.066,0.666,0.199,1.066s0.376,0.777,0.731,1.133c0.31,0.311,0.721,0.6,1.23,0.865c0.51,0.268,1.187,0.445,2.029,0.533
			l5.72,0.801c4.168,0.578,7.272,1.887,9.313,3.93c1.286,1.246,2.195,2.734,2.728,4.465
			C290.41,309.766,290.676,311.742,290.676,313.965z"/>
		<path fill="#232325" d="M298.324,328.49v-47.359h11.641v47.359H298.324z"/>
		<path fill="#232325" d="M339.031,328.49h-8.646l-15.632-47.359h12.039l7.982,26.473l7.849-26.473h12.106L339.031,328.49z"/>
		<path fill="#232325" d="M359.519,328.49v-47.359h32.194v10.377h-20.554v7.916h17.561v10.375h-17.561v8.314h20.554v10.377H359.519z
			"/>
		<path fill="#232325" d="M31.795,395.797c-0.888,0.643-1.852,1.197-2.894,1.662c-1.042,0.467-2.195,0.822-3.459,1.064
			c-1.264,0.244-2.672,0.367-4.224,0.367c-2.794,0-5.255-0.455-7.383-1.365c-2.129-0.908-4.058-2.227-5.787-3.957
			c-1.242-1.24-2.195-2.582-2.86-4.023s-1.143-2.961-1.431-4.557c-0.288-1.598-0.443-3.248-0.465-4.955
			c-0.023-1.707-0.033-3.449-0.033-5.223s0.01-3.514,0.033-5.221c0.021-1.707,0.177-3.359,0.465-4.957
			c0.288-1.596,0.766-3.113,1.431-4.555s1.618-2.783,2.86-4.025c1.729-1.729,3.658-3.049,5.787-3.957
			c2.128-0.908,4.589-1.363,7.383-1.363c1.552,0,2.96,0.121,4.224,0.365s2.417,0.598,3.459,1.064
			c1.042,0.465,2.006,1.02,2.894,1.662c0.887,0.645,1.729,1.363,2.527,2.162l-7.716,7.717c-0.754-0.754-1.508-1.375-2.262-1.863
			s-1.796-0.732-3.126-0.732c-1.064,0-1.974,0.189-2.728,0.566s-1.353,0.854-1.796,1.43c-0.266,0.355-0.51,0.754-0.731,1.197
			c-0.223,0.443-0.41,1.088-0.565,1.93s-0.277,1.939-0.365,3.293c-0.09,1.352-0.134,3.115-0.134,5.287
			c0,2.174,0.044,3.936,0.134,5.289c0.088,1.352,0.21,2.449,0.365,3.291c0.155,0.844,0.343,1.486,0.565,1.93
			c0.222,0.443,0.466,0.844,0.731,1.197c0.443,0.576,1.042,1.055,1.796,1.43c0.754,0.377,1.663,0.566,2.728,0.566
			c1.33,0,2.372-0.244,3.126-0.732c0.754-0.486,1.508-1.107,2.262-1.861l7.716,7.715C33.524,394.434,32.682,395.154,31.795,395.797z
			"/>
		<path fill="#232325" d="M73.036,374.811c0,1.773-0.012,3.516-0.033,5.223c-0.023,1.707-0.178,3.357-0.466,4.955
			c-0.289,1.596-0.765,3.115-1.43,4.557c-0.666,1.441-1.619,2.783-2.86,4.023c-1.729,1.73-3.637,3.049-5.721,3.957
			c-2.085,0.91-4.59,1.365-7.517,1.365s-5.433-0.455-7.517-1.365c-2.084-0.908-3.99-2.227-5.72-3.957
			c-1.242-1.24-2.195-2.582-2.86-4.023s-1.143-2.961-1.431-4.557c-0.288-1.598-0.443-3.248-0.465-4.955
			c-0.023-1.707-0.033-3.449-0.033-5.223s0.01-3.514,0.033-5.221c0.021-1.707,0.177-3.359,0.465-4.957
			c0.288-1.596,0.766-3.113,1.431-4.555s1.618-2.783,2.86-4.025c1.729-1.729,3.636-3.049,5.72-3.957s4.59-1.363,7.517-1.363
			s5.432,0.455,7.517,1.363c2.084,0.908,3.991,2.229,5.721,3.957c1.241,1.242,2.194,2.584,2.86,4.025
			c0.665,1.441,1.141,2.959,1.43,4.555c0.288,1.598,0.442,3.25,0.466,4.957C73.024,371.297,73.036,373.037,73.036,374.811z
			 M61.396,374.811c0-2.172-0.045-3.936-0.133-5.287c-0.09-1.354-0.199-2.439-0.333-3.26c-0.133-0.82-0.311-1.453-0.532-1.896
			c-0.222-0.441-0.465-0.842-0.731-1.197c-0.443-0.576-1.064-1.064-1.862-1.463s-1.729-0.6-2.794-0.6s-1.995,0.201-2.794,0.6
			c-0.798,0.398-1.419,0.887-1.862,1.463c-0.266,0.355-0.51,0.756-0.731,1.197c-0.223,0.443-0.399,1.076-0.532,1.896
			s-0.244,1.906-0.332,3.26c-0.09,1.352-0.134,3.115-0.134,5.287c0,2.174,0.044,3.924,0.134,5.256
			c0.088,1.33,0.199,2.404,0.332,3.225c0.133,0.822,0.31,1.453,0.532,1.896c0.222,0.443,0.466,0.842,0.731,1.197
			c0.443,0.576,1.064,1.076,1.862,1.496c0.799,0.422,1.729,0.633,2.794,0.633s1.996-0.211,2.794-0.633
			c0.798-0.42,1.419-0.92,1.862-1.496c0.267-0.355,0.51-0.754,0.731-1.197s0.399-1.074,0.532-1.896
			c0.134-0.82,0.243-1.895,0.333-3.225C61.351,378.734,61.396,376.984,61.396,374.811z"/>
		<path fill="#232325" d="M107.891,398.49l-15.166-23.813v23.813H81.084v-47.359h10.177l15.166,23.813v-23.813h11.641v47.359
			H107.891z"/>
		<path fill="#232325" d="M147.135,398.49h-8.646l-15.632-47.359h12.039l7.982,26.473l7.849-26.473h12.106L147.135,398.49z"/>
		<path fill="#232325" d="M167.622,398.49v-47.359h32.194v10.377h-20.554v7.916h17.561v10.375h-17.561v8.314h20.554v10.377H167.622z
			"/>
		<path fill="#232325" d="M232.01,398.49l-8.381-17.627h-3.925v17.627h-11.641v-47.359h18.758c2.616,0,4.933,0.432,6.951,1.297
			c2.018,0.865,3.714,2.008,5.089,3.426c1.374,1.42,2.404,3.037,3.093,4.855c0.687,1.818,1.031,3.703,1.031,5.654
			c0,1.596-0.223,3.061-0.666,4.391s-1.03,2.506-1.763,3.525c-0.731,1.02-1.563,1.895-2.494,2.627
			c-0.931,0.732-1.862,1.342-2.794,1.828l10.244,19.756H232.01z M231.345,366.363c0-1.24-0.444-2.35-1.33-3.326
			c-0.888-0.975-2.129-1.463-3.726-1.463h-6.585v9.578h6.585c1.597,0,2.838-0.488,3.726-1.463
			C230.9,368.715,231.345,367.605,231.345,366.363z"/>
		<path fill="#232325" d="M271.919,361.508v36.982h-11.641v-36.982h-11.641v-10.377h34.922v10.377H271.919z"/>
		<path fill="#232325" d="M290.344,398.49v-47.359h11.641v47.359H290.344z"/>
		<path fill="#232325" d="M338.368,398.49l-15.166-23.813v23.813h-11.641v-47.359h10.177l15.166,23.813v-23.813h11.641v47.359
			H338.368z"/>
		<path fill="#232325" d="M392.413,382.793c-0.156,1.553-0.411,2.959-0.766,4.223c-0.355,1.266-0.831,2.418-1.43,3.459
			c-0.599,1.043-1.342,2.029-2.229,2.961c-1.774,1.818-3.748,3.182-5.92,4.09c-2.173,0.91-4.679,1.365-7.517,1.365
			c-2.794,0-5.255-0.455-7.383-1.365c-2.129-0.908-4.058-2.227-5.787-3.957c-1.242-1.24-2.195-2.582-2.86-4.023
			s-1.143-2.961-1.431-4.557c-0.288-1.598-0.443-3.248-0.465-4.955c-0.023-1.707-0.033-3.449-0.033-5.223s0.01-3.514,0.033-5.221
			c0.021-1.707,0.177-3.359,0.465-4.957c0.288-1.596,0.766-3.113,1.431-4.555s1.618-2.783,2.86-4.025
			c1.729-1.729,3.636-3.049,5.72-3.957s4.567-1.363,7.45-1.363c1.685,0,3.203,0.1,4.557,0.299c1.352,0.199,2.594,0.531,3.725,0.998
			c1.131,0.465,2.206,1.074,3.227,1.828c1.02,0.756,2.062,1.664,3.126,2.729l-7.915,7.914c-1.109-1.152-2.129-2.006-3.061-2.561
			c-0.931-0.553-2.151-0.832-3.658-0.832c-1.064,0-1.985,0.201-2.761,0.6c-0.776,0.398-1.386,0.887-1.829,1.463
			c-0.266,0.355-0.51,0.756-0.731,1.197c-0.223,0.443-0.399,1.076-0.532,1.896s-0.244,1.906-0.332,3.26
			c-0.09,1.352-0.134,3.115-0.134,5.287c0,2.174,0.044,3.936,0.134,5.289c0.088,1.352,0.199,2.449,0.332,3.291
			c0.133,0.844,0.31,1.486,0.532,1.93c0.222,0.443,0.466,0.844,0.731,1.197c0.443,0.576,1.053,1.055,1.829,1.43
			c0.775,0.377,1.696,0.566,2.761,0.566c1.241,0,2.217-0.166,2.927-0.5c0.709-0.332,1.33-0.785,1.862-1.363
			c0.621-0.621,1.064-1.439,1.331-2.461c0.266-1.02,0.398-1.93,0.398-2.727v-0.533h-6.519v-9.711h18.093v6.385
			C392.646,379.512,392.567,381.24,392.413,382.793z"/>
	</g>
</g>
</svg>
