<?xml version="1.0" encoding="utf-8"?>
<!-- Generator: Adobe Illustrator 16.0.0, SVG Export Plug-In . SVG Version: 6.00 Build 0)  -->
<!DOCTYPE svg PUBLIC "-//W3C//DTD SVG 1.1//EN" "http://www.w3.org/Graphics/SVG/1.1/DTD/svg11.dtd">
<svg version="1.1" id="Layer_1" xmlns="http://www.w3.org/2000/svg" xmlns:xlink="http://www.w3.org/1999/xlink" x="0px" y="0px"
	 width="1280.534px" height="185px" viewBox="0 0 1280.534 185" enable-background="new 0 0 1280.534 185" xml:space="preserve">
<g>
	<path fill="#222222" d="M284.119,92.5c0,6.722-0.043,13.318-0.126,19.784c-0.086,6.47-0.673,12.727-1.764,18.775
		c-1.095,6.049-2.898,11.806-5.418,17.264c-2.52,5.461-6.135,10.545-10.837,15.247c-6.552,6.553-13.778,11.554-21.674,14.995
		c-7.899,3.445-17.389,5.166-28.478,5.166c-11.089,0-20.583-1.721-28.479-5.166c-7.899-3.441-15.122-8.442-21.674-14.995
		c-4.706-4.702-8.317-9.786-10.837-15.247c-2.521-5.458-4.328-11.215-5.418-17.264c-1.095-6.049-1.682-12.306-1.764-18.775
		c-0.087-6.466-0.126-13.063-0.126-19.784c0-6.718,0.039-13.313,0.126-19.783c0.083-6.466,0.669-12.728,1.764-18.775
		c1.091-6.049,2.898-11.802,5.418-17.264c2.52-5.458,6.131-10.542,10.837-15.247c6.552-6.553,13.774-11.55,21.674-14.996
		c7.895-3.441,17.389-5.166,28.479-5.166c11.089,0,20.579,1.725,28.478,5.166c7.896,3.446,15.122,8.443,21.674,14.996
		c4.702,4.705,8.317,9.789,10.837,15.247c2.521,5.462,4.324,11.215,5.418,17.264c1.091,6.048,1.678,12.31,1.764,18.775
		C284.076,79.187,284.119,85.782,284.119,92.5z M240.015,92.5c0-8.229-0.169-14.908-0.504-20.035
		c-0.339-5.123-0.756-9.238-1.26-12.35c-0.504-3.106-1.177-5.501-2.016-7.183c-0.843-1.677-1.764-3.189-2.772-4.536
		c-1.681-2.182-4.032-4.032-7.057-5.544c-3.024-1.513-6.552-2.269-10.584-2.269c-4.033,0-7.561,0.756-10.585,2.269
		c-3.024,1.512-5.379,3.362-7.057,5.544c-1.008,1.347-1.934,2.859-2.772,4.536c-0.843,1.682-1.512,4.076-2.016,7.183
		c-0.504,3.111-0.925,7.227-1.26,12.35c-0.338,5.127-0.504,11.806-0.504,20.035c0,8.234,0.166,14.869,0.504,19.91
		c0.335,5.04,0.756,9.116,1.26,12.223c0.504,3.111,1.173,5.505,2.016,7.183c0.839,1.682,1.764,3.193,2.772,4.536
		c1.677,2.186,4.032,4.076,7.057,5.671c3.024,1.599,6.552,2.395,10.585,2.395c4.032,0,7.561-0.796,10.584-2.395
		c3.024-1.595,5.375-3.485,7.057-5.671c1.008-1.343,1.93-2.854,2.772-4.536c0.839-1.678,1.512-4.071,2.016-7.183
		c0.504-3.106,0.921-7.183,1.26-12.223C239.846,107.369,240.015,100.734,240.015,92.5z"/>
	<path fill="#222222" d="M443.396,127.181c0,9.089-1.851,17.169-5.545,24.237c-3.697,7.068-8.694,13.003-14.995,17.799
		c-6.301,4.797-13.652,8.415-22.052,10.856c-8.403,2.438-17.307,3.658-26.714,3.658c-13.778,0-26.297-1.638-37.551-4.914
		c-11.258-3.276-21.422-9.533-30.495-18.775l28.226-28.227c4.702,4.706,10.75,7.982,18.146,9.829
		c7.392,1.851,14.7,2.772,21.926,2.772c17.138,0,25.707-5.376,25.707-16.13c0-4.536-1.178-8.064-3.528-10.585
		c-2.521-2.521-6.47-4.115-11.845-4.788l-21.674-3.024c-15.964-2.351-27.974-7.644-36.039-15.877
		c-8.234-8.399-12.349-20.414-12.349-36.039c0-8.23,1.512-15.791,4.537-22.683c3.024-6.887,7.348-12.853,12.979-17.894
		c5.627-5.04,12.475-8.985,20.54-11.845c8.065-2.854,17.22-4.284,27.471-4.284c12.936,0,24.32,1.63,34.149,4.883
		c9.828,3.257,18.606,8.723,26.336,16.397l-27.723,27.612c-2.858-2.855-5.883-4.998-9.072-6.427
		c-3.194-1.426-6.301-2.478-9.325-3.15c-3.024-0.67-5.883-1.008-8.569-1.008c-2.689,0-5.041,0-7.057,0
		c-3.867,0-7.143,0.508-9.829,1.516c-2.689,1.008-4.914,2.312-6.678,3.91s-3.068,3.367-3.906,5.305
		c-0.843,1.938-1.26,3.914-1.26,5.93c0,1.182,0.252,2.528,0.756,4.041c0.504,1.516,1.426,2.945,2.772,4.292
		c1.173,1.182,2.729,2.276,4.662,3.284c1.93,1.008,4.493,1.682,7.687,2.016l21.674,3.032c15.791,2.189,27.553,7.151,35.283,14.894
		c4.871,4.717,8.316,10.356,10.333,16.917C442.389,111.275,443.396,118.766,443.396,127.181z"/>
	<path fill="#222222" d="M480.692,182.22V2.78h44.104V182.22H480.692z"/>
	<path fill="#222222" d="M647.021,42.096V182.22h-44.104V42.096h-44.104V2.78h132.312v39.315H647.021z"/>
	<path fill="#222222" d="M725.146,182.22V2.78h44.104V182.22H725.146z"/>
	<path fill="#222222" d="M944.653,92.5c0,6.722-0.043,13.318-0.126,19.784c-0.087,6.47-0.673,12.727-1.764,18.775
		c-1.095,6.049-2.898,11.806-5.419,17.264c-2.521,5.461-6.135,10.545-10.837,15.247c-6.553,6.553-13.778,11.554-21.674,14.995
		c-7.899,3.445-17.39,5.166-28.479,5.166s-20.583-1.721-28.479-5.166c-7.898-3.441-15.121-8.442-21.674-14.995
		c-4.705-4.702-8.316-9.786-10.837-15.247c-2.52-5.458-4.327-11.215-5.418-17.264c-1.095-6.049-1.682-12.306-1.765-18.775
		c-0.086-6.466-0.126-13.063-0.126-19.784c0-6.718,0.04-13.313,0.126-19.783c0.083-6.466,0.67-12.728,1.765-18.775
		c1.091-6.049,2.898-11.802,5.418-17.264c2.521-5.458,6.132-10.542,10.837-15.247c6.553-6.553,13.775-11.55,21.674-14.996
		c7.896-3.441,17.39-5.166,28.479-5.166s20.579,1.725,28.479,5.166c7.896,3.446,15.121,8.443,21.674,14.996
		c4.702,4.705,8.316,9.789,10.837,15.247c2.521,5.462,4.324,11.215,5.419,17.264c1.091,6.048,1.677,12.31,1.764,18.775
		C944.61,79.187,944.653,85.782,944.653,92.5z M900.55,92.5c0-8.229-0.169-14.908-0.504-20.035
		c-0.339-5.123-0.756-9.238-1.261-12.35c-0.504-3.106-1.177-5.501-2.016-7.183c-0.843-1.677-1.765-3.189-2.772-4.536
		c-1.682-2.182-4.032-4.032-7.057-5.544c-3.024-1.513-6.553-2.269-10.585-2.269s-7.561,0.756-10.585,2.269
		c-3.023,1.512-5.379,3.362-7.057,5.544c-1.008,1.347-1.933,2.859-2.771,4.536c-0.843,1.682-1.513,4.076-2.017,7.183
		c-0.504,3.111-0.926,7.227-1.26,12.35c-0.339,5.127-0.504,11.806-0.504,20.035c0,8.234,0.165,14.869,0.504,19.91
		c0.334,5.04,0.756,9.116,1.26,12.223c0.504,3.111,1.174,5.505,2.017,7.183c0.839,1.682,1.764,3.193,2.771,4.536
		c1.678,2.186,4.033,4.076,7.057,5.671c3.024,1.599,6.553,2.395,10.585,2.395s7.561-0.796,10.585-2.395
		c3.024-1.595,5.375-3.485,7.057-5.671c1.008-1.343,1.93-2.854,2.772-4.536c0.839-1.678,1.512-4.071,2.016-7.183
		c0.505-3.106,0.922-7.183,1.261-12.223C900.381,107.369,900.55,100.734,900.55,92.5z"/>
	<path fill="#222222" d="M1085.028,182.22l-57.461-90.224v90.224h-44.104V2.78h38.56l57.461,90.224V2.78h44.104V182.22H1085.028z"/>
	<path fill="#222222" d="M115.391,39.071c-2.607-6.887-6.513-13.018-11.719-18.397c-5.209-5.375-11.636-9.702-19.279-12.979
		C76.745,4.419,67.968,2.78,58.056,2.78H0.178V182.22H31.09v-64.014h26.966c9.912,0,18.689-1.638,26.336-4.914
		c7.643-3.276,14.07-7.6,19.279-12.979c5.206-5.375,9.112-11.506,11.719-18.397c2.603-6.887,3.906-14.026,3.906-21.422
		C119.297,53.103,117.994,45.963,115.391,39.071z M70.153,73.095c-3.363,3.697-8.064,5.544-14.113,5.544H31.09V42.348h24.95
		c6.049,0,10.75,1.852,14.113,5.545c3.359,3.697,5.041,7.899,5.041,12.601C75.194,65.199,73.512,69.401,70.153,73.095z"/>
	<path fill="#222222" d="M1281.114,94.912c-1.639-2.565-3.566-4.944-5.811-7.117c-7.73-7.742-19.492-12.704-35.283-14.894
		l-21.674-3.032c-3.193-0.334-5.757-1.008-7.687-2.016c-1.934-1.008-3.489-2.103-4.663-3.284c-1.347-1.347-2.268-2.776-2.771-4.292
		c-0.504-1.513-0.757-2.859-0.757-4.041c0-2.016,0.418-3.992,1.261-5.93c0.839-1.938,2.142-3.706,3.906-5.305
		c1.764-1.599,3.989-2.902,6.679-3.91c2.686-1.008,5.962-1.516,9.828-1.516c2.017,0,4.367,0,7.057,0
		c2.686,0,5.545,0.338,8.569,1.008c3.024,0.673,6.131,1.725,9.324,3.15c3.19,1.429,6.214,3.571,9.073,6.427l22.948-22.857v-9.068
		c-6.52-5.434-13.698-9.479-21.563-12.084c-9.828-3.253-21.213-4.883-34.148-4.883c-10.25,0-19.406,1.43-27.471,4.284
		c-8.064,2.859-14.912,6.805-20.539,11.845c-5.632,5.041-9.955,11.007-12.979,17.894c-3.024,6.892-4.536,14.452-4.536,22.683
		c0,15.625,4.115,27.64,12.349,36.039c8.064,8.233,20.075,13.526,36.039,15.877l21.674,3.024c5.375,0.673,9.325,2.268,11.845,4.788
		c2.352,2.521,3.528,6.049,3.528,10.585c0,10.754-8.568,16.13-25.706,16.13c-7.226,0-14.534-0.922-21.926-2.772
		c-7.396-1.847-13.443-5.123-18.146-9.829l-28.227,28.227c9.073,9.242,19.236,15.499,30.495,18.775
		c11.254,3.276,23.772,4.914,37.551,4.914c9.407,0,18.312-1.221,26.715-3.658c8.399-2.441,15.751-6.06,22.052-10.856
		c5.234-3.984,9.555-8.768,12.993-14.321V94.912z"/>
</g>
</svg>
