<?xml version="1.0" encoding="utf-8"?>
<!-- Generator: Adobe Illustrator 16.0.0, SVG Export Plug-In . SVG Version: 6.00 Build 0)  -->
<!DOCTYPE svg PUBLIC "-//W3C//DTD SVG 1.1//EN" "http://www.w3.org/Graphics/SVG/1.1/DTD/svg11.dtd">
<svg version="1.1" id="Layer_1" xmlns="http://www.w3.org/2000/svg" xmlns:xlink="http://www.w3.org/1999/xlink" x="0px" y="0px"
	 width="1031.916px" height="352.291px" viewBox="0 0 1031.916 352.291" enable-background="new 0 0 1031.916 352.291"
	 xml:space="preserve">
<g>
	<path fill="#222222" d="M139.501,163.027V2.268H248.78V37.49h-69.768v26.869h59.607v35.223h-59.607v28.223h69.768v35.223H139.501z"
		/>
	<path fill="#222222" d="M344.961,163.027h-29.352L262.55,2.268h40.867l27.094,89.863l26.643-89.863h41.093L344.961,163.027z"/>
	<path fill="#222222" d="M416.534,163.027V2.268h39.512v160.76H416.534z"/>
	<path fill="#222222" d="M490.589,163.027V2.268h109.279V37.49h-69.768v26.869h59.607v35.223h-59.607v28.223h69.768v35.223H490.589z
		"/>
	<path fill="#222222" d="M774.171,163.027h-32.289l-25.965-79.25l-25.965,79.25h-32.061L613.638,2.268h41.318l20.998,84.896
		l25.965-84.896h27.998l25.965,84.896L776.88,2.268h41.318L774.171,163.027z"/>
	<path fill="#222222" d="M986.175,163.027l-10.16-11.742c-1.957,1.508-4.027,3.014-6.209,4.516c-2.184,1.508-4.74,2.9-7.676,4.178
		c-2.936,1.281-6.361,2.336-10.273,3.162c-3.916,0.824-8.58,1.24-13.998,1.24c-18.967,0-32.777-4.438-41.432-13.32
		c-8.658-8.881-12.982-21.146-12.982-36.803c0-4.664,0.75-8.992,2.258-12.982c1.502-3.986,3.5-7.678,5.982-11.064
		c2.484-3.387,5.229-6.434,8.242-9.145c3.008-2.709,6.018-5.041,9.031-6.998c-1.355-1.654-2.936-3.535-4.742-5.645
		c-1.807-2.107-3.465-4.551-4.967-7.338c-1.506-2.785-2.787-5.832-3.838-9.145c-1.055-3.311-1.582-7-1.582-11.064
		c0-11.889,3.986-21.523,11.967-28.9c7.977-7.373,19.719-11.063,35.223-11.063c7.074,0,13.396,0.98,18.967,2.936
		c5.566,1.957,10.273,4.74,14.111,8.354c3.838,3.611,6.773,7.902,8.805,12.869c2.033,4.967,3.049,10.387,3.049,16.256
		c0,6.174-1.395,11.367-4.178,15.58c-2.787,4.215-6.66,8.205-11.627,11.967c-1.355,1.055-2.709,2.109-4.064,3.16
		c-1.207,0.904-2.449,1.807-3.727,2.711c-1.279,0.902-2.447,1.73-3.498,2.482l18.965,21.9c2.258-2.557,3.986-6.131,5.193-10.725
		c1.203-4.59,1.955-8.766,2.258-12.529h34.771c-0.756,10.537-2.598,19.945-5.533,28.223c-2.934,8.279-7.338,15.656-13.207,22.127
		l31.383,36.803H986.175z M928.601,96.42c-3.764,2.563-6.287,5.158-7.564,7.791c-1.279,2.635-1.918,5.908-1.918,9.82
		c0,4.967,1.881,9.031,5.645,12.193c3.76,3.16,8.127,4.74,13.096,4.74c4.064,0,7.26-0.564,9.596-1.693
		c2.332-1.129,4.402-2.518,6.209-4.176L928.601,96.42z M951.179,41.555c0-2.709-0.828-4.967-2.482-6.773
		c-1.658-1.807-4.217-2.709-7.678-2.709c-3.916,0-6.586,0.902-8.016,2.709c-1.432,1.807-2.145,4.143-2.145,7
		c0,2.408,1.09,4.854,3.273,7.338c2.182,2.482,3.951,4.402,5.307,5.758c0.6-0.301,1.164-0.678,1.693-1.129
		c0.525-0.453,1.09-0.904,1.693-1.355c0.6-0.6,1.277-1.051,2.031-1.355c1.955-1.354,3.5-2.822,4.629-4.402
		S951.179,43.361,951.179,41.555z"/>
	<path fill="#222222" d="M82.604,95.969c3.161-1.654,6.321-3.725,9.482-6.209s5.983-5.453,8.467-8.918
		c2.484-3.461,4.478-7.451,5.983-11.967c1.503-4.516,2.258-9.482,2.258-14.902c0-6.621-1.167-13.018-3.499-19.191
		c-2.336-6.17-5.835-11.664-10.499-16.482c-4.668-4.814-10.425-8.693-17.272-11.627C70.673,3.736,62.81,2.268,53.93,2.268H0v160.76
		h29.771v-59.834h13.321l28.449,59.834h45.834L82.604,95.969z M64.768,65.262c-3.013,3.313-7.226,4.967-12.645,4.967H29.771V37.717
		h22.353c5.419,0,9.632,1.658,12.645,4.967c3.009,3.313,4.516,7.076,4.516,11.289C69.283,58.189,67.776,61.953,64.768,65.262z"/>
	<path fill="#222222" d="M227.329,341.689c5.566-5.041,9.97-11.137,13.208-18.289c3.235-7.146,4.854-15.088,4.854-23.82V195.268
		h-39.513v103.41c0,7.529-1.958,13.32-5.87,17.385c-3.916,4.064-9.183,6.098-15.805,6.098c-6.626,0-11.818-2.033-15.579-6.098
		c-3.765-4.064-5.645-9.855-5.645-17.385v-103.41h-39.513V299.58c0,8.732,1.581,16.674,4.741,23.82
		c3.161,7.152,7.525,13.248,13.096,18.289c4.358,3.949,9.28,7.17,14.749,9.688h56.524
		C218.045,348.859,222.968,345.639,227.329,341.689z"/>
	<path fill="#222222" d="M383.005,343.834c4.438-4.064,7.938-9.031,10.499-14.9c2.558-5.871,3.839-12.645,3.839-20.322
		c0-5.719-0.717-10.533-2.146-14.449c-1.432-3.912-3.199-7.225-5.306-9.936c-2.109-2.709-4.29-4.889-6.548-6.547
		c-2.258-1.654-4.216-3.01-5.87-4.064c1.203-0.902,2.822-2.18,4.854-3.838c2.032-1.654,3.986-3.799,5.87-6.436
		c1.881-2.631,3.5-5.758,4.854-9.369c1.354-3.613,2.032-7.678,2.032-12.193c0-6.922-1.094-13.242-3.274-18.965
		c-2.184-5.719-5.457-10.611-9.821-14.676c-4.367-4.064-9.709-7.227-16.03-9.484c-6.322-2.258-13.699-3.387-22.127-3.387h-66.606
		v156.109h94.12C375.716,349.457,379.604,346.945,383.005,343.834z M316.737,230.717h24.61c5.419,0,9.145,1.393,11.177,4.176
		c2.032,2.787,3.048,5.758,3.048,8.92c0,3.16-1.016,6.135-3.048,8.918c-2.032,2.787-5.758,4.178-11.177,4.178h-24.61V230.717z
		 M354.669,316.063c-2.109,3.014-5.87,4.516-11.289,4.516h-26.643v-28.223h26.643c5.419,0,9.18,1.469,11.289,4.402
		c2.106,2.936,3.161,6.135,3.161,9.596C357.83,309.818,356.775,313.055,354.669,316.063z"/>
	<polygon fill="#222222" points="466.207,279.035 489.011,318.771 514.298,318.771 537.103,279.035 537.103,351.377 
		576.615,351.377 576.615,195.268 537.781,195.268 501.654,266.164 465.529,195.268 426.695,195.268 426.695,351.377 
		466.207,351.377 	"/>
	<rect x="611.16" y="195.268" fill="#222222" width="39.514" height="156.109"/>
	<polygon fill="#222222" points="794.267,230.49 794.267,195.268 675.73,195.268 675.73,230.49 715.244,230.49 715.244,351.377 
		754.755,351.377 754.755,230.49 	"/>
	<path fill="#222222" d="M79.782,344.377c5.645-4.297,10.121-9.613,13.434-15.945c3.31-6.332,4.968-13.572,4.968-21.715
		c0-7.539-0.903-14.248-2.71-20.129c-1.806-5.877-4.893-10.93-9.257-15.156c-6.925-6.936-17.463-11.381-31.609-13.342l-19.418-2.717
		c-2.861-0.301-5.157-0.904-6.887-1.807c-1.731-0.902-3.125-1.883-4.177-2.941c-1.206-1.207-2.032-2.488-2.483-3.846
		c-0.452-1.355-0.678-2.563-0.678-3.619c0-1.807,0.374-3.578,1.129-5.314c0.752-1.734,1.92-3.318,3.5-4.752
		c1.58-1.432,3.573-2.6,5.983-3.502c2.406-0.904,5.341-1.359,8.806-1.359c1.806,0,3.912,0,6.321,0c2.406,0,4.968,0.305,7.677,0.904
		c2.71,0.604,5.493,1.545,8.354,2.822c2.857,1.279,5.566,3.199,8.128,5.756L95.7,212.979c-6.926-6.877-14.789-11.773-23.595-14.689
		c-8.806-2.914-19.005-4.375-30.594-4.375c-9.184,0-17.386,1.279-24.61,3.838c-6.528,2.314-12.156,5.43-16.901,9.34v74.979
		c6.738,4.527,15.456,7.58,26.158,9.156l19.417,2.709c4.816,0.604,8.354,2.033,10.612,4.291c2.106,2.258,3.161,5.418,3.161,9.482
		c0,9.635-7.677,14.451-23.03,14.451c-6.474,0-13.021-0.826-19.644-2.484c-6.625-1.654-12.044-4.59-16.256-8.807L0,311.289v40.088
		h67.658C72.09,349.482,76.136,347.152,79.782,344.377z"/>
</g>
</svg>
