<?xml version="1.0" encoding="utf-8"?>
<!-- Generator: Adobe Illustrator 16.0.0, SVG Export Plug-In . SVG Version: 6.00 Build 0)  -->
<!DOCTYPE svg PUBLIC "-//W3C//DTD SVG 1.1//EN" "http://www.w3.org/Graphics/SVG/1.1/DTD/svg11.dtd">
<svg version="1.1" id="Layer_1" xmlns="http://www.w3.org/2000/svg" xmlns:xlink="http://www.w3.org/1999/xlink" x="0px" y="0px"
	 width="949.361px" height="151.667px" viewBox="0 0 949.361 151.667" enable-background="new 0 0 949.361 151.667"
	 xml:space="preserve">
<g>
	<g>
		<path fill="#121212" d="M113.858,104.646c0,7.549-1.537,14.262-4.605,20.133c-3.071,5.871-7.223,10.801-12.456,14.785
			s-11.341,6.99-18.317,9.019c-6.98,2.024-14.376,3.038-22.19,3.038c-11.445,0-21.844-1.36-31.192-4.082
			c-9.353-2.722-17.795-7.919-25.331-15.597l23.446-23.446c3.906,3.909,8.93,6.631,15.073,8.164
			c6.14,1.538,12.211,2.304,18.213,2.304c14.235,0,21.354-4.466,21.354-13.398c0-3.769-0.979-6.699-2.931-8.793
			c-2.094-2.093-5.375-3.418-9.84-3.978l-18.004-2.512c-13.261-1.953-23.237-6.35-29.936-13.188
			c-6.84-6.978-10.259-16.957-10.259-29.937c0-6.837,1.257-13.117,3.769-18.842c2.513-5.721,6.104-10.676,10.781-14.863
			c4.675-4.187,10.362-7.464,17.062-9.839c6.699-2.372,14.305-3.559,22.819-3.559c10.745,0,20.201,1.354,28.366,4.056
			c8.164,2.705,15.455,7.245,21.876,13.62L88.528,40.668c-2.375-2.371-4.888-4.15-7.537-5.338c-2.652-1.185-5.233-2.058-7.745-2.617
			c-2.513-0.556-4.888-0.837-7.118-0.837c-2.234,0-4.187,0-5.861,0c-3.213,0-5.934,0.422-8.165,1.259
			c-2.233,0.838-4.082,1.921-5.548,3.248c-1.465,1.328-2.548,2.797-3.244,4.406c-0.7,1.609-1.047,3.252-1.047,4.927
			c0,0.98,0.209,2.1,0.628,3.355c0.419,1.26,1.185,2.447,2.303,3.565c0.975,0.981,2.267,1.891,3.873,2.729
			c1.603,0.837,3.732,1.396,6.385,1.675l18.004,2.519c13.117,1.818,22.888,5.94,29.309,12.371c4.046,3.918,6.908,8.603,8.583,14.052
			C113.021,91.435,113.858,97.656,113.858,104.646z"/>
		<path fill="#121212" d="M139.815,150.365V1.312h101.323v32.657H176.45v24.912h55.268v32.658H176.45v26.168h64.688v32.658H139.815z
			"/>
		<path fill="#121212" d="M344.343,150.365l-26.378-55.477h-12.352v55.477h-36.635V1.312h59.035c8.233,0,15.524,1.36,21.876,4.082
			c6.35,2.722,11.688,6.316,16.016,10.781c4.324,4.468,7.569,9.562,9.734,15.282c2.162,5.725,3.245,11.654,3.245,17.794
			c0,5.024-0.7,9.63-2.094,13.817c-1.396,4.187-3.245,7.887-5.548,11.095c-2.303,3.213-4.919,5.967-7.851,8.27
			c-2.931,2.303-5.861,4.223-8.792,5.757l32.239,62.176H344.343z M342.249,49.251c0-3.905-1.396-7.396-4.187-10.467
			c-2.794-3.068-6.699-4.605-11.724-4.605h-20.726v30.146h20.726c5.024,0,8.93-1.534,11.724-4.605
			C340.853,56.65,342.249,53.16,342.249,49.251z"/>
		<path fill="#121212" d="M468.692,150.365h-27.215L392.281,1.312h37.892l25.121,83.319l24.703-83.319h38.101L468.692,150.365z"/>
		<path fill="#121212" d="M535.055,150.365V1.312h36.635v149.054H535.055z"/>
		<path fill="#121212" d="M688.711,141.887c-2.794,2.024-5.829,3.769-9.106,5.233c-3.281,1.466-6.909,2.584-10.887,3.35
			s-8.409,1.151-13.293,1.151c-8.793,0-16.538-1.43-23.237-4.291c-6.699-2.859-12.771-7.014-18.213-12.456
			c-3.909-3.906-6.908-8.129-9.002-12.666c-2.094-4.533-3.595-9.315-4.501-14.34c-0.909-5.024-1.396-10.222-1.466-15.597
			c-0.071-5.371-0.104-10.85-0.104-16.434c0-5.58,0.033-11.059,0.104-16.434c0.069-5.371,0.557-10.571,1.466-15.596
			c0.906-5.024,2.407-9.804,4.501-14.34c2.094-4.534,5.093-8.757,9.002-12.666c5.442-5.442,11.514-9.594,18.213-12.456
			c6.699-2.858,14.444-4.291,23.237-4.291c4.884,0,9.315,0.386,13.293,1.151c3.978,0.769,7.605,1.884,10.887,3.35
			c3.277,1.465,6.313,3.212,9.106,5.233c2.79,2.024,5.442,4.291,7.955,6.804l-24.284,24.284c-2.375-2.372-4.746-4.324-7.118-5.862
			c-2.374-1.534-5.652-2.303-9.839-2.303c-3.35,0-6.212,0.596-8.583,1.779c-2.375,1.188-4.259,2.689-5.652,4.501
			c-0.838,1.119-1.606,2.375-2.303,3.769c-0.7,1.396-1.292,3.422-1.779,6.071c-0.491,2.652-0.874,6.106-1.151,10.362
			c-0.282,4.259-0.419,9.807-0.419,16.643c0,6.84,0.137,12.388,0.419,16.644c0.277,4.259,0.66,7.713,1.151,10.362
			c0.487,2.653,1.079,4.678,1.779,6.071c0.696,1.396,1.465,2.652,2.303,3.768c1.394,1.815,3.277,3.317,5.652,4.501
			c2.371,1.188,5.233,1.78,8.583,1.78c4.187,0,7.465-0.766,9.839-2.304c2.372-1.533,4.743-3.486,7.118-5.861l24.284,24.284
			C694.153,137.595,691.501,139.865,688.711,141.887z"/>
		<path fill="#121212" d="M720.112,150.365V1.312h101.323v32.657h-64.688v24.912h55.268v32.658h-55.268v26.168h64.688v32.658
			H720.112z"/>
		<path fill="#121212" d="M949.342,104.646c0,7.549-1.537,14.262-4.605,20.133c-3.071,5.871-7.223,10.801-12.456,14.785
			s-11.341,6.99-18.317,9.019c-6.98,2.024-14.376,3.038-22.19,3.038c-11.445,0-21.844-1.36-31.192-4.082
			c-9.353-2.722-17.795-7.919-25.331-15.597l23.446-23.446c3.906,3.909,8.93,6.631,15.073,8.164
			c6.14,1.538,12.211,2.304,18.213,2.304c14.235,0,21.354-4.466,21.354-13.398c0-3.769-0.979-6.699-2.931-8.793
			c-2.094-2.093-5.375-3.418-9.84-3.978l-18.004-2.512c-13.261-1.953-23.237-6.35-29.936-13.188
			c-6.84-6.978-10.259-16.957-10.259-29.937c0-6.837,1.257-13.117,3.769-18.842c2.513-5.721,6.104-10.676,10.781-14.863
			c4.675-4.187,10.362-7.464,17.062-9.839c6.699-2.372,14.305-3.559,22.819-3.559c10.745,0,20.201,1.354,28.366,4.056
			c8.164,2.705,15.455,7.245,21.876,13.62l-23.027,22.937c-2.375-2.371-4.888-4.15-7.537-5.338
			c-2.652-1.185-5.233-2.058-7.745-2.617c-2.513-0.556-4.888-0.837-7.118-0.837c-2.234,0-4.187,0-5.861,0
			c-3.213,0-5.934,0.422-8.165,1.259c-2.233,0.838-4.082,1.921-5.548,3.248c-1.465,1.328-2.548,2.797-3.244,4.406
			c-0.7,1.609-1.047,3.252-1.047,4.927c0,0.98,0.209,2.1,0.628,3.355c0.419,1.26,1.185,2.447,2.303,3.565
			c0.975,0.981,2.267,1.891,3.873,2.729c1.603,0.837,3.732,1.396,6.385,1.675l18.004,2.519c13.117,1.818,22.888,5.94,29.309,12.371
			c4.046,3.918,6.908,8.603,8.583,14.052C948.505,91.435,949.342,97.656,949.342,104.646z"/>
	</g>
</g>
</svg>
