<?xml version="1.0" encoding="UTF-8"?>
<!DOCTYPE svg PUBLIC "-//W3C//DTD SVG 1.1//EN" "http://www.w3.org/Graphics/SVG/1.1/DTD/svg11.dtd">
<!-- Creator: CorelDRAW -->
<svg xmlns="http://www.w3.org/2000/svg" xml:space="preserve" width="3.6in" height="1.2in" style="shape-rendering:geometricPrecision; text-rendering:geometricPrecision; image-rendering:optimizeQuality; fill-rule:evenodd; clip-rule:evenodd"
viewBox="0 0 3.6 1.2"
 xmlns:xlink="http://www.w3.org/1999/xlink">
 <defs>
  <style type="text/css">
   <![CDATA[
    .fil1 {fill:#FEFEFE}
    .fil0 {fill:#FEFEFE;fill-rule:nonzero}
   ]]>
  </style>
 </defs>
 <g id="Layer_x0020_1">
  <metadata id="CorelCorpID_0Corel-Layer"/>
  <g id="_187079144">
   <path id="_187080104" class="fil0" d="M1.20427 0.395232l-0.054748 0 0 -0.0430827 0.054748 0 0 -0.0985157 0.0807087 0 0 0.0985157 0.0893346 0 0 0.0430827 -0.0893346 0 0 0.160098c0,0.0155945 0.00162598,0.0288465 0.00488976,0.0396929 0.00327559,0.0109016 0.0076811,0.0197205 0.013248,0.0265 0.00558268,0.00675197 0.0120157,0.0118071 0.0193346,0.0150827 0.00727953,0.00327953 0.0149724,0.00493307 0.0230433,0.00493307 0.0115276,0 0.0226654,-0.00194488 0.0334291,-0.0058622 0.0107638,-0.00390157 0.0197913,-0.00809843 0.0271102,-0.0126378l0.0172638 0.0400394c-0.0115276,0.0061378 -0.0246929,0.0112913 -0.0394724,0.0153898 -0.0148031,0.00411024 -0.0294843,0.00615354 -0.0440945,0.00615354 -0.0434331,0 -0.0768622,-0.0114724 -0.100307,-0.0344724 -0.0234173,-0.0229882 -0.0351535,-0.0545827 -0.0351535,-0.0948189l0 -0.160098zm0.409252 -0.0553898c0.0123031,0 0.0245945,0.0011378 0.0368858,0.0033622 0.0123228,0.00227559 0.0241142,0.00534646 0.0354724,0.00924803 0.0113189,0.00390551 0.0218898,0.00873622 0.0316969,0.0144882 0.00980315,0.00572047 0.0183465,0.0120984 0.0256654,0.0190709l-0.0230709 0.0369409c-0.0157638,-0.0127205 -0.0318189,-0.0225669 -0.0481378,-0.0295669 -0.0163189,-0.00697244 -0.0339173,-0.0104449 -0.0527362,-0.0104449 -0.0138307,0 -0.0265118,0.0023622 -0.0380394,0.00708268 -0.0115433,0.00469291 -0.0215157,0.0123189 -0.0299882,0.0227638 -0.00844488,0.0104724 -0.0150984,0.0239173 -0.019874,0.0403346 -0.00480709,0.0164449 -0.00720866,0.0361102 -0.00720866,0.0591102 0,0.023 0.00240157,0.0426929 0.00720866,0.0591102 0.00477559,0.0164016 0.0116378,0.0298622 0.0204567,0.0403346 0.00883465,0.0104724 0.0195,0.0180669 0.032,0.0227638 0.0124882,0.00470866 0.0262244,0.00709843 0.0411969,0.00709843 0.0188465,0 0.0364291,-0.0035 0.0527638,-0.0104724 0.0163189,-0.00698819 0.032374,-0.0168346 0.0481378,-0.0295551l0.0230433 0.0369409c-0.00730709,0.00697244 -0.0158622,0.0133228 -0.0256535,0.0190709 -0.00980709,0.00575197 -0.020374,0.0105709 -0.0317087,0.0144882 -0.0113465,0.00390157 -0.0231535,0.0069685 -0.0354449,0.00924803 -0.0122913,0.00225197 -0.0245827,0.0033622 -0.0368898,0.0033622 -0.0273031,0 -0.0521535,-0.00380709 -0.0746535,-0.0113898 -0.0224724,-0.00757087 -0.0415827,-0.0186654 -0.0573465,-0.0332362 -0.0157638,-0.0145984 -0.0279724,-0.0325551 -0.0366102,-0.053874 -0.00865354,-0.0213465 -0.0129567,-0.0459724 -0.0129567,-0.0738898 0,-0.0275157 0.00430315,-0.0520276 0.0129567,-0.0735709 0.0086378,-0.0215394 0.0206535,-0.0396102 0.0360433,-0.0541654 0.0153583,-0.0145984 0.0338031,-0.0256654 0.0553189,-0.0332638 0.0215118,-0.00759843 0.0453583,-0.0113898 0.0714724,-0.0113898zm0.337209 0.304764c0.0122913,0 0.0238189,-0.00247244 0.0345827,-0.00740157 0.010748,-0.00491732 0.0201811,-0.0125827 0.028248,-0.0230551 0.00808268,-0.0104724 0.0145,-0.024126 0.0193071,-0.0409606 0.00480315,-0.0168189 0.00722047,-0.0371378 0.00722047,-0.0609567 0,-0.0237913 -0.00241732,-0.0441102 -0.00722047,-0.0609567 -0.00480709,-0.0168228 -0.0112244,-0.0304882 -0.0193071,-0.0409331 -0.00806693,-0.0104724 -0.0175,-0.0181811 -0.028248,-0.0231102 -0.0107638,-0.00491732 -0.0222913,-0.00737402 -0.0345827,-0.00737402 -0.0123228,0 -0.0238504,0.00245669 -0.0345866,0.00737402 -0.0107756,0.00492913 -0.0201378,0.0126378 -0.0282362,0.0231102 -0.00808268,0.0104449 -0.0145118,0.0241102 -0.0193189,0.0409331 -0.00480315,0.0168465 -0.00719291,0.0371654 -0.00719291,0.0609567 0,0.0238189 0.00238976,0.0441378 0.00719291,0.0609567 0.00480709,0.0168346 0.0112362,0.0304882 0.0193189,0.0409606 0.00809843,0.0104724 0.0174606,0.0181378 0.0282362,0.0230551 0.0107362,0.00492913 0.0222638,0.00740157 0.0345866,0.00740157zm0 -0.304764c0.025748,0 0.0494843,0.00379134 0.0711772,0.0113898 0.0217362,0.00759843 0.0402638,0.0186654 0.0556417,0.0332638 0.015374,0.0145551 0.027374,0.032626 0.036,0.0541654 0.0086811,0.0215433 0.0129843,0.0460551 0.0129843,0.0735709 0,0.0279173 -0.00430315,0.0525433 -0.0129843,0.0738898 -0.00862598,0.0213189 -0.020626,0.0392756 -0.036,0.053874 -0.015378,0.0145709 -0.0339055,0.0256654 -0.0556417,0.0332362 -0.0216929,0.00758268 -0.0454291,0.0113898 -0.0711772,0.0113898 -0.026126,0 -0.0499724,-0.00380709 -0.0714606,-0.0113898 -0.0215394,-0.00757087 -0.0399567,-0.0186654 -0.0553465,-0.0332362 -0.0153622,-0.0145984 -0.027374,-0.0325551 -0.0360433,-0.053874 -0.00864961,-0.0213465 -0.0129449,-0.0459724 -0.0129449,-0.0738898 0,-0.0275157 0.00429528,-0.0520276 0.0129449,-0.0735709 0.00866929,-0.0215394 0.0206811,-0.0396102 0.0360433,-0.0541654 0.0153898,-0.0145984 0.0338071,-0.0256654 0.0553465,-0.0332638 0.0214882,-0.00759843 0.0453346,-0.0113898 0.0714606,-0.0113898zm0.256512 0.0184724c0,-0.0402362 0.0117244,-0.0718346 0.035126,-0.0948346 0.0234724,-0.0230118 0.0568898,-0.0344843 0.100319,-0.0344843 0.0145984,0 0.0292913,0.00207087 0.0441102,0.00616535 0.0147795,0.00411417 0.0279606,0.00925197 0.0394606,0.015378l-0.017252 0.0400394c-0.0073189,-0.0045 -0.0163622,-0.00870866 -0.027126,-0.0126102 -0.0107362,-0.00391732 -0.0218858,-0.0058622 -0.0334134,-0.0058622 -0.00808661,0 -0.0157677,0.00165354 -0.0230591,0.00493307 -0.00733071,0.00329134 -0.0137638,0.00830315 -0.0193189,0.0150827 -0.00558268,0.00676378 -0.0100118,0.0157087 -0.0132638,0.0267756 -0.00324803,0.0110984 -0.00491732,0.0242244 -0.00491732,0.0394173l0 0.00615354 0.0893622 0 0 0.0431102 -0.0893622 0 0 0.264724 -0.0806654 0 0 -0.264724 -0.054748 0 0 -0.0431102 0.054748 0 0 -0.00615354zm0.25939 0c0,-0.0402362 0.0117087,-0.0718346 0.0351535,-0.0948346 0.0234291,-0.0230118 0.0568858,-0.0344843 0.100291,-0.0344843 0.0146102,0 0.0293189,0.00207087 0.0440945,0.00616535 0.0147953,0.00411417 0.0279724,0.00925197 0.0394724,0.015378l-0.0172756 0.0400394c-0.00729134,-0.0045 -0.0163346,-0.00870866 -0.0270709,-0.0126102 -0.0108031,-0.00391732 -0.0219173,-0.0058622 -0.0334173,-0.0058622 -0.00811024,0 -0.0157913,0.00165354 -0.0230945,0.00493307 -0.00729134,0.00329134 -0.013752,0.00830315 -0.0193071,0.0150827 -0.00557087,0.00676378 -0.00998425,0.0157087 -0.0132362,0.0267756 -0.00329134,0.0110984 -0.00491732,0.0242244 -0.00491732,0.0394173l0 0.00615354 0.0893622 0 0 0.0431102 -0.0893622 0 0 0.264724 -0.0806929 0 0 -0.264724 -0.0547795 0 0 -0.0431102 0.0547795 0 0 -0.00615354zm0.389067 0.283224c0.0188346,0 0.0364331,-0.0035 0.0527362,-0.0104724 0.0163622,-0.00698819 0.0323898,-0.0168346 0.0481535,-0.0295551l0.0230551 0.0369409c-0.00729134,0.00697244 -0.0158307,0.0133228 -0.0256654,0.0190709 -0.00979134,0.00575197 -0.0203346,0.0105709 -0.0317087,0.0144882 -0.0113346,0.00390157 -0.0231378,0.0069685 -0.0354173,0.00924803 -0.0123189,0.00225197 -0.0246102,0.0033622 -0.0369016,0.0033622 -0.0272913,0 -0.0521654,-0.00380709 -0.0746535,-0.0113898 -0.0224567,-0.00757087 -0.0416102,-0.0186654 -0.0573465,-0.0332362 -0.015752,-0.0145984 -0.0279567,-0.0325551 -0.0366102,-0.053874 -0.00862598,-0.0213465 -0.0129724,-0.0459724 -0.0129724,-0.0738898 0,-0.0275157 0.00415354,-0.0520276 0.0124016,-0.0735709 0.00826378,-0.0215394 0.0197913,-0.0396102 0.0345827,-0.0541654 0.0148071,-0.0145984 0.0323622,-0.0256654 0.0527362,-0.0332638 0.020378,-0.00759843 0.0428622,-0.0113898 0.0674606,-0.0113898 0.0230551,0 0.0447638,0.0036811 0.0651378,0.0110709 0.0203346,0.00740157 0.0380276,0.0181654 0.053,0.0323307 0.015,0.0141535 0.0269291,0.0313071 0.0357795,0.0514331 0.0088189,0.0200669 0.0132323,0.0428622 0.0132323,0.0683346l0 0.0430669 -0.246138 0c0.00461024,0.0340984 0.0156811,0.0585157 0.0331693,0.0732795 0.0174409,0.0147756 0.0394685,0.0221811 0.0659685,0.0221811zm-0.0201496 -0.261681c-0.0111535,0 -0.0215157,0.00224803 -0.0311417,0.00677559 -0.00959449,0.0045 -0.0179567,0.0116969 -0.0250669,0.0215433 -0.00709843,0.00984646 -0.0128622,0.0225669 -0.0172795,0.0381654 -0.00441732,0.0155984 -0.00683071,0.0344724 -0.00723622,0.0566693l0.161433 0c0,-0.021378 -0.00230709,-0.0398504 -0.00691732,-0.0554449 -0.00461024,-0.0155866 -0.0106969,-0.0284055 -0.0181811,-0.0384724 -0.00751575,-0.0100433 -0.0161378,-0.0174449 -0.0259291,-0.0221693 -0.00979528,-0.00470866 -0.0196969,-0.00706693 -0.0296811,-0.00706693zm0.406358 0.261681c0.0188228,0 0.0364331,-0.0035 0.0527638,-0.0104724 0.0163346,-0.00698819 0.0323622,-0.0168346 0.048126,-0.0295551l0.0230551 0.0369409c-0.00733071,0.00697244 -0.015874,0.0133228 -0.0256378,0.0190709 -0.0098189,0.00575197 -0.020374,0.0105709 -0.0317087,0.0144882 -0.0113622,0.00390157 -0.0231654,0.0069685 -0.0354843,0.00924803 -0.0122913,0.00225197 -0.0245709,0.0033622 -0.0368622,0.0033622 -0.0272913,0 -0.0521654,-0.00380709 -0.0746535,-0.0113898 -0.0224843,-0.00757087 -0.0415827,-0.0186654 -0.0573465,-0.0332362 -0.0157638,-0.0145984 -0.0279724,-0.0325551 -0.036626,-0.053874 -0.00862598,-0.0213465 -0.0129567,-0.0459724 -0.0129567,-0.0738898 0,-0.0275157 0.00415354,-0.0520276 0.0123898,-0.0735709 0.00824803,-0.0215394 0.0198031,-0.0396102 0.0345827,-0.0541654 0.0148189,-0.0145984 0.0324016,-0.0256654 0.0527362,-0.0332638 0.0204016,-0.00759843 0.0428583,-0.0113898 0.0674449,-0.0113898 0.0230827,0 0.0447756,0.0036811 0.0651496,0.0110709 0.020378,0.00740157 0.0380433,0.0181654 0.0530157,0.0323307 0.015,0.0141535 0.0269291,0.0313071 0.035748,0.0514331 0.00885039,0.0200669 0.0132638,0.0428622 0.0132638,0.0683346l0 0.0430669 -0.246122 0c0.00461024,0.0340984 0.0156496,0.0585157 0.0331496,0.0732795 0.0174724,0.0147756 0.0394724,0.0221811 0.0659724,0.0221811zm-0.0201772 -0.261681c-0.011126,0 -0.0215157,0.00224803 -0.0310866,0.00677559 -0.0096378,0.0045 -0.0179843,0.0116969 -0.0250945,0.0215433 -0.00711417,0.00984646 -0.0128898,0.0225669 -0.0173071,0.0381654 -0.00440157,0.0155984 -0.00680709,0.0344724 -0.00719291,0.0566693l0.161402 0c0,-0.021378 -0.00230709,-0.0398504 -0.00691732,-0.0554449 -0.0046378,-0.0155866 -0.0106811,-0.0284055 -0.0181654,-0.0384724 -0.00748819,-0.0100433 -0.0161378,-0.0174449 -0.0259331,-0.0221693 -0.00980315,-0.00470866 -0.0196929,-0.00706693 -0.0297047,-0.00706693z"/>
   <path id="_187080128" class="fil0" d="M1.58448 0.834138l-0.0162756 0 0 0.102598 0.0162756 0 0 -0.102598zm0 0.102598zm-0.00815354 -0.115752c0.0018622,-5.51181e-005 0.00354331,-0.000511811 0.00507087,-0.00145669 0.00151575,-0.000933071 0.00272047,-0.00222441 0.00362598,-0.00383465 0.000889764,-0.00159843 0.00137402,-0.00338976 0.00140157,-0.00544488 -2.75591e-005,-0.00198425 -0.000511811,-0.00372047 -0.00140157,-0.0053189 -0.000905512,-0.00157087 -0.00211024,-0.00284646 -0.00362598,-0.00377559 -0.00152756,-0.000944882 -0.00320866,-0.00143307 -0.00507087,-0.00143307 -0.00183071,0 -0.00352756,0.000488189 -0.00503937,0.00143307 -0.00152756,0.000929134 -0.00275197,0.00220472 -0.00365354,0.00377559 -0.000889764,0.00159843 -0.0013622,0.00333465 -0.00138976,0.0053189 2.75591e-005,0.00205512 0.0005,0.00384646 0.00138976,0.00544488 0.000901575,0.00161024 0.00212598,0.00290157 0.00365354,0.00383465 0.00151181,0.000944882 0.00320866,0.00140157 0.00503937,0.00145669zm0.114917 0.115555l0 -0.0638189c2.75591e-005,-0.00545669 -0.000444882,-0.0106102 -0.00141732,-0.0154724 -0.000956693,-0.00487402 -0.00255512,-0.00919291 -0.00474803,-0.0129567 -0.00223622,-0.00377953 -0.0051811,-0.00675197 -0.00890157,-0.00893307 -0.00370866,-0.00216535 -0.00832283,-0.00324803 -0.0137638,-0.00327559 -0.00548819,2.75591e-005 -0.0102953,0.00142913 -0.0143898,0.00420866 -0.00409843,0.00279134 -0.00747244,0.00677559 -0.0100433,0.0119567l-0.000346457 0c-0.000208661,-0.00252756 -0.000527559,-0.00488976 -0.000929134,-0.00697244 -0.000389764,-0.0021378 -0.000807087,-0.00384646 -0.00116929,-0.00515354 -0.000346457,-0.00127559 -0.000527559,-0.00192913 -0.000582677,-0.00198425l-0.0146535 0c0.000318898,0.000984252 0.00069685,0.00226378 0.00105512,0.00388976 0.000350394,0.00165354 0.000641732,0.0035 0.000862205,0.00552756 0.000251969,0.00203937 0.000362205,0.0041811 0.000362205,0.00640157l0 0.0867795 0.0162756 0 0 -0.0570433c-2.75591e-005,-0.00426378 0.000251969,-0.00830709 0.000807087,-0.012126 0.000570866,-0.00383071 0.00154331,-0.00727559 0.00292913,-0.0102362 0.00138976,-0.00295669 0.00332283,-0.00530315 0.00583465,-0.00702756 0.0025,-0.00170866 0.00569291,-0.00256693 0.00955512,-0.00259449 0.00375197,2.75591e-005 0.00673622,0.000858268 0.009,0.00258268 0.00226378,0.00165354 0.00398819,0.00395669 0.0051378,0.00688976 0.00116929,0.00292913 0.00194488,0.00629134 0.00232283,0.0101102 0.000374016,0.00383071 0.000566929,0.00788976 0.000527559,0.0122087l0 0.0570394 0.0162756 0zm0.0313898 -0.0167638c0.00405512,0.00597244 0.00922047,0.0105551 0.0155433,0.0137638 0.00629134,0.00322441 0.0134409,0.00484646 0.0214567,0.00487795 0.00669291,-5.90551e-005 0.0124016,-0.00137795 0.0171929,-0.00396063 0.00477953,-0.00262598 0.00843307,-0.00623622 0.0109724,-0.0107913 0.00257087,-0.00461024 0.00384646,-0.00990157 0.00387795,-0.0159291 -7.08661e-005,-0.00509843 -0.000988189,-0.00943307 -0.00276378,-0.0129606 -0.00179528,-0.00355512 -0.00415354,-0.00653937 -0.00711417,-0.00887402 -0.00291732,-0.00233465 -0.0061811,-0.00434646 -0.00972047,-0.00594488 -0.00352756,-0.00157087 -0.00704331,-0.00301181 -0.0105551,-0.00424803 -0.00354331,-0.00127953 -0.00679134,-0.00255512 -0.00973622,-0.00391732 -0.00294488,-0.00134646 -0.0053189,-0.00293307 -0.00709843,-0.00476378 -0.00177559,-0.00184646 -0.00269291,-0.00415354 -0.00276378,-0.00691732 2.75591e-005,-0.00275197 0.000751969,-0.0051378 0.00216535,-0.00708268 0.00138976,-0.00198819 0.00323622,-0.00347244 0.00554331,-0.0045 0.00233465,-0.00104331 0.00490157,-0.00158268 0.00769291,-0.00158268 0.00461417,0 0.00861417,0.000901575 0.0120433,0.00272047 0.00345669,0.00183465 0.00640157,0.00461024 0.0088622,0.00837402l0.0111378 -0.0109016c-0.00411024,-0.00529134 -0.00879134,-0.0091378 -0.0141102,-0.0114449 -0.00526378,-0.00233465 -0.0108898,-0.0035 -0.016878,-0.00341732 -0.00538583,5.51181e-005 -0.0101102,0.000834646 -0.0141772,0.00240551 -0.00408661,0.00158268 -0.00747244,0.00372047 -0.0101693,0.00645669 -0.00276378,0.00274803 -0.00479134,0.00583465 -0.0061378,0.00930709 -0.00138976,0.00347244 -0.00207087,0.0071378 -0.00207087,0.0109843 5.51181e-005,0.00455512 0.000988189,0.00841732 0.00273622,0.0115827 0.00180709,0.00315354 0.00416929,0.00580709 0.00708268,0.00796063 0.00296063,0.0021378 0.0061811,0.00395669 0.0096811,0.00552756 0.00352756,0.00151181 0.00704331,0.00298425 0.0105551,0.00433071 0.00351575,0.00130709 0.00673622,0.00277953 0.0096811,0.00432283 0.00294488,0.00153937 0.00529134,0.00338583 0.00708268,0.00555512 0.00175197,0.00214961 0.00269685,0.00480315 0.00275197,0.00798425 0,0.00273622 -0.000653543,0.00512598 -0.00192913,0.00723622 -0.00129134,0.0021378 -0.00312598,0.00380709 -0.00552756,0.00501575 -0.00240551,0.00119291 -0.00529528,0.0018189 -0.0086811,0.00184646 -0.00330709,-2.75591e-005 -0.00654331,-0.000625984 -0.00975197,-0.0018189 -0.0031378,-0.00122441 -0.00603937,-0.00287795 -0.00859449,-0.00509843 -0.00259843,-0.0021378 -0.0046811,-0.0046378 -0.00622441,-0.00757087l-0.0120551 0.0114724zm0.117748 0.0542362l0 -0.0359724c0,-0.00203937 -2.75591e-005,-0.00392913 -5.51181e-005,-0.00572047 -3.93701e-005,-0.00179134 -5.51181e-005,-0.00329134 -5.51181e-005,-0.00440157 -2.75591e-005,-0.00108661 -5.51181e-005,-0.00170866 -5.51181e-005,-0.00173622l0.000334646 0c0.00148425,0.00244094 0.00322047,0.00451181 0.00524803,0.00634646 0.00205512,0.00184646 0.00441732,0.00326378 0.00709843,0.0043189 0.00270866,0.00102756 0.00579134,0.00153937 0.00927953,0.00157087 0.00502756,-3.14961e-005 0.00947244,-0.00125197 0.0133189,-0.0036811 0.00384646,-0.00247244 0.00703937,-0.00597244 0.0096378,-0.0105827 0.00257087,-0.00458661 0.00454331,-0.010126 0.0058622,-0.0165591 0.00130315,-0.00644094 0.00194488,-0.0136654 0.00194488,-0.0216929 0,-0.0081378 -0.00069685,-0.0155433 -0.00211417,-0.0221378 -0.00138583,-0.00658268 -0.00345669,-0.0122638 -0.0061378,-0.0169724 -0.00273622,-0.00472441 -0.00605512,-0.00833465 -0.0100276,-0.0108898 -0.00395669,-0.00251575 -0.00844488,-0.00379134 -0.0135551,-0.0038189 -0.00345669,2.75591e-005 -0.00652756,0.000708661 -0.00929134,0.00195669 -0.00275197,0.00120866 -0.0051811,0.00287795 -0.00729134,0.00496063 -0.00209843,0.00205512 -0.00388976,0.00434646 -0.00538976,0.00680315l-0.000346457 0c-0.00019685,-0.00202756 -0.00046063,-0.00395669 -0.000818898,-0.00572047 -0.000350394,-0.00173622 -0.00069685,-0.00316535 -0.001,-0.00425197 -0.000279528,-0.00109449 -0.000433071,-0.0016378 -0.000488189,-0.00169291l-0.0146811 0c0.000362205,0.000984252 0.000708661,0.00226378 0.00107087,0.00388976 0.000362205,0.00165354 0.000637795,0.00344488 0.000901575,0.0055 0.000224409,0.00206693 0.000318898,0.0041811 0.000318898,0.00640157l0 0.124083 0.0162913 0zm0 -0.0970669c-2.75591e-005,-0.00365354 0.000251969,-0.0071811 0.000807087,-0.0105709 0.000515748,-0.00338976 0.00147244,-0.00645669 0.00277953,-0.00912598 0.00129134,-0.00270866 0.00305512,-0.00479134 0.00530315,-0.00638976 0.00223622,-0.00158268 0.00508268,-0.00235827 0.00846063,-0.00238583 0.0036378,2.75591e-005 0.00664961,0.001 0.00905512,0.00292913 0.00242913,0.00194488 0.0043189,0.0046378 0.00579134,0.00805512 0.00140157,0.00341732 0.00241732,0.00737402 0.00302756,0.011874 0.000625984,0.00447244 0.000917323,0.00927953 0.000889764,0.014378 2.75591e-005,0.00534646 -0.00026378,0.0103031 -0.000889764,0.0148189 -0.000610236,0.00452756 -0.00162598,0.00842913 -0.00302756,0.0117913 -0.00147244,0.00334646 -0.0033622,0.00597244 -0.00579134,0.00784646 -0.00240551,0.00184646 -0.00541732,0.00279134 -0.00905512,0.0028189 -0.00357087,-2.75591e-005 -0.00648819,-0.000901575 -0.00876378,-0.00252756 -0.00226378,-0.0016811 -0.00402756,-0.00387402 -0.00527953,-0.0066378 -0.00126378,-0.00279134 -0.00211024,-0.0058622 -0.00259843,-0.00925197 -0.0005,-0.00338583 -0.00073622,-0.00685827 -0.000708661,-0.0103858l0 -0.0172362zm0.101669 -0.0428071l-0.0163071 0 0 0.102598 0.0163071 0 0 -0.102598zm0 0.102598zm-0.0081378 -0.115752c0.00183071,-5.51181e-005 0.00352756,-0.000511811 0.00501181,-0.00145669 0.00154331,-0.000933071 0.00276378,-0.00222441 0.00366535,-0.00383465 0.000889764,-0.00159843 0.00137795,-0.00338976 0.00140551,-0.00544488 -2.75591e-005,-0.00198425 -0.000515748,-0.00372047 -0.00140551,-0.0053189 -0.000901575,-0.00157087 -0.00212205,-0.00284646 -0.00366535,-0.00377559 -0.00148425,-0.000944882 -0.0031811,-0.00143307 -0.00501181,-0.00143307 -0.00187795,0 -0.00355906,0.000488189 -0.00508661,0.00143307 -0.00151181,0.000929134 -0.00273622,0.00220472 -0.00362205,0.00377559 -0.000877953,0.00159843 -0.0013622,0.00333465 -0.00138976,0.0053189 2.75591e-005,0.00205512 0.000511811,0.00384646 0.00138976,0.00544488 0.000885827,0.00161024 0.00211024,0.00290157 0.00362205,0.00383465 0.00152756,0.000944882 0.00320866,0.00140157 0.00508661,0.00145669zm0.0625 0.115752l0 -0.0594882c5.51181e-005,-0.0051811 0.000858268,-0.00970866 0.00253937,-0.0135945 0.0016811,-0.00387795 0.00409843,-0.00691732 0.00719291,-0.00908661 0.00311417,-0.00216535 0.00683465,-0.00324803 0.0111693,-0.00330315 0.0013622,0 0.0026378,0.000137795 0.00374803,0.000346457 0.00119685,0.000220472 0.00205512,0.000484252 0.00259843,0.000791339l0.00269291 -0.0199449c-0.00053937,0 -0.00111024,-2.75591e-005 -0.00167717,-9.84252e-005 -0.000625984,-2.75591e-005 -0.00116929,-8.26772e-005 -0.00170866,-8.26772e-005 -0.012752,0 -0.0217913,0.00620866 -0.0270866,0.0185984l-0.000346457 0c-0.000220472,-0.00308268 -0.00053937,-0.00590157 -0.001,-0.00840157 -0.000456693,-0.00252756 -0.000956693,-0.00452756 -0.00135827,-0.00605512 -0.000405512,-0.00148819 -0.000598425,-0.00222441 -0.000653543,-0.00227953l-0.0146693 0c0.000350394,0.000984252 0.00069685,0.00226378 0.00105906,0.00388976 0.000346457,0.00165354 0.000649606,0.0035 0.000885827,0.00552756 0.000224409,0.00203937 0.000334646,0.0041811 0.000334646,0.00640157l0 0.0867795 0.0162795 0zm0.109803 -0.0310551c-0.00201181,0.00574803 -0.00458268,0.0100551 -0.0078189,0.0129291 -0.00322047,0.00292913 -0.00723622,0.00437402 -0.0121811,0.00437402 -0.00473622,-2.75591e-005 -0.0086811,-0.00141732 -0.0117087,-0.00409843 -0.00306693,-0.00264961 -0.00537402,-0.00637402 -0.00688976,-0.0111496 -0.00155512,-0.00479134 -0.00244094,-0.0103898 -0.0026378,-0.0167638l0.0539882 0 0 -0.00469685c2.75591e-005,-0.00740157 -0.00046063,-0.0144291 -0.00152756,-0.0209173 -0.00102756,-0.0065 -0.00282283,-0.0122756 -0.00533465,-0.017248 -0.00255512,-0.00501575 -0.00605512,-0.0088622 -0.0105551,-0.0117362 -0.00444488,-0.00283465 -0.010126,-0.00423622 -0.0169331,-0.00429134 -0.00756693,5.51181e-005 -0.0140276,0.00224803 -0.0193583,0.00659843 -0.0053189,0.00430315 -0.00944488,0.0104843 -0.0122913,0.0185 -0.00285039,0.008 -0.00426378,0.0174843 -0.00429134,0.0285276 2.75591e-005,0.0110118 0.00144094,0.0204567 0.00417717,0.0282913 0.00276378,0.00784646 0.00680709,0.0138583 0.0121535,0.0180945 0.00534646,0.00415354 0.0118898,0.00629134 0.0196102,0.00632283 0.00564173,0 0.0105591,-0.000889764 0.0147638,-0.00265354 0.00416929,-0.00176378 0.00780709,-0.00437795 0.0109055,-0.00779134 0.00308268,-0.00344488 0.00580315,-0.00769685 0.00816535,-0.0126969l-0.0122362 -0.00959449zm-0.0412362 -0.0278622c0.000346457,-0.00615354 0.00127953,-0.0115551 0.00284646,-0.0162244 0.00152756,-0.00469291 0.00372441,-0.00835827 0.00659843,-0.0109843 0.00284646,-0.00265354 0.00640157,-0.00398819 0.0107362,-0.00404331 0.00415354,5.51181e-005 0.00754331,0.0013622 0.0101535,0.00396063 0.00259843,0.00261024 0.0045,0.00623622 0.00577559,0.0109016 0.00127953,0.00469291 0.00197244,0.0101535 0.00211417,0.0163898l-0.0382244 0zm0.152461 0.0587205c-0.000307087,-0.000917323 -0.000681102,-0.00216535 -0.00101575,-0.00376378 -0.000374016,-0.00159449 -0.000637795,-0.00344488 -0.000889764,-0.00552756 -0.000275591,-0.00206693 -0.000401575,-0.00423622 -0.000401575,-0.00651181l0 -0.121583 -0.0163071 0 0 0.0323583c0,0.00184646 5.51181e-005,0.00369685 8.66142e-005,0.0055 0,0.00179134 5.51181e-005,0.00329134 8.26772e-005,0.00451575 1.1811e-005,0.00119291 1.1811e-005,0.00176378 1.1811e-005,0.00183071l-0.000346457 0c-0.00140157,-0.00222047 -0.00312598,-0.00416535 -0.00507087,-0.00584646 -0.00192913,-0.0016811 -0.00414961,-0.00301181 -0.00659449,-0.00397244 -0.00241732,-0.000944882 -0.00509843,-0.00142913 -0.008,-0.00145669 -0.00520866,2.75591e-005 -0.00987795,0.00124803 -0.0138898,0.00374803 -0.00409843,0.00246063 -0.00751575,0.00601575 -0.0102795,0.010626 -0.0028189,0.00466535 -0.00494488,0.0102087 -0.00637402,0.0167362 -0.00144488,0.00651575 -0.00219291,0.0138346 -0.00219291,0.0219724 0,0.00802756 0.000665354,0.0153622 0.00202756,0.0218622 0.00133071,0.00653937 0.00335827,0.0121811 0.006,0.0168189 0.00259449,0.00469291 0.0058622,0.00827559 0.00965354,0.0107756 0.00384646,0.00251575 0.00830315,0.00376378 0.0132913,0.00379528 0.00384646,-3.14961e-005 0.00722047,-0.000681102 0.0100945,-0.00194488 0.00290551,-0.00125197 0.0053622,-0.00293307 0.00743307,-0.00508661 0.00205512,-0.0021378 0.00376378,-0.0045 0.00512205,-0.00706693l0.000377953 0c0.000192913,0.00273622 0.000566929,0.00523622 0.00111024,0.00734646 0.0005,0.00216535 0.000984252,0.00379134 0.0013622,0.00487402l0.0147087 0zm-0.0186142 -0.0382087c0,0.00455512 -0.000649606,0.00866929 -0.00195669,0.012252 -0.00125197,0.00361024 -0.00319291,0.00651181 -0.00577953,0.00862598 -0.00253937,0.00209449 -0.00577559,0.00317717 -0.00959449,0.00323622 -0.00361417,-5.90551e-005 -0.00665354,-0.000972441 -0.00907087,-0.00287795 -0.00242913,-0.00190157 -0.00430709,-0.0045 -0.00577559,-0.00787402 -0.00143307,-0.0033622 -0.00240551,-0.0073189 -0.0030315,-0.0118189 -0.000622047,-0.00452756 -0.000929134,-0.00941732 -0.000901575,-0.0147087 -2.75591e-005,-0.00520866 0.000279528,-0.01 0.000901575,-0.0145433 0.000625984,-0.0045 0.00159843,-0.00845669 0.0030315,-0.011874 0.0014685,-0.00344488 0.00334646,-0.00615354 0.00577559,-0.00811024 0.00241732,-0.00192913 0.00545669,-0.00290157 0.00907087,-0.00292913 0.00365354,2.75591e-005 0.00658268,0.000972441 0.00888583,0.00273622 0.00230709,0.0018189 0.00404331,0.00423622 0.00529528,0.00716535 0.00119291,0.00298425 0.00206693,0.00623622 0.0025,0.00979134 0.000484252,0.00352756 0.000704724,0.00705512 0.000649606,0.0106102l0 0.0203189zm0.211209 0.0382087l0 -0.0672087c2.75591e-005,-0.00529134 -0.00030315,-0.0101772 -0.00105512,-0.0147087 -0.00073622,-0.0045 -0.00203937,-0.00845669 -0.00391732,-0.0118307 -0.00183071,-0.00338976 -0.00441339,-0.00598819 -0.00772047,-0.0078622 -0.00329134,-0.00187402 -0.00748819,-0.0028189 -0.0126102,-0.00284646 -0.00554331,0 -0.0103189,0.00141732 -0.0142795,0.00429134 -0.00398425,0.00290157 -0.00723622,0.00726378 -0.0098189,0.0132087l-0.000346457 0c-0.000972441,-0.00341732 -0.00252756,-0.00634646 -0.00461024,-0.00890157 -0.00204331,-0.00254331 -0.00464173,-0.0045 -0.00776378,-0.00591732 -0.00314173,-0.00140551 -0.00677953,-0.00208268 -0.0109606,-0.00214173 -0.00484646,0 -0.00908268,0.00114173 -0.0127205,0.0035 -0.00364173,0.0023622 -0.00677953,0.00615354 -0.00941732,0.0113898l-0.000346457 0c-0.000224409,-0.00241732 -0.000515748,-0.0046378 -0.000889764,-0.0066378 -0.000389764,-0.00201575 -0.00073622,-0.0036378 -0.00107087,-0.0048622 -0.000318898,-0.00122047 -0.000484252,-0.0018189 -0.00053937,-0.00187402l-0.0146693 0c0.000350394,0.000984252 0.00069685,0.00226378 0.00105512,0.00388976 0.000350394,0.00165354 0.000653543,0.0035 0.000889764,0.00552756 0.000224409,0.00203937 0.000362205,0.0041811 0.000362205,0.00640157l0 0.0867795 0.0162756 0 0 -0.0644055c3.14961e-005,-0.00523622 0.000779528,-0.00970866 0.00230709,-0.0132913 0.00148819,-0.00362205 0.00351575,-0.00637402 0.00612598,-0.0081811 0.00259843,-0.00184646 0.00558268,-0.00280315 0.00892913,-0.00280315 0.0028189,0 0.00523622,0.000708661 0.0071811,0.0021811 0.00201575,0.00148425 0.0035,0.00384646 0.00452756,0.00701181 0.00101575,0.00320866 0.00155512,0.00733465 0.00155512,0.0124606l0 0.0668307 0.0164331 0 0 -0.0636102c5.51181e-005,-0.00533465 0.000791339,-0.00984646 0.00222047,-0.0135551 0.00147244,-0.00372047 0.0035,-0.00651575 0.00608268,-0.00841732 0.00259843,-0.00191732 0.00561024,-0.00290157 0.00905512,-0.00290157 0.0028189,0 0.00523622,0.000708661 0.00725197,0.0021811 0.00194488,0.00148425 0.00347244,0.00384646 0.00444488,0.00701181 0.00105512,0.00320866 0.00156693,0.00733465 0.00156693,0.0124606l0 0.0668307 0.0164724 0zm0.099878 0c-0.000724409,-0.00140157 -0.00137795,-0.0035 -0.00194488,-0.0061811 -0.000543307,-0.00264961 -0.000877953,-0.00597244 -0.000905512,-0.0098189l0 -0.0492913c0,-0.00680315 -0.00080315,-0.0126378 -0.00235827,-0.0175945 -0.00151575,-0.00491732 -0.00365354,-0.00898819 -0.00640551,-0.0121811 -0.00273622,-0.0031811 -0.00590157,-0.00554331 -0.00948425,-0.00708661 -0.00361024,-0.00156693 -0.00751575,-0.00230315 -0.0116378,-0.00230315 -0.00404331,0 -0.00797244,0.000653543 -0.0118622,0.00198425 -0.00390157,0.0013189 -0.00759843,0.0033622 -0.0110984,0.00615354 -0.00348425,0.00270866 -0.00669291,0.00623622 -0.00962598,0.0104724l0.0104724 0.0116929c0.00122441,-0.00280315 0.00279134,-0.0053189 0.00469685,-0.00759449 0.00187402,-0.00225197 0.00403937,-0.00409843 0.00653937,-0.00540551 0.00246063,-0.00133071 0.00520866,-0.00202756 0.00820866,-0.00205512 0.00534646,2.75591e-005 0.00938976,0.00194488 0.0121535,0.00575197 0.00277953,0.00376378 0.00415354,0.00927559 0.00415354,0.0164291l0 0.00622441c-0.0116654,3.93701e-005 -0.0212638,0.00140157 -0.028752,0.0041378 -0.00751181,0.00274803 -0.0130551,0.00657087 -0.0166811,0.0115118 -0.00358268,0.00490551 -0.00540157,0.0106811 -0.00540157,0.0173071 0,0.00575197 0.00105512,0.0108465 0.00309843,0.0153189 0.00202756,0.00441732 0.00503937,0.00794488 0.00902756,0.0105 0.00395669,0.00255512 0.00884646,0.00384646 0.014626,0.00390551 0.00423622,-5.90551e-005 0.00788583,-0.000834646 0.0110669,-0.0023622 0.00311417,-0.00148819 0.00575197,-0.00347244 0.00794488,-0.00588976 0.00211024,-0.00240157 0.00393307,-0.00498425 0.00526378,-0.00772047 0.00026378,0.00219291 0.000598425,0.00424803 0.000917323,0.00620866 0.000334646,0.00195669 0.000681102,0.00366535 0.00101575,0.00503937 0.000318898,0.00138976 0.000665354,0.00230709 0.00105512,0.00284646l0.0159173 0zm-0.0190984 -0.0404724c0,0.00369685 -0.000488189,0.00722441 -0.00137402,0.0105551 -0.00096063,0.00338976 -0.00230709,0.00637795 -0.00415354,0.00898819 -0.00179134,0.00259843 -0.00401575,0.00466535 -0.0066811,0.0061811 -0.00259843,0.00151181 -0.00561024,0.00230315 -0.00905512,0.00233071 -0.0025,0 -0.00477953,-0.000622047 -0.00691732,-0.00176378 -0.00211024,-0.00111024 -0.00379134,-0.00284646 -0.00507087,-0.00514961 -0.00127559,-0.00227953 -0.00192913,-0.00512598 -0.00198425,-0.00851575 5.51181e-005,-0.00440157 0.00133465,-0.00805512 0.00384646,-0.0110709 0.00258268,-0.00292913 0.00619291,-0.00514961 0.0108622,-0.00667717 0.00469291,-0.00146063 0.0102205,-0.00222441 0.0165945,-0.00222441l0.00193307 0 0.002 0 0 0.00734646zm0.0269449 0.0782913c0.00191732,0.00076378 0.00373622,0.0013622 0.00547244,0.00179528 0.00173622,0.000429134 0.00347244,0.00076378 0.00520866,0.000940945 0.00173622,0.00019685 0.00361024,0.000279528 0.00559449,0.000279528 0.00675197,0 0.0124724,-0.00157087 0.0171417,-0.00466535 0.00469291,-0.00309843 0.00822047,-0.00770866 0.0106772,-0.0138622 0.00244488,-0.00612598 0.00366929,-0.013752 0.00369685,-0.0228465l0 -0.101862 -0.0168189 0 0 0.101484c0,0.006 -0.000515748,0.010878 -0.00159843,0.0146535 -0.00108268,0.00376378 -0.00279134,0.00652756 -0.00509843,0.0083189 -0.00233071,0.00173622 -0.00534646,0.00261417 -0.00906693,0.00258661 -0.00170866,0 -0.00338976,-0.00019685 -0.00504331,-0.000598425 -0.00165354,-0.000401575 -0.0031378,-0.00108268 -0.0045,-0.00201575l-0.00566535 0.0157913zm0.0394724 -0.153374c0.00185827,-5.51181e-005 0.00351181,-0.000511811 0.00506693,-0.00145669 0.00151575,-0.000933071 0.00270866,-0.00222441 0.00362598,-0.00383465 0.000901575,-0.00159843 0.0013622,-0.00338976 0.00138976,-0.00544488 -2.75591e-005,-0.00198425 -0.000488189,-0.00372047 -0.00138976,-0.0053189 -0.000917323,-0.00157087 -0.00211024,-0.00284646 -0.00362598,-0.00377559 -0.00155512,-0.000944882 -0.00320866,-0.00143307 -0.00506693,-0.00143307 -0.00185039,0 -0.00352756,0.000488189 -0.00505512,0.00143307 -0.00154331,0.000929134 -0.00273622,0.00220472 -0.00365354,0.00377559 -0.000905512,0.00159843 -0.0013622,0.00333465 -0.00138976,0.0053189 2.75591e-005,0.00205512 0.000484252,0.00384646 0.00138976,0.00544488 0.000917323,0.00161024 0.00211024,0.00290157 0.00365354,0.00383465 0.00152756,0.000944882 0.00320472,0.00140157 0.00505512,0.00145669zm0.0770276 0.101626c-0.00357087,-2.75591e-005 -0.00661024,-0.00104331 -0.00911024,-0.00298819 -0.0025,-0.00198425 -0.00455906,-0.00466535 -0.00607087,-0.00811024 -0.00155512,-0.00344488 -0.00269685,-0.00742913 -0.00340157,-0.0119449 -0.00069685,-0.0045 -0.00105906,-0.00930315 -0.00105906,-0.0144016 0,-0.00529134 0.000362205,-0.0101378 0.00105906,-0.0146929 0.000704724,-0.00451575 0.00184646,-0.00847244 0.00340157,-0.0118898 0.00151181,-0.00341732 0.00357087,-0.00604331 0.00607087,-0.00797244 0.0025,-0.00190157 0.00553937,-0.00287402 0.00911024,-0.00290157 0.00358268,2.75591e-005 0.00662205,0.001 0.00909449,0.00290157 0.00251575,0.00192913 0.0045,0.00455512 0.00601575,0.00797244 0.00152756,0.00341732 0.00266535,0.00737402 0.00334646,0.0118898 0.00069685,0.00455512 0.00102756,0.00940157 0.00102756,0.0146929 0,0.00537402 -0.000330709,0.0103346 -0.00102756,0.0149016 -0.000681102,0.00452756 -0.0018189,0.00851575 -0.00334646,0.011878 -0.00151575,0.00335827 -0.0035,0.00597244 -0.00601575,0.00783071 -0.00247244,0.00184646 -0.00551181,0.00280709 -0.00909449,0.00283465zm0 0.0158071c0.00808268,-5.90551e-005 0.0148189,-0.00222441 0.0201654,-0.00648819 0.00533465,-0.00427559 0.0093189,-0.0103898 0.0119882,-0.0183346 0.00264961,-0.00791339 0.00395669,-0.0173858 0.00395669,-0.0284291 0,-0.0109843 -0.00130709,-0.0204449 -0.00395669,-0.0283465 -0.00266929,-0.00788976 -0.00665354,-0.014 -0.0119882,-0.018252 -0.00534646,-0.00429134 -0.0120827,-0.00642913 -0.0201654,-0.00648425 -0.00808268,5.51181e-005 -0.014752,0.00219291 -0.0201535,0.00648425 -0.0053189,0.00425197 -0.00930709,0.0103622 -0.0119567,0.018252 -0.00266929,0.00790157 -0.00398819,0.0173622 -0.00398819,0.0283465 0,0.0110433 0.0013189,0.0205157 0.00398819,0.0284291 0.00264961,0.00794488 0.0066378,0.0140591 0.0119567,0.0183346 0.00540157,0.00426378 0.0120709,0.00642913 0.0201535,0.00648819zm0.085374 -0.0016811l0 -0.0594882c5.51181e-005,-0.0051811 0.000834646,-0.00970866 0.00254331,-0.0135945 0.00169291,-0.00387795 0.00406693,-0.00691732 0.00719291,-0.00908661 0.00309843,-0.00216535 0.00680709,-0.00324803 0.0111535,-0.00330315 0.00134646,0 0.00262598,0.000137795 0.00379134,0.000346457 0.00116535,0.000220472 0.00203937,0.000484252 0.00258268,0.000791339l0.00265354 -0.0199449c-0.000543307,0 -0.00111024,-2.75591e-005 -0.0016811,-9.84252e-005 -0.000598425,-2.75591e-005 -0.00116535,-8.26772e-005 -0.0016811,-8.26772e-005 -0.012748,0 -0.0217756,0.00620866 -0.0270984,0.0185984l-0.000358268 0c-0.000181102,-0.00308268 -0.000515748,-0.00590157 -0.000972441,-0.00840157 -0.000488189,-0.00252756 -0.000972441,-0.00452756 -0.00138976,-0.00605512 -0.000374016,-0.00148819 -0.000582677,-0.00222441 -0.000637795,-0.00227953l-0.0146811 0c0.000346457,0.000984252 0.000708661,0.00226378 0.00108268,0.00388976 0.000334646,0.00165354 0.000625984,0.0035 0.000874016,0.00552756 0.00023622,0.00203937 0.000346457,0.0041811 0.000346457,0.00640157l0 0.0867795 0.0162795 0zm0.0735433 -0.102598l-0.0163071 0 0 0.102598 0.0163071 0 0 -0.102598zm0 0.102598zm-0.00816929 -0.115752c0.00187402,-5.51181e-005 0.00355512,-0.000511811 0.00504331,-0.00145669 0.00155512,-0.000933071 0.00273622,-0.00222441 0.00366535,-0.00383465 0.000862205,-0.00159843 0.0013622,-0.00338976 0.00137402,-0.00544488 -1.1811e-005,-0.00198425 -0.000511811,-0.00372047 -0.00137402,-0.0053189 -0.000929134,-0.00157087 -0.00211024,-0.00284646 -0.00366535,-0.00377559 -0.00148819,-0.000944882 -0.00316929,-0.00143307 -0.00504331,-0.00143307 -0.00184646,0 -0.00352756,0.000488189 -0.00503937,0.00143307 -0.00155512,0.000929134 -0.00275197,0.00220472 -0.00366929,0.00377559 -0.000874016,0.00159843 -0.00135827,0.00333465 -0.00138583,0.0053189 2.75591e-005,0.00205512 0.000511811,0.00384646 0.00138583,0.00544488 0.000917323,0.00161024 0.00211417,0.00290157 0.00366929,0.00383465 0.00151181,0.000944882 0.00319291,0.00140157 0.00503937,0.00145669zm0.0862362 0.0987913c-0.00127559,0.000846457 -0.00266535,0.0015 -0.00412598,0.00184646 -0.00148425,0.000417323 -0.00314961,0.000625984 -0.00506693,0.000625984 -0.00396063,-2.75591e-005 -0.00683465,-0.00130315 -0.00865354,-0.00376378 -0.0018189,-0.00252756 -0.00269291,-0.00608268 -0.00266535,-0.0107205l0 -0.0585709 0.0205118 0 0 -0.0150551 -0.0205118 0 0 -0.0269016 -0.0163071 0 0 0.0269016 -0.0115 0 0 0.0150551 0.0115 0 0 0.0597087c0,0.00626378 0.000956693,0.0115827 0.00283465,0.0159843 0.00185827,0.00438976 0.00469291,0.00775197 0.00840157,0.0100591 0.00375197,0.00227559 0.0083622,0.00344094 0.0139173,0.00347244 0.00303937,0 0.00588976,-0.000295276 0.00862598,-0.000917323 0.00266535,-0.000570866 0.00503937,-0.00144488 0.0071378,-0.00247244l-0.00409843 -0.015252zm0.0563465 0.0167913c-0.00109449,0.00429134 -0.00223622,0.00814173 -0.00352756,0.0115276 -0.00122047,0.00337795 -0.00272047,0.00608661 -0.00453937,0.00801575 -0.00177953,0.00197244 -0.00407087,0.00297244 -0.00680709,0.003 -0.00247244,-2.75591e-005 -0.0046378,-0.000456693 -0.00648425,-0.0013189 -0.0018622,-0.000874016 -0.00344488,-0.00193307 -0.0046811,-0.0031811l-0.00776378 0.0146811c0.00192913,0.00148425 0.00384646,0.00270866 0.00577559,0.00366535 0.00193307,0.000944882 0.00398819,0.00162598 0.00612598,0.00205512 0.00215354,0.00046063 0.00458268,0.000681102 0.00719291,0.000681102 0.00429528,0 0.008,-0.000874016 0.0112362,-0.0026378 0.00316929,-0.00176378 0.00598819,-0.0043622 0.00843307,-0.0078622 0.00241732,-0.00347244 0.0046378,-0.00779134 0.00656693,-0.013 0.00197244,-0.00520866 0.00385039,-0.0111929 0.00564173,-0.0180551l0.0267205 -0.1 -0.0173622 0 -0.0150276 0.0591929c-0.000440945,0.00173622 -0.000874016,0.00355512 -0.00130315,0.00543307 -0.00046063,0.00187402 -0.000818898,0.00362205 -0.00119685,0.0053189 -0.000374016,0.00162598 -0.000649606,0.00294488 -0.000885827,0.00398425 -0.00019685,0.00105512 -0.000334646,0.00159843 -0.000334646,0.00159843l-0.000346457 0c-5.51181e-005,-0.000110236 -0.000169291,-0.000681102 -0.000417323,-0.00173622 -0.000208661,-0.00102756 -0.000488189,-0.00238976 -0.000862205,-0.00401181 -0.00030315,-0.00162598 -0.00073622,-0.0033622 -0.0011378,-0.00520866 -0.000401575,-0.00185039 -0.000846457,-0.00364173 -0.00130709,-0.00537795l-0.0157638 -0.0591929 -0.0184173 0 0.0304724 0.102429z"/>
   <path id="_187078520" class="fil1" d="M0.715173 0.943547c0.0150827,0 0.0273071,0.0122362 0.0273071,0.0273189 0,0.0150827 -0.0122244,0.0273189 -0.0273071,0.0273189 -0.0150669,0 -0.0272913,-0.0122362 -0.0272913,-0.0273189 0,-0.0150827 0.0122244,-0.0273189 0.0272913,-0.0273189zm-0.245484 -0.0928622c-0.0086811,0.00624803 -0.012878,0.0111535 -0.0195551,0.0214843 -0.0356693,0.0553504 0.0088189,0.125988 0.0628307,0.125988l0.119445 0c0.0193346,0 0.0361969,-0.0315827 0.0122913,-0.0498071 -0.00779134,-0.00594488 -0.0131535,-0.00483071 -0.0259291,-0.00480315 -0.0204724,8.26772e-005 -0.0409724,0 -0.0614449,0 -0.0198189,0 -0.0434016,0.00255512 -0.0549724,-0.00643307 -0.0124291,-0.00962205 -0.0120276,-0.0335 0.000984252,-0.0424291 0.0122244,-0.00837402 0.0361535,-0.00572047 0.0556969,-0.00572047 0.025126,0 0.103138,0.0018189 0.122181,-0.00241732 0.0144724,-0.00319685 0.032,-0.0110276 0.0428898,-0.020252 0.00530315,-0.00451181 0.0103858,-0.0102087 0.0154291,-0.0152756 0.00133465,-0.00130709 0.00255512,-0.00266929 0.00373622,-0.00401575 0.0508346,-0.0198071 0.0964724,-0.0499173 0.134374,-0.0878346 0.0706378,-0.0706378 0.114362,-0.168276 0.114346,-0.276067 1.5748e-005,-0.107835 -0.0437087,-0.205433 -0.114346,-0.276098 -0.0706811,-0.0706378 -0.168276,-0.114374 -0.27611,-0.114374 -0.107791,0 -0.205417,0.0437362 -0.276083,0.114374 -0.0706417,0.0706654 -0.114346,0.168264 -0.114346,0.276098 0,0.107791 0.0437047,0.205429 0.114346,0.276067 0.0403465,0.0403346 0.0894567,0.071878 0.144236,0.0915157zm0.268539 -0.271209c0.000307087,-0.000291339 0.000598425,-0.000598425 0.000933071,-0.000862205l0.000318898 -0.000275591 3.93701e-005 -5.51181e-005 0.00026378 -0.00023622 8.66142e-005 -5.51181e-005 0.00026378 -0.000224409 0.000318898 -0.00026378 0.000346457 -0.000248031 0.000318898 -0.000251969 0.000362205 -0.00026378 0.000330709 -0.000248031 0.000362205 -0.00023622 7.08661e-005 -5.90551e-005 0.000275591 -0.000165354 0.000307087 -0.000220472 5.51181e-005 -2.75591e-005 0.000362205 -0.000208661 0.000165354 -0.000141732 0.00019685 -0.000110236 0.000374016 -0.000208661 2.75591e-005 0 0.000346457 -0.000192913 0.000251969 -0.000165354 0.000122047 -5.90551e-005 0.000377953 -0.000177165 0.000110236 -8.66142e-005 0.00026378 -0.000137795 0.000374016 -0.000165354 2.75591e-005 -2.75591e-005 0.000374016 -0.000153543 0.000224409 -0.000110236 0.000181102 -8.26772e-005 0.000374016 -0.000169291 7.08661e-005 -2.75591e-005 0.000330709 -0.000153543 0.000318898 -0.000110236 9.84252e-005 -2.75591e-005 0.000389764 -0.000165354 0.000165354 -5.51181e-005 0.00023622 -0.000114173 0.000417323 -0.000122047 0.000570866 -0.00019685 0.000110236 -2.75591e-005 0.000153543 -5.51181e-005 0.000413386 -0.000110236 9.84252e-005 -2.75591e-005 0.000334646 -8.26772e-005 0.000346457 -9.84252e-005 7.08661e-005 0 0.000429134 -0.000110236 0.000192913 -5.51181e-005 0.000224409 -5.51181e-005 0.000444882 -8.66142e-005 3.93701e-005 -2.75591e-005 0.000389764 -8.26772e-005 0.000307087 -5.51181e-005 0.000122047 0 0.000433071 -7.08661e-005 0.000389764 -5.51181e-005 5.51181e-005 -2.75591e-005 0.000401575 -2.75591e-005 4.33071e-005 0 0.000149606 -2.75591e-005 0.0005 -5.51181e-005 5.51181e-005 -2.75591e-005 0.000641732 -5.51181e-005 5.51181e-005 0 0.000610236 -5.51181e-005 0.000125984 0 9.84252e-005 0 0.000456693 0 0.000181102 -2.75591e-005 0.000275591 0 0.000472441 0c0.0157795,0 0.0285827,0.0128031 0.0285827,0.028622l0 0.000295276 0 0.000330709 0 8.26772e-005 -1.1811e-005 0.00023622 -1.5748e-005 0.000334646 0 0.000153543 -1.1811e-005 0.000165354 -4.33071e-005 0.000543307 0 5.51181e-005 0 5.51181e-005 -6.69291e-005 0.000625984 0 2.75591e-005 -5.51181e-005 0.000594488 -1.5748e-005 0.000125984 -1.1811e-005 0.000169291 -5.90551e-005 0.000330709 -2.75591e-005 0.000208661 -1.1811e-005 0.000110236 -0.000125984 0.000598425 -0.000110236 0.000598425 0 2.75591e-005 -1.5748e-005 8.26772e-005 -5.51181e-005 0.000208661 -5.51181e-005 0.000334646 -3.93701e-005 0.000137795 -3.14961e-005 0.000153543 -6.69291e-005 0.00030315 -7.08661e-005 0.00023622 -1.1811e-005 5.51181e-005 -0.000141732 0.000515748 -2.75591e-005 8.26772e-005 0 2.75591e-005 -8.26772e-005 0.000279528 -9.84252e-005 0.000291339 -2.75591e-005 0.000110236 -6.69291e-005 0.000192913 -7.08661e-005 0.000291339 -7.08661e-005 0.000169291 -3.93701e-005 0.000110236 -9.84252e-005 0.000291339 -9.44882e-005 0.000279528 -1.5748e-005 2.75591e-005 -2.75591e-005 8.26772e-005 -0.000181102 0.000484252 -1.1811e-005 5.51181e-005 -9.84252e-005 0.000208661 -0.000125984 0.000279528 -5.51181e-005 0.000165354 -5.51181e-005 0.000125984 -0.000137795 0.000279528 -7.08661e-005 0.000204724 -2.75591e-005 8.66142e-005 -0.000137795 0.000275591 -0.000125984 0.00026378 -1.5748e-005 0 -0.00030315 0.000625984 -8.26772e-005 0.000192913 -0.000224409 0.000405512 -1.1811e-005 2.75591e-005 -7.08661e-005 0.000110236 -0.000153543 0.000275591 -0.000125984 0.000208661 -1.1811e-005 2.75591e-005 -0.000153543 0.000279528 -0.000165354 0.00023622 -1.5748e-005 5.51181e-005 -0.000137795 0.000224409 -0.000153543 0.00026378 -7.08661e-005 0.000110236 -9.44882e-005 0.000137795 -0.000251969 0.000374016 -2.75591e-005 5.51181e-005 -5.51181e-005 5.90551e-005 -1.1811e-005 2.75591e-005 -0.000334646 0.000456693 0 2.75591e-005 -0.000181102 0.000251969 -0.000181102 0.00023622 -3.93701e-005 5.51181e-005 -1.5748e-005 2.75591e-005 -0.000291339 0.000385827 -0.000110236 0.000125984 -8.26772e-005 0.000137795 -0.000208661 0.000224409 -0.000141732 0.000181102 -3.93701e-005 5.51181e-005c-0.00625197,0.00824803 -0.0130276,0.0160394 -0.0203189,0.0233346 -0.0405433,0.0405276 -0.0965551,0.065622 -0.158417,0.065622 -0.0618465,0 -0.117846,-0.0250945 -0.15839,-0.065622 -0.00834646,-0.0083622 -0.0160276,-0.0173346 -0.0229724,-0.0269331l5.51181e-005 0c-0.00385827,-0.0048622 -0.00616535,-0.011 -0.00616535,-0.0177205 0,-0.0157913 0.0128071,-0.0285827 0.0286102,-0.0285827 0.00857087,0 0.0179016,0.00433071 0.0224449,0.010874 0.000555118,0.000708661 0.00107087,0.00142913 0.00155512,0.00216535 0.00512598,0.00702756 0.0107795,0.0136102 0.0169016,0.0197795 0.0301811,0.0301654 0.0719055,0.0488465 0.117961,0.0488465 0.0460984,0 0.0878031,-0.0186811 0.117972,-0.0488465 0.00542913,-0.00543307 0.0104724,-0.0112362 0.015126,-0.0173622l3.93701e-005 0 0.00023622 -0.000362205 0.000251969 -0.000346457 0.000248031 -0.000318898 0.000279528 -0.000362205 0.000527559 -0.000653543 0.000275591 -0.000318898 0.00026378 -0.000330709 0.000291339 -0.000322835 1.5748e-005 0 0.000275591 -0.000291339 0.000295276 -0.000330709 0.000291339 -0.00026378 9.44882e-005 -0.000114173 0.000208661 -0.000220472zm0.0989724 -0.332055c-0.0603189,-0.0603071 -0.143626,-0.0975984 -0.235665,-0.0975984 -0.0920276,0 -0.175346,0.0372913 -0.235638,0.0975984 -0.0603071,0.0603346 -0.097626,0.143638 -0.097626,0.235681 0,0.0920118 0.0373189,0.175346 0.097626,0.235638 0.0602913,0.0603071 0.143622,0.0976102 0.235638,0.0976102 0.0920394,0 0.175362,-0.0373031 0.235665,-0.0976102 0.0603189,-0.0602913 0.0976102,-0.143626 0.0976102,-0.235638 0,-0.0920433 -0.0372913,-0.175346 -0.0976102,-0.235681zm-0.29011 0.829236c0,0.018874 0.0115276,0.0307087 0.0238898,0.0307087l0.0614291 0c0.0160827,0 0.0354724,-0.026126 0.0158898,-0.0465827 -0.005,-0.00520866 -0.008,-0.008 -0.0175827,-0.008l-0.0597362 0c-0.0112795,0 -0.0238898,0.0125827 -0.0238898,0.023874z"/>
   <path id="_187078592" class="fil0" d="M0.325457 0.207c-0.0706535,0.0706654 -0.114362,0.168264 -0.114362,0.276094l0 0c0,0.107807 0.0437087,0.205433 0.114362,0.276071l0 0c0.0403346,0.0403346 0.0894449,0.0718898 0.144236,0.0915276l0 0c-0.0086811,0.00623622 -0.012874,0.0111535 -0.0195709,0.0214882l0 0c-0.0356654,0.0553307 0.00883465,0.125972 0.0628504,0.125972l0 0 0.119445 0c0.0193189,0 0.0361929,-0.0315709 0.0122913,-0.0498071l0 0c-0.00779134,-0.00594488 -0.0131693,-0.00483465 -0.0259449,-0.00479134l0 0c-0.0204606,6.69291e-005 -0.0409606,0 -0.0614331,0l0 0c-0.0198307,0 -0.0434016,0.00253937 -0.0549843,-0.00644488l0 0c-0.0124173,-0.00962598 -0.0120276,-0.0335 0.000984252,-0.0424173l0 0c0.0122362,-0.00837402 0.0361535,-0.00572047 0.0556969,-0.00572047l0 0c0.0251378,0 0.103138,0.0018189 0.122193,-0.00241732l0 0c0.0144724,-0.00320866 0.032,-0.0110433 0.042874,-0.0202638l0 0c0.00532283,-0.0045 0.0103898,-0.0102087 0.0154449,-0.0152795l0 0c0.0013189,-0.00129134 0.00255512,-0.00266535 0.00373622,-0.00401181l0 0c0.0508189,-0.0197913 0.0964606,-0.0499173 0.134374,-0.0878346l0 0c0.0706417,-0.0706378 0.11435,-0.168264 0.114335,-0.276071l0 0c1.5748e-005,-0.107831 -0.0436929,-0.205429 -0.114335,-0.276094l0 0c-0.0706772,-0.0706417 -0.168291,-0.114362 -0.27611,-0.114362l0 0c-0.107803,0 -0.205417,0.0437205 -0.276083,0.114362zm0.0404291 0.511748c-0.0602913,-0.0603031 -0.0976102,-0.143638 -0.0976102,-0.235654l0 0c0,-0.0920394 0.0373189,-0.175346 0.0976102,-0.235677l0 0c0.0603071,-0.0603071 0.143626,-0.0975984 0.235654,-0.0975984l0 0c0.0920433,0 0.175346,0.0372913 0.235669,0.0975984l0 0c0.0603031,0.0603307 0.0976102,0.143638 0.0976102,0.235677l0 0c0,0.0920157 -0.0373071,0.17535 -0.0976102,0.235654l0 0c-0.0603071,0.0603071 -0.143626,0.0975984 -0.235669,0.0975984l0 0c-0.0920118,0 -0.175346,-0.0372913 -0.235654,-0.0975984zm0.0481811 -0.121917c0,0.00673622 0.00230709,0.012878 0.00615354,0.0177244l0 0 -3.93701e-005 0c0.00692913,0.00959843 0.014622,0.0185827 0.0229685,0.0269291l0 0c0.0405433,0.0405276 0.0965433,0.065626 0.15839,0.065626l0 0c0.0618622,0 0.117862,-0.0250984 0.158417,-0.065626l0 0c0.00727953,-0.00729134 0.0140709,-0.0150827 0.0203189,-0.0233189l0 0 4.33071e-005 -7.08661e-005 0.000137795 -0.000177165 0.000192913 -0.000208661 8.66142e-005 -0.000141732 0.000110236 -0.000137795 0.00030315 -0.000374016 1.5748e-005 -2.75591e-005 4.33071e-005 -5.51181e-005 0.000165354 -0.000251969 0.000192913 -0.000248031 0 -1.5748e-005 0.000318898 -0.000472441 1.5748e-005 -2.75591e-005 7.08661e-005 -3.93701e-005 1.1811e-005 -7.08661e-005 0.000251969 -0.000374016 0.000110236 -0.000141732 5.51181e-005 -0.000110236 0.000153543 -0.00026378 0.000153543 -0.000220472 1.1811e-005 -4.33071e-005 0.000153543 -0.000248031 0.000153543 -0.00026378 1.1811e-005 -3.14961e-005 0.000141732 -0.000220472 0.000149606 -0.000275591 7.08661e-005 -9.84252e-005 1.5748e-005 -2.75591e-005 0.000204724 -0.000417323 9.84252e-005 -0.000181102 0.000307087 -0.000625984 1.1811e-005 0 0.000110236 -0.000275591 0.000141732 -0.00026378 2.75591e-005 -8.26772e-005 8.26772e-005 -0.000224409 0.000137795 -0.00026378 4.33071e-005 -0.000137795 5.51181e-005 -0.000169291 0.000125984 -0.000275591 9.44882e-005 -0.000208661 1.5748e-005 -5.51181e-005 0.000192913 -0.000488189 2.75591e-005 -8.26772e-005 0 -2.75591e-005 0.000114173 -0.000275591 9.44882e-005 -0.000291339 2.75591e-005 -9.84252e-005 7.08661e-005 -0.000165354 8.26772e-005 -0.000307087 7.08661e-005 -0.000181102 2.75591e-005 -0.000110236 9.84252e-005 -0.000307087 6.69291e-005 -0.000275591 0 -1.5748e-005 4.33071e-005 -8.26772e-005 0.000125984 -0.000527559 2.75591e-005 -4.33071e-005 5.51181e-005 -0.00023622 8.26772e-005 -0.00030315 2.75591e-005 -0.000169291 3.93701e-005 -0.000137795 5.90551e-005 -0.000318898 5.51181e-005 -0.000220472 1.1811e-005 -8.66142e-005 0 -1.1811e-005 9.84252e-005 -0.000610236 0.000125984 -0.000598425 1.1811e-005 -9.84252e-005 2.75591e-005 -0.000220472 5.51181e-005 -0.000334646 1.5748e-005 -0.000153543 1.1811e-005 -0.000137795 7.08661e-005 -0.000582677 0 -4.33071e-005 7.08661e-005 -0.000622047 0 -5.90551e-005 0 -3.93701e-005 3.93701e-005 -0.000555118 1.5748e-005 -0.000169291 0 -0.000149606 1.1811e-005 -0.000334646 0 -0.00023622 0 -8.26772e-005 0 -0.000334646 0 -0.000291339c0,-0.0158189 -0.0127913,-0.0286102 -0.0285827,-0.0286102l0 0 -0.000456693 0 -0.000291339 0 -0.000169291 2.75591e-005 -0.000472441 0 -8.26772e-005 0 -0.000125984 0 -0.000610236 3.93701e-005 -6.69291e-005 0 -0.000625984 7.08661e-005 -7.08661e-005 1.5748e-005 -0.0005 5.51181e-005 -0.000153543 2.75591e-005 -2.75591e-005 0 -0.000413386 3.93701e-005 -5.90551e-005 1.5748e-005 -0.000374016 5.51181e-005 -0.000429134 8.26772e-005 -0.000125984 0 -0.000318898 5.51181e-005 -0.000389764 7.08661e-005 -2.75591e-005 4.33071e-005 -0.000444882 6.69291e-005 -0.00023622 5.51181e-005 -0.000181102 5.51181e-005 -0.000444882 0.000114173 -5.51181e-005 0 -0.000358268 0.000110236 -0.000318898 8.26772e-005 -9.84252e-005 2.75591e-005 -0.000417323 0.000110236 -0.000153543 4.33071e-005 -0.000110236 2.75591e-005 -0.000570866 0.000192913 -0.000417323 0.000141732 -0.000248031 0.000110236 -0.000165354 3.93701e-005 -0.000389764 0.000169291 -9.84252e-005 2.75591e-005 -0.00030315 0.000110236 -0.000350394 0.000165354 -5.51181e-005 2.75591e-005 -0.000389764 0.000153543 -0.000177165 8.26772e-005 -0.000208661 0.000114173 -0.000389764 0.000149606 -2.75591e-005 4.33071e-005 -0.000374016 0.000165354 -0.000251969 0.000125984 -0.000110236 8.26772e-005 -0.000389764 0.00019685 -0.000125984 3.93701e-005 -0.000248031 0.000169291 -0.000334646 0.000192913 -3.93701e-005 0 -0.000377953 0.000220472 -0.000177165 0.000114173 -0.000181102 0.000137795 -0.000350394 0.000208661 -5.51181e-005 2.75591e-005 -0.000318898 0.000208661 -0.00026378 0.000165354 -6.69291e-005 5.51181e-005 -0.000362205 0.00023622 -0.000346457 0.000251969 -0.000362205 0.000275591 -0.000318898 0.00023622 -0.000334646 0.000251969 -0.000334646 0.00026378 -0.000248031 0.000220472 -8.26772e-005 5.51181e-005 -0.000279528 0.000251969 -3.93701e-005 3.93701e-005 -0.000322835 0.000279528c-0.000318898,0.00026378 -0.000622047,0.000570866 -0.000929134,0.000862205l0 0 -0.000208661 0.000220472 -9.44882e-005 0.000110236 -0.000279528 0.000279528 -0.000291339 0.000318898 -0.000279528 0.000307087 -1.1811e-005 0 -0.000307087 0.000318898 -0.00026378 0.000318898 -0.000275591 0.000334646 -0.000527559 0.000649606 -0.00026378 0.000350394 -0.000251969 0.000318898 -0.000248031 0.000346457 -0.00023622 0.000362205 -4.33071e-005 0c-0.00465354,0.0061378 -0.00969291,0.0119291 -0.015126,0.017374l0 0c-0.0301811,0.0301535 -0.0718898,0.0488465 -0.117972,0.0488465l0 0c-0.0460669,0 -0.0877913,-0.0186929 -0.117957,-0.0488465l0 0c-0.00612598,-0.00616535 -0.0117913,-0.012752 -0.0169016,-0.0197913l0 0c-0.000488189,-0.000724409 -0.001,-0.00146063 -0.00157087,-0.00216929l0 0c-0.00452756,-0.00653937 -0.013874,-0.010874 -0.0224291,-0.010874l0 0c-0.0158071,0 -0.0286142,0.0128071 -0.0286142,0.0285827zm0.273819 0.374028c0,0.0150866 0.0122087,0.0273228 0.0272953,0.0273228l0 0c0.0150669,0 0.0272913,-0.0122362 0.0272913,-0.0273228l0 0c0,-0.0150827 -0.0122244,-0.0273031 -0.0272913,-0.0273031l0 0c-0.0150866,0 -0.0272953,0.0122205 -0.0272953,0.0273031zm-0.116913 0.0819331c-0.0112638,0 -0.023878,0.0125827 -0.023878,0.0238622l0 0c0,0.0188858 0.0115157,0.0307047 0.023878,0.0307047l0 0 0.0614449 0c0.0160827,0 0.0354567,-0.026122 0.015874,-0.0465669l0 0c-0.00498819,-0.00520866 -0.00798819,-0.008 -0.0175709,-0.008l0 0 -0.059748 0z"/>
   <path id="_187078616" class="fil1" d="M0.715173 0.943547c0.0150827,0 0.0273071,0.0122362 0.0273071,0.0273189 0,0.0150827 -0.0122244,0.0273189 -0.0273071,0.0273189 -0.0150669,0 -0.0272913,-0.0122362 -0.0272913,-0.0273189 0,-0.0150827 0.0122244,-0.0273189 0.0272913,-0.0273189z"/>
  </g>
 </g>
</svg>
