<?xml version="1.0" encoding="UTF-8"?>
<!DOCTYPE svg PUBLIC "-//W3C//DTD SVG 1.1//EN" "http://www.w3.org/Graphics/SVG/1.1/DTD/svg11.dtd">
<!-- Creator: CorelDRAW -->
<svg xmlns="http://www.w3.org/2000/svg" xml:space="preserve" width="3.6in" height="1.2in" style="shape-rendering:geometricPrecision; text-rendering:geometricPrecision; image-rendering:optimizeQuality; fill-rule:evenodd; clip-rule:evenodd"
viewBox="0 0 3.6 1.2"
 xmlns:xlink="http://www.w3.org/1999/xlink">
 <defs>
  <style type="text/css">
   <![CDATA[
    .fil2 {fill:#ED3237}
    .fil0 {fill:#606062;fill-rule:nonzero}
    .fil1 {fill:url(#id0)}
   ]]>
  </style>
  <linearGradient id="id0" gradientUnits="userSpaceOnUse" x1="0.0362598" y1="1.12888" x2="0.923819" y2="0.071126">
   <stop offset="0" style="stop-color:#00A859"/>
   <stop offset="0.501961" style="stop-color:#007583"/>
   <stop offset="1" style="stop-color:#3E4095"/>
  </linearGradient>
 </defs>
 <g id="Layer_x0020_1">
  <metadata id="CorelCorpID_0Corel-Layer"/>
  <g id="_184577488">
   <path id="_184579312" class="fil0" d="M1.14387 0.374476l-0.0602992 0 0 -0.0474528 0.0602992 0 0 -0.108504 0.0888898 0 0 0.108504 0.0983937 0 0 0.0474528 -0.0983937 0 0 0.176331c0,0.0171732 0.00179134,0.0317717 0.00538583,0.0437165 0.0036063,0.0120079 0.00846063,0.0217205 0.0145906,0.029185 0.00614961,0.00743701 0.0132323,0.0130039 0.0212953,0.0166142 0.00801575,0.00361024 0.0164921,0.00543307 0.025378,0.00543307 0.0126969,0 0.0249646,-0.00214173 0.0368189,-0.00645669 0.0118543,-0.00429921 0.0217992,-0.00892126 0.0298583,-0.0139213l0.0190157 0.0440984c-0.0126969,0.00675984 -0.0271969,0.012437 -0.0434764,0.0169528 -0.0163031,0.00452756 -0.0324724,0.00677559 -0.048563,0.00677559 -0.0478386,0 -0.0846535,-0.0126339 -0.110476,-0.0379685 -0.0257913,-0.0253189 -0.0387165,-0.0601142 -0.0387165,-0.104429l0 -0.176331zm0.450744 -0.0610079c0.0135512,0 0.0270866,0.00125591 0.040626,0.00370472 0.0135709,0.00250787 0.0265591,0.00588976 0.0390669,0.010185 0.0124685,0.00430315 0.0241102,0.00962205 0.0349094,0.0159567 0.0107992,0.00630315 0.0202087,0.0133268 0.0282677,0.0210039l-0.0254094 0.040689c-0.0173622,-0.0140118 -0.0350433,-0.0248543 -0.0530157,-0.0325669 -0.0179764,-0.00767717 -0.0373583,-0.0115039 -0.0580866,-0.0115039 -0.0152323,0 -0.0291969,0.00260236 -0.0418937,0.00780315 -0.0127126,0.00516929 -0.0236969,0.0135669 -0.0330276,0.0250709 -0.00930315,0.0115354 -0.0166299,0.0263425 -0.0218898,0.0444252 -0.00529528,0.0181102 -0.00794094,0.0397717 -0.00794094,0.0651024 0,0.0253307 0.00264567,0.0470197 0.00794094,0.0651024 0.00525984,0.018063 0.012815,0.0328898 0.0225315,0.0444252 0.00972835,0.0115315 0.0214764,0.0198976 0.0352441,0.0250709 0.013752,0.00518504 0.0288819,0.0078189 0.045374,0.0078189 0.0207559,0 0.040122,-0.00385433 0.0581102,-0.0115354 0.0179764,-0.00769685 0.0356575,-0.0185394 0.0530197,-0.0325512l0.025378 0.040685c-0.00804724,0.0076811 -0.0174685,0.0146732 -0.028252,0.0210039 -0.0108031,0.00633465 -0.0224409,0.0116457 -0.0349252,0.0159567 -0.0124961,0.00429921 -0.0255,0.00767717 -0.0390394,0.010189 -0.0135354,0.00248031 -0.0270748,0.00370079 -0.0406299,0.00370079 -0.0300709,0 -0.0574409,-0.00419291 -0.0822205,-0.0125433 -0.024752,-0.00833858 -0.0457992,-0.0205591 -0.0631614,-0.0366063 -0.0173622,-0.0160787 -0.0308071,-0.0358543 -0.0403228,-0.0593346 -0.0095315,-0.0235118 -0.0142677,-0.0506339 -0.0142677,-0.0813819 0,-0.0303071 0.00473622,-0.0573031 0.0142677,-0.0810315 0.00951575,-0.0237205 0.022748,-0.043626 0.0397008,-0.0596575 0.0169134,-0.0160787 0.0372283,-0.0282677 0.0609252,-0.0366339 0.0236929,-0.00837008 0.0499567,-0.0125472 0.0787205,-0.0125472zm0.371398 0.335665c0.0135354,0 0.0262323,-0.00272441 0.0380866,-0.00815354 0.0118386,-0.00541732 0.0222283,-0.0138583 0.0311142,-0.0253937 0.00890157,-0.0115315 0.0159685,-0.0265709 0.0212638,-0.0451102 0.00529134,-0.0185276 0.00795276,-0.0409055 0.00795276,-0.0671378 0,-0.0262047 -0.00266142,-0.0485827 -0.00795276,-0.0671378 -0.00529528,-0.0185276 -0.0123622,-0.0335787 -0.0212638,-0.0450827 -0.00888583,-0.0115354 -0.0192756,-0.0200236 -0.0311142,-0.0254528 -0.0118543,-0.00541732 -0.0245512,-0.00812205 -0.0380866,-0.00812205 -0.0135748,0 -0.0262717,0.00270472 -0.0380945,0.00812205 -0.0118701,0.00542913 -0.0221811,0.0139173 -0.0310984,0.0254528 -0.00890157,0.0115039 -0.0159843,0.0265551 -0.0212795,0.0450827 -0.0052874,0.0185551 -0.00792126,0.0409331 -0.00792126,0.0671378 0,0.0262323 0.00263386,0.0486102 0.00792126,0.0671378 0.00529528,0.0185394 0.012378,0.0335787 0.0212795,0.0451102 0.00891732,0.0115354 0.0192283,0.0199764 0.0310984,0.0253937 0.0118228,0.00542913 0.0245197,0.00815354 0.0380945,0.00815354zm0 -0.335665c0.0283583,0 0.0545,0.00417717 0.0783937,0.0125472 0.023937,0.00836614 0.0443425,0.0205551 0.0612795,0.0366339 0.0169331,0.0160315 0.0301496,0.035937 0.0396535,0.0596575 0.00955906,0.0237283 0.0142992,0.0507244 0.0142992,0.0810315 0,0.030748 -0.00474016,0.0578701 -0.0142992,0.0813819 -0.00950394,0.0234803 -0.0227205,0.0432559 -0.0396535,0.0593346 -0.016937,0.0160472 -0.0373425,0.0282677 -0.0612795,0.0366063 -0.0238937,0.00835039 -0.0500354,0.0125433 -0.0783937,0.0125433 -0.0287756,0 -0.0550394,-0.00419291 -0.0787087,-0.0125433 -0.0237205,-0.00833858 -0.0440079,-0.0205591 -0.0609567,-0.0366063 -0.0169213,-0.0160787 -0.0301496,-0.0358543 -0.0396969,-0.0593346 -0.00952756,-0.0235118 -0.0142598,-0.0506339 -0.0142598,-0.0813819 0,-0.0303071 0.00473228,-0.0573031 0.0142598,-0.0810315 0.00954724,-0.0237205 0.0227756,-0.043626 0.0396969,-0.0596575 0.0169488,-0.0160787 0.0372362,-0.0282677 0.0609567,-0.0366339 0.0236693,-0.00837008 0.0499331,-0.0125472 0.0787087,-0.0125472zm0.282516 0.0203465c0,-0.044315 0.0129134,-0.0791181 0.038689,-0.104449 0.0258504,-0.0253465 0.0626575,-0.0379803 0.110488,-0.0379803 0.0160787,0 0.0322638,0.00227953 0.0485827,0.00679134 0.0162795,0.0045315 0.0307953,0.010189 0.0434646,0.016937l-0.0190039 0.0440984c-0.00805906,-0.00495669 -0.0180197,-0.00959055 -0.029874,-0.0138898 -0.0118268,-0.00431496 -0.0241063,-0.00645669 -0.0368031,-0.00645669 -0.00890551,0 -0.0173661,0.00182283 -0.0253976,0.00543307 -0.00807087,0.00362598 -0.0151575,0.00914567 -0.0212756,0.0166142 -0.00614961,0.00744882 -0.0110276,0.0172992 -0.0146102,0.0294882 -0.0035748,0.0122244 -0.00541339,0.0266811 -0.00541339,0.0434134l0 0.00677953 0.0984213 0 0 0.0474803 -0.0984213 0 0 0.291563 -0.0888465 0 0 -0.291563 -0.0602992 0 0 -0.0474803 0.0602992 0 0 -0.00677953zm0.285689 0c0,-0.044315 0.0128976,-0.0791181 0.0387205,-0.104449 0.0258031,-0.0253465 0.0626496,-0.0379803 0.110457,-0.0379803 0.0160945,0 0.0322913,0.00227953 0.0485669,0.00679134 0.0162953,0.0045315 0.0308071,0.010189 0.0434724,0.016937l-0.0190276 0.0440984c-0.00802756,-0.00495669 -0.0179882,-0.00959055 -0.029815,-0.0138898 -0.0118976,-0.00431496 -0.0241378,-0.00645669 -0.0368031,-0.00645669 -0.00893307,0 -0.0173937,0.00182283 -0.025437,0.00543307 -0.0080315,0.00362598 -0.0151457,0.00914567 -0.0212638,0.0166142 -0.0061378,0.00744882 -0.0109961,0.0172992 -0.0145787,0.0294882 -0.00362598,0.0122244 -0.00541732,0.0266811 -0.00541732,0.0434134l0 0.00677953 0.0984252 0 0 0.0474803 -0.0984252 0 0 0.291563 -0.088874 0 0 -0.291563 -0.0603307 0 0 -0.0474803 0.0603307 0 0 -0.00677953zm0.428516 0.311941c0.0207441,0 0.040126,-0.00385433 0.0580827,-0.0115354 0.0180197,-0.00769685 0.0356732,-0.0185394 0.0530354,-0.0325512l0.0253898 0.040685c-0.00802756,0.0076811 -0.0174331,0.0146732 -0.0282638,0.0210039 -0.0107874,0.00633465 -0.0223976,0.0116457 -0.0349252,0.0159567 -0.0124843,0.00429921 -0.0254843,0.00767717 -0.0390079,0.010189 -0.0135669,0.00248031 -0.0271063,0.00370079 -0.0406417,0.00370079 -0.0300591,0 -0.0574567,-0.00419291 -0.0822244,-0.0125433 -0.0247323,-0.00833858 -0.0458268,-0.0205591 -0.0631614,-0.0366063 -0.0173465,-0.0160787 -0.0307913,-0.0358543 -0.0403228,-0.0593346 -0.0095,-0.0235118 -0.0142874,-0.0506339 -0.0142874,-0.0813819 0,-0.0303071 0.0045748,-0.0573031 0.0136614,-0.0810315 0.00910236,-0.0237205 0.0217953,-0.043626 0.0380866,-0.0596575 0.016311,-0.0160787 0.0356457,-0.0282677 0.0580827,-0.0366339 0.0224449,-0.00837008 0.0472087,-0.0125472 0.0743031,-0.0125472 0.0253898,0 0.0492992,0.00405512 0.0717402,0.0121969 0.0223976,0.00814961 0.0418819,0.0200039 0.058374,0.0356063 0.0165197,0.0155906 0.0296614,0.0344803 0.0394055,0.0566496 0.00971654,0.0220984 0.0145748,0.0472047 0.0145748,0.0752598l0 0.0474331 -0.271091 0c0.0050748,0.0375591 0.0172677,0.0644488 0.0365315,0.0807126 0.0192087,0.0162717 0.0434685,0.0244291 0.0726575,0.0244291zm-0.0221929 -0.288213c-0.0122874,0 -0.0236969,0.00247638 -0.0342992,0.00746063 -0.0105669,0.00495669 -0.0197795,0.0128858 -0.0276102,0.0237283 -0.0078189,0.0108465 -0.0141654,0.0248543 -0.0190315,0.0420354 -0.00486614,0.0171811 -0.00752362,0.0379685 -0.0079685,0.0624134l0.177799 0c0,-0.0235433 -0.00253937,-0.0438898 -0.00761811,-0.061063 -0.00507874,-0.0171693 -0.0117795,-0.0312874 -0.0200236,-0.042374 -0.00827953,-0.011063 -0.0177756,-0.0192126 -0.0285591,-0.0244173 -0.0107874,-0.00518504 -0.0216929,-0.00778346 -0.032689,-0.00778346zm0.447555 0.288213c0.0207323,0 0.0401299,-0.00385433 0.0581142,-0.0115354 0.0179921,-0.00769685 0.0356457,-0.0185394 0.0530079,-0.0325512l0.0253898 0.040685c-0.0080748,0.0076811 -0.0174843,0.0146732 -0.0282362,0.0210039 -0.010815,0.00633465 -0.0224409,0.0116457 -0.0349252,0.0159567 -0.0125118,0.00429921 -0.0255118,0.00767717 -0.0390787,0.010189 -0.0135394,0.00248031 -0.027063,0.00370079 -0.0406024,0.00370079 -0.0300551,0 -0.0574528,-0.00419291 -0.0822205,-0.0125433 -0.0247638,-0.00833858 -0.0457992,-0.0205591 -0.0631614,-0.0366063 -0.0173622,-0.0160787 -0.0308071,-0.0358543 -0.0403386,-0.0593346 -0.0095,-0.0235118 -0.0142717,-0.0506339 -0.0142717,-0.0813819 0,-0.0303071 0.0045748,-0.0573031 0.0136457,-0.0810315 0.00908661,-0.0237205 0.021811,-0.043626 0.0380906,-0.0596575 0.0163189,-0.0160787 0.035685,-0.0282677 0.0580827,-0.0366339 0.0224685,-0.00837008 0.0472047,-0.0125472 0.0742835,-0.0125472 0.0254213,0 0.049315,0.00405512 0.0717559,0.0121969 0.0224409,0.00814961 0.0418976,0.0200039 0.0583898,0.0356063 0.0165197,0.0155906 0.0296575,0.0344803 0.0393701,0.0566496 0.00974803,0.0220984 0.0146102,0.0472047 0.0146102,0.0752598l0 0.0474331 -0.271075 0c0.0050748,0.0375591 0.0172362,0.0644488 0.0365079,0.0807126 0.0192441,0.0162717 0.0434764,0.0244291 0.0726614,0.0244291zm-0.0222205 -0.288213c-0.0122559,0 -0.0236969,0.00247638 -0.0342402,0.00746063 -0.0106142,0.00495669 -0.0198071,0.0128858 -0.0276378,0.0237283 -0.00783465,0.0108465 -0.0141969,0.0248543 -0.019063,0.0420354 -0.00484646,0.0171811 -0.00749606,0.0379685 -0.00792126,0.0624134l0.177764 0c0,-0.0235433 -0.00253937,-0.0438898 -0.00761811,-0.061063 -0.0051063,-0.0171693 -0.0117638,-0.0312874 -0.0200039,-0.042374 -0.00824803,-0.011063 -0.0177756,-0.0192126 -0.028563,-0.0244173 -0.0107992,-0.00518504 -0.021689,-0.00778346 -0.0327165,-0.00778346z"/>
   <path id="_184579336" class="fil0" d="M1.56263 0.857878l-0.0179252 0 0 0.113004 0.0179252 0 0 -0.113004zm0 0.113004zm-0.00898031 -0.127488c0.00205118,-6.29921e-005 0.00390157,-0.000562992 0.00558661,-0.0016063 0.00166929,-0.00102756 0.00299606,-0.00244882 0.00399213,-0.00422047 0.000980315,-0.00176378 0.00151181,-0.00373622 0.00154331,-0.006 -3.14961e-005,-0.00218504 -0.000562992,-0.00409843 -0.00154331,-0.00585827 -0.000996063,-0.00172835 -0.00232283,-0.00313386 -0.00399213,-0.00415748 -0.00168504,-0.00103937 -0.00353543,-0.00157874 -0.00558661,-0.00157874 -0.00201575,0 -0.00388583,0.00053937 -0.00555118,0.00157874 -0.0016811,0.00102362 -0.0030315,0.00242913 -0.00402362,0.00415748 -0.000980315,0.00175984 -0.0015,0.00367323 -0.0015315,0.00585827 3.14961e-005,0.00226378 0.000551181,0.00423622 0.0015315,0.006 0.000992126,0.00177165 0.00234252,0.00319291 0.00402362,0.00422047 0.00166535,0.00104331 0.00353543,0.00154331 0.00555118,0.0016063zm0.126567 0.127272l0 -0.0702913c3.14961e-005,-0.00600787 -0.000488189,-0.011685 -0.00155906,-0.0170394 -0.00105512,-0.00537008 -0.00281496,-0.010126 -0.00522835,-0.0142717 -0.00246457,-0.00416142 -0.00570866,-0.00743701 -0.00980709,-0.00983858 -0.00408268,-0.00238583 -0.00916535,-0.00357874 -0.0151575,-0.0036063 -0.00604331,2.75591e-005 -0.0113386,0.00157087 -0.0158504,0.00463386 -0.00451181,0.0030748 -0.00822835,0.00746063 -0.0110591,0.0131693l-0.00038189 0c-0.000232283,-0.00278346 -0.000582677,-0.00538583 -0.00102362,-0.0076811 -0.000429134,-0.00235433 -0.000889764,-0.00423622 -0.0012874,-0.00567323 -0.00038189,-0.00140551 -0.000582677,-0.00212598 -0.000641732,-0.00218898l-0.0161417 0c0.000354331,0.00108661 0.000767717,0.00249606 0.00116535,0.0042874 0.000385827,0.0018189 0.000704724,0.00385433 0.000948819,0.00608661 0.000275591,0.00224803 0.000397638,0.0046063 0.000397638,0.00705118l0 0.0955787 0.0179252 0 0 -0.0628268c-2.75591e-005,-0.00469685 0.000279528,-0.00914961 0.000889764,-0.0133583 0.000629921,-0.00421654 0.00170079,-0.00801181 0.00322441,-0.0112717 0.0015315,-0.00325591 0.00366142,-0.00584252 0.00642913,-0.00774016 0.00275197,-0.00188189 0.00626772,-0.00282677 0.0105236,-0.00285827 0.00412992,3.14961e-005 0.00741732,0.000944882 0.00991339,0.00284252 0.00249213,0.00182283 0.00438976,0.00435827 0.00565748,0.00759055 0.0012874,0.00322441 0.00214173,0.00692913 0.00255906,0.0111339 0.000409449,0.00422047 0.000622047,0.00868898 0.00057874,0.0134488l0 0.0628228 0.0179252 0zm0.0345748 -0.0184646c0.00446457,0.00657874 0.0101535,0.011626 0.0171181,0.0151575 0.00692913,0.00355118 0.0148031,0.00533858 0.0236339,0.00537402 0.00737008,-6.69291e-005 0.0136575,-0.00151969 0.0189331,-0.0043622 0.00526378,-0.0028937 0.00929134,-0.00687008 0.0120866,-0.0118858 0.00283071,-0.00507874 0.00423622,-0.0109055 0.00427165,-0.0175433 -7.87402e-005,-0.00561417 -0.00109055,-0.0103898 -0.00304331,-0.0142756 -0.00198031,-0.00391732 -0.0045748,-0.00720079 -0.00783858,-0.00977165 -0.0032126,-0.0025748 -0.00680709,-0.0047874 -0.0107047,-0.00655118 -0.00388583,-0.00172835 -0.00775591,-0.00331496 -0.011626,-0.00467717 -0.00390157,-0.00140945 -0.00748031,-0.00281496 -0.0107205,-0.00431496 -0.00324409,-0.00148425 -0.00585827,-0.00322835 -0.0078189,-0.00524803 -0.00195669,-0.0020315 -0.0029685,-0.00457087 -0.00304331,-0.00761811 2.75591e-005,-0.0030315 0.000826772,-0.00565748 0.00238189,-0.00779921 0.0015315,-0.00218898 0.00356693,-0.00382283 0.0061063,-0.00495669 0.00257087,-0.00114961 0.00539764,-0.00174409 0.00847244,-0.00174409 0.00508268,0 0.00948819,0.000996063 0.0132638,0.00299606 0.00380709,0.00202362 0.00705118,0.00507874 0.00976378,0.00922441l0.0122638 -0.0120079c-0.00452362,-0.00582677 -0.0096811,-0.010063 -0.0155394,-0.0126024 -0.00579921,-0.0025748 -0.0119921,-0.00385827 -0.0185906,-0.00376378 -0.00592913,5.90551e-005 -0.0111339,0.000917323 -0.0156142,0.00264567 -0.0045,0.00174409 -0.00822835,0.00409843 -0.0112008,0.00711417 -0.00304331,0.00302756 -0.00527559,0.0064252 -0.00675984,0.010248 -0.00152756,0.00382677 -0.00227953,0.0078622 -0.00227953,0.0120984 5.90551e-005,0.00501969 0.00108661,0.00927165 0.00301181,0.0127598 0.00199213,0.00347244 0.00459449,0.0063937 0.00780315,0.00876772 0.00325984,0.00235433 0.00680709,0.00435433 0.0106614,0.00608661 0.00388583,0.00166535 0.00775984,0.0032874 0.011626,0.00476772 0.00387008,0.00144094 0.00741732,0.00306299 0.0106614,0.00476378 0.00324409,0.00169291 0.00583071,0.00372835 0.00780315,0.00611811 0.00192913,0.00236614 0.0029685,0.00529134 0.0030315,0.00879134 0,0.00301575 -0.000720472,0.00564567 -0.00212598,0.00797244 -0.00142126,0.00235433 -0.00344488,0.00419291 -0.00608661,0.00552362 -0.00264961,0.00131496 -0.00583465,0.00200394 -0.00956299,0.0020315 -0.00364173,-2.75591e-005 -0.00720866,-0.000688976 -0.0107402,-0.002 -0.00345669,-0.00135039 -0.00665354,-0.00316929 -0.0094685,-0.00561811 -0.00285827,-0.00235433 -0.00515354,-0.0051063 -0.00685433,-0.00833858l-0.0132756 0.0126378zm0.129685 0.0597362l0 -0.039622c0,-0.00224409 -3.14961e-005,-0.00432677 -5.90551e-005,-0.00629921 -4.33071e-005,-0.00197244 -6.29921e-005,-0.00362598 -6.29921e-005,-0.00485039 -3.14961e-005,-0.00119291 -5.90551e-005,-0.00188189 -5.90551e-005,-0.00190945l0.000366142 0c0.0016378,0.00268898 0.00354724,0.0049685 0.00578346,0.00698819 0.00225984,0.00203543 0.0048622,0.00359449 0.00781496,0.00475591 0.00298425,0.00113386 0.00637795,0.00169685 0.0102205,0.00173228 0.00553937,-3.54331e-005 0.0104331,-0.00137795 0.0146693,-0.00405512 0.00423622,-0.00272441 0.00775591,-0.00657874 0.0106142,-0.0116535 0.00283465,-0.00505512 0.00500394,-0.0111535 0.00645669,-0.0182402 0.00143701,-0.00709449 0.00214567,-0.0150512 0.00214567,-0.0238898 0,-0.00896457 -0.000767717,-0.017122 -0.00233071,-0.0243858 -0.00152756,-0.00724803 -0.00380709,-0.0135039 -0.00675984,-0.0186929 -0.00301181,-0.00520079 -0.00666929,-0.00917717 -0.0110433,-0.0119921 -0.00435827,-0.00277165 -0.00930315,-0.00417717 -0.0149291,-0.00420472 -0.00380709,2.75591e-005 -0.00718898,0.000779528 -0.0102362,0.00215354 -0.00302756,0.00133071 -0.00570472,0.00316929 -0.00802756,0.00546457 -0.00231102,0.00226378 -0.00428346,0.0047874 -0.00593701,0.00749213l-0.00038189 0c-0.000216535,-0.00223228 -0.000507874,-0.00435827 -0.000901575,-0.00629921 -0.000385827,-0.00191339 -0.000767717,-0.00348819 -0.00110236,-0.00468504 -0.000307087,-0.00120472 -0.000476378,-0.00180315 -0.000535433,-0.00186614l-0.0161732 0c0.000401575,0.00108661 0.000783465,0.00249606 0.0011811,0.0042874 0.000397638,0.0018189 0.000700787,0.00379134 0.000992126,0.00605512 0.000248031,0.00227953 0.000350394,0.0046063 0.000350394,0.00705118l0 0.136665 0.0179449 0zm0 -0.106909c-3.14961e-005,-0.00402362 0.000279528,-0.00790945 0.000889764,-0.0116417 0.000566929,-0.00373622 0.00162205,-0.00711417 0.00305906,-0.0100512 0.0014252,-0.00298425 0.00336614,-0.00527953 0.00584252,-0.00703937 0.00246457,-0.00174409 0.00559843,-0.00259843 0.0093189,-0.00262598 0.00400787,2.75591e-005 0.00732283,0.00109843 0.00997244,0.00322441 0.00267717,0.00214173 0.00475591,0.00511024 0.00637795,0.00887402 0.00154331,0.00376378 0.00266142,0.00811811 0.00333465,0.0130748 0.000688976,0.0049252 0.00101181,0.0102205 0.000980315,0.0158386 3.14961e-005,0.00588583 -0.000291339,0.0113465 -0.000980315,0.0163189 -0.000673228,0.00498819 -0.00179134,0.00928346 -0.00333465,0.0129882 -0.00162205,0.00368504 -0.00370079,0.00657874 -0.00637795,0.00864173 -0.00264961,0.0020315 -0.00596457,0.0030748 -0.00997244,0.00310236 -0.00393307,-2.75591e-005 -0.00714567,-0.000992126 -0.00965354,-0.00278346 -0.00249213,-0.00185039 -0.00443701,-0.00426378 -0.00581496,-0.00731102 -0.00138976,-0.00307087 -0.00232283,-0.00645669 -0.0028622,-0.010189 -0.000551181,-0.00372835 -0.000811024,-0.00755118 -0.000779528,-0.011437l0 -0.0189843zm0.111976 -0.0471496l-0.0179606 0 0 0.113004 0.0179606 0 0 -0.113004zm0 0.113004zm-0.00896063 -0.127488c0.00201575,-6.29921e-005 0.00388583,-0.000562992 0.00551969,-0.0016063 0.00169685,-0.00102756 0.00304331,-0.00244882 0.00403543,-0.00422047 0.000980315,-0.00176378 0.00151969,-0.00373622 0.00154724,-0.006 -2.75591e-005,-0.00218504 -0.000566929,-0.00409843 -0.00154724,-0.00585827 -0.000992126,-0.00172835 -0.00233858,-0.00313386 -0.00403543,-0.00415748 -0.00163386,-0.00103937 -0.00350394,-0.00157874 -0.00551969,-0.00157874 -0.00207087,0 -0.00392126,0.00053937 -0.00560236,0.00157874 -0.00166535,0.00102362 -0.00301575,0.00242913 -0.00399213,0.00415748 -0.000964567,0.00175984 -0.0015,0.00367323 -0.00152756,0.00585827 2.75591e-005,0.00226378 0.000562992,0.00423622 0.00152756,0.006 0.000976378,0.00177165 0.00232677,0.00319291 0.00399213,0.00422047 0.0016811,0.00104331 0.0035315,0.00154331 0.00560236,0.0016063zm0.0688346 0.127488l0 -0.0655197c6.29921e-005,-0.00570866 0.000944882,-0.0106929 0.00279921,-0.0149724 0.00185039,-0.00427165 0.00451181,-0.00762205 0.00792126,-0.0100079 0.00342913,-0.00238583 0.00752756,-0.00357874 0.0122992,-0.0036378 0.00150394,0 0.00290551,0.000149606 0.00412992,0.000377953 0.0013189,0.000244094 0.00226378,0.000535433 0.0028622,0.000874016l0.00296457 -0.0219685c-0.000594488,0 -0.00122047,-3.14961e-005 -0.00184646,-0.000106299 -0.000688976,-3.14961e-005 -0.0012874,-9.05512e-005 -0.00188189,-9.05512e-005 -0.0140433,0 -0.024,0.00683465 -0.0298307,0.0204803l-0.00038189 0c-0.000244094,-0.0033937 -0.000594488,-0.00649606 -0.00110236,-0.00925197 -0.000503937,-0.00278346 -0.00105512,-0.00498425 -0.00149606,-0.00666929 -0.000448819,-0.0016378 -0.000661417,-0.00244882 -0.000720472,-0.00251181l-0.0161575 0c0.000385827,0.00108661 0.000767717,0.00249606 0.00116929,0.0042874 0.000377953,0.0018189 0.000712598,0.00385433 0.000972441,0.00608661 0.000248031,0.00224803 0.000370079,0.0046063 0.000370079,0.00705118l0 0.0955787 0.0179291 0zm0.120937 -0.0342047c-0.00221654,0.00633071 -0.00504724,0.0110748 -0.00861024,0.0142402 -0.00354724,0.00322441 -0.00797244,0.00481496 -0.0134173,0.00481496 -0.00521654,-2.75591e-005 -0.00956299,-0.00155906 -0.0128976,-0.00451181 -0.00337795,-0.00291732 -0.00591732,-0.00701969 -0.00758661,-0.0122795 -0.0017126,-0.00527953 -0.00268898,-0.0114449 -0.00290551,-0.0184646l0.0594606 0 0 -0.00517323c3.14961e-005,-0.00814961 -0.000507874,-0.0158898 -0.0016811,-0.0230394 -0.00113386,-0.00715748 -0.00311024,-0.0135197 -0.00587402,-0.0189961 -0.00281496,-0.00552362 -0.00666929,-0.00975984 -0.011626,-0.0129252 -0.00489764,-0.00312205 -0.0111535,-0.00466535 -0.0186496,-0.00472441 -0.00833465,5.90551e-005 -0.0154528,0.00247244 -0.0213228,0.00726378 -0.00585827,0.00474016 -0.0104016,0.0115472 -0.0135354,0.020378 -0.00314173,0.00881102 -0.00469685,0.0192559 -0.00472835,0.0314213 3.14961e-005,0.012126 0.00158661,0.0225276 0.00460236,0.0311575 0.00304331,0.00864173 0.00749606,0.0152638 0.0133858,0.0199291 0.00588583,0.0045748 0.0130945,0.00692913 0.0215984,0.00696457 0.0062126,0 0.0116299,-0.000980315 0.0162598,-0.00292126 0.00459055,-0.00194488 0.00859843,-0.00482283 0.0120118,-0.00858268 0.0033937,-0.00379528 0.00638976,-0.00847638 0.00899213,-0.0139843l-0.0134764 -0.0105669zm-0.0454173 -0.030689c0.00038189,-0.00677559 0.00140945,-0.0127244 0.00313386,-0.0178661 0.00168504,-0.00516929 0.00410236,-0.00920866 0.00726772,-0.0120984 0.00313386,-0.0029252 0.00705118,-0.0043937 0.0118268,-0.00445276 0.0045748,5.90551e-005 0.00830709,0.0015 0.0111811,0.0043622 0.0028622,0.00287402 0.00495669,0.00686614 0.0063622,0.0120039 0.00140945,0.00516929 0.00217323,0.011185 0.00232677,0.0180512l-0.0420984 0zm0.167917 0.0646772c-0.000338583,-0.00101181 -0.000748031,-0.00238583 -0.00111811,-0.00414567 -0.000413386,-0.00175591 -0.000700787,-0.00379528 -0.000980315,-0.00609055 -0.00030315,-0.00227559 -0.000440945,-0.00466535 -0.000440945,-0.00716929l0 -0.133909 -0.0179606 0 0 0.0356378c0,0.0020315 5.90551e-005,0.00407087 9.44882e-005,0.00605906 0,0.00197244 5.90551e-005,0.00362205 9.05512e-005,0.00497244 1.1811e-005,0.00131496 1.1811e-005,0.00194094 1.1811e-005,0.00201575l-0.000377953 0c-0.00154724,-0.00244488 -0.00344488,-0.00458661 -0.00558661,-0.00644094 -0.00212598,-0.00185039 -0.00457087,-0.00331496 -0.00726378,-0.00437402 -0.00266142,-0.00103937 -0.00561417,-0.0015748 -0.00881102,-0.00160236 -0.00573622,2.75591e-005 -0.010878,0.00137402 -0.0152992,0.00412598 -0.00451181,0.00270866 -0.00827559,0.00662598 -0.0113189,0.0117047 -0.0031063,0.0051378 -0.00544882,0.0112441 -0.00701969,0.0184331 -0.00159449,0.00717717 -0.00241732,0.0152362 -0.00241732,0.0242008 0,0.00883858 0.000732283,0.0169173 0.00223228,0.0240787 0.0014685,0.00720079 0.00370079,0.0134134 0.00661024,0.0185236 0.00285827,0.00516929 0.00645669,0.00911417 0.0106299,0.0118661 0.00423622,0.00277165 0.00914567,0.00414567 0.0146417,0.0041811 0.00423622,-3.54331e-005 0.00795276,-0.000751969 0.0111181,-0.00214173 0.00319685,-0.00137795 0.00590551,-0.00323228 0.00818504,-0.00560236 0.00226378,-0.00235433 0.00414567,-0.00495669 0.00564173,-0.00778346l0.000417323 0c0.000212598,0.00301181 0.000622047,0.00576772 0.00122047,0.00809055 0.000551181,0.00238583 0.00108661,0.00417717 0.0015,0.00537008l0.0162008 0zm-0.0205 -0.0420827c0,0.00501575 -0.000716535,0.00954724 -0.00215748,0.0134921 -0.00137795,0.00397638 -0.00351575,0.00717323 -0.0063622,0.0095 -0.00279921,0.00230709 -0.0063622,0.0035 -0.0105709,0.00356693 -0.00398031,-6.69291e-005 -0.00732677,-0.00107087 -0.00998819,-0.00317323 -0.00267717,-0.00209449 -0.00474409,-0.00495276 -0.0063622,-0.00866929 -0.00157874,-0.00370472 -0.00264961,-0.00806299 -0.00333858,-0.0130197 -0.000685039,-0.00498425 -0.00102362,-0.0103701 -0.000992126,-0.0161969 -3.14961e-005,-0.00574016 0.000307087,-0.0110157 0.000992126,-0.0160197 0.000688976,-0.00495669 0.00175984,-0.00931496 0.00333858,-0.0130787 0.00161811,-0.00379134 0.00368504,-0.00677559 0.0063622,-0.00893307 0.00266142,-0.00212205 0.00600787,-0.00319291 0.00998819,-0.00322441 0.00402756,3.14961e-005 0.00725197,0.00107087 0.0097874,0.00301181 0.00254331,0.00200394 0.00445276,0.00466929 0.00583465,0.0078937 0.00131102,0.0032874 0.00227559,0.00687008 0.00275197,0.0107835 0.000535433,0.00388583 0.000775591,0.00777165 0.000716535,0.011685l0 0.0223819zm0.232622 0.0420827l0 -0.0740236c3.14961e-005,-0.00582677 -0.000334646,-0.0112087 -0.00116142,-0.0162008 -0.000811024,-0.00495669 -0.00224803,-0.00931496 -0.00431496,-0.0130315 -0.00201575,-0.00373228 -0.0048622,-0.00659449 -0.00850394,-0.00865748 -0.00362598,-0.00206299 -0.00824803,-0.0031063 -0.0138898,-0.00313386 -0.00610236,0 -0.0113622,0.00155906 -0.0157244,0.00472441 -0.00438976,0.00319685 -0.00797244,0.008 -0.010815,0.0145472l-0.00038189 0c-0.00107087,-0.00376378 -0.00278346,-0.00698819 -0.00507874,-0.00980315 -0.00225197,-0.00279921 -0.00511024,-0.00495669 -0.00855118,-0.00651575 -0.00346063,-0.00155118 -0.00746457,-0.00229528 -0.0120709,-0.0023622 -0.00533858,0 -0.0100039,0.00125984 -0.0140118,0.00385827 -0.00401181,0.00259843 -0.00746457,0.00677559 -0.0103701,0.0125433l-0.00038189 0c-0.000248031,-0.00266142 -0.000566929,-0.00511024 -0.000980315,-0.00731102 -0.000429134,-0.00222047 -0.000811024,-0.00400787 -0.0011811,-0.00535433 -0.000350394,-0.00134646 -0.000531496,-0.00200394 -0.000594488,-0.00206693l-0.0161535 0c0.000385827,0.00108661 0.000767717,0.00249606 0.00116142,0.0042874 0.000385827,0.0018189 0.000720472,0.00385433 0.000980315,0.00608661 0.000248031,0.00224803 0.000397638,0.0046063 0.000397638,0.00705118l0 0.0955787 0.0179252 0 0 -0.070937c3.54331e-005,-0.00576772 0.000858268,-0.0106929 0.00254331,-0.0146378 0.0016378,-0.00399213 0.00387008,-0.00701969 0.00674409,-0.00901181 0.0028622,-0.0020315 0.00614961,-0.00308661 0.00983465,-0.00308661 0.0031063,0 0.00576772,0.000779528 0.00790945,0.00240157 0.00222047,0.00163386 0.00385433,0.00423622 0.00498819,0.00772441 0.00111811,0.0035315 0.0017126,0.00807874 0.0017126,0.0137244l0 0.0736063 0.0180984 0 0 -0.070063c6.29921e-005,-0.00587402 0.000870079,-0.0108425 0.00244488,-0.0149291 0.00162205,-0.00409449 0.00385433,-0.00717323 0.00670079,-0.00926772 0.0028622,-0.00211417 0.00617717,-0.00319685 0.00997244,-0.00319685 0.0031063,0 0.00576772,0.000779528 0.00798819,0.00240157 0.00214173,0.00163386 0.00382283,0.00423622 0.0048937,0.00772441 0.00116535,0.0035315 0.00172835,0.00807874 0.00172835,0.0137244l0 0.0736063 0.0181417 0zm0.110004 0c-0.000799213,-0.00154724 -0.00151575,-0.00385827 -0.00214173,-0.00681102 -0.000598425,-0.00291732 -0.000968504,-0.0065748 -0.000996063,-0.010815l0 -0.0542874c0,-0.00749213 -0.000885827,-0.0139173 -0.00259843,-0.019378 -0.00166929,-0.00541732 -0.00402362,-0.00989764 -0.00705512,-0.0134173 -0.00301575,-0.00350394 -0.0065,-0.00610236 -0.0104449,-0.00780315 -0.00397638,-0.00172441 -0.00827953,-0.00253543 -0.0128189,-0.00253543 -0.00445276,0 -0.00877953,0.000716535 -0.0130669,0.00218504 -0.00429528,0.00145276 -0.00836614,0.00370079 -0.0122205,0.00677559 -0.00383858,0.00298425 -0.00737402,0.00687008 -0.0106024,0.0115354l0.0115315 0.012878c0.00135039,-0.00308661 0.0030748,-0.00585827 0.00517323,-0.00836614 0.00206693,-0.00248031 0.00444882,-0.00451181 0.00720472,-0.00595276 0.00270866,-0.00146457 0.00573622,-0.00223228 0.00903937,-0.00226378 0.00588976,3.14961e-005 0.0103425,0.00214173 0.0133858,0.00633465 0.00306299,0.00414567 0.0045748,0.0102165 0.0045748,0.0180945l0 0.00685827c-0.0128465,4.33071e-005 -0.0234173,0.00154331 -0.0316654,0.00455512 -0.00827559,0.00302756 -0.014378,0.00724016 -0.018374,0.0126811 -0.00394488,0.00540157 -0.00594882,0.0117638 -0.00594882,0.0190591 0,0.00633858 0.00116142,0.0119488 0.00341339,0.016874 0.00223228,0.00486614 0.00555118,0.00875197 0.00994094,0.011563 0.00435827,0.00281496 0.00974409,0.00423622 0.0161102,0.00430315 0.00466535,-6.69291e-005 0.00868504,-0.00092126 0.012189,-0.00260236 0.00342913,-0.0016378 0.00633465,-0.00382283 0.00875197,-0.00648819 0.00232283,-0.00264173 0.00433071,-0.00548819 0.00579528,-0.0085 0.000291339,0.00241339 0.000661417,0.00467717 0.00101181,0.00683465 0.000366142,0.00215748 0.000748031,0.00403937 0.00111811,0.00555118 0.000350394,0.0015315 0.000732283,0.00254331 0.00116142,0.0031378l0.0175315 0zm-0.0210354 -0.0445787c0,0.00407087 -0.000535433,0.00795669 -0.00151181,0.011626 -0.00105906,0.00373228 -0.00254331,0.00702362 -0.0045748,0.00990157 -0.00197244,0.00285827 -0.0044252,0.0051378 -0.00735827,0.00680709 -0.0028622,0.00166535 -0.0061811,0.00253543 -0.00997244,0.00256693 -0.00275591,0 -0.00526772,-0.000685039 -0.00762205,-0.00194488 -0.00232283,-0.00122047 -0.00417323,-0.00313386 -0.00558268,-0.00566929 -0.00140551,-0.00251181 -0.00212598,-0.00564567 -0.00218504,-0.00938189 5.90551e-005,-0.00484646 0.0014685,-0.00887008 0.00423622,-0.0121929 0.00284252,-0.00322441 0.0068189,-0.00566929 0.0119646,-0.00735433 0.00516535,-0.0016063 0.0112559,-0.00244882 0.0182756,-0.00244882l0.00212992 0 0.00220079 0 0 0.00809055zm0.0296772 0.0862283c0.00211024,0.00084252 0.00411417,0.00150394 0.00602756,0.00198031 0.00191339,0.000472441 0.00382283,0.000838583 0.00573622,0.00103543 0.00191339,0.000216535 0.00397638,0.000307087 0.00616142,0.000307087 0.00743701,0 0.0137362,-0.00172835 0.0188819,-0.0051378 0.00516535,-0.00341339 0.00905118,-0.00849213 0.0117598,-0.0152677 0.00269291,-0.00674803 0.00403937,-0.0151457 0.00407087,-0.0251614l0 -0.112193 -0.0185236 0 0 0.111776c0,0.0066063 -0.000570866,0.0119803 -0.00175984,0.0161378 -0.00119291,0.00414567 -0.0030748,0.00718898 -0.00561811,0.00916142 -0.00256693,0.00191339 -0.00588583,0.00288189 -0.00998425,0.00285039 -0.00188189,0 -0.00373622,-0.000216535 -0.00555512,-0.00065748 -0.00182283,-0.000444882 -0.00345669,-0.00119291 -0.00495669,-0.00222047l-0.00624016 0.0173898zm0.0434764 -0.168921c0.00204331,-6.29921e-005 0.00386614,-0.000562992 0.00557874,-0.0016063 0.00166929,-0.00102756 0.00298425,-0.00244882 0.00399213,-0.00422047 0.000996063,-0.00176378 0.00150394,-0.00373622 0.0015315,-0.006 -2.75591e-005,-0.00218504 -0.000535433,-0.00409843 -0.0015315,-0.00585827 -0.00100787,-0.00172835 -0.00232283,-0.00313386 -0.00399213,-0.00415748 -0.0017126,-0.00103937 -0.00353543,-0.00157874 -0.00557874,-0.00157874 -0.00203937,0 -0.00388583,0.00053937 -0.00557087,0.00157874 -0.00169685,0.00102362 -0.00301181,0.00242913 -0.00402362,0.00415748 -0.000996063,0.00175984 -0.0015,0.00367323 -0.00152756,0.00585827 2.75591e-005,0.00226378 0.000531496,0.00423622 0.00152756,0.006 0.00101181,0.00177165 0.00232677,0.00319291 0.00402362,0.00422047 0.00168504,0.00104331 0.0035315,0.00154331 0.00557087,0.0016063zm0.0848346 0.111929c-0.00393307,-3.14961e-005 -0.00727953,-0.00114961 -0.0100315,-0.00329134 -0.00275591,-0.00218504 -0.00502362,-0.0051378 -0.00668898,-0.00893307 -0.0017126,-0.00379528 -0.0029685,-0.0081811 -0.00374409,-0.0131575 -0.000767717,-0.00495276 -0.00116929,-0.0102441 -0.00116929,-0.0158583 0,-0.00583071 0.000401575,-0.0111693 0.00116929,-0.016185 0.000775591,-0.00497244 0.0020315,-0.00933071 0.00374409,-0.0130945 0.00166535,-0.00376378 0.00393307,-0.00665748 0.00668898,-0.00877953 0.00275197,-0.00209449 0.00609843,-0.00316535 0.0100315,-0.00319685 0.00394488,3.14961e-005 0.00729528,0.00110236 0.0100157,0.00319685 0.00277165,0.00212205 0.00495669,0.00501575 0.00662598,0.00877953 0.00168504,0.00376378 0.00293701,0.00812205 0.00368898,0.0130945 0.00076378,0.00501575 0.00112992,0.0103543 0.00112992,0.016185 0,0.00591732 -0.000366142,0.0113819 -0.00112992,0.0164094 -0.000751969,0.00498819 -0.00200394,0.00938189 -0.00368898,0.0130827 -0.00166929,0.00370079 -0.00385433,0.00657874 -0.00662598,0.00862598 -0.00272047,0.0020315 -0.00607087,0.00309055 -0.0100157,0.00312205zm0 0.0174094c0.00890157,-6.69291e-005 0.0163228,-0.00244882 0.0222126,-0.00714567 0.00587402,-0.00470866 0.0102598,-0.0114449 0.0132008,-0.0201929 0.00291732,-0.00871654 0.00435827,-0.0191496 0.00435827,-0.031311 0,-0.0120984 -0.00144094,-0.0225197 -0.00435827,-0.0312205 -0.00294094,-0.00869291 -0.00732677,-0.0154213 -0.0132008,-0.0201024 -0.00588976,-0.00472835 -0.013311,-0.00708268 -0.0222126,-0.00714173 -0.00890157,5.90551e-005 -0.016248,0.00241339 -0.0221969,0.00714173 -0.00585827,0.0046811 -0.010248,0.0114094 -0.0131693,0.0201024 -0.00293701,0.00870079 -0.00438976,0.019122 -0.00438976,0.0312205 0,0.0121614 0.00145276,0.0225945 0.00438976,0.031311 0.00292126,0.00874803 0.00731102,0.0154843 0.0131693,0.0201929 0.00594882,0.00469685 0.0132953,0.00707874 0.0221969,0.00714567zm0.0940315 -0.00185039l0 -0.0655197c5.90551e-005,-0.00570866 0.000917323,-0.0106929 0.00279921,-0.0149724 0.00186614,-0.00427165 0.00448031,-0.00762205 0.0079252,-0.0100079 0.00340945,-0.00238583 0.00749606,-0.00357874 0.0122835,-0.0036378 0.00148031,0 0.00288976,0.000149606 0.00417323,0.000377953 0.00128346,0.000244094 0.00224803,0.000535433 0.00284646,0.000874016l0.00292126 -0.0219685c-0.000598425,0 -0.00122047,-3.14961e-005 -0.00185039,-0.000106299 -0.00065748,-3.14961e-005 -0.00128346,-9.05512e-005 -0.00185039,-9.05512e-005 -0.0140433,0 -0.0239843,0.00683465 -0.0298465,0.0204803l-0.000393701 0c-0.000200787,-0.0033937 -0.000570866,-0.00649606 -0.00107087,-0.00925197 -0.00053937,-0.00278346 -0.0010748,-0.00498425 -0.0015315,-0.00666929 -0.000413386,-0.0016378 -0.000641732,-0.00244882 -0.000704724,-0.00251181l-0.0161693 0c0.00038189,0.00108661 0.000779528,0.00249606 0.00119291,0.0042874 0.000370079,0.0018189 0.000688976,0.00385433 0.000964567,0.00608661 0.000259843,0.00224803 0.00038189,0.0046063 0.00038189,0.00705118l0 0.0955787 0.0179291 0zm0.081 -0.113004l-0.0179606 0 0 0.113004 0.0179606 0 0 -0.113004zm0 0.113004zm-0.009 -0.127488c0.00206693,-6.29921e-005 0.00391732,-0.000562992 0.00555512,-0.0016063 0.0017126,-0.00102756 0.00301575,-0.00244882 0.00403937,-0.00422047 0.000948819,-0.00176378 0.0015,-0.00373622 0.00151181,-0.006 -1.1811e-005,-0.00218504 -0.000562992,-0.00409843 -0.00151181,-0.00585827 -0.00102362,-0.00172835 -0.00232677,-0.00313386 -0.00403937,-0.00415748 -0.0016378,-0.00103937 -0.00348819,-0.00157874 -0.00555512,-0.00157874 -0.0020315,0 -0.00388583,0.00053937 -0.00554724,0.00157874 -0.00171654,0.00102362 -0.0030315,0.00242913 -0.00404331,0.00415748 -0.00096063,0.00175984 -0.00149606,0.00367323 -0.00152756,0.00585827 3.14961e-005,0.00226378 0.000566929,0.00423622 0.00152756,0.006 0.00101181,0.00177165 0.00232677,0.00319291 0.00404331,0.00422047 0.00166142,0.00104331 0.00351575,0.00154331 0.00554724,0.0016063zm0.0949803 0.108807c-0.00140551,0.000933071 -0.00293701,0.00164961 -0.00454331,0.0020315 -0.00163386,0.00046063 -0.0034685,0.000692913 -0.00558268,0.000692913 -0.0043622,-3.14961e-005 -0.00752756,-0.00143701 -0.00952756,-0.00414567 -0.00200394,-0.0027874 -0.0029685,-0.00670079 -0.00293701,-0.0118071l0 -0.0645118 0.0225906 0 0 -0.0165827 -0.0225906 0 0 -0.029626 -0.0179606 0 0 0.029626 -0.0126654 0 0 0.0165827 0.0126654 0 0 0.0657638c0,0.00689764 0.00105512,0.0127559 0.00312205,0.0176024 0.00204724,0.00483465 0.00516929,0.00853937 0.00925197,0.0110787 0.00413386,0.00250787 0.0092126,0.00379134 0.0153307,0.00382677 0.00334646,0 0.00648425,-0.000326772 0.0095,-0.00101181 0.00293307,-0.000625984 0.00555118,-0.00159055 0.0078622,-0.00272047l-0.00451575 -0.0167992zm0.0620591 0.0184921c-0.00120472,0.00472835 -0.00246063,0.0089685 -0.00388583,0.0126969 -0.00134252,0.00372047 -0.00299606,0.00670472 -0.005,0.00883071 -0.00195669,0.00216929 -0.00448031,0.00327165 -0.00749606,0.00330315 -0.00272441,-3.14961e-005 -0.0051063,-0.000503937 -0.00714173,-0.00145276 -0.00205118,-0.000964567 -0.00379528,-0.00212992 -0.00515354,-0.00350394l-0.00855118 0.0161693c0.00212205,0.00163386 0.00423622,0.00298425 0.00635827,0.00403543 0.00212992,0.00104331 0.0043937,0.00179134 0.00674803,0.00226378 0.00237402,0.000507874 0.00504724,0.000751969 0.00792126,0.000751969 0.00473228,0 0.00881102,-0.000964567 0.012378,-0.00290551 0.00348819,-0.00194488 0.00659449,-0.00480315 0.0092874,-0.00866142 0.00266142,-0.00382283 0.0051063,-0.00857874 0.00723228,-0.014315 0.00217323,-0.00573622 0.00424016,-0.0123307 0.0062126,-0.0198858l0.0294291 -0.110142 -0.019122 0 -0.0165512 0.0651969c-0.000484252,0.00191339 -0.00096063,0.00391339 -0.00143307,0.00598425 -0.000507874,0.00206299 -0.000901575,0.00398819 -0.0013189,0.00585827 -0.000413386,0.00179134 -0.000716535,0.00324409 -0.000976378,0.00438583 -0.000216535,0.00116142 -0.000370079,0.00175984 -0.000370079,0.00175984l-0.000377953 0c-6.29921e-005,-0.00011811 -0.000188976,-0.000748031 -0.00046063,-0.00190945 -0.000232283,-0.00113386 -0.00053937,-0.00263386 -0.000948819,-0.00442126 -0.000334646,-0.0017874 -0.000811024,-0.00370079 -0.00125591,-0.00573622 -0.000440945,-0.00203543 -0.000929134,-0.00400787 -0.00143701,-0.00592126l-0.0173622 -0.0651969 -0.0202874 0 0.033563 0.112815z"/>
   <path id="_186893152" class="fil1" d="M0.446366 1.1588l0.0676732 0c0.0177126,0 0.0390512,-0.0287677 0.0174843,-0.0512874l0 0c-0.00549606,-0.00573622 -0.00879921,-0.00881102 -0.0193543,-0.00881102l0 0 -0.0658031 0c-0.0124055,0 -0.0262992,0.0138583 -0.0262992,0.0262835l0 0c0,0.0207992 0.0126811,0.033815 0.0262992,0.033815zm-0.270409 -0.991638c-0.077815,0.0778268 -0.125957,0.185323 -0.125957,0.304083 0,0.11874 0.0481417,0.226264 0.125957,0.304063l0 0c0.0444252,0.0444252 0.0985157,0.0791772 0.158862,0.100807l0 0c-0.00956299,0.00686614 -0.0141811,0.0122835 -0.0215551,0.0236654l0 0c-0.0392835,0.0609409 0.00972835,0.138744 0.0692205,0.138744l0 0 0.131555 0c0.0212795,0 0.0398622,-0.0347717 0.0135394,-0.0548543l0 0c-0.00858268,-0.00655118 -0.0145079,-0.00532677 -0.0285787,-0.00527953l0 0c-0.0225315,7.48031e-005 -0.0451102,0 -0.0676614,0l0 0c-0.0218386,0 -0.0477992,0.00279921 -0.0605591,-0.00709843l0 0c-0.0136732,-0.0106024 -0.0132441,-0.0368937 0.00108661,-0.0467165l0 0c0.0134764,-0.00922441 0.0398189,-0.00629921 0.0613425,-0.00629921l0 0c0.027685,0 0.113594,0.002 0.134583,-0.00266535l0 0c0.0159409,-0.0035315 0.0352441,-0.0121614 0.0472205,-0.022315l0 0c0.0058622,-0.00495669 0.0114449,-0.0112441 0.0170118,-0.0168307l0 0c0.00145276,-0.00142126 0.00281496,-0.00293701 0.00411417,-0.00441732l0 0c0.0559724,-0.0217992 0.10624,-0.0549803 0.147996,-0.0967402l0 0c0.0778071,-0.0777992 0.125945,-0.185323 0.125929,-0.304063l0 0c1.5748e-005,-0.11876 -0.048122,-0.226256 -0.125929,-0.304083l0 0c-0.0778425,-0.0778071 -0.185354,-0.125961 -0.304102,-0.125961 -0.118732,0 -0.226244,0.0481535 -0.304075,0.125961zm0.0445276 0.56363c-0.0664016,-0.0664173 -0.107504,-0.158201 -0.107504,-0.259547l0 0c0,-0.10137 0.0411024,-0.193122 0.107504,-0.259571l0 0c0.0664213,-0.0664213 0.158189,-0.107492 0.259547,-0.107492l0 0c0.101374,0 0.193122,0.0410709 0.259563,0.107492l0 0c0.0664173,0.0664488 0.107508,0.158201 0.107508,0.259571l0 0c0,0.101346 -0.0410906,0.19313 -0.107508,0.259547l0 0c-0.0664213,0.0664213 -0.158189,0.107492 -0.259563,0.107492l0 0c-0.101343,0 -0.193126,-0.0410709 -0.259547,-0.107492zm0.0530669 -0.13428c0,0.00742126 0.00253937,0.014185 0.00677953,0.0195236l0 0 -4.33071e-005 0c0.00762992,0.0105709 0.0161024,0.0204646 0.0252953,0.0296575l0 0c0.0446535,0.0446378 0.106331,0.0722795 0.174449,0.0722795l0 0c0.0681339,0 0.129811,-0.0276417 0.17448,-0.0722795l0 0c0.00801575,-0.00802756 0.0154961,-0.0166102 0.022378,-0.0256811l0 0 4.72441e-005 -7.87402e-005 0.000149606 -0.00019685 0.000212598 -0.000228346 9.84252e-005 -0.00015748 0.00011811 -0.000149606 0.000334646 -0.000413386 1.9685e-005 -3.14961e-005 4.72441e-005 -5.90551e-005 0.000181102 -0.000275591 0.000212598 -0.000275591 0 -1.5748e-005 0.000350394 -0.000519685 1.9685e-005 -3.14961e-005 7.48031e-005 -4.33071e-005 1.5748e-005 -7.87402e-005 0.000275591 -0.000413386 0.000122047 -0.000153543 6.29921e-005 -0.000122047 0.000165354 -0.000291339 0.000169291 -0.000244094 1.5748e-005 -4.72441e-005 0.000169291 -0.000271654 0.000169291 -0.000291339 1.1811e-005 -3.54331e-005 0.00015748 -0.000240157 0.000161417 -0.00030315 7.87402e-005 -0.000110236 1.9685e-005 -3.14961e-005 0.000224409 -0.000456693 0.000106299 -0.000200787 0.000338583 -0.000688976 1.5748e-005 0 0.000122047 -0.00030315 0.000153543 -0.000291339 3.14961e-005 -9.05512e-005 9.05512e-005 -0.000248031 0.000153543 -0.000291339 4.72441e-005 -0.000149606 5.90551e-005 -0.000188976 0.000137795 -0.00030315 0.000106299 -0.000228346 1.5748e-005 -6.29921e-005 0.000212598 -0.000535433 3.14961e-005 -9.05512e-005 0 -3.14961e-005 0.000125984 -0.00030315 0.000102362 -0.000322835 3.14961e-005 -0.000106299 7.87402e-005 -0.000181102 9.05512e-005 -0.000338583 7.87402e-005 -0.000200787 2.75591e-005 -0.000122047 0.000110236 -0.000338583 7.48031e-005 -0.00030315 0 -1.5748e-005 4.72441e-005 -9.05512e-005 0.000137795 -0.000582677 3.14961e-005 -4.72441e-005 5.90551e-005 -0.000259843 9.05512e-005 -0.000334646 3.14961e-005 -0.000185039 4.33071e-005 -0.000153543 6.69291e-005 -0.000350394 5.90551e-005 -0.000244094 1.1811e-005 -9.44882e-005 0 -1.1811e-005 0.000110236 -0.000673228 0.000137795 -0.00065748 1.1811e-005 -0.000110236 3.14961e-005 -0.000244094 5.90551e-005 -0.000366142 1.9685e-005 -0.000169291 1.1811e-005 -0.000153543 7.87402e-005 -0.000641732 0 -4.72441e-005 7.87402e-005 -0.000685039 0 -6.29921e-005 0 -4.33071e-005 4.33071e-005 -0.000614173 1.5748e-005 -0.000185039 0 -0.000165354 1.5748e-005 -0.000366142 0 -0.00026378 0 -9.05512e-005 0 -0.000366142 0 -0.000322835c0,-0.0174213 -0.0140906,-0.0315118 -0.0314803,-0.0315118l0 0 -0.000503937 0 -0.000322835 0 -0.000185039 3.14961e-005 -0.000519685 0 -9.05512e-005 0 -0.000141732 0 -0.000669291 4.33071e-005 -7.48031e-005 0 -0.000688976 7.87402e-005 -7.87402e-005 1.5748e-005 -0.000551181 6.29921e-005 -0.000169291 2.75591e-005 -3.14961e-005 0 -0.000452756 4.72441e-005 -6.69291e-005 1.5748e-005 -0.000409449 5.90551e-005 -0.000472441 9.05512e-005 -0.000141732 0 -0.000350394 6.29921e-005 -0.000429134 7.87402e-005 -3.14961e-005 4.72441e-005 -0.000488189 7.48031e-005 -0.000259843 5.90551e-005 -0.000200787 5.90551e-005 -0.000488189 0.000125984 -6.29921e-005 0 -0.000393701 0.000122047 -0.000350394 9.05512e-005 -0.000110236 3.14961e-005 -0.000456693 0.000122047 -0.000169291 4.72441e-005 -0.000122047 3.14961e-005 -0.000629921 0.000212598 -0.00046063 0.000153543 -0.000271654 0.000122047 -0.000181102 4.33071e-005 -0.000429134 0.000185039 -0.000110236 3.14961e-005 -0.000334646 0.000122047 -0.000385827 0.000181102 -5.90551e-005 3.14961e-005 -0.000429134 0.000169291 -0.00019685 9.05512e-005 -0.000228346 0.000125984 -0.000429134 0.000165354 -3.14961e-005 4.72441e-005 -0.000409449 0.000181102 -0.000279528 0.000141732 -0.000122047 9.05512e-005 -0.000429134 0.000216535 -0.000137795 4.33071e-005 -0.000271654 0.000185039 -0.000370079 0.000212598 -4.33071e-005 0 -0.000417323 0.000244094 -0.000192913 0.000125984 -0.000200787 0.000149606 -0.000385827 0.000232283 -6.29921e-005 2.75591e-005 -0.000350394 0.000232283 -0.000291339 0.000181102 -7.08661e-005 5.90551e-005 -0.000401575 0.000259843 -0.00038189 0.000279528 -0.000397638 0.00030315 -0.000350394 0.000259843 -0.000370079 0.000279528 -0.000366142 0.000287402 -0.000275591 0.000244094 -9.05512e-005 5.90551e-005 -0.000307087 0.000279528 -4.33071e-005 4.33071e-005 -0.000354331 0.000307087c-0.000354331,0.000291339 -0.000685039,0.000629921 -0.00102362,0.000948819l0 0 -0.000232283 0.000244094 -0.000102362 0.000122047 -0.000307087 0.000307087 -0.000322835 0.000350394 -0.000307087 0.000338583 -1.1811e-005 0 -0.000338583 0.000350394 -0.000291339 0.000354331 -0.00030315 0.000366142 -0.000582677 0.000716535 -0.000287402 0.000385827 -0.000279528 0.000350394 -0.000271654 0.00038189 -0.000259843 0.000397638 -5.11811e-005 0c-0.00512205,0.00676378 -0.0106732,0.0131417 -0.0166575,0.0191378l0 0c-0.0332402,0.0332087 -0.0791772,0.0537992 -0.129933,0.0537992l0 0c-0.0507362,0 -0.0966929,-0.0205906 -0.129917,-0.0537992l0 0c-0.00674803,-0.00679134 -0.0129843,-0.0140472 -0.0186142,-0.0217992l0 0c-0.00053937,-0.000795276 -0.00110236,-0.0016063 -0.00172835,-0.00238976l0 0c-0.00498819,-0.00720079 -0.0152835,-0.0119764 -0.0247047,-0.0119764l0 0c-0.0174094,0 -0.0315157,0.0141063 -0.0315157,0.0314803zm0.301583 0.411949c0,0.0166181 0.0134449,0.0300945 0.0300591,0.0300945l0 0c0.0165945,0 0.0300591,-0.0134764 0.0300591,-0.0300945l0 0c0,-0.0166102 -0.0134646,-0.0300709 -0.0300591,-0.0300709l0 0c-0.0166142,0 -0.0300591,0.0134606 -0.0300591,0.0300709z"/>
   <path id="_186892864" class="fil2" d="M0.605185 0.978382c0.0166142,0 0.0300748,0.0134764 0.0300748,0.0300906 0,0.0166102 -0.0134606,0.0300866 -0.0300748,0.0300866 -0.0165945,0 -0.0300591,-0.0134764 -0.0300591,-0.0300866 0,-0.0166142 0.0134646,-0.0300906 0.0300591,-0.0300906z"/>
  </g>
 </g>
</svg>
