<?xml version="1.0" encoding="utf-8"?>
<!-- Generator: Adobe Illustrator 16.0.0, SVG Export Plug-In . SVG Version: 6.00 Build 0)  -->
<!DOCTYPE svg PUBLIC "-//W3C//DTD SVG 1.1//EN" "http://www.w3.org/Graphics/SVG/1.1/DTD/svg11.dtd">
<svg version="1.1" id="Layer_1" xmlns="http://www.w3.org/2000/svg" xmlns:xlink="http://www.w3.org/1999/xlink" x="0px" y="0px"
	 width="1245.977px" height="455.002px" viewBox="0 0 1245.977 455.002" enable-background="new 0 0 1245.977 455.002"
	 xml:space="preserve">
<g>
	<path fill="#232325" d="M78.063,124.579c0,10.754-8.725,19.479-19.479,19.479H19.624c-10.754,0-19.479-8.726-19.479-19.479V53.154
		c0-28.61,23.335-51.945,51.945-51.945h6.493c3.551,0,6.493,2.942,6.493,6.493v12.986c0,3.551-2.942,6.493-6.493,6.493H52.09
		c-14.305,0-25.973,11.667-25.973,25.973V56.4c0,5.378,4.363,9.74,9.74,9.74h22.726c10.754,0,19.479,8.726,19.479,19.479V124.579z
		 M168.967,124.579c0,10.754-8.725,19.479-19.479,19.479h-38.959c-10.754,0-19.479-8.726-19.479-19.479V53.154
		c0-28.61,23.335-51.945,51.945-51.945h6.493c3.551,0,6.493,2.942,6.493,6.493v12.986c0,3.551-2.942,6.493-6.493,6.493h-6.493
		c-14.305,0-25.973,11.667-25.973,25.973V56.4c0,5.378,4.363,9.74,9.74,9.74h22.726c10.754,0,19.479,8.726,19.479,19.479V124.579z"
		/>
</g>
<g>
	<path fill="#232325" d="M1167.049,331.063c0-10.754,8.725-19.479,19.479-19.479h38.959c10.755,0,19.479,8.726,19.479,19.479v71.425
		c0,28.61-23.335,51.945-51.945,51.945h-6.493c-3.551,0-6.493-2.942-6.493-6.493v-12.986c0-3.551,2.942-6.493,6.493-6.493h6.493
		c14.305,0,25.973-11.667,25.973-25.973v-3.246c0-5.378-4.363-9.74-9.74-9.74h-22.726c-10.755,0-19.479-8.726-19.479-19.479V331.063
		z M1076.145,331.063c0-10.754,8.725-19.479,19.479-19.479h38.959c10.755,0,19.479,8.726,19.479,19.479v71.425
		c0,28.61-23.335,51.945-51.945,51.945h-6.493c-3.551,0-6.493-2.942-6.493-6.493v-12.986c0-3.551,2.942-6.493,6.493-6.493h6.493
		c14.305,0,25.973-11.667,25.973-25.973v-3.246c0-5.378-4.363-9.74-9.74-9.74h-22.726c-10.755,0-19.479-8.726-19.479-19.479V331.063
		z"/>
</g>
<g>
	<path fill="#232325" d="M143.529,196.622v95.212h-29.968v-95.212H83.593v-26.715h89.904v26.715H143.529z"/>
	<path fill="#232325" d="M190.962,291.834V169.907h82.882v26.715H220.93V217h45.209v26.714H220.93v21.406h52.915v26.714H190.962z"/>
	<path fill="#232325" d="M376.932,254.436c0,6.176-1.257,11.666-3.767,16.469c-2.513,4.804-5.908,8.836-10.189,12.095
		c-4.281,3.259-9.276,5.718-14.984,7.377c-5.71,1.656-11.76,2.485-18.152,2.485c-9.362,0-17.868-1.113-25.516-3.339
		c-7.649-2.227-14.556-6.479-20.72-12.758l19.179-19.18c3.195,3.197,7.305,5.424,12.33,6.679c5.022,1.258,9.988,1.884,14.898,1.884
		c11.645,0,17.467-3.652,17.467-10.96c0-3.082-0.8-5.479-2.397-7.192c-1.712-1.712-4.396-2.796-8.048-3.254l-14.727-2.055
		c-10.847-1.598-19.008-5.193-24.488-10.788c-5.595-5.707-8.391-13.871-8.391-24.488c0-5.592,1.027-10.729,3.082-15.412
		c2.055-4.68,4.993-8.733,8.819-12.158c3.824-3.425,8.477-6.106,13.957-8.049c5.48-1.939,11.701-2.911,18.666-2.911
		c8.79,0,16.525,1.108,23.204,3.318c6.679,2.213,12.643,5.927,17.895,11.142l-18.837,18.762c-1.942-1.939-3.997-3.396-6.165-4.366
		c-2.17-0.969-4.281-1.684-6.336-2.141c-2.055-0.455-3.998-0.686-5.823-0.686c-1.827,0-3.425,0-4.794,0
		c-2.628,0-4.854,0.346-6.679,1.03c-1.828,0.685-3.339,1.57-4.538,2.657c-1.199,1.086-2.084,2.287-2.654,3.604
		c-0.573,1.317-0.856,2.66-0.856,4.03c0,0.803,0.171,1.718,0.514,2.745c0.342,1.03,0.968,2.001,1.884,2.916
		c0.797,0.803,1.854,1.547,3.168,2.232c1.311,0.685,3.053,1.142,5.223,1.369l14.727,2.061c10.729,1.488,18.722,4.859,23.975,10.12
		c3.31,3.205,5.651,7.036,7.021,11.494C376.247,243.629,376.932,248.718,376.932,254.436z"/>
	<path fill="#232325" d="M449.366,196.622v95.212h-29.968v-95.212h-29.968v-26.715h89.903v26.715H449.366z"/>
	<path fill="#232325" d="M496.8,291.834V169.907h29.968v121.927H496.8z"/>
	<path fill="#232325" d="M635.163,291.834v-58.395l-17.296,30.139h-19.18l-17.295-30.139v58.395h-29.968V169.907h29.454
		l27.398,53.771l27.399-53.771h29.454v121.927H635.163z"/>
	<path fill="#232325" d="M778.666,230.871c0,4.567-0.029,9.049-0.086,13.442c-0.059,4.396-0.458,8.647-1.198,12.758
		c-0.744,4.109-1.97,8.021-3.683,11.73c-1.712,3.711-4.168,7.165-7.363,10.36c-4.452,4.452-9.362,7.851-14.727,10.188
		c-5.368,2.342-11.816,3.511-19.351,3.511c-7.535,0-13.986-1.169-19.352-3.511c-5.367-2.338-10.274-5.736-14.727-10.188
		c-3.197-3.195-5.651-6.649-7.363-10.36c-1.713-3.709-2.94-7.621-3.682-11.73c-0.744-4.11-1.143-8.361-1.199-12.758
		c-0.059-4.394-0.086-8.875-0.086-13.442c0-4.565,0.027-9.047,0.086-13.443c0.057-4.394,0.455-8.647,1.199-12.758
		c0.741-4.109,1.969-8.019,3.682-11.729c1.712-3.709,4.166-7.163,7.363-10.36c4.452-4.453,9.359-7.849,14.727-10.189
		c5.365-2.339,11.816-3.511,19.352-3.511c7.534,0,13.982,1.172,19.351,3.511c5.364,2.341,10.274,5.736,14.727,10.189
		c3.195,3.197,5.651,6.651,7.363,10.36c1.713,3.711,2.938,7.62,3.683,11.729c0.74,4.11,1.14,8.364,1.198,12.758
		C778.637,221.824,778.666,226.306,778.666,230.871z M748.698,230.871c0-5.593-0.115-10.131-0.343-13.614
		c-0.23-3.481-0.514-6.277-0.856-8.391c-0.343-2.111-0.8-3.738-1.37-4.881c-0.572-1.14-1.198-2.167-1.884-3.082
		c-1.143-1.482-2.739-2.74-4.795-3.768c-2.055-1.027-4.452-1.541-7.191-1.541c-2.74,0-5.138,0.514-7.192,1.541
		c-2.056,1.027-3.655,2.285-4.795,3.768c-0.686,0.915-1.314,1.942-1.884,3.082c-0.573,1.143-1.027,2.77-1.37,4.881
		c-0.343,2.113-0.629,4.909-0.856,8.391c-0.229,3.483-0.343,8.021-0.343,13.614c0,5.595,0.113,10.104,0.343,13.528
		c0.228,3.425,0.514,6.194,0.856,8.305c0.343,2.114,0.797,3.741,1.37,4.881c0.569,1.143,1.198,2.17,1.884,3.082
		c1.14,1.485,2.739,2.77,4.795,3.854c2.055,1.086,4.452,1.627,7.192,1.627c2.739,0,5.137-0.541,7.191-1.627
		c2.056-1.084,3.652-2.368,4.795-3.854c0.686-0.912,1.312-1.939,1.884-3.082c0.57-1.14,1.027-2.767,1.37-4.881
		c0.343-2.11,0.626-4.88,0.856-8.305C748.583,240.975,748.698,236.466,748.698,230.871z"/>
	<path fill="#232325" d="M868.398,291.834l-39.044-61.306v61.306h-29.968V169.907h26.2l39.044,61.306v-61.306h29.968v121.927
		H868.398z"/>
	<path fill="#232325" d="M919.258,291.834V169.907h29.968v121.927H919.258z"/>
	<path fill="#232325" d="M1042.038,291.834l-5.651-18.152h-37.503l-5.993,18.152h-31.338l44.353-121.927h23.118l44.353,121.927
		H1042.038z M1018.234,216.144l-10.959,32.537h21.234L1018.234,216.144z"/>
	<path fill="#232325" d="M1085.705,291.834V169.907h29.968v95.213h51.202v26.714H1085.705z"/>
</g>
</svg>
