<?xml version="1.0" encoding="utf-8"?>
<!-- Generator: Adobe Illustrator 16.0.0, SVG Export Plug-In . SVG Version: 6.00 Build 0)  -->
<!DOCTYPE svg PUBLIC "-//W3C//DTD SVG 1.1//EN" "http://www.w3.org/Graphics/SVG/1.1/DTD/svg11.dtd">
<svg version="1.1" id="Layer_1" xmlns="http://www.w3.org/2000/svg" xmlns:xlink="http://www.w3.org/1999/xlink" x="0px" y="0px"
	 width="352.291px" height="80.633px" viewBox="0 0 352.291 80.633" enable-background="new 0 0 352.291 80.633"
	 xml:space="preserve">
<g>
	<g>
		<path fill="#232325" d="M41.744,79.743H27.391L1.443,1.131h19.984l13.25,43.944L47.706,1.131h20.096L41.744,79.743z"/>
		<path fill="#232325" d="M75.751,79.743V1.131h19.321v78.612H75.751z"/>
		<path fill="#232325" d="M163.748,55.632c0,3.982-0.811,7.521-2.429,10.619c-1.62,3.096-3.81,5.695-6.569,7.797
			c-2.761,2.102-5.981,3.686-9.661,4.756c-3.682,1.066-7.582,1.602-11.704,1.602c-6.036,0-11.521-0.717-16.451-2.152
			c-4.933-1.436-9.385-4.176-13.36-8.225l12.366-12.365c2.061,2.061,4.71,3.496,7.95,4.306c3.238,0.811,6.44,1.214,9.605,1.214
			c7.509,0,11.263-2.354,11.263-7.066c0-1.986-0.517-3.533-1.546-4.637c-1.104-1.104-2.835-1.803-5.189-2.098l-9.496-1.325
			c-6.993-1.03-12.255-3.349-15.788-6.956c-3.607-3.68-5.411-8.943-5.411-15.789c0-3.605,0.663-6.918,1.988-9.937
			c1.324-3.018,3.219-5.631,5.686-7.84c2.466-2.208,5.466-3.938,8.999-5.189c3.533-1.25,7.544-1.877,12.035-1.877
			c5.667,0,10.654,0.715,14.961,2.139c4.306,1.428,8.151,3.822,11.538,7.185l-12.146,12.097c-1.253-1.25-2.577-2.189-3.975-2.815
			c-1.399-0.624-2.761-1.085-4.086-1.38c-1.324-0.293-2.577-0.441-3.754-0.441c-1.178,0-2.208,0-3.092,0
			c-1.693,0-3.129,0.223-4.306,0.664c-1.179,0.441-2.153,1.013-2.926,1.713c-0.773,0.7-1.344,1.475-1.712,2.324
			c-0.369,0.849-0.552,1.715-0.552,2.598c0,0.518,0.11,1.108,0.331,1.771c0.221,0.664,0.625,1.29,1.215,1.88
			c0.514,0.518,1.195,0.997,2.043,1.438c0.845,0.442,1.968,0.737,3.367,0.884l9.495,1.329c6.918,0.959,12.071,3.133,15.458,6.523
			c2.134,2.067,3.644,4.538,4.527,7.412C163.307,48.664,163.748,51.945,163.748,55.632z"/>
		<path fill="#232325" d="M176.444,79.743V1.131h19.321v78.612H176.444z"/>
		<path fill="#232325" d="M268.968,40.438c0,2.945-0.019,5.834-0.056,8.667c-0.037,2.835-0.295,5.576-0.772,8.226
			c-0.479,2.65-1.27,5.172-2.374,7.563c-1.104,2.394-2.688,4.62-4.748,6.681c-2.87,2.869-6.036,5.059-9.495,6.566
			c-3.461,1.51-7.618,2.264-12.477,2.264s-9.018-0.754-12.477-2.264c-3.461-1.508-6.625-3.697-9.495-6.566
			c-2.063-2.061-3.644-4.287-4.748-6.681c-1.104-2.392-1.896-4.913-2.374-7.563c-0.479-2.649-0.736-5.391-0.772-8.226
			c-0.038-2.833-0.056-5.722-0.056-8.667c0-2.943,0.018-5.833,0.056-8.668c0.036-2.832,0.293-5.576,0.772-8.226
			c0.478-2.65,1.27-5.17,2.374-7.563c1.104-2.392,2.686-4.619,4.748-6.681c2.87-2.87,6.034-5.06,9.495-6.569
			c3.459-1.508,7.618-2.264,12.477-2.264s9.016,0.756,12.477,2.264c3.459,1.51,6.625,3.699,9.495,6.569
			c2.061,2.062,3.645,4.289,4.748,6.681c1.104,2.393,1.895,4.912,2.374,7.563c0.478,2.649,0.735,5.394,0.772,8.226
			C268.949,34.605,268.968,37.495,268.968,40.438z M249.646,40.438c0-3.605-0.074-6.531-0.221-8.777
			c-0.148-2.245-0.331-4.048-0.552-5.411c-0.222-1.361-0.517-2.41-0.884-3.146c-0.369-0.734-0.772-1.397-1.215-1.987
			c-0.736-0.956-1.767-1.767-3.091-2.429c-1.325-0.663-2.871-0.994-4.638-0.994s-3.313,0.331-4.638,0.994
			c-1.324,0.662-2.356,1.473-3.091,2.429c-0.442,0.59-0.848,1.253-1.215,1.987c-0.369,0.736-0.662,1.785-0.884,3.146
			c-0.221,1.363-0.405,3.166-0.552,5.411c-0.148,2.246-0.221,5.172-0.221,8.777c0,3.607,0.072,6.514,0.221,8.723
			c0.146,2.208,0.331,3.994,0.552,5.354c0.222,1.363,0.515,2.412,0.884,3.147c0.367,0.736,0.772,1.398,1.215,1.986
			c0.734,0.958,1.767,1.786,3.091,2.484c1.325,0.701,2.871,1.049,4.638,1.049s3.313-0.348,4.638-1.049
			c1.324-0.698,2.354-1.526,3.091-2.484c0.442-0.588,0.846-1.25,1.215-1.986c0.367-0.735,0.662-1.784,0.884-3.147
			c0.221-1.36,0.403-3.146,0.552-5.354C249.571,46.952,249.646,44.046,249.646,40.438z"/>
		<path fill="#232325" d="M326.824,79.743l-25.175-39.525v39.525h-19.321V1.131h16.893l25.174,39.528V1.131h19.322v78.612H326.824z"
			/>
	</g>
</g>
</svg>
