<?xml version="1.0" encoding="UTF-8"?>
<!DOCTYPE svg PUBLIC "-//W3C//DTD SVG 1.1//EN" "http://www.w3.org/Graphics/SVG/1.1/DTD/svg11.dtd">
<!-- Creator: CorelDRAW -->
<svg xmlns="http://www.w3.org/2000/svg" xml:space="preserve" width="5.5in" height="4.5in" style="shape-rendering:geometricPrecision; text-rendering:geometricPrecision; image-rendering:optimizeQuality; fill-rule:evenodd; clip-rule:evenodd"
viewBox="0 0 5.5 4.5"
 xmlns:xlink="http://www.w3.org/1999/xlink">
 <defs>
  <style type="text/css">
   <![CDATA[
    .str0 {stroke:#089146;stroke-width:0.003}
    .fil0 {fill:none;fill-rule:nonzero}
    .fil1 {fill:black;fill-rule:nonzero}
   ]]>
  </style>
 </defs>
 <g id="Layer_x0020_1">
  <metadata id="CorelCorpID_0Corel-Layer"/>
  <g id="_189741792">
   <path id="_189744864" class="fil0 str0" d="M1.63988 1.97522l-0.129098 0 -0.103819 -0.316874 -0.103823 0.316874 -0.128193 0 -0.176945 -0.64278 0.165209 0 0.0839567 0.339445 0.103823 -0.339445 0.111945 0 0.103819 0.339445 0.0839567 -0.339445 0.165209 0 -0.176039 0.64278zm0.204205 0l0 -0.64278 0.436945 0 0 0.140835 -0.278957 0 0 0.107429 0.238331 0 0 0.140835 -0.238331 0 0 0.112846 0.278957 0 0 0.140835 -0.436945 0zm1.07178 0l-0.0297913 -0.0956929 -0.197709 0 -0.0315984 0.0956929 -0.165209 0 0.233819 -0.64278 0.121878 0 0.233819 0.64278 -0.165209 0zm-0.125488 -0.399028l-0.0577756 0.171528 0.111945 0 -0.0541693 -0.171528zm0.643862 0.399028l-0.113748 -0.239236 -0.0532638 0 0 0.239236 -0.157988 0 0 -0.64278 0.254583 0c0.0355118,0 0.0669567,0.00587008 0.0943425,0.0176063 0.0273819,0.0117362 0.0504055,0.0272323 0.069063,0.0464921 0.0186575,0.0192598 0.0326496,0.0412244 0.0419764,0.0659016 0.00933071,0.0246772 0.0139961,0.0502559 0.0139961,0.0767362 0,0.0216693 -0.00301181,0.0415276 -0.00902756,0.0595827 -0.00601969,0.0180591 -0.0139961,0.0340079 -0.0239252,0.0478504 -0.00992913,0.0138425 -0.0212165,0.0257283 -0.0338543,0.0356575 -0.0126378,0.00993307 -0.0252795,0.0182087 -0.0379173,0.0248268l0.139028 0.268126 -0.183264 0zm-0.00902756 -0.436043c0,-0.0168504 -0.00601969,-0.0318976 -0.0180551,-0.0451378 -0.0120354,-0.0132402 -0.0288898,-0.0198622 -0.0505551,-0.0198622l-0.089374 0 0 0.13 0.089374 0c0.0216654,0 0.0385197,-0.00661811 0.0505551,-0.0198583 0.0120354,-0.0132441 0.0180551,-0.0282874 0.0180551,-0.0451417zm0.235807 0.436043l0 -0.64278 0.436945 0 0 0.140835 -0.278957 0 0 0.107429 0.238331 0 0 0.140835 -0.238331 0 0 0.112846 0.278957 0 0 0.140835 -0.436945 0zm-2.31996 0.320228l0 0.501945 -0.157984 0 0 -0.501945 -0.157988 0 0 -0.140835 0.473961 0 0 0.140835 -0.157988 0zm0.596016 0.436043c-0.0108346,0.0108307 -0.0222677,0.0206102 -0.0343071,0.0293386 -0.0120354,0.00872835 -0.025126,0.016252 -0.0392717,0.0225709 -0.0141417,0.0063189 -0.0297913,0.0111339 -0.0469409,0.0144449 -0.0171535,0.00330709 -0.0362638,0.00496457 -0.0573268,0.00496457 -0.0379173,0 -0.0713228,-0.00616929 -0.100209,-0.0185079 -0.0288898,-0.0123386 -0.0550709,-0.0302441 -0.0785433,-0.0537165 -0.0168504,-0.0168504 -0.0297913,-0.0350551 -0.0388189,-0.0546181 -0.00902756,-0.0195591 -0.0155,-0.0401732 -0.0194094,-0.0618386 -0.00391339,-0.0216654 -0.00601969,-0.0440866 -0.0063189,-0.0672559 -0.00030315,-0.0231732 -0.000452756,-0.0467953 -0.000452756,-0.0708701 0,-0.0240748 0.000149606,-0.0476969 0.000452756,-0.0708661 0.000299213,-0.0231732 0.00240551,-0.0455906 0.0063189,-0.0672598 0.00390945,-0.0216654 0.0103819,-0.0422795 0.0194094,-0.0618386 0.00902756,-0.019563 0.0219685,-0.0377677 0.0388189,-0.0546181 0.0234724,-0.0234724 0.0496535,-0.041378 0.0785433,-0.0537165 0.0288858,-0.0123386 0.0622913,-0.0185079 0.100209,-0.0185079 0.021063,0 0.0401732,0.00165748 0.0573268,0.00496457 0.0171496,0.00331102 0.0327992,0.00812598 0.0469409,0.0144449 0.0141457,0.00632283 0.0272362,0.0138425 0.0392717,0.0225709 0.0120394,0.00872835 0.0234724,0.0185079 0.0343071,0.0293386l-0.104724 0.104724c-0.0102283,-0.0102323 -0.0204606,-0.0186575 -0.0306929,-0.0252795 -0.0102323,-0.00661811 -0.024374,-0.00992913 -0.0424291,-0.00992913 -0.0144449,0 -0.0267835,0.00255906 -0.0370157,0.00767323 -0.0102323,0.00511811 -0.0183543,0.0115866 -0.024374,0.0194094 -0.00361024,0.00481496 -0.00692126,0.0102323 -0.00993307,0.016252 -0.00300787,0.00601575 -0.00556693,0.0147441 -0.00767323,0.0261811 -0.0021063,0.0114331 -0.00375984,0.0263307 -0.00496457,0.044685 -0.00120472,0.0183583 -0.00180315,0.0422795 -0.00180315,0.0717717 0,0.0294921 0.000598425,0.0534134 0.00180315,0.0717717 0.00120472,0.0183543 0.00285827,0.033252 0.00496457,0.044689 0.0021063,0.0114331 0.00466535,0.0201614 0.00767323,0.0261772 0.00301181,0.00601969 0.00632283,0.011437 0.00993307,0.016252 0.00601969,0.00782283 0.0141417,0.0142953 0.024374,0.0194094 0.0102323,0.00511417 0.0225709,0.00767323 0.0370157,0.00767323 0.0180551,0 0.0321969,-0.00331102 0.0424291,-0.00992913 0.0102323,-0.00662205 0.0204646,-0.0150472 0.0306929,-0.0252795l0.104724 0.104724zm0.488583 -0.255488c0,0.0240748 -0.000149606,0.0476969 -0.000452756,0.0708701 -0.000299213,0.0231693 -0.00240551,0.0455906 -0.0063189,0.0672559 -0.00391339,0.0216654 -0.0103819,0.0422795 -0.0194094,0.0618386 -0.00902756,0.019563 -0.0219685,0.0377677 -0.0388189,0.0546181 -0.0234724,0.0234724 -0.0493543,0.041378 -0.0776417,0.0537165 -0.0282835,0.0123386 -0.0622913,0.0185079 -0.102012,0.0185079 -0.0397244,0 -0.0737283,-0.00616929 -0.102016,-0.0185079 -0.0282874,-0.0123386 -0.0541654,-0.0302441 -0.0776378,-0.0537165 -0.0168504,-0.0168504 -0.0297913,-0.0350551 -0.0388189,-0.0546181 -0.00902756,-0.0195591 -0.0155,-0.0401732 -0.0194094,-0.0618386 -0.00391339,-0.0216654 -0.00601969,-0.0440866 -0.0063189,-0.0672559 -0.00030315,-0.0231732 -0.000452756,-0.0467953 -0.000452756,-0.0708701 0,-0.0240748 0.000149606,-0.0476969 0.000452756,-0.0708661 0.000299213,-0.0231732 0.00240551,-0.0455906 0.0063189,-0.0672598 0.00390945,-0.0216654 0.0103819,-0.0422795 0.0194094,-0.0618386 0.00902756,-0.019563 0.0219685,-0.0377677 0.0388189,-0.0546181 0.0234724,-0.0234724 0.0493504,-0.041378 0.0776378,-0.0537165 0.0282874,-0.0123386 0.0622913,-0.0185079 0.102016,-0.0185079 0.0397205,0 0.0737283,0.00616929 0.102012,0.0185079 0.0282874,0.0123386 0.0541693,0.0302441 0.0776417,0.0537165 0.0168504,0.0168504 0.0297913,0.0350551 0.0388189,0.0546181 0.00902756,0.0195591 0.0154961,0.0401732 0.0194094,0.0618386 0.00391339,0.0216693 0.00601969,0.0440866 0.0063189,0.0672598 0.00030315,0.0231693 0.000452756,0.0467913 0.000452756,0.0708661zm-0.157988 0c0,-0.0294921 -0.000602362,-0.0534134 -0.00180315,-0.0717717 -0.00120472,-0.0183543 -0.00270866,-0.0331024 -0.00451575,-0.0442362 -0.00180315,-0.0111339 -0.0042126,-0.0197087 -0.00722047,-0.0257283 -0.00301181,-0.00601969 -0.0063189,-0.011437 -0.00993307,-0.016248 -0.00601575,-0.00782677 -0.0144449,-0.0144449 -0.0252756,-0.0198622 -0.0108346,-0.00541732 -0.0234724,-0.00812598 -0.0379173,-0.00812598 -0.0144449,0 -0.0270827,0.00270866 -0.0379173,0.00812598 -0.0108346,0.00541732 -0.0192598,0.0120354 -0.0252795,0.0198622 -0.00361024,0.00481102 -0.00692126,0.0102283 -0.00992913,0.016248 -0.00300787,0.00601969 -0.00541732,0.0145945 -0.00722047,0.0257283 -0.00180709,0.0111339 -0.00331102,0.0258819 -0.00451575,0.0442362 -0.00120472,0.0183583 -0.00180315,0.0422795 -0.00180315,0.0717717 0,0.0294921 0.000598425,0.0532638 0.00180315,0.0713189 0.00120472,0.0180551 0.00270866,0.0326496 0.00451575,0.0437874 0.00180315,0.0111339 0.0042126,0.0197087 0.00722047,0.0257283 0.00300787,0.00601969 0.0063189,0.0114331 0.00992913,0.016248 0.00601969,0.00782677 0.0144449,0.0145945 0.0252795,0.020315 0.0108346,0.00571654 0.0234724,0.0085748 0.0379173,0.0085748 0.0144449,0 0.0270827,-0.00285827 0.0379173,-0.0085748 0.0108307,-0.00572047 0.0192598,-0.0124882 0.0252756,-0.020315 0.00361417,-0.00481496 0.00692126,-0.0102283 0.00993307,-0.016248 0.00300787,-0.00601969 0.00541732,-0.0145945 0.00722047,-0.0257283 0.00180709,-0.0111378 0.00331102,-0.0257323 0.00451575,-0.0437874 0.00120079,-0.0180551 0.00180315,-0.0418268 0.00180315,-0.0713189zm0.388378 -0.180555l0 0.112846 0.238331 0 0 0.140835 -0.238331 0 0 0.248264 -0.157988 0 0 -0.64278 0.436945 0 0 0.140835 -0.278957 0zm0.50122 0l0 0.112846 0.238331 0 0 0.140835 -0.238331 0 0 0.248264 -0.157988 0 0 -0.64278 0.436945 0 0 0.140835 -0.278957 0zm0.343232 0.501945l0 -0.64278 0.436945 0 0 0.140835 -0.278957 0 0 0.107429 0.238331 0 0 0.140835 -0.238331 0 0 0.112846 0.278957 0 0 0.140835 -0.436945 0zm0.512055 0l0 -0.64278 0.436945 0 0 0.140835 -0.278957 0 0 0.107429 0.238331 0 0 0.140835 -0.238331 0 0 0.112846 0.278957 0 0 0.140835 -0.436945 0z"/>
   <path id="_189743280" class="fil1" d="M1.3034 3.09189c0,-0.0124134 -0.00253937,-0.0224764 -0.00761811,-0.030185 -0.00507874,-0.0077126 -0.0119409,-0.0134488 -0.0205945,-0.0172087 0.00790157,-0.00375984 0.0140591,-0.00916929 0.0184803,-0.0162205 0.00441732,-0.00705118 0.00662598,-0.015937 0.00662598,-0.0266575 0,-0.00827559 -0.00145669,-0.0158425 -0.00437008,-0.0227087 -0.00291732,-0.00686614 -0.00696063,-0.0127874 -0.0121299,-0.0177717 -0.00517323,-0.00498425 -0.0113307,-0.00883858 -0.0184764,-0.0115669 -0.00714961,-0.00272441 -0.0149528,-0.00409055 -0.0234134,-0.00409055 -0.00809055,0 -0.0156102,0.00127165 -0.0225709,0.00381102 -0.00695669,0.00253543 -0.0130709,0.00615748 -0.0183346,0.0108583 -0.00526772,0.00470079 -0.00949606,0.010437 -0.0126929,0.0172087 -0.00319685,0.00677165 -0.00498425,0.0143858 -0.0053622,0.0228504l0.0287756 0c0.000751969,-0.00902756 0.00375984,-0.0160787 0.00902756,-0.0211575 0.00526378,-0.00507874 0.012315,-0.00761811 0.0211575,-0.00761811 0.00827165,0 0.0152795,0.00263386 0.0210157,0.00789764 0.00573622,0.00526772 0.00860236,0.0129764 0.00860236,0.0231339 0,0.00921654 -0.00244488,0.0165945 -0.00733465,0.0221457 -0.00488976,0.00554724 -0.0125984,0.0083189 -0.0231299,0.0083189l-0.00479921 0 0 0.0251063 0.00479921 0c0.0112835,0 0.0196969,0.00296457 0.0252441,0.00888583 0.00555118,0.0059252 0.00832283,0.0139646 0.00832283,0.024122 0,0.0107165 -0.00310236,0.0189449 -0.00930709,0.0246811 -0.00620866,0.00573622 -0.0140118,0.0086063 -0.0234134,0.0086063 -0.0041378,0 -0.00813386,-0.000566929 -0.0119921,-0.00169291 -0.00385433,-0.00112992 -0.00724016,-0.00296457 -0.0101535,-0.00550394 -0.00291732,-0.00253543 -0.0053622,-0.00568898 -0.00733465,-0.00944882 -0.00197638,-0.00375984 -0.00305512,-0.00837008 -0.00324409,-0.0138228l-0.0287756 0c0.000188976,0.00977953 0.00202362,0.0182441 0.00550394,0.0253898 0.00347638,0.00714567 0.00803937,0.0130236 0.0136811,0.0176299 0.00564173,0.0046063 0.0120827,0.00799213 0.0193228,0.0101575 0.00724016,0.00216142 0.0149016,0.00324409 0.0229921,0.00324409 0.00846063,0 0.0164055,-0.00122441 0.0238346,-0.00366929 0.00742913,-0.00244488 0.0139173,-0.00611024 0.0194646,-0.011 0.00554724,-0.00488976 0.0099685,-0.0110039 0.0132598,-0.0183386 0.00329134,-0.00733465 0.00493701,-0.0157953 0.00493701,-0.0253858zm0.137634 -0.0031063c0,-0.00883858 -0.0013622,-0.0168307 -0.00409055,-0.0239764 -0.00272835,-0.00714567 -0.00648819,-0.0132598 -0.0112835,-0.0183346 -0.00479528,-0.00507874 -0.0103898,-0.00898031 -0.0167835,-0.0117087 -0.0063937,-0.00272835 -0.0132598,-0.00409055 -0.0205945,-0.00409055 -0.00319685,0 -0.00629921,0.00023622 -0.00930709,0.000704724 -0.00301181,0.000472441 -0.00583071,0.00127165 -0.00846457,0.00239764l0.0431614 -0.0863189 -0.030748 0 -0.0457008 0.0930906c-0.00432677,0.00883858 -0.00789764,0.0172087 -0.0107205,0.0251063 -0.0028189,0.00789764 -0.00422835,0.0159843 -0.00422835,0.0242598 0,0.00940157 0.00145669,0.0177717 0.00437008,0.0251063 0.00291732,0.00733465 0.00700394,0.0136339 0.0122717,0.0189016 0.00526378,0.00526378 0.0115669,0.00925984 0.0189016,0.0119882 0.00733465,0.00272835 0.0153268,0.00409055 0.0239764,0.00409055 0.00864961,0 0.0165984,-0.00145669 0.0238386,-0.00437402 0.00724016,-0.00291339 0.0134921,-0.00705118 0.0187598,-0.0124094 0.00526378,-0.0053622 0.00935433,-0.0118031 0.0122677,-0.0193268 0.00291732,-0.00751969 0.00437402,-0.0158898 0.00437402,-0.0251063zm-0.0287717 0.000566929c0,0.0107205 -0.00287008,0.0192283 -0.0086063,0.0255276 -0.00573622,0.00629921 -0.0131181,0.00945276 -0.0221457,0.00945276 -0.00902362,0 -0.0163583,-0.00315354 -0.022,-0.00945276 -0.00564173,-0.00629921 -0.00846457,-0.0148071 -0.00846457,-0.0255276 0,-0.0109094 0.00282283,-0.0194173 0.00846457,-0.0255315 0.00564173,-0.00611024 0.0129764,-0.00916535 0.022,-0.00916535 0.00959449,0 0.0171142,0.0032874 0.0225709,0.00987008 0.00545276,0.00658268 0.0081811,0.0148583 0.0081811,0.0248268zm0.16528 0.00310236l0 -0.0891417c0,-0.00902756 -0.00155118,-0.0170669 -0.00465748,-0.0241181 -0.00310236,-0.00705512 -0.0072874,-0.0130709 -0.0125512,-0.0180551 -0.00526772,-0.00498425 -0.0114252,-0.00879134 -0.0184764,-0.0114252 -0.00705512,-0.00263386 -0.0145276,-0.00394882 -0.0224291,-0.00394882 -0.00789764,0 -0.015374,0.00131496 -0.0224252,0.00394882 -0.00705118,0.00263386 -0.0132126,0.00644094 -0.0184764,0.0114252 -0.00526772,0.00498425 -0.00940551,0.011 -0.0124134,0.0180551 -0.00300787,0.00705118 -0.00451181,0.0150906 -0.00451181,0.0241181l0 0.0891417c0,0.00902756 0.00150394,0.0170669 0.00451181,0.0241181 0.00300787,0.00705118 0.00714567,0.0130709 0.0124134,0.0180551 0.00526378,0.00498425 0.0114252,0.00879134 0.0184764,0.0114252 0.00705118,0.00263386 0.0145276,0.00394882 0.0224252,0.00394882 0.00790157,0 0.015374,-0.00131496 0.0224291,-0.00394882 0.00705118,-0.00263386 0.0132087,-0.00644094 0.0184764,-0.0114252 0.00526378,-0.00498425 0.00944882,-0.0110039 0.0125512,-0.0180551 0.0031063,-0.00705118 0.00465748,-0.0150906 0.00465748,-0.0241181zm-0.0287756 -0.000846457c0,0.00977953 -0.00258661,0.0176772 -0.00775591,0.0236969 -0.00517323,0.00601575 -0.0123661,0.00902756 -0.0215827,0.00902756 -0.0092126,0 -0.0163583,-0.00301181 -0.021437,-0.00902756 -0.00507874,-0.00601969 -0.00761811,-0.0139173 -0.00761811,-0.0236969l0 -0.0874488c0,-0.00977953 0.00253937,-0.0176772 0.00761811,-0.0236969 0.00507874,-0.00601969 0.0122244,-0.00902756 0.021437,-0.00902756 0.00921654,0 0.0164094,0.00300787 0.0215827,0.00902756 0.00516929,0.00601969 0.00775591,0.0139173 0.00775591,0.0236969l0 0.0874488zm0.149201 -0.0981693c0,-0.00677165 -0.00131496,-0.0131654 -0.00394882,-0.0191811 -0.00263386,-0.00601969 -0.00615748,-0.0112362 -0.0105787,-0.0156575 -0.00441732,-0.00442126 -0.0096378,-0.00794488 -0.0156535,-0.0105787 -0.00601969,-0.00263386 -0.0124134,-0.00394882 -0.019185,-0.00394882 -0.00676772,0 -0.0131181,0.00131496 -0.0190394,0.00394882 -0.0059252,0.00263386 -0.0111457,0.00615748 -0.0156575,0.0105787 -0.00451181,0.00442126 -0.00803937,0.0096378 -0.0105787,0.0156575 -0.00253937,0.00601575 -0.00380709,0.0124094 -0.00380709,0.0191811 0,0.00677165 0.00126772,0.0131181 0.00380709,0.0190433 0.00253937,0.00592126 0.00606693,0.0111417 0.0105787,0.0156535 0.00451181,0.00451575 0.00973228,0.00803937 0.0156575,0.0105787 0.00592126,0.00253937 0.0122717,0.00380709 0.0190394,0.00380709 0.00677165,0 0.0131654,-0.00126772 0.019185,-0.00380709 0.00601575,-0.00253937 0.0112362,-0.00606299 0.0156535,-0.0105787 0.00442126,-0.00451181 0.00794488,-0.00973228 0.0105787,-0.0156535 0.00263386,-0.0059252 0.00394882,-0.0122717 0.00394882,-0.0190433zm-0.0236929 0c0,0.00733465 -0.00249213,0.0134921 -0.00747638,0.0184764 -0.00498425,0.00498425 -0.0110512,0.00747638 -0.0181969,0.00747638 -0.00714567,0 -0.0131654,-0.00249213 -0.0180551,-0.00747638 -0.00488583,-0.00498425 -0.00733071,-0.0111417 -0.00733071,-0.0184764 0,-0.00733465 0.00244488,-0.0135394 0.00733071,-0.0186181 0.00488976,-0.00507874 0.0109094,-0.00761811 0.0180551,-0.00761811 0.0035748,0 0.00691339,0.000661417 0.0100157,0.00197638 0.00310236,0.00131496 0.00583071,0.00319685 0.0081811,0.00564173 0.00235039,0.00244488 0.00418504,0.00526772 0.0055,0.00846457 0.00131496,0.00319685 0.00197638,0.00657874 0.00197638,0.0101535zm0.299551 0.15487l0 -0.20085 -0.0304646 0 -0.0575472 0.124969 -0.0586772 -0.124969 -0.0304646 0 0 0.20085 0.0304646 0 0 -0.134276 0.0473937 0.0978858 0.0225669 0 0.0462638 -0.0978858 0 0.134276 0.0304646 0zm0.141583 0l0 -0.0956299c0,-0.0327244 -0.0196535,-0.0490827 -0.0589567,-0.0490827 -0.0118504,0 -0.0216772,0.00145669 -0.0294803,0.00437008 -0.00780315,0.00291732 -0.0150906,0.00832283 -0.0218622,0.0162205l0.0189016 0.0177717c0.00394882,-0.00507874 0.0081811,-0.00864961 0.0126929,-0.0107205 0.00451575,-0.00206693 0.0107205,-0.00310236 0.0186181,-0.00310236 0.0112835,0 0.0193228,0.0022126 0.0241181,0.00662992 0.00479528,0.00442126 0.00719685,0.0111417 0.00719685,0.0201693l0 0.0101575 -0.0378031 0c-0.0165472,0 -0.0289134,0.00385433 -0.0370945,0.011563 -0.0081811,0.0077126 -0.0122717,0.0175866 -0.0122717,0.029622 0,0.0125984 0.00375984,0.0228504 0.0112835,0.030748 0.00432677,0.00432677 0.00954331,0.00757087 0.0156575,0.00973228 0.00611024,0.00216142 0.0136811,0.00324409 0.0227087,0.00324409 0.00883858,0 0.0160787,-0.00112992 0.0217205,-0.00338583 0.00564173,-0.00225591 0.0110945,-0.00601575 0.0163622,-0.0112835l0 0.0129764 0.0282087 0zm-0.0287717 -0.051622c0,0.00996457 -0.00207087,0.0170197 -0.00620866,0.0211575 -0.00375984,0.00375984 -0.00780315,0.00606299 -0.0121299,0.00690945 -0.00432677,0.000846457 -0.00921654,0.00126772 -0.0146693,0.00126772 -0.00902756,0 -0.0156535,-0.00173622 -0.0198858,-0.00521654 -0.00423228,-0.00348031 -0.00634646,-0.00851181 -0.00634646,-0.0150906 0,-0.00658268 0.00216142,-0.0116614 0.00648819,-0.0152362 0.00432283,-0.00357087 0.0107165,-0.00535827 0.0191811,-0.00535827l0.0335709 0 0 0.0115669zm0.161047 -0.0795512c-0.00488976,-0.00488976 -0.010063,-0.00837008 -0.0155157,-0.010437 -0.00545276,-0.00207087 -0.0116614,-0.00310236 -0.0186181,-0.00310236 -0.00808661,0 -0.0155157,0.00159843 -0.0222835,0.00479528 -0.00677165,0.00319685 -0.0120394,0.00733465 -0.0157992,0.0124094l0 -0.0155157 -0.0282087 0 0 0.143024 0.0287717 0 0 -0.0868858c0,-0.0099685 0.00277559,-0.0178189 0.00832283,-0.0235551 0.00554724,-0.00573622 0.0122717,-0.00860236 0.0201693,-0.00860236 0.00488976,0 0.00888583,0.000799213 0.0119882,0.00239764 0.0031063,0.00159843 0.00625591,0.00399606 0.00945276,0.00719291l0.0217205 -0.0217205zm0.136504 0.131173l-0.0558543 -0.0868858 0.0496496 -0.0561378 -0.0349803 0 -0.0555748 0.0660118 0 -0.123839 -0.0287717 0 0 0.20085 0.0287717 0 0 -0.0420315 0.0211575 -0.0239803 0.0400591 0.0660118 0.0355433 0zm0.126913 -0.063189l0 -0.0126929c0,-0.0101575 -0.0013622,-0.0194646 -0.00409055,-0.0279291 -0.00272441,-0.00846063 -0.00667323,-0.0157047 -0.0118465,-0.0217205 -0.00517323,-0.00601969 -0.0115197,-0.0107205 -0.0190433,-0.0141063 -0.00751969,-0.00338583 -0.0160787,-0.0050748 -0.0256693,-0.0050748 -0.0184291,0 -0.0331457,0.00634646 -0.0441457,0.0190394 -0.0110039,0.0126929 -0.0165039,0.0307008 -0.0165039,0.0540197 0,0.0135433 0.00169291,0.0250157 0.00507874,0.0344173 0.00338189,0.00940157 0.00794488,0.0169724 0.0136811,0.0227087 0.00573622,0.00573622 0.0125039,0.00987402 0.020311,0.0124134 0.00780315,0.00253543 0.0162205,0.00380709 0.025248,0.00380709 0.00620472,0 0.0117992,-0.000472441 0.0167835,-0.00140945 0.00498425,-0.000940945 0.00959055,-0.00235039 0.0138228,-0.00423228 0.00423228,-0.00188189 0.0081811,-0.00418504 0.0118465,-0.00691339 0.00366929,-0.00272441 0.00738189,-0.0059685 0.0111417,-0.00973228l-0.0183346 -0.0172047c-0.00507874,0.0050748 -0.0101102,0.00879134 -0.0150906,0.0111417 -0.00498425,0.00235039 -0.0115197,0.00352756 -0.0196063,0.00352756 -0.0118504,0 -0.020874,-0.0035748 -0.0270827,-0.0107205 -0.00620472,-0.00714567 -0.00930709,-0.0169252 -0.00930709,-0.0293386l0.0928071 0zm-0.0284921 -0.0200276l-0.064315 0c0.000185039,-0.00432677 0.000468504,-0.00785433 0.000846457,-0.0105787 0.000374016,-0.00272835 0.00131496,-0.00568898 0.0028189,-0.00888583 0.00225591,-0.00545669 0.00587795,-0.00982677 0.0108622,-0.0131181 0.00498425,-0.00329134 0.0108583,-0.00493701 0.0176299,-0.00493701 0.00677165,0 0.0125984,0.00164567 0.0174882,0.00493701 0.00488976,0.00329134 0.00846457,0.00766142 0.0107205,0.0131181 0.00150394,0.00319685 0.00249213,0.00615748 0.00296457,0.00888583 0.000468504,0.00272441 0.000799213,0.00625197 0.000984252,0.0105787zm0.113937 0.0832165l0 -0.0245433 -0.0118465 0c-0.00545669,0 -0.00945276,-0.00145669 -0.0119921,-0.00437008 -0.00253543,-0.00291732 -0.00380709,-0.00700787 -0.00380709,-0.0122717l0 -0.0772953 0.0276457 0 0 -0.0220039 -0.0276457 0 0 -0.0434409 -0.0287717 0 0 0.0434409 -0.0163622 0 0 0.0220039 0.0163622 0 0 0.0787047c0,0.00507874 0.000799213,0.0100157 0.00239764,0.014811 0.00159843,0.00479528 0.00399606,0.00902756 0.00719291,0.0126929 0.00319685,0.00366929 0.00724016,0.00662992 0.0121299,0.00888583 0.00488976,0.00225591 0.0107205,0.00338583 0.0174882,0.00338583l0.0172087 0zm0.0538504 -0.171232l0 -0.0304646 -0.0304646 0 0 0.0304646 0.0304646 0zm-0.000846457 0.171232l0 -0.143024 -0.0287717 0 0 0.143024 0.0287717 0zm0.149201 0l0 -0.0913976c0,-0.00808661 -0.00103543,-0.0154685 -0.00310236,-0.0221457 -0.00207087,-0.00667717 -0.00583071,-0.0127402 -0.0112835,-0.0181929 -0.00432677,-0.0041378 -0.00945276,-0.00733465 -0.015378,-0.00959449 -0.00592126,-0.00225591 -0.0125512,-0.00338189 -0.0198858,-0.00338189 -0.00714567,0 -0.0140591,0.00131496 -0.0207323,0.00394882 -0.00667717,0.00262992 -0.0124606,0.00667323 -0.0173504,0.0121299l0 -0.0143898 -0.0282087 0 0 0.143024 0.0287717 0 0 -0.0871654c0,-0.0109094 0.00291732,-0.0189488 0.00874803,-0.024122 0.00582677,-0.00516929 0.0127874,-0.00775591 0.020874,-0.00775591 0.00808661,0 0.0149016,0.00253937 0.0204528,0.00761417 0.00554724,0.00507874 0.0083189,0.0131654 0.0083189,0.0242638l0 0.0871654 0.0287756 0zm0.141016 -0.000846457l0 -0.142177 -0.0279252 0 0 0.0152362c-0.00545669,-0.00658268 -0.0111457,-0.0110512 -0.0170669,-0.0134016 -0.0059252,-0.00235039 -0.0127441,-0.00352362 -0.0204528,-0.00352362 -0.0146693,0 -0.0261417,0.00413386 -0.0344173,0.0124094 -0.00695669,0.00696063 -0.011378,0.0153268 -0.0132559,0.0251063 -0.00188189,0.00977953 -0.00282283,0.0207835 -0.00282283,0.0330079 0,0.0122205 0.000940945,0.0232244 0.00282283,0.0330039 0.00187795,0.00977953 0.00629921,0.0181457 0.0132559,0.0251063 0.00394882,0.00394882 0.00883858,0.00705118 0.0146693,0.00930709 0.00583071,0.00225984 0.0123189,0.00338583 0.0194646,0.00338583 0.00733465,0 0.0140118,-0.00117323 0.0200315,-0.00352362 0.00601575,-0.00235433 0.0116575,-0.00662992 0.0169252,-0.0128386l0 0.0183386c0,0.00488976 -0.000614173,0.00949606 -0.00183465,0.0138228 -0.00122441,0.00432283 -0.00319685,0.0081811 -0.0059252,0.011563 -0.00272441,0.00338583 -0.00620472,0.00606693 -0.010437,0.00804331 -0.00423228,0.00197244 -0.00935433,0.00296063 -0.015374,0.00296063 -0.00714567,0 -0.0129764,-0.00103543 -0.0174882,-0.00310236 -0.00451575,-0.00207087 -0.00902756,-0.00526772 -0.0135433,-0.00959055l-0.0183346 0.0183346c0.00752362,0.00695669 0.0150906,0.0118465 0.0227087,0.0146693 0.00761811,0.0028189 0.016878,0.00423228 0.0277874,0.00423228 0.00959055,0 0.0181457,-0.00150787 0.0256693,-0.00451575 0.00752362,-0.00300787 0.0139173,-0.00719291 0.0191811,-0.0125512 0.00526772,-0.0053622 0.00931102,-0.0117087 0.0121299,-0.0190433 0.00282283,-0.00733465 0.00423228,-0.0154213 0.00423228,-0.0242598zm-0.0287717 -0.0733425c0,0.00564173 -0.000283465,0.0111417 -0.000846457,0.0165 -0.000566929,0.0053622 -0.00188189,0.0101575 -0.00394882,0.0143858 -0.00207087,0.00423228 -0.0050315,0.00761811 -0.00888583,0.0101575 -0.00385827,0.00253937 -0.00898031,0.00380709 -0.015378,0.00380709 -0.00657874,0 -0.0117992,-0.00126772 -0.0156535,-0.00380709 -0.00385433,-0.00253937 -0.00677165,-0.0059252 -0.00874409,-0.0101575 -0.00197638,-0.00422835 -0.00329134,-0.00902362 -0.00395276,-0.0143858 -0.00065748,-0.00535827 -0.000984252,-0.0108583 -0.000984252,-0.0165 0,-0.00564567 0.000326772,-0.0111457 0.000984252,-0.0165039 0.000661417,-0.0053622 0.00197638,-0.0101575 0.00395276,-0.0143858 0.00197244,-0.00423228 0.00488976,-0.00761811 0.00874409,-0.0101575 0.00385433,-0.00253937 0.0090748,-0.00380709 0.0156535,-0.00380709 0.00639764,0 0.0115197,0.00126772 0.015378,0.00380709 0.00385433,0.00253937 0.00681496,0.0059252 0.00888583,0.0101575 0.00206693,0.00422835 0.00338189,0.00902362 0.00394882,0.0143858 0.000562992,0.00535827 0.000846457,0.0108583 0.000846457,0.0165039zm0.26965 0.0141024l-0.030748 0c-0.00244488,0.0101575 -0.00705118,0.0184291 -0.0138228,0.0248228 -0.00676772,0.00639764 -0.0157953,0.00959449 -0.0270787,0.00959449 -0.00601969,0 -0.0115669,-0.00108268 -0.0166457,-0.00324409 -0.00507874,-0.00216535 -0.00940157,-0.00512598 -0.0129764,-0.00888583 -0.00244488,-0.00263386 -0.00446457,-0.00550394 -0.00606299,-0.0086063 -0.00159843,-0.00310236 -0.00282283,-0.00695669 -0.00366929,-0.011563 -0.000846457,-0.00461024 -0.00145669,-0.0102992 -0.00183465,-0.0170669 -0.000374016,-0.00677165 -0.000562992,-0.0152362 -0.000562992,-0.0253898 0,-0.0101575 0.000188976,-0.0186181 0.000562992,-0.0253898 0.000377953,-0.00676772 0.000988189,-0.0124567 0.00183465,-0.0170669 0.000846457,-0.0046063 0.00207087,-0.00846063 0.00366929,-0.011563 0.00159843,-0.0031063 0.00361811,-0.00597244 0.00606299,-0.0086063 0.0035748,-0.00375984 0.00789764,-0.00672441 0.0129764,-0.00888583 0.00507874,-0.00216142 0.010626,-0.00324409 0.0166457,-0.00324409 0.0112835,0 0.0202638,0.00319685 0.026937,0.00959055 0.00667717,0.0063937 0.0112402,0.0146693 0.0136811,0.0248268l0.0310315 0c-0.00357087,-0.020126 -0.011752,-0.0354528 -0.0245433,-0.0459843 -0.0127874,-0.0105315 -0.0284882,-0.0157953 -0.0471063,-0.0157953 -0.0105315,0 -0.0202165,0.00183465 -0.0290591,0.0055 -0.00883858,0.00366929 -0.0167362,0.00898031 -0.0236929,0.015937 -0.00488976,0.00488976 -0.00865354,0.010063 -0.0112835,0.0155157 -0.00263386,0.00545669 -0.00456299,0.011378 -0.00578346,0.0177717 -0.00122441,0.0063937 -0.00192913,0.0134961 -0.00211811,0.0212992 -0.000185039,0.00780315 -0.000279528,0.0165039 -0.000279528,0.0260945 0,0.00959055 9.44882e-005,0.0182874 0.000279528,0.0260945 0.000188976,0.00780315 0.000893701,0.0149016 0.00211811,0.0212953 0.00122047,0.00639764 0.00314961,0.0123189 0.00578346,0.0177717 0.00262992,0.00545669 0.0063937,0.010626 0.0112835,0.0155157 0.00695669,0.00696063 0.0148543,0.0122717 0.0236929,0.0159409 0.00884252,0.00366535 0.0185276,0.0055 0.0290591,0.0055 0.00902362,0 0.0175354,-0.00131496 0.0255276,-0.00394882 0.00799213,-0.00263386 0.0151378,-0.00658268 0.0214409,-0.0118504 0.00629921,-0.00526378 0.011563,-0.011752 0.0157953,-0.0194646 0.00423228,-0.00770866 0.00719291,-0.0165472 0.00888583,-0.0265157zm0.13735 -0.0115669c0,-0.0120354 -0.00112992,-0.0226142 -0.00338583,-0.0317323 -0.00225591,-0.00912205 -0.00677165,-0.0172559 -0.0135394,-0.0244016 -0.00470079,-0.00488976 -0.0105787,-0.00893307 -0.0176299,-0.0121299 -0.00705512,-0.00319685 -0.0154685,-0.00479528 -0.025248,-0.00479528 -0.00977953,0 -0.0181496,0.00159843 -0.0251063,0.00479528 -0.00696063,0.00319685 -0.0127913,0.00724016 -0.0174921,0.0121299 -0.00676772,0.00714567 -0.0112835,0.0152795 -0.0135394,0.0244016 -0.00225591,0.00911811 -0.00338583,0.0196969 -0.00338583,0.0317323 0,0.0122244 0.00112992,0.0228976 0.00338583,0.0320197 0.00225591,0.00912205 0.00677165,0.0172559 0.0135394,0.0244016 0.00470079,0.00488976 0.0105315,0.00893307 0.0174921,0.0121299 0.00695669,0.00319685 0.0153268,0.00479528 0.0251063,0.00479528 0.00977953,0 0.0181929,-0.00159843 0.025248,-0.00479528 0.00705118,-0.00319685 0.0129291,-0.00724016 0.0176299,-0.0121299 0.00676772,-0.00714567 0.0112835,-0.0152795 0.0135394,-0.0244016 0.00225591,-0.00912205 0.00338583,-0.0197953 0.00338583,-0.0320197zm-0.0287756 0c0,0.00790157 -0.000562992,0.0153268 -0.00168898,0.0222874 -0.00112992,0.00695669 -0.00385827,0.0125984 -0.0081811,0.0169252 -0.00564173,0.00564173 -0.0126969,0.00846457 -0.0211575,0.00846457 -0.00827559,0 -0.0152323,-0.00282283 -0.020878,-0.00846457 -0.00432283,-0.00432677 -0.00705118,-0.0099685 -0.00817717,-0.0169252 -0.00112992,-0.00696063 -0.00169291,-0.0143858 -0.00169291,-0.0222874 0,-0.00789764 0.000562992,-0.0153268 0.00169291,-0.0222835 0.00112598,-0.00696063 0.00385433,-0.0126024 0.00817717,-0.0169252 0.00545669,-0.00545669 0.0124134,-0.0081811 0.020878,-0.0081811 0.00864961,0 0.0157008,0.00272441 0.0211575,0.0081811 0.00432283,0.00432283 0.00705118,0.00996457 0.0081811,0.0169252 0.00112598,0.00695669 0.00168898,0.0143858 0.00168898,0.0222835zm0.171205 0.0716535l0 -0.0913976c0,-0.00808661 -0.00103543,-0.0154685 -0.00310236,-0.0221457 -0.00207087,-0.00667717 -0.00583071,-0.0127402 -0.0112835,-0.0181929 -0.00432677,-0.0041378 -0.00945276,-0.00733465 -0.015378,-0.00959449 -0.00592126,-0.00225591 -0.0125512,-0.00338189 -0.0198858,-0.00338189 -0.00714567,0 -0.0140591,0.00131496 -0.0207323,0.00394882 -0.00667717,0.00262992 -0.0124606,0.00667323 -0.0173504,0.0121299l0 -0.0143898 -0.0282087 0 0 0.143024 0.0287717 0 0 -0.0871654c0,-0.0109094 0.00291732,-0.0189488 0.00874803,-0.024122 0.00582677,-0.00516929 0.0127874,-0.00775591 0.020874,-0.00775591 0.00808661,0 0.0149016,0.00253937 0.0204528,0.00761417 0.00554724,0.00507874 0.0083189,0.0131654 0.0083189,0.0242638l0 0.0871654 0.0287756 0zm0.13763 -0.0437244c0,-0.0127874 -0.0037126,-0.0224252 -0.0111417,-0.0289134 -0.00742913,-0.00648819 -0.0179134,-0.0102992 -0.0314528,-0.0114252l-0.0225669 -0.00197638c-0.0077126,-0.000751969 -0.0129291,-0.00258661 -0.0156575,-0.0055 -0.00272835,-0.00291339 -0.00409055,-0.00653543 -0.00409055,-0.0108622 0,-0.00545276 0.00216142,-0.00987008 0.00648819,-0.0132559 0.00432677,-0.00338583 0.010815,-0.00507874 0.0194646,-0.00507874 0.00677165,0 0.0132126,0.000799213 0.0193228,0.00239764 0.00611417,0.00159843 0.0114252,0.00427953 0.0159409,0.00803937l0.0180512 -0.0183346c-0.00658268,-0.00583071 -0.0143858,-0.0099685 -0.0234134,-0.0124134 -0.00902756,-0.00244488 -0.0189016,-0.00366535 -0.0296181,-0.00366535 -0.00752362,0 -0.0145276,0.000984252 -0.0210157,0.00296063 -0.00648819,0.00197244 -0.0121772,0.00479528 -0.0170669,0.00846063 -0.00488976,0.00366929 -0.00874803,0.00822835 -0.0115669,0.013685 -0.00282283,0.00545276 -0.00423228,0.0116575 -0.00423228,0.0186181 0,0.0125984 0.00366929,0.0220472 0.0110039,0.0283504 0.00733465,0.00629921 0.0177717,0.0100118 0.031311,0.0111417l0.0228504 0.00197244c0.00695669,0.000566929 0.0118937,0.00230709 0.014811,0.00522047 0.00291339,0.00291339 0.00437008,0.0068189 0.00437008,0.0117087 0,0.00676772 -0.00300787,0.011752 -0.00902756,0.0149488 -0.00601575,0.00319685 -0.0134449,0.00479528 -0.0222835,0.00479528 -0.00714567,0 -0.0143425,-0.000988189 -0.0215827,-0.00296063 -0.00724016,-0.00197638 -0.0137756,-0.00597244 -0.0196024,-0.0119882l-0.0189016 0.0188976c0.00846063,0.00827559 0.0176772,0.0137756 0.0276457,0.0165039 0.00996457,0.00272835 0.0207795,0.00409055 0.0324409,0.00409055 0.00846063,0 0.0163622,-0.000940945 0.0236969,-0.00282283 0.00733071,-0.00187795 0.0136339,-0.00474803 0.0188976,-0.00860236 0.00526772,-0.00385433 0.00940551,-0.00860236 0.0124134,-0.0142441 0.00300787,-0.00564173 0.00451181,-0.0122244 0.00451181,-0.019748zm0.137071 0.0437244l0 -0.143024 -0.0287756 0 0 0.0871693c0,0.00545276 -0.000799213,0.0102008 -0.00239764,0.0142441 -0.00159843,0.00404331 -0.0037126,0.00738189 -0.00634646,0.0100157 -0.00263386,0.00263386 -0.00578346,0.00455906 -0.00945276,0.00578346 -0.00366535,0.00122047 -0.00747244,0.00183465 -0.0114213,0.00183465 -0.00808661,0 -0.0149055,-0.00253937 -0.0204528,-0.00761811 -0.00554724,-0.00507874 -0.00832283,-0.0131654 -0.00832283,-0.0242598l0 -0.0871693 -0.0287717 0 0 0.0914016c0,0.00808661 0.0010315,0.0154685 0.00310236,0.0221417 0.00206693,0.00667717 0.00583071,0.0127441 0.0112835,0.0181969 0.00432283,0.0041378 0.00944882,0.00733465 0.015374,0.00959055 0.0059252,0.00225591 0.0125512,0.00338583 0.0198858,0.00338583 0.00714567,0 0.0140591,-0.00131496 0.0207362,-0.00394882 0.00667323,-0.00263386 0.0124567,-0.00667717 0.0173465,-0.0121299l0 0.0143858 0.0282126 0zm0.0893937 0l0 -0.0245433 -0.0126969 0c-0.00583071,0 -0.00987402,-0.00140945 -0.0121299,-0.00423228 -0.00225591,-0.0028189 -0.00338583,-0.00695669 -0.00338583,-0.0124094l0 -0.159665 -0.0287717 0 0 0.161358c0,0.00526378 0.000751969,0.0102953 0.00225591,0.0150906 0.00150394,0.00479528 0.00385433,0.00898031 0.00705118,0.0125551 0.00319685,0.00357087 0.0072874,0.00644094 0.0122717,0.00860236 0.00498425,0.00216142 0.0108622,0.00324409 0.0176299,0.00324409l0.0177756 0zm0.0789567 0l0 -0.0245433 -0.0118465 0c-0.00545669,0 -0.00945276,-0.00145669 -0.0119921,-0.00437008 -0.00253543,-0.00291732 -0.00380709,-0.00700787 -0.00380709,-0.0122717l0 -0.0772953 0.0276457 0 0 -0.0220039 -0.0276457 0 0 -0.0434409 -0.0287717 0 0 0.0434409 -0.0163622 0 0 0.0220039 0.0163622 0 0 0.0787047c0,0.00507874 0.000799213,0.0100157 0.00239764,0.014811 0.00159843,0.00479528 0.00399606,0.00902756 0.00719291,0.0126929 0.00319685,0.00366929 0.00724016,0.00662992 0.0121299,0.00888583 0.00488976,0.00225591 0.0107205,0.00338583 0.0174882,0.00338583l0.0172087 0zm0.128043 0l0 -0.0956299c0,-0.0327244 -0.0196535,-0.0490827 -0.0589567,-0.0490827 -0.0118504,0 -0.0216772,0.00145669 -0.0294803,0.00437008 -0.00780315,0.00291732 -0.0150906,0.00832283 -0.0218622,0.0162205l0.0189016 0.0177717c0.00394882,-0.00507874 0.0081811,-0.00864961 0.0126929,-0.0107205 0.00451575,-0.00206693 0.0107205,-0.00310236 0.0186181,-0.00310236 0.0112835,0 0.0193228,0.0022126 0.0241181,0.00662992 0.00479528,0.00442126 0.00719685,0.0111417 0.00719685,0.0201693l0 0.0101575 -0.0378031 0c-0.0165472,0 -0.0289134,0.00385433 -0.0370945,0.011563 -0.0081811,0.0077126 -0.0122717,0.0175866 -0.0122717,0.029622 0,0.0125984 0.00375984,0.0228504 0.0112835,0.030748 0.00432677,0.00432677 0.00954331,0.00757087 0.0156575,0.00973228 0.00611024,0.00216142 0.0136811,0.00324409 0.0227087,0.00324409 0.00883858,0 0.0160787,-0.00112992 0.0217205,-0.00338583 0.00564173,-0.00225591 0.0110945,-0.00601575 0.0163622,-0.0112835l0 0.0129764 0.0282087 0zm-0.0287717 -0.051622c0,0.00996457 -0.00207087,0.0170197 -0.00620866,0.0211575 -0.00375984,0.00375984 -0.00780315,0.00606299 -0.0121299,0.00690945 -0.00432677,0.000846457 -0.00921654,0.00126772 -0.0146693,0.00126772 -0.00902756,0 -0.0156535,-0.00173622 -0.0198858,-0.00521654 -0.00423228,-0.00348031 -0.00634646,-0.00851181 -0.00634646,-0.0150906 0,-0.00658268 0.00216142,-0.0116614 0.00648819,-0.0152362 0.00432283,-0.00357087 0.0107165,-0.00535827 0.0191811,-0.00535827l0.0335709 0 0 0.0115669zm0.176563 0.051622l0 -0.0913976c0,-0.00808661 -0.00103543,-0.0154685 -0.00310236,-0.0221457 -0.00207087,-0.00667717 -0.00583071,-0.0127402 -0.0112835,-0.0181929 -0.00432677,-0.0041378 -0.00945276,-0.00733465 -0.015378,-0.00959449 -0.00592126,-0.00225591 -0.0125512,-0.00338189 -0.0198858,-0.00338189 -0.00714567,0 -0.0140591,0.00131496 -0.0207323,0.00394882 -0.00667717,0.00262992 -0.0124606,0.00667323 -0.0173504,0.0121299l0 -0.0143898 -0.0282087 0 0 0.143024 0.0287717 0 0 -0.0871654c0,-0.0109094 0.00291732,-0.0189488 0.00874803,-0.024122 0.00582677,-0.00516929 0.0127874,-0.00775591 0.020874,-0.00775591 0.00808661,0 0.0149016,0.00253937 0.0204528,0.00761417 0.00554724,0.00507874 0.0083189,0.0131654 0.0083189,0.0242638l0 0.0871654 0.0287756 0zm0.135374 -0.0186181l-0.019748 -0.0189016c-0.00451181,0.00488976 -0.00879134,0.00837008 -0.0128346,0.010437 -0.00404331,0.00207087 -0.00888583,0.0031063 -0.0145276,0.0031063 -0.0112835,0 -0.020122,-0.00423228 -0.0265157,-0.0126969 -0.00319685,-0.00394882 -0.00540551,-0.00864961 -0.00662992,-0.0141024 -0.00122047,-0.00545669 -0.00183465,-0.0124134 -0.00183465,-0.020878 0,-0.00846063 0.000614173,-0.015374 0.00183465,-0.0207323 0.00122441,-0.00535827 0.00343307,-0.0100157 0.00662992,-0.0139646 0.0063937,-0.00846063 0.0152323,-0.0126929 0.0265157,-0.0126929 0.00564173,0 0.0104843,0.00103543 0.0145276,0.00310236 0.00404331,0.00206693 0.00832283,0.00554724 0.0128346,0.010437l0.019748 -0.0191811c-0.00677165,-0.00714567 -0.0138228,-0.0122717 -0.0211575,-0.015374 -0.00733465,-0.00310236 -0.0159843,-0.00465354 -0.0259528,-0.00465354 -0.00808661,0 -0.015937,0.00131496 -0.0235551,0.00394882 -0.00761417,0.00262992 -0.0143858,0.00681496 -0.020311,0.0125512 -0.00592126,0.00573622 -0.0107165,0.0132598 -0.0143858,0.0225669 -0.00366535,0.00931102 -0.0055,0.0206417 -0.0055,0.0339921 0,0.0133543 0.00183465,0.024685 0.0055,0.0339921 0.00366929,0.00931102 0.00846457,0.0168819 0.0143858,0.0227087 0.0059252,0.00583071 0.0126969,0.010063 0.020311,0.0126969 0.00761811,0.00263386 0.0154685,0.00394882 0.0235551,0.00394882 0.0099685,0 0.0186181,-0.00159843 0.0259528,-0.00479528 0.00733465,-0.00319685 0.0143858,-0.00837008 0.0211575,-0.0155157zm0.12889 -0.124406l-0.030752 0 -0.0332835 0.100709 -0.0341339 -0.100709 -0.0304685 0 0.0499331 0.136252 -0.00790157 0.0222874c-0.00206693,0.00583071 -0.00451181,0.00982677 -0.00733465,0.0119882 -0.0028189,0.00216142 -0.00724016,0.00324409 -0.0132559,0.00324409l-0.00733465 0 0 0.0259528 0.0115669 0c0.00545276,0 0.0107165,-0.000751969 0.0157953,-0.00225591 0.00507874,-0.00150394 0.00959055,-0.00423228 0.0135394,-0.0081811 0.00432677,-0.00432677 0.00780709,-0.010248 0.010437,-0.0177717l0.0631929 -0.171516z"/>
  </g>
 </g>
</svg>
